<svg width="1600" height="499" fill="none" xmlns="http://www.w3.org/2000/svg">
    <path fill="#021B49" d="M0 0h1600v499H0z"/>
    <path fill-rule="evenodd" clip-rule="evenodd" d="M1075.95 36.927c-.3-.921-1.6-.921-1.9 0l-.17.528a.998.998 0 0 1-.95.69h-.56c-.96 0-1.37 1.24-.58 1.81l.45.326c.35.255.49.706.36 1.118l-.17.528c-.3.921.75 1.688 1.54 1.118l.44-.326c.36-.255.83-.255 1.18 0l.45.326c.78.57 1.84-.197 1.54-1.118l-.17-.528a.99.99 0 0 1 .36-1.118l.45-.326c.78-.57.38-1.81-.59-1.81h-.55a.989.989 0 0 1-.95-.69l-.18-.528zm151 32c-.3-.921-1.6-.921-1.9 0l-.84 2.6c-.14.413-.52.692-.95.692h-2.74c-.97 0-1.37 1.24-.59 1.809l2.22 1.607c.35.255.49.706.36 1.118l-.85 2.601c-.3.921.76 1.688 1.54 1.118l2.21-1.607c.36-.255.83-.255 1.18 0l2.21 1.607c.79.57 1.84-.197 1.54-1.118l-.84-2.6a.99.99 0 0 1 .36-1.119l2.21-1.607c.79-.57.38-1.81-.59-1.81h-2.73a.998.998 0 0 1-.95-.69l-.85-2.6zm-967.901 73c.299-.921 1.602-.921 1.902 0l1.743 5.365a1 1 0 0 0 .951.691h5.641c.969 0 1.371 1.239.588 1.809l-4.564 3.315a1 1 0 0 0-.363 1.118l1.743 5.365c.299.921-.755 1.688-1.539 1.118l-4.563-3.315a1 1 0 0 0-1.176 0l-4.564 3.315c-.783.57-1.838-.197-1.538-1.118l1.743-5.365a1 1 0 0 0-.364-1.118l-4.563-3.315c-.784-.57-.381-1.809.588-1.809h5.64a1 1 0 0 0 .952-.691l1.743-5.365zm202.402 86c-.3-.921-1.603-.921-1.902 0l-.958 2.946a1 1 0 0 1-.951.691h-3.098c-.968 0-1.371 1.24-.588 1.809l2.507 1.821a1 1 0 0 1 .363 1.118l-.957 2.947c-.3.921.755 1.687 1.539 1.118l2.506-1.821a.998.998 0 0 1 1.175 0l2.507 1.821c.783.569 1.838-.197 1.539-1.118l-.958-2.947a1 1 0 0 1 .363-1.118l2.507-1.821c.783-.569.381-1.809-.588-1.809h-3.098a1 1 0 0 1-.951-.691l-.957-2.946zm343.503 221c-.3-.921-1.603-.921-1.902 0l-1.743 5.365a1 1 0 0 1-.952.691h-5.64c-.969 0-1.372 1.239-.588 1.809l4.563 3.315a1 1 0 0 1 .364 1.118l-1.743 5.365c-.3.922.755 1.688 1.538 1.118l4.564-3.315a.998.998 0 0 1 1.175 0l4.564 3.315c.784.57 1.838-.196 1.539-1.118l-1.743-5.365a1 1 0 0 1 .363-1.118l4.564-3.315c.783-.57.38-1.809-.588-1.809h-5.641a1 1 0 0 1-.951-.691l-1.743-5.365zm492.096-266c.3-.921 1.6-.921 1.9 0l1.75 5.365c.13.412.51.691.95.691h5.64c.97 0 1.37 1.239.59 1.809l-4.57 3.315c-.35.255-.49.706-.36 1.118l1.74 5.365c.3.921-.75 1.688-1.54 1.118l-4.56-3.315a1.006 1.006 0 0 0-1.18 0l-4.56 3.315c-.78.57-1.84-.197-1.54-1.118l1.75-5.365a1.01 1.01 0 0 0-.37-1.118l-4.56-3.315c-.78-.57-.38-1.809.59-1.809h5.64c.43 0 .81-.279.95-.691l1.74-5.365zm-160.1 62c-.3-.921-1.6-.921-1.9 0l-1.74 5.365c-.14.412-.52.691-.95.691h-5.64c-.97 0-1.37 1.239-.59 1.809l4.56 3.315c.35.255.5.706.37 1.118l-1.75 5.365c-.3.921.76 1.688 1.54 1.118l4.56-3.315c.36-.255.83-.255 1.18 0l4.56 3.315c.79.57 1.84-.197 1.54-1.118l-1.74-5.365c-.13-.412.01-.863.36-1.118l4.57-3.315c.78-.57.38-1.809-.59-1.809h-5.64a.989.989 0 0 1-.95-.691l-1.75-5.365zm-57.9 192c.3-.921 1.6-.921 1.9 0l1.75 5.365c.13.412.51.691.95.691h5.64c.97 0 1.37 1.239.59 1.809l-4.57 3.315c-.35.255-.49.706-.36 1.118l1.74 5.365c.3.922-.75 1.688-1.54 1.118l-4.56-3.315a.99.99 0 0 0-1.17 0l-4.57 3.315c-.78.57-1.84-.196-1.54-1.118l1.75-5.365a1.01 1.01 0 0 0-.37-1.118l-4.56-3.315c-.78-.57-.38-1.809.59-1.809h5.64c.43 0 .81-.279.95-.691l1.74-5.365zm195.9-72c-.3-.921-1.6-.921-1.9 0l-1.74 5.365c-.14.412-.52.691-.95.691h-5.64c-.97 0-1.37 1.239-.59 1.809l4.56 3.315c.35.255.5.706.37 1.118l-1.75 5.365c-.3.921.76 1.688 1.54 1.118l4.57-3.315a.99.99 0 0 1 1.17 0l4.56 3.315c.79.57 1.84-.197 1.54-1.118l-1.74-5.365c-.13-.412.01-.863.36-1.118l4.57-3.315c.78-.57.38-1.809-.59-1.809h-5.64a.989.989 0 0 1-.95-.691l-1.75-5.365zm111.1-101c.3-.921 1.6-.921 1.9 0l1.75 5.365c.13.412.51.691.95.691h5.64c.97 0 1.37 1.239.59 1.809l-4.57 3.315c-.35.255-.49.706-.36 1.118l1.74 5.365c.3.921-.75 1.688-1.54 1.118l-4.56-3.315a.99.99 0 0 0-1.17 0l-4.57 3.315c-.78.57-1.84-.197-1.54-1.118l1.75-5.365a1.01 1.01 0 0 0-.37-1.118l-4.56-3.315c-.78-.57-.38-1.809.59-1.809h5.64c.43 0 .81-.279.95-.691l1.74-5.365zm-1015.099 152c-.3-.921-1.603-.921-1.902 0l-1.743 5.365a1 1 0 0 1-.951.691h-5.641c-.969 0-1.372 1.239-.588 1.809l4.563 3.315a1 1 0 0 1 .364 1.118l-1.743 5.365c-.3.921.755 1.688 1.538 1.118l4.564-3.315a1 1 0 0 1 1.176 0l4.563 3.315c.784.57 1.838-.197 1.539-1.118l-1.743-5.365a1 1 0 0 1 .363-1.118l4.564-3.315c.783-.57.381-1.809-.588-1.809h-5.641a1 1 0 0 1-.951-.691l-1.743-5.365zm-166.902-67c.299-.921 1.603-.921 1.902 0l1.743 5.365a1 1 0 0 0 .951.691h5.641c.969 0 1.371 1.239.588 1.809l-4.564 3.315a1 1 0 0 0-.363 1.118l1.743 5.365c.299.921-.755 1.688-1.539 1.118l-4.563-3.315a1 1 0 0 0-1.176 0l-4.563 3.315c-.784.57-1.839-.197-1.539-1.118l1.743-5.365a1 1 0 0 0-.363-1.118l-4.564-3.315c-.784-.57-.381-1.809.588-1.809h5.641a1 1 0 0 0 .951-.691l1.743-5.365zm299.902-4c-.299-.921-1.603-.921-1.902 0l-1.743 5.365a1 1 0 0 1-.951.691h-5.641c-.969 0-1.372 1.239-.588 1.809l4.564 3.315a1 1 0 0 1 .363 1.118l-1.743 5.365c-.3.921.755 1.688 1.539 1.118l4.563-3.315a1 1 0 0 1 1.176 0l4.563 3.315c.784.57 1.839-.197 1.539-1.118l-1.743-5.365a1 1 0 0 1 .363-1.118l4.564-3.315c.784-.57.381-1.809-.588-1.809h-5.641a1 1 0 0 1-.951-.691l-1.743-5.365zm944.099 69c.3-.921 1.6-.921 1.9 0l1.75 5.365c.13.412.51.691.95.691h5.64c.97 0 1.37 1.239.59 1.809l-4.57 3.315c-.35.255-.49.706-.36 1.118l1.74 5.365c.3.921-.75 1.688-1.54 1.118l-4.56-3.315a.99.99 0 0 0-1.17 0l-4.57 3.315c-.78.57-1.84-.197-1.54-1.118l1.75-5.365a1.01 1.01 0 0 0-.37-1.118l-4.56-3.315c-.78-.57-.38-1.809.59-1.809h5.64c.43 0 .81-.279.95-.691l1.74-5.365zM713.54 191.717c-.22-.677-1.178-.677-1.398 0a.737.737 0 0 1-.7.509c-.712 0-1.008.911-.432 1.33a.734.734 0 0 1 .267.822c-.22.677.555 1.241 1.132.822a.735.735 0 0 1 .864 0c.576.419 1.352-.145 1.132-.822a.734.734 0 0 1 .267-.822c.576-.419.28-1.33-.432-1.33a.737.737 0 0 1-.7-.509zm-565.15 2.21c.3-.921 1.603-.921 1.902 0l.698 2.146a1 1 0 0 0 .951.691h2.257c.968 0 1.371 1.24.587 1.809l-1.825 1.327a.999.999 0 0 0-.364 1.118l.698 2.146c.299.921-.755 1.687-1.539 1.118l-1.826-1.326a.998.998 0 0 0-1.175 0l-1.826 1.326c-.784.569-1.838-.197-1.539-1.118l.697-2.146a.999.999 0 0 0-.363-1.118l-1.825-1.327c-.784-.569-.381-1.809.587-1.809h2.257a1 1 0 0 0 .951-.691l.697-2.146zm249.903 64c-.299-.921-1.602-.921-1.902 0l-.697 2.146a1 1 0 0 1-.951.691h-2.257c-.969 0-1.371 1.24-.588 1.809l1.826 1.327a.999.999 0 0 1 .363 1.118l-.697 2.146c-.299.921.755 1.687 1.539 1.118l1.826-1.326a.998.998 0 0 1 1.175 0l1.826 1.326c.783.569 1.838-.197 1.539-1.118l-.698-2.146a.999.999 0 0 1 .364-1.118l1.825-1.327c.784-.569.381-1.809-.588-1.809h-2.256a1 1 0 0 1-.951-.691l-.698-2.146zm-114.148 18c.299-.921 1.603-.921 1.902 0l.193.594a1 1 0 0 0 .951.691h.625c.969 0 1.372 1.24.588 1.809l-.506.368a1 1 0 0 0-.363 1.118l.193.594c.3.921-.755 1.687-1.539 1.118l-.505-.367a1 1 0 0 0-1.176 0l-.505.367c-.784.569-1.838-.197-1.539-1.118l.193-.594a1 1 0 0 0-.363-1.118l-.506-.368c-.783-.569-.381-1.809.588-1.809h.625a1 1 0 0 0 .951-.691l.193-.594zM537.99 456.871c.299-.921 1.603-.921 1.902 0l.697 2.147a1 1 0 0 0 .951.691h2.257c.969 0 1.371 1.239.588 1.809l-1.826 1.326a1 1 0 0 0-.363 1.118l.697 2.146c.3.922-.755 1.688-1.539 1.118l-1.825-1.326a1 1 0 0 0-1.176 0l-1.826 1.326c-.783.57-1.838-.196-1.538-1.118l.697-2.146a1 1 0 0 0-.363-1.118l-1.826-1.326c-.784-.57-.381-1.809.588-1.809h2.256a.998.998 0 0 0 .951-.691l.698-2.147zm272.698-243.845c-.299-.921-1.603-.921-1.902 0l-.121.373a1 1 0 0 1-.951.691h-.392c-.969 0-1.371 1.24-.588 1.809l.317.23a1 1 0 0 1 .364 1.118l-.121.373c-.3.921.755 1.687 1.538 1.118l.317-.23a1 1 0 0 1 1.176 0l.317.23c.784.569 1.838-.197 1.539-1.118l-.121-.373a.999.999 0 0 1 .363-1.118l.317-.23c.784-.569.381-1.809-.588-1.809h-.392a1 1 0 0 1-.951-.691l-.121-.373zm44.3 73.154c.3-.921 1.603-.921 1.902 0l.698 2.146a1 1 0 0 0 .951.691h2.256c.969 0 1.372 1.24.588 1.809l-1.826 1.327a1 1 0 0 0-.363 1.118l.698 2.146c.299.921-.756 1.687-1.539 1.118l-1.826-1.327a1.001 1.001 0 0 0-1.175 0l-1.826 1.327c-.784.569-1.838-.197-1.539-1.118l.697-2.146a.999.999 0 0 0-.363-1.118l-1.826-1.327c-.783-.569-.38-1.809.588-1.809h2.257a1 1 0 0 0 .951-.691l.697-2.146zm-102.053 39.785c-.299-.921-1.602-.921-1.902 0l-.697 2.146a1 1 0 0 1-.951.691h-2.257c-.968 0-1.371 1.24-.588 1.809l1.826 1.327a.999.999 0 0 1 .363 1.118l-.697 2.146c-.299.921.755 1.687 1.539 1.118l1.826-1.326a.998.998 0 0 1 1.175 0l1.826 1.326c.784.569 1.838-.197 1.539-1.118l-.698-2.146a.999.999 0 0 1 .364-1.118l1.825-1.327c.784-.569.381-1.809-.588-1.809h-2.256a1 1 0 0 1-.951-.691l-.698-2.146zm-37.837 123.206c.3-.921 1.603-.921 1.902 0l.698 2.146a1 1 0 0 0 .951.691h2.256c.969 0 1.372 1.24.588 1.809l-1.825 1.327a.999.999 0 0 0-.364 1.118l.698 2.146c.299.921-.755 1.687-1.539 1.118l-1.826-1.326a.998.998 0 0 0-1.175 0l-1.826 1.326c-.784.569-1.838-.197-1.539-1.118l.697-2.146a.999.999 0 0 0-.363-1.118l-1.826-1.327c-.783-.569-.38-1.809.588-1.809h2.257a1 1 0 0 0 .951-.691l.697-2.146z" fill="#fff" fill-opacity=".3"/>
    <path fill-rule="evenodd" clip-rule="evenodd" d="M720 499v-66.195L121 1h1358L880 432.805V499H720z" fill="#FFCE84"/>
    <path d="m756.065 280.485.355-.353-.354-.355-2.909-2.908a.309.309 0 1 1 .437-.438l2.903 2.903.353.353.354-.353 2.902-2.903a.31.31 0 0 1 .438.438l-2.909 2.908-.354.355.355.353 2.907 2.897a.309.309 0 0 1-.436.437l-2.903-2.903-.354-.354-.353.354-2.903 2.903a.31.31 0 0 1-.438-.002l-.355.352.355-.352a.309.309 0 0 1 .002-.435l2.907-2.897z" fill="#2C4470" stroke="#2C4470"/>
    <circle cx="756.741" cy="265.741" r="4.141" stroke="#2C4470" stroke-width="1.2"/>
    <circle cx="779.256" cy="288.259" r="4.141" stroke="#2C4470" stroke-width="1.2"/>
    <path d="m775.227 263.345.245-.326.245.326 5.588 7.45a.31.31 0 0 1-.061.431.309.309 0 0 1-.432-.061l-3.839-5.119-.959-1.279.059 1.598c.011.302.012.603.012.917 0 13.026-10.365 23.653-23.29 24.072a.29.29 0 0 1-.295-.296c0-.165.138-.317.328-.324 12.586-.435 22.639-10.759 22.639-23.452 0-.568-.025-1.127-.065-1.68l-.097-1.333-.802 1.069-4.37 5.827a.309.309 0 0 1-.432.061.31.31 0 0 1-.061-.431l5.587-7.45zM844.97 272.586l-.168.055-.095.149-2.288 3.563-.196.306.229.281 7.584 9.276v.722l-1.981 2.289h-1.069l-9.327-7.659-.329-.27-.319.281-8.694 7.648h-.748l-1.987-1.967v-.73l7.746-8.73.253-.286-.209-.32-2.272-3.466-.124-.189-.223-.032-3.103-.443-3.05-6.681 2.359-2.333 6.893 2.89.443 3.066.032.226.192.123 3.379 2.177.268.173.269-.17 3.669-2.31.15-.094.057-.169 1.223-3.636 7.211-2.745.204.201-.642.244-6.331 2.414-.221.084-.075.223-.869 2.577-.099.296.221.219 2.16 2.143.218.216.291-.097 2.603-.86.224-.074.085-.219 2.438-6.273.25-.644.213.21-2.774 7.127-3.671 1.218zm-1.881-2.213-.282-.278-.335.21-4.226 2.653-.533.335.447.444 2.988 2.958.438.434.334-.518 2.692-4.175.22-.341-.289-.285-1.454-1.437zm-11.841 2.943.243.034.175-.17.614-.596.004-.004 1.664-1.647.179-.178-.036-.249-.448-3.104-.041-.28-.261-.109-6.01-2.521-.308-.129-.238.235-.292.29-.359.355.359.356 2.897 2.869-.091.091-.099.097-2.904-2.876-.352-.349-.352.349-.42.416-.247.245.144.317 2.65 5.826.114.249.272.039 3.143.444zm.485.17-.293.291.229.342 1.754 2.622.36.539.43-.486 3.182-3.601.385-.436-.489-.316-2.39-1.54-.337-.218-.285.283-2.546 2.52zm-3.711 15.481h.188l.142-.125 12.673-11.15.402-.354-.38-.376-3.153-3.126-.376-.372-.35.396-11.188 12.621-.125.142v.531l.148.147 1.537 1.521.146.145H828.022zm21.742-2.482v-.178l-.114-.139-7.152-8.73-.331-.404-.39.348-.064.058-.003.002-3.723 3.29-.439.389.453.372 8.947 7.36.138.114h.841l.149-.173 1.566-1.808.122-.141v-.36z" fill="#2C4470" stroke="#2C4470"/>
    <path d="M900.577 280.614h.001c.24.025.46.189.565.449l-.001.001.001.001a.69.69 0 0 1-.088.703h-.001l-.661.804a.704.704 0 0 0 .051.939l1.074 1.068a.71.71 0 0 0 .94.052l.002-.002.808-.657.001-.001a.688.688 0 0 1 .72-.074l.002.001a.703.703 0 0 1 .439.548l.118 1.038a.692.692 0 0 0 .702.616h1.515a.716.716 0 0 0 .702-.612v-.005l.103-1.038a.693.693 0 0 1 .452-.561l.002-.001a.701.701 0 0 1 .708.089l.808.643a.71.71 0 0 0 .942-.051l1.074-1.068a.702.702 0 0 0 .053-.936l-.002-.003-.661-.804h-.001a.677.677 0 0 1-.074-.715l.001-.002a.686.686 0 0 1 .564-.437h.002l1.043-.117a.691.691 0 0 0 .619-.699v-1.522a.714.714 0 0 0-.63-.698l-.003-.001-1.044-.117h-.001a.697.697 0 0 1-.565-.45h.001l-.001-.001a.69.69 0 0 1 .088-.703h.001l.661-.804a.704.704 0 0 0-.051-.939l-1.074-1.068a.71.71 0 0 0-.94-.053l-.002.002-.808.658h-.001a.688.688 0 0 1-.72.075l-.002-.001c-.25-.105-.414-.31-.439-.562v-.001l-.118-1.038a.692.692 0 0 0-.702-.616h-1.529a.715.715 0 0 0-.702.612l-.001.003-.117 1.039v.001a.694.694 0 0 1-.453.561l-.001.001a.701.701 0 0 1-.708-.088v-.001l-.808-.657a.711.711 0 0 0-.943.05l-1.073 1.068a.703.703 0 0 0-.053.937l.001.001.691.863a.677.677 0 0 1 .075.716l-.001.002a.686.686 0 0 1-.564.437h-.002l-1.043.117a.691.691 0 0 0-.619.699V279.817c.017.356.29.645.648.68l1.029.117zm1.294-3.294.001-.001a1.46 1.46 0 0 0-.206-1.475l-.605-.777.988-.943.74.616.001.001c.412.331.981.408 1.498.19a1.47 1.47 0 0 0 .914-1.177v-.001l.135-.978 1.382.026.108.951v.001c.064.52.412.974.928 1.192h.001c.19.079.38.11.582.11.331 0 .647-.109.9-.314l.782-.603.949.983-.605.736v.001c-.333.41-.411.976-.192 1.491.205.501.662.846 1.183.909l.985.134-.027 1.374-.956.108h-.001a1.506 1.506 0 0 0-1.198.923l-.001.001a1.462 1.462 0 0 0 .206 1.475l.605.777-.988.944-.74-.602-.001-.001a1.466 1.466 0 0 0-1.498-.19c-.503.204-.85.658-.914 1.177l-.134.964-1.383-.025-.108-.952v-.001c-.063-.52-.411-.974-.928-1.192h-.001c-.5-.202-1.068-.142-1.481.189l-.782.589-.95-.984.605-.735.001-.001c.333-.41.41-.976.191-1.491a1.474 1.474 0 0 0-1.183-.909l-.986-.135v-1.317l.986-.134.001-.001a1.505 1.505 0 0 0 1.196-.923z" fill="#2C4470" stroke="#2C4470" stroke-width=".2"/>
    <path d="M906 281.755a2.716 2.716 0 0 0 2.717-2.704 2.717 2.717 0 0 0-2.717-2.704 2.717 2.717 0 0 0-2.718 2.704 2.716 2.716 0 0 0 2.718 2.704zm0-4.637c1.077 0 1.944.877 1.944 1.933a1.944 1.944 0 0 1-3.889 0c0-1.056.867-1.933 1.945-1.933z" fill="#2C4470" stroke="#2C4470" stroke-width=".2"/>
    <path d="M918.833 268.167h.5v-2.25a2.252 2.252 0 0 0-2.25-2.25h-22.166a2.252 2.252 0 0 0-2.25 2.25v2.25h26.166zm-25.666.166h-.5v19.75a2.252 2.252 0 0 0 2.25 2.25h22.166a2.252 2.252 0 0 0 2.25-2.25v-19.75h-26.166zm1.75-4.833h22.166a2.42 2.42 0 0 1 2.417 2.417v22.166a2.42 2.42 0 0 1-2.417 2.417h-22.166a2.42 2.42 0 0 1-2.417-2.417v-22.166a2.42 2.42 0 0 1 2.417-2.417z" fill="#2C4470" stroke="#2C4470"/>
    <path d="M895 265.917a.084.084 0 0 1-.167 0c0-.046.037-.084.083-.084.046 0 .084.038.084.084zM897.334 265.917a.084.084 0 0 1-.167 0c0-.046.037-.084.083-.084.046 0 .084.038.084.084zM899.667 265.917a.084.084 0 0 1-.167 0c0-.046.037-.084.083-.084.046 0 .084.038.084.084z" fill="#2C4470" stroke="#2C4470"/>
    <path d="m711.705 293.295-8.84-8.845A12.944 12.944 0 0 0 706 276c0-7.17-5.83-13-13-13s-13 5.83-13 13 5.83 13 13 13c3.225 0 6.175-1.185 8.45-3.135l8.84 8.84a.997.997 0 0 0 1.415 0 .987.987 0 0 0 0-1.41zM693 287c-6.065 0-11-4.935-11-11s4.935-11 11-11 11 4.935 11 11-4.935 11-11 11z" fill="#2C4470"/>
</svg>
