<svg width="60" height="60" fill="none" xmlns="http://www.w3.org/2000/svg">
    <path d="M29.976 37.766a6.183 6.183 0 0 0 6.176-6.176 6.182 6.182 0 0 0-6.176-6.175 6.182 6.182 0 0 0-6.175 6.175 6.182 6.182 0 0 0 6.175 6.176zm0-10.217a4.046 4.046 0 0 1 4.042 4.041 4.047 4.047 0 0 1-4.042 4.042 4.047 4.047 0 0 1-4.042-4.042 4.046 4.046 0 0 1 4.042-4.041zM12.177 37.766a6.182 6.182 0 0 0 6.176-6.176 6.182 6.182 0 0 0-6.176-6.175 6.182 6.182 0 0 0-6.175 6.175 6.183 6.183 0 0 0 6.175 6.176zm0-10.217a4.046 4.046 0 0 1 4.042 4.041 4.047 4.047 0 0 1-4.042 4.042 4.047 4.047 0 0 1-4.042-4.042 4.046 4.046 0 0 1 4.042-4.041zM41.648 31.59a6.182 6.182 0 0 0 6.175 6.176 6.182 6.182 0 0 0 6.175-6.176 6.182 6.182 0 0 0-6.175-6.175 6.182 6.182 0 0 0-6.175 6.175zm6.175-4.041a4.046 4.046 0 0 1 4.042 4.041 4.047 4.047 0 0 1-4.042 4.042 4.047 4.047 0 0 1-4.042-4.042 4.046 4.046 0 0 1 4.042-4.041zM50.35 38.614h-3.386a5.254 5.254 0 0 0-3.955 1.796l-2.793 3.197c-.385.44-.926.7-1.504.748v-1.626a4.115 4.115 0 0 0-4.11-4.11c-.002 0-.466 0-.602-.002-.024-.002-.049-.03-.074-.003l-8.568.005a4.12 4.12 0 0 0-4.12 4.11v1.62a2.236 2.236 0 0 1-1.453-.741l-2.793-3.197a5.251 5.251 0 0 0-3.955-1.797H9.65A3.65 3.65 0 0 0 6 42.26v9.722a1.067 1.067 0 0 0 2.133 0V42.26c0-.834.68-1.512 1.517-1.512h3.385c.9 0 1.757.389 2.35 1.068l2.793 3.196a4.38 4.38 0 0 0 3.296 1.497h2.624a.812.812 0 0 1 .03 1.623h-.004c-.009.001-.017.004-.027.004h-4.501c-.3 0-.59-.111-.812-.313l-3.133-2.827a1.067 1.067 0 0 0-1.43 1.584l.929.838v4.564a1.067 1.067 0 0 0 2.133 0v-2.64l.071.065c.343.31.745.532 1.175.677v1.898a1.067 1.067 0 0 0 2.133 0v-1.713h3.435c.043 0 .085-.005.127-.007.043.002.088.007.131.007h11.238c.04 0 .099-.002.166-.008.048.003.094.008.143.008h3.435v1.713a1.067 1.067 0 0 0 2.133 0v-1.898c.43-.145.832-.367 1.175-.676l.071-.065v2.64a1.067 1.067 0 0 0 2.134 0v-4.565l.928-.838a1.067 1.067 0 0 0-1.43-1.584l-3.132 2.828c-.223.2-.511.312-.812.312h-4.501a.814.814 0 0 1 0-1.626h2.623a4.376 4.376 0 0 0 3.296-1.498l2.793-3.197a3.121 3.121 0 0 1 2.35-1.067h3.385c.836 0 1.517.678 1.517 1.512v9.722a1.067 1.067 0 0 0 2.133 0V42.26a3.652 3.652 0 0 0-3.65-3.645zm-17.395 8.707c0 .283.043.555.117.814l-6.145.001c.074-.26.117-.532.117-.815a2.95 2.95 0 0 0-2.947-2.946h-.727V42.73c0-1.09.891-1.976 1.987-1.976l8.57-.006v-.02c.227.026.462.026.675.026 1.09 0 1.976.886 1.976 1.976v1.646h-.676a2.95 2.95 0 0 0-2.947 2.946z" fill="#ED31A2"/>
    <mask id="a" maskUnits="userSpaceOnUse" x="25" y="2" width="23" height="23" fill="#000">
        <path fill="#fff" d="M25 2h23v23H25z"/>
        <path fill-rule="evenodd" clip-rule="evenodd" d="M33.755 4.47c0-.812.658-1.47 1.47-1.47h2.55c.812 0 1.47.658 1.47 1.47v1.105c.315.109.621.236.918.38l.781-.781.437.437-.437-.437a1.47 1.47 0 0 1 2.08 0l-.446.445.445-.445 1.803 1.803a1.47 1.47 0 0 1 0 2.079l-.781.781c.144.297.271.603.38.918h1.105c.812 0 1.47.658 1.47 1.47v2.55a1.47 1.47 0 0 1-1.47 1.47h-1.105a8.323 8.323 0 0 1-.38.918l.781.781a1.47 1.47 0 0 1 0 2.079l-1.803 1.803a1.47 1.47 0 0 1-2.079 0l-.781-.781a8.323 8.323 0 0 1-.918.38v1.105a1.47 1.47 0 0 1-1.47 1.47h-2.55a1.47 1.47 0 0 1-1.47-1.47v-1.105a8.322 8.322 0 0 1-.918-.38l-.781.781a1.47 1.47 0 0 1-2.08 0l-1.802-1.803.437-.437-.437.437a1.47 1.47 0 0 1 0-2.079l.781-.781a8.342 8.342 0 0 1-.38-.918H27.47a1.47 1.47 0 0 1-1.47-1.47v-2.55c0-.812.658-1.47 1.47-1.47h1.105c.109-.315.236-.621.38-.918l-.781-.781a1.47 1.47 0 0 1 0-2.08l1.803-1.802a1.47 1.47 0 0 1 2.079 0l.781.781a8.33 8.33 0 0 1 .918-.38V4.47zm1.47-.21a.21.21 0 0 0-.21.21v1.567a.63.63 0 0 1-.459.606 7.078 7.078 0 0 0-1.53.634.63.63 0 0 1-.753-.104l-1.108-1.108a.21.21 0 0 0-.297 0l-1.803 1.803a.21.21 0 0 0 0 .297l1.108 1.108c.2.2.242.507.105.753a7.081 7.081 0 0 0-.635 1.53.63.63 0 0 1-.606.459H27.47a.21.21 0 0 0-.21.21v2.55c0 .116.094.21.21.21h1.567a.63.63 0 0 1 .606.459c.152.538.367 1.05.634 1.53a.63.63 0 0 1-.104.753l-1.108 1.108a.21.21 0 0 0 0 .297l1.803 1.803a.21.21 0 0 0 .297 0l.445.446-.445-.446 1.108-1.108a.63.63 0 0 1 .753-.105c.48.268.992.482 1.53.635a.63.63 0 0 1 .459.606v1.567c0 .116.094.21.21.21h2.55a.21.21 0 0 0 .21-.21v-1.567a.63.63 0 0 1 .459-.606 7.081 7.081 0 0 0 1.53-.634.63.63 0 0 1 .753.104l1.108 1.108a.21.21 0 0 0 .297 0l1.803-1.803a.21.21 0 0 0 0-.297l-1.108-1.108a.63.63 0 0 1-.105-.753c.268-.48.483-.992.635-1.53a.63.63 0 0 1 .606-.459h1.567a.21.21 0 0 0 .21-.21v-2.55a.21.21 0 0 0-.21-.21h-1.567a.63.63 0 0 1-.606-.459 7.081 7.081 0 0 0-.635-1.53.63.63 0 0 1 .105-.753l1.108-1.108a.21.21 0 0 0 0-.297l-1.803-1.803a.21.21 0 0 0-.297 0l-1.108 1.108a.63.63 0 0 1-.753.104 7.074 7.074 0 0 0-1.53-.634.63.63 0 0 1-.459-.606V4.47a.21.21 0 0 0-.21-.21h-2.55zM36.5 9.575a3.925 3.925 0 1 0 3.925 3.925.63.63 0 0 1 1.26 0A5.185 5.185 0 1 1 36.5 8.315a.63.63 0 1 1 0 1.26zm4.052 1.713a.63.63 0 1 0-.891-.89l-3.161 3.16-1.073-1.073a.63.63 0 0 0-.891.891l1.518 1.519a.63.63 0 0 0 .892 0l3.606-3.607z"/>
    </mask>
    <path fill-rule="evenodd" clip-rule="evenodd" d="M33.755 4.47c0-.812.658-1.47 1.47-1.47h2.55c.812 0 1.47.658 1.47 1.47v1.105c.315.109.621.236.918.38l.781-.781.437.437-.437-.437a1.47 1.47 0 0 1 2.08 0l-.446.445.445-.445 1.803 1.803a1.47 1.47 0 0 1 0 2.079l-.781.781c.144.297.271.603.38.918h1.105c.812 0 1.47.658 1.47 1.47v2.55a1.47 1.47 0 0 1-1.47 1.47h-1.105a8.323 8.323 0 0 1-.38.918l.781.781a1.47 1.47 0 0 1 0 2.079l-1.803 1.803a1.47 1.47 0 0 1-2.079 0l-.781-.781a8.323 8.323 0 0 1-.918.38v1.105a1.47 1.47 0 0 1-1.47 1.47h-2.55a1.47 1.47 0 0 1-1.47-1.47v-1.105a8.322 8.322 0 0 1-.918-.38l-.781.781a1.47 1.47 0 0 1-2.08 0l-1.802-1.803.437-.437-.437.437a1.47 1.47 0 0 1 0-2.079l.781-.781a8.342 8.342 0 0 1-.38-.918H27.47a1.47 1.47 0 0 1-1.47-1.47v-2.55c0-.812.658-1.47 1.47-1.47h1.105c.109-.315.236-.621.38-.918l-.781-.781a1.47 1.47 0 0 1 0-2.08l1.803-1.802a1.47 1.47 0 0 1 2.079 0l.781.781a8.33 8.33 0 0 1 .918-.38V4.47zm1.47-.21a.21.21 0 0 0-.21.21v1.567a.63.63 0 0 1-.459.606 7.078 7.078 0 0 0-1.53.634.63.63 0 0 1-.753-.104l-1.108-1.108a.21.21 0 0 0-.297 0l-1.803 1.803a.21.21 0 0 0 0 .297l1.108 1.108c.2.2.242.507.105.753a7.081 7.081 0 0 0-.635 1.53.63.63 0 0 1-.606.459H27.47a.21.21 0 0 0-.21.21v2.55c0 .116.094.21.21.21h1.567a.63.63 0 0 1 .606.459c.152.538.367 1.05.634 1.53a.63.63 0 0 1-.104.753l-1.108 1.108a.21.21 0 0 0 0 .297l1.803 1.803a.21.21 0 0 0 .297 0l.445.446-.445-.446 1.108-1.108a.63.63 0 0 1 .753-.105c.48.268.992.482 1.53.635a.63.63 0 0 1 .459.606v1.567c0 .116.094.21.21.21h2.55a.21.21 0 0 0 .21-.21v-1.567a.63.63 0 0 1 .459-.606 7.081 7.081 0 0 0 1.53-.634.63.63 0 0 1 .753.104l1.108 1.108a.21.21 0 0 0 .297 0l1.803-1.803a.21.21 0 0 0 0-.297l-1.108-1.108a.63.63 0 0 1-.105-.753c.268-.48.483-.992.635-1.53a.63.63 0 0 1 .606-.459h1.567a.21.21 0 0 0 .21-.21v-2.55a.21.21 0 0 0-.21-.21h-1.567a.63.63 0 0 1-.606-.459 7.081 7.081 0 0 0-.635-1.53.63.63 0 0 1 .105-.753l1.108-1.108a.21.21 0 0 0 0-.297l-1.803-1.803a.21.21 0 0 0-.297 0l-1.108 1.108a.63.63 0 0 1-.753.104 7.074 7.074 0 0 0-1.53-.634.63.63 0 0 1-.459-.606V4.47a.21.21 0 0 0-.21-.21h-2.55zM36.5 9.575a3.925 3.925 0 1 0 3.925 3.925.63.63 0 0 1 1.26 0A5.185 5.185 0 1 1 36.5 8.315a.63.63 0 1 1 0 1.26zm4.052 1.713a.63.63 0 1 0-.891-.89l-3.161 3.16-1.073-1.073a.63.63 0 0 0-.891.891l1.518 1.519a.63.63 0 0 0 .892 0l3.606-3.607z" fill="#ED31A2"/>
    <path clip-rule="evenodd" d="M33.755 4.47c0-.812.658-1.47 1.47-1.47h2.55c.812 0 1.47.658 1.47 1.47v1.105c.315.109.621.236.918.38l.781-.781.437.437-.437-.437a1.47 1.47 0 0 1 2.08 0l-.446.445.445-.445 1.803 1.803a1.47 1.47 0 0 1 0 2.079l-.781.781c.144.297.271.603.38.918h1.105c.812 0 1.47.658 1.47 1.47v2.55a1.47 1.47 0 0 1-1.47 1.47h-1.105a8.323 8.323 0 0 1-.38.918l.781.781a1.47 1.47 0 0 1 0 2.079l-1.803 1.803a1.47 1.47 0 0 1-2.079 0l-.781-.781a8.323 8.323 0 0 1-.918.38v1.105a1.47 1.47 0 0 1-1.47 1.47h-2.55a1.47 1.47 0 0 1-1.47-1.47v-1.105a8.322 8.322 0 0 1-.918-.38l-.781.781a1.47 1.47 0 0 1-2.08 0l-1.802-1.803.437-.437-.437.437a1.47 1.47 0 0 1 0-2.079l.781-.781a8.342 8.342 0 0 1-.38-.918H27.47a1.47 1.47 0 0 1-1.47-1.47v-2.55c0-.812.658-1.47 1.47-1.47h1.105c.109-.315.236-.621.38-.918l-.781-.781a1.47 1.47 0 0 1 0-2.08l1.803-1.802a1.47 1.47 0 0 1 2.079 0l.781.781a8.33 8.33 0 0 1 .918-.38V4.47zm1.47-.21a.21.21 0 0 0-.21.21v1.567a.63.63 0 0 1-.459.606 7.078 7.078 0 0 0-1.53.634.63.63 0 0 1-.753-.104l-1.108-1.108a.21.21 0 0 0-.297 0l-1.803 1.803a.21.21 0 0 0 0 .297l1.108 1.108c.2.2.242.507.105.753a7.081 7.081 0 0 0-.635 1.53.63.63 0 0 1-.606.459H27.47a.21.21 0 0 0-.21.21v2.55c0 .116.094.21.21.21h1.567a.63.63 0 0 1 .606.459c.152.538.367 1.05.634 1.53a.63.63 0 0 1-.104.753l-1.108 1.108a.21.21 0 0 0 0 .297l1.803 1.803a.21.21 0 0 0 .297 0l.445.446-.445-.446 1.108-1.108a.63.63 0 0 1 .753-.105c.48.268.992.482 1.53.635a.63.63 0 0 1 .459.606v1.567c0 .116.094.21.21.21h2.55a.21.21 0 0 0 .21-.21v-1.567a.63.63 0 0 1 .459-.606 7.081 7.081 0 0 0 1.53-.634.63.63 0 0 1 .753.104l1.108 1.108a.21.21 0 0 0 .297 0l1.803-1.803a.21.21 0 0 0 0-.297l-1.108-1.108a.63.63 0 0 1-.105-.753c.268-.48.483-.992.635-1.53a.63.63 0 0 1 .606-.459h1.567a.21.21 0 0 0 .21-.21v-2.55a.21.21 0 0 0-.21-.21h-1.567a.63.63 0 0 1-.606-.459 7.081 7.081 0 0 0-.635-1.53.63.63 0 0 1 .105-.753l1.108-1.108a.21.21 0 0 0 0-.297l-1.803-1.803a.21.21 0 0 0-.297 0l-1.108 1.108a.63.63 0 0 1-.753.104 7.074 7.074 0 0 0-1.53-.634.63.63 0 0 1-.459-.606V4.47a.21.21 0 0 0-.21-.21h-2.55zM36.5 9.575a3.925 3.925 0 1 0 3.925 3.925.63.63 0 0 1 1.26 0A5.185 5.185 0 1 1 36.5 8.315a.63.63 0 1 1 0 1.26zm4.052 1.713a.63.63 0 1 0-.891-.89l-3.161 3.16-1.073-1.073a.63.63 0 0 0-.891.891l1.518 1.519a.63.63 0 0 0 .892 0l3.606-3.607z" stroke="#ED31A2" stroke-width=".6" mask="url(#a)"/>
</svg>
