<svg width="60" height="60" viewBox="0 0 60 60" fill="none" xmlns="http://www.w3.org/2000/svg">
<circle cx="30" cy="30" r="29.5" fill="white" stroke="#2C4470"/>
<path d="M24.5769 33.6135L24.5778 33.6136C24.8177 33.6387 25.0376 33.8027 25.1425 34.0635L25.1425 34.0635L25.1432 34.0652C25.2468 34.31 25.2072 34.5778 25.0548 34.7677C25.0546 34.7678 25.0545 34.768 25.0544 34.7681L24.3934 35.5718L24.3931 35.5721C24.1695 35.8459 24.187 36.255 24.4442 36.5108L25.5177 37.5788C25.7756 37.8353 26.17 37.8501 26.4576 37.6313L26.4576 37.6314L26.4602 37.6293L27.2682 36.9717C27.2683 36.9716 27.2684 36.9715 27.2686 36.9713C27.4587 36.8203 27.7273 36.78 27.9886 36.8969L27.9908 36.8979C28.2403 37.0024 28.4051 37.2222 28.43 37.4458L28.43 37.446L28.5476 38.4838C28.5828 38.8467 28.895 39.1 29.25 39.1H30.7647C31.1261 39.1 31.4155 38.8267 31.4665 38.4883L31.4667 38.4883L31.4672 38.4832L31.57 37.4452C31.57 37.4451 31.5701 37.445 31.5701 37.4449C31.5954 37.2071 31.7598 36.9884 32.0223 36.884L32.0223 36.884L32.0239 36.8833C32.2708 36.7799 32.5407 36.8196 32.7318 36.9717L33.5401 37.6149C33.5402 37.615 33.5403 37.615 33.5404 37.6151C33.8152 37.837 34.2255 37.8196 34.4823 37.5641L35.5558 36.4962C35.8139 36.2395 35.8289 35.8463 35.6087 35.5598L35.6087 35.5598L35.6066 35.5572L34.9456 34.7535C34.9455 34.7533 34.9454 34.7532 34.9452 34.7531C34.7936 34.5642 34.7532 34.2975 34.8705 34.0381L34.8715 34.0359C34.9766 33.7877 35.1828 33.6243 35.4364 33.5991L35.4364 33.5991L35.4376 33.5989L36.4809 33.482C36.8446 33.4471 37.1 33.1371 37.1 32.7827V31.2613C37.1 30.8994 36.8231 30.6127 36.47 30.5625L36.47 30.5625L36.467 30.5622L35.4229 30.4451L35.4222 30.4451C35.1823 30.4199 34.9624 30.256 34.8575 29.9952L34.8575 29.9952L34.8568 29.9935C34.7532 29.7487 34.7928 29.4809 34.9452 29.291C34.9454 29.2909 34.9455 29.2907 34.9456 29.2906L35.6066 28.4869L35.6069 28.4866C35.8305 28.2128 35.813 27.8037 35.5558 27.5478L34.4823 26.4799C34.2244 26.2234 33.83 26.2086 33.5424 26.4274L33.5424 26.4273L33.5398 26.4294L32.7318 27.087C32.7317 27.0871 32.7315 27.0872 32.7314 27.0874C32.5413 27.2384 32.2727 27.2787 32.0114 27.1618L32.0092 27.1608C31.7593 27.0561 31.5954 26.8509 31.5701 26.5994L31.5701 26.5994L31.57 26.5981L31.4524 25.5603C31.4172 25.1974 31.105 24.9441 30.75 24.9441H29.2206C28.8592 24.9441 28.5698 25.2174 28.5188 25.5558L28.5187 25.5558L28.5183 25.5595L28.4006 26.5981L28.4006 26.5988C28.3754 26.8367 28.2109 27.0556 27.9483 27.1601L27.9483 27.1601L27.9467 27.1608C27.7 27.2641 27.4302 27.2245 27.2392 27.0727C27.239 27.0726 27.2389 27.0725 27.2387 27.0724L26.4308 26.4148L26.4305 26.4146C26.1557 26.1924 25.7452 26.2097 25.4883 26.4653L24.4148 27.5332C24.1567 27.79 24.1417 28.1832 24.3619 28.4697L24.3619 28.4697L24.3631 28.4712L25.0543 29.3343L25.0544 29.3345C25.2064 29.5234 25.2469 29.7902 25.1295 30.0498L25.1285 30.052C25.0234 30.3003 24.8172 30.4637 24.5636 30.4889L24.5636 30.4889L24.5624 30.489L23.5191 30.606C23.1554 30.6409 22.9 30.9509 22.9 31.3052V32.812H22.8999L22.9001 32.8168C22.9172 33.1732 23.1904 33.4622 23.5484 33.4966L24.5769 33.6135ZM25.8714 30.3204L25.872 30.319C26.0763 29.8187 25.9987 29.2535 25.6665 28.8438L25.0609 28.0674L26.0487 27.1236L26.789 27.7395L26.789 27.7395L26.7903 27.7406C27.2024 28.0717 27.7707 28.1487 28.2882 27.9306C28.7912 27.727 29.1386 27.2728 29.2021 26.7539C29.2021 26.7536 29.2022 26.7534 29.2022 26.7531L29.3369 25.7748L30.7193 25.8007L30.8271 26.7523L30.8272 26.7531C30.8906 27.2734 31.2388 27.727 31.7552 27.9449L31.7558 27.9452C31.9463 28.0242 32.1361 28.0552 32.3382 28.0552C32.6689 28.0552 32.985 27.9456 33.2384 27.7411L34.0196 27.1382L34.9691 28.1215L34.3639 28.8572L34.3635 28.8577C34.0306 29.2678 33.953 29.8337 34.1724 30.349C34.3773 30.8498 34.8339 31.195 35.3549 31.2581L36.3395 31.3923L36.3134 32.7663L35.3565 32.8735L35.3565 32.8735L35.3557 32.8736C34.8333 32.9366 34.3773 33.2827 34.158 33.7968L34.158 33.7968L34.1574 33.7982C33.9531 34.2986 34.0307 34.8637 34.3629 35.2734L34.9685 36.0498L33.98 36.9943L33.2396 36.3916L33.2396 36.3916L33.2391 36.3913C32.827 36.0602 32.2587 35.9831 31.7412 36.2012C31.2382 36.4048 30.8909 36.8589 30.8273 37.3778L30.6926 38.3425L29.3101 38.3165L29.2023 37.3649L29.2023 37.3649L29.2022 37.3641C29.1388 36.8438 28.7906 36.3902 28.2742 36.1723L28.2742 36.1723L28.2728 36.1717C27.7727 35.9696 27.2049 36.0297 26.7915 36.361L26.0104 36.9505L25.0603 35.9665L25.6655 35.2308L25.6659 35.2303C25.9989 34.8202 26.0765 34.2542 25.857 33.739C25.6521 33.2381 25.1955 32.8929 24.6745 32.8298C24.6742 32.8298 24.674 32.8298 24.6737 32.8297L23.6882 32.6954V31.3779L24.6737 31.2436C24.674 31.2436 24.6743 31.2435 24.6745 31.2435C25.1966 31.1802 25.6523 30.8343 25.8714 30.3204Z" fill="#0074E0" stroke="#0074E0" stroke-width="0.2"/>
<path d="M29.9995 34.7553C31.4954 34.7553 32.7172 33.5407 32.7172 32.0513C32.7172 30.562 31.4954 29.3474 29.9995 29.3474C28.5036 29.3474 27.2819 30.562 27.2819 32.0513C27.2819 33.5407 28.5036 34.7553 29.9995 34.7553ZM29.9995 30.1179C31.0767 30.1179 31.9437 30.9948 31.9437 32.0513C31.9437 33.1079 31.0767 33.9847 29.9995 33.9847C28.9224 33.9847 28.0554 33.1079 28.0554 32.0513C28.0554 30.9948 28.9224 30.1179 29.9995 30.1179Z" fill="#0074E0" stroke="#0074E0" stroke-width="0.2"/>
<path d="M42.8333 21.1667H43.3333V20.6667V18.9167C43.3333 17.6757 42.3243 16.6667 41.0833 16.6667H18.9167C17.6757 16.6667 16.6667 17.6757 16.6667 18.9167V20.6667V21.1667H17.1667H42.8333ZM17.1667 21.3333H16.6667V21.8333V41.0833C16.6667 42.3243 17.6757 43.3333 18.9167 43.3333H41.0833C42.3243 43.3333 43.3333 42.3243 43.3333 41.0833V21.8333V21.3333H42.8333H17.1667ZM18.9167 16.5H41.0833C42.4159 16.5 43.5 17.585 43.5 18.9167V41.0833C43.5 42.415 42.4159 43.5 41.0833 43.5H18.9167C17.5841 43.5 16.5 42.415 16.5 41.0833V18.9167C16.5 17.585 17.5841 16.5 18.9167 16.5Z" fill="#2C4470" stroke="#2C4470"/>
<path d="M18.9997 18.9168C18.9997 18.9629 18.9624 19.0002 18.9163 19.0002C18.8703 19.0002 18.833 18.9629 18.833 18.9168C18.833 18.8708 18.8703 18.8335 18.9163 18.8335C18.9624 18.8335 18.9997 18.8708 18.9997 18.9168Z" fill="#2C4470" stroke="#2C4470"/>
<path d="M21.3337 18.9168C21.3337 18.9629 21.2963 19.0002 21.2503 19.0002C21.2043 19.0002 21.167 18.9629 21.167 18.9168C21.167 18.8708 21.2043 18.8335 21.2503 18.8335C21.2963 18.8335 21.3337 18.8708 21.3337 18.9168Z" fill="#2C4470" stroke="#2C4470"/>
<path d="M23.6667 18.9168C23.6667 18.9629 23.6294 19.0002 23.5833 19.0002C23.5373 19.0002 23.5 18.9629 23.5 18.9168C23.5 18.8708 23.5373 18.8335 23.5833 18.8335C23.6294 18.8335 23.6667 18.8708 23.6667 18.9168Z" fill="#2C4470" stroke="#2C4470"/>
</svg>
