<svg width="38" height="38" viewBox="0 0 38 38" fill="none" xmlns="http://www.w3.org/2000/svg">
<circle cx="19" cy="19" r="19" fill="#0074E0" fill-opacity="0.1"/>
<path d="M27.1053 19.2232C27.1053 19.1021 27.032 18.9413 26.9577 18.8632L22.7698 14.4134C22.5743 14.2112 22.2575 14.1878 22.0295 14.393C21.8257 14.5764 21.8207 14.9341 22.0091 15.1332L25.3709 18.6996H11.9239C11.6348 18.6996 11.4004 18.934 11.4004 19.2231C11.4004 19.5123 11.6348 19.7467 11.9239 19.7467H25.3709L22.0091 23.3131C21.8207 23.5122 21.8341 23.8611 22.0295 24.0533C22.2359 24.2562 22.5772 24.2382 22.7698 24.0329L26.9577 19.5831C27.0807 19.4624 27.1032 19.3462 27.1053 19.2232Z" fill="#0074E0" stroke="#0074E0"/>
</svg>
