<svg width="28" height="18" viewBox="0 0 28 18" fill="none" xmlns="http://www.w3.org/2000/svg">
<path d="M1 9.23336C1 9.43391 1.12129 9.70019 1.24435 9.82941L8.17758 17.1962C8.50128 17.5309 9.0257 17.5697 9.40309 17.23C9.74049 16.9264 9.7489 16.3342 9.43689 16.0045L3.87136 10.1002L26.1333 10.1002C26.612 10.1002 27 9.71219 27 9.23353C27 8.75486 26.612 8.36683 26.1333 8.36683L3.87136 8.36683L9.4369 2.46254C9.74885 2.13285 9.72671 1.55523 9.40309 1.23704C9.06141 0.901115 8.49634 0.931017 8.17758 1.27084L1.24435 8.63761C1.04064 8.83742 1.00342 9.02987 1 9.23336Z" fill="#2C4470" stroke="#2C4470"/>
</svg>
