<svg width="60" height="60" viewBox="0 0 60 60" fill="none" xmlns="http://www.w3.org/2000/svg">
<circle cx="30" cy="30" r="29.5" fill="white" stroke="#0074E0"/>
<path d="M20.9 25.2567C20.9 27.8862 21.9914 30.2665 23.7447 31.9683V32.1588V43.5444C23.7447 43.774 23.9127 43.934 24.0527 44.029C24.1257 44.0964 24.2075 44.0962 24.2835 44.096C24.2878 44.0959 24.292 44.0959 24.2963 44.0959C24.3554 44.0959 24.4229 44.0817 24.4803 44.0626C24.5317 44.0454 24.5921 44.0188 24.632 43.982L30.2567 39.7412L35.886 43.9855L35.8859 43.9856L35.8907 43.9888C36.0375 44.0867 36.2629 44.1565 36.4478 44.0375C36.5475 43.9868 36.6283 43.9207 36.6842 43.8369C36.7414 43.751 36.7687 43.6522 36.7687 43.5444V32.1588V31.9683C38.5221 30.2665 39.6134 27.8862 39.6134 25.2567C39.6134 20.099 35.4144 15.9 30.2567 15.9C25.099 15.9 20.9 20.099 20.9 25.2567ZM24.8478 32.8868C26.3762 33.9736 28.2434 34.6134 30.2567 34.6134C32.27 34.6134 34.1372 33.9736 35.6656 32.8868V42.4399L30.5881 38.588L30.5807 38.5824L30.5724 38.5782L30.5633 38.5737C30.4799 38.5319 30.371 38.4774 30.2567 38.4774C30.1424 38.4774 30.0336 38.5319 29.9502 38.5737L29.9411 38.5782L29.9328 38.5824L29.9254 38.588L24.8478 42.4399V32.8868ZM35.2028 23.0374L35.203 23.0369L35.1929 23.0355L32.1294 22.5915L30.7539 19.7962C30.665 19.5921 30.4515 19.5011 30.2567 19.5011C30.0619 19.5011 29.8484 19.5921 29.7595 19.7962L28.3841 22.5915L25.3205 23.0355L25.3204 23.035L25.3106 23.0374C25.1104 23.0875 24.9342 23.1961 24.8766 23.4263C24.8258 23.6295 24.8701 23.8568 25.0453 23.9796L27.2593 26.1493L26.727 29.2098C26.6724 29.4357 26.7854 29.6553 26.9501 29.7651L26.9497 29.7657L26.9609 29.7713C26.9639 29.7728 26.9669 29.7743 26.97 29.7759C27.0534 29.8177 27.1622 29.8722 27.2765 29.8722H27.2808C27.3225 29.8722 27.3637 29.8722 27.4058 29.8652C27.4519 29.8575 27.4953 29.8423 27.547 29.8165L27.547 29.8165L27.5493 29.8153L30.3019 28.3502L33.0504 29.8132C33.2356 29.9331 33.4628 29.8614 33.6429 29.7713L33.6432 29.772L33.6536 29.7651C33.8184 29.6553 33.9313 29.4357 33.8767 29.2098L33.3445 26.1493L35.5647 23.9735L35.5654 23.9728C35.7223 23.8159 35.7843 23.597 35.725 23.4189L35.7175 23.3965L35.7008 23.3798L35.6924 23.3714C35.5631 23.242 35.4105 23.0894 35.2028 23.0374ZM32.1435 26.0695V26.0778L32.1449 26.0859L32.518 28.3247L30.4959 27.2517C30.424 27.1882 30.344 27.1884 30.2695 27.1887C30.2652 27.1887 30.261 27.1887 30.2567 27.1887H30.2524C30.2107 27.1887 30.1695 27.1887 30.1274 27.1957C30.0813 27.2034 30.0379 27.2186 29.9862 27.2444L29.9862 27.2444L29.9841 27.2455L27.9503 28.3247L28.3222 26.0929C28.3514 25.997 28.3328 25.8958 28.3012 25.8135C28.2681 25.7275 28.2154 25.6478 28.16 25.5924L28.1591 25.5915L26.5427 24.0166L28.7747 23.6859C28.8709 23.6833 28.9569 23.6359 29.023 23.5878C29.0914 23.5381 29.1525 23.477 29.1967 23.4328L29.1986 23.4309L29.2103 23.4192L29.2177 23.4042L30.2116 21.375L31.2027 23.3986C31.2657 23.5772 31.441 23.6834 31.6488 23.6859L33.8836 24.017L32.3083 25.5924C32.2471 25.6536 32.2069 25.7385 32.1818 25.82C32.1563 25.9028 32.1435 25.9917 32.1435 26.0695ZM30.2567 33.5103C25.7062 33.5103 22.0031 29.8073 22.0031 25.2567C22.0031 20.7062 25.7062 17.0031 30.2567 17.0031C34.8073 17.0031 38.5103 20.7062 38.5103 25.2567C38.5103 29.8073 34.8073 33.5103 30.2567 33.5103Z" fill="#0074E0" stroke="#2C4470" stroke-width="0.2"/>
</svg>
