<svg width="100" height="100" fill="none" xmlns="http://www.w3.org/2000/svg">
    <path d="M76.5 44.875h5.125c.5 1.75 2.125 3 4 3a4.215 4.215 0 0 0 4.25-4.25 4.215 4.215 0 0 0-4.25-4.25c-1.875 0-3.5 1.25-4 3H76.5v-10.25h5.125c.5 1.75 2.125 3 4 3a4.215 4.215 0 0 0 4.25-4.25 4.215 4.215 0 0 0-4.25-4.25c-1.875 0-3.5 1.25-4 3H76.5V26.25c0-1.625-1.375-3-3-3h-3.25v-5c1.75-.5 3-2.125 3-4A4.215 4.215 0 0 0 69 10a4.215 4.215 0 0 0-4.25 4.25c0 1.875 1.25 3.5 3 4v5H57.5v-5c1.75-.5 3-2.125 3-4A4.215 4.215 0 0 0 56.25 10 4.215 4.215 0 0 0 52 14.25c0 1.875 1.25 3.5 3 4v5H44.75v-5c1.75-.5 3-2.125 3-4A4.215 4.215 0 0 0 43.5 10a4.215 4.215 0 0 0-4.25 4.25c0 1.875 1.25 3.5 3 4v5H32.125v-5c1.75-.5 3-2.125 3-4a4.215 4.215 0 0 0-4.25-4.25 4.215 4.215 0 0 0-4.25 4.25c0 1.875 1.25 3.5 3 4v5h-3.25c-1.625 0-3 1.375-3 3v3.375H18.25c-.5-1.75-2.125-3-4-3a4.215 4.215 0 0 0-4.25 4.25 4.215 4.215 0 0 0 4.25 4.25c1.875 0 3.5-1.25 4-3h5.125v10.25H18.25c-.5-1.75-2.125-3-4-3a4.215 4.215 0 0 0-4.25 4.25 4.215 4.215 0 0 0 4.25 4.25c1.875 0 3.5-1.25 4-3h5.125V55H18.25c-.5-1.75-2.125-3-4-3A4.215 4.215 0 0 0 10 56.25a4.215 4.215 0 0 0 4.25 4.25c1.875 0 3.5-1.25 4-3h5.125v10.25H18.25c-.5-1.75-2.125-3-4-3A4.215 4.215 0 0 0 10 69a4.215 4.215 0 0 0 4.25 4.25c1.875 0 3.5-1.25 4-3h5.125v3.125c0 1.625 1.375 3 3 3h3.25v5.375c-1.75.5-3 2.125-3 4a4.215 4.215 0 0 0 4.25 4.25 4.215 4.215 0 0 0 4.25-4.25c0-1.875-1.25-3.5-3-4v-5.375h10.25v5.375c-1.75.5-3 2.125-3 4a4.215 4.215 0 0 0 4.25 4.25 4.215 4.215 0 0 0 4.25-4.25c0-1.875-1.25-3.5-3-4v-5.375h10.25v5.375c-1.75.5-3 2.125-3 4a4.215 4.215 0 0 0 4.25 4.25 4.215 4.215 0 0 0 4.25-4.25c0-1.875-1.25-3.5-3-4v-5.375h10.25v5.375c-1.75.5-3 2.125-3 4a4.215 4.215 0 0 0 4.25 4.25 4.215 4.215 0 0 0 4.25-4.25c0-1.875-1.25-3.5-3-4v-5.375h3.25c1.625 0 3-1.375 3-3V70.25h5.125c.5 1.75 2.125 3 4 3A4.215 4.215 0 0 0 90 69a4.215 4.215 0 0 0-4.25-4.25c-1.875 0-3.5 1.25-4 3h-5.125V57.625h5.125c.5 1.75 2.125 3 4 3a4.215 4.215 0 0 0 4.25-4.25 4.215 4.215 0 0 0-4.25-4.25c-1.875 0-3.5 1.25-4 3h-5.125v-10.25H76.5zm9.25-3c1 0 1.75.75 1.75 1.75s-.75 1.75-1.75 1.75-1.75-.75-1.75-1.75c0-.875.75-1.75 1.75-1.75zm0-12.625c1 0 1.75.75 1.75 1.75s-.75 1.75-1.75 1.75S84 32 84 31s.75-1.75 1.75-1.75zM69 12.5c1 0 1.75.75 1.75 1.75S70 16 69 16s-1.75-.75-1.75-1.75.875-1.75 1.75-1.75zm-12.625 0c1 0 1.75.75 1.75 1.75s-.75 1.75-1.75 1.75-1.75-.75-1.75-1.75.75-1.75 1.75-1.75zm-12.75 0c1 0 1.75.75 1.75 1.75s-.75 1.75-1.75 1.75-1.75-.75-1.75-1.75.875-1.75 1.75-1.75zM31 12.5c1 0 1.75.75 1.75 1.75S32 16 31 16s-1.75-.75-1.75-1.75S30 12.5 31 12.5zM14.25 32.75c-1 0-1.75-.75-1.75-1.75s.75-1.75 1.75-1.75S16 30 16 31c0 .875-.75 1.75-1.75 1.75zm0 12.625c-1 0-1.75-.75-1.75-1.75s.75-1.75 1.75-1.75 1.75.75 1.75 1.75-.75 1.75-1.75 1.75zm0 12.75c-1 0-1.75-.75-1.75-1.75s.75-1.75 1.75-1.75 1.75.75 1.75 1.75c0 .875-.75 1.75-1.75 1.75zm0 12.625c-1 0-1.75-.75-1.75-1.75s.75-1.75 1.75-1.75S16 68 16 69s-.75 1.75-1.75 1.75zM31 87.5c-1 0-1.75-.75-1.75-1.75S30 84 31 84s1.75.75 1.75 1.75-.875 1.75-1.75 1.75zm12.625 0c-1 0-1.75-.75-1.75-1.75s.75-1.75 1.75-1.75 1.75.75 1.75 1.75-.75 1.75-1.75 1.75zm12.75 0c-1 0-1.75-.75-1.75-1.75s.75-1.75 1.75-1.75 1.75.75 1.75 1.75-.875 1.75-1.75 1.75zM69 87.5c-1 0-1.75-.75-1.75-1.75S68 84 69 84s1.75.75 1.75 1.75S70 87.5 69 87.5zm16.75-20.25c1 0 1.75.75 1.75 1.75s-.75 1.75-1.75 1.75S84 70 84 69c0-.875.75-1.75 1.75-1.75zm0-12.625c1 0 1.75.75 1.75 1.75s-.75 1.75-1.75 1.75-1.75-.75-1.75-1.75.75-1.75 1.75-1.75zM74 73.5c0 .25-.25.5-.5.5H26.375c-.25 0-.5-.25-.5-.5V26.25c0-.25.25-.5.5-.5H73.5c.25 0 .5.25.5.5V73.5z" fill="#0074E0"/>
    <path d="M37.513 46.272h24v16h-24v-16z" fill="#BDF3FF"/>
    <path d="M42.01 47.037h15.763c.6 0 1.085-.486 1.085-1.085v-4.926A5.032 5.032 0 0 0 53.832 36H45.95a5.032 5.032 0 0 0-5.026 5.026v4.926c0 .599.486 1.085 1.085 1.085h.001zm14.678-6.011v3.84H43.095v-3.84a2.86 2.86 0 0 1 2.856-2.856h7.882a2.86 2.86 0 0 1 2.855 2.856z" fill="#0074E0" stroke="#0074E0" stroke-width=".2"/>
    <path d="M39.055 63.786H60.73a3.06 3.06 0 0 0 3.055-3.056V47.922a3.06 3.06 0 0 0-3.056-3.056H39.056A3.06 3.06 0 0 0 36 47.922V60.73a3.06 3.06 0 0 0 3.056 3.056h-.001zm-.886-15.864c0-.487.398-.885.886-.885H60.73c.487 0 .885.398.885.885V60.73a.887.887 0 0 1-.885.885H39.054a.887.887 0 0 1-.886-.885V47.922h.001z" fill="#0074E0" stroke="#0074E0" stroke-width=".2"/>
    <path d="M53.933 52.848a4.045 4.045 0 0 0-4.04-4.04 4.044 4.044 0 0 0-4.04 4.04c0 1.85 1.255 3.4 2.954 3.878v2.034a1.086 1.086 0 0 0 2.17 0v-2.034c1.7-.477 2.956-2.027 2.956-3.878zm-4.04 1.87a1.872 1.872 0 0 1-1.871-1.87c0-1.031.84-1.87 1.87-1.87a1.871 1.871 0 0 1 0 3.74h.001z" fill="#0074E0" stroke="#0074E0" stroke-width=".2"/>
</svg>
