<svg width="100" height="100" viewBox="0 0 100 100" fill="none" xmlns="http://www.w3.org/2000/svg">
<path d="M12 26C12 21.0294 16.0294 17 21 17H80C84.9706 17 89 21.0294 89 26V31H12V26Z" fill="#BDF3FF"/>
<path d="M83.1034 17H16.8966C13.0924 17 10 20.0952 10 23.8966V76.3104C10 80.1117 13.0924 83.2069 16.8966 83.2069H83.1034C86.9076 83.2069 90 80.1117 90 76.3104V23.8966C90 20.0952 86.9076 17 83.1034 17ZM16.8966 19.7586H83.1034C85.3848 19.7586 87.2414 21.6152 87.2414 23.8966V28.0345H12.7586V23.8966C12.7586 21.6152 14.6152 19.7586 16.8966 19.7586ZM83.1034 80.4483H16.8966C14.6152 80.4483 12.7586 78.5917 12.7586 76.3104V30.7931H87.2414V76.3104C87.2414 78.5917 85.3848 80.4483 83.1034 80.4483Z" fill="#0074E0"/>
<rect x="39" y="52" width="24" height="16" fill="#BDF3FF"/>
<path d="M43.4969 52.765H59.2605C59.8596 52.765 60.3457 52.2789 60.3457 51.6798V46.7537C60.3457 43.9822 58.0911 41.7276 55.3196 41.7276H47.4378C44.6663 41.7276 42.4117 43.9822 42.4117 46.7537V51.6798C42.4117 52.2789 42.8979 52.765 43.4969 52.765ZM58.1753 46.7537V50.5946H44.5822V46.7537C44.5822 45.1794 45.8635 43.898 47.4378 43.898H55.3196C56.8939 43.898 58.1753 45.1794 58.1753 46.7537Z" fill="#0074E0" stroke="#0074E0" stroke-width="0.2"/>
<path d="M40.5416 69.5136H62.2165C63.9013 69.5136 65.2721 68.1428 65.2721 66.458V53.6501C65.2721 51.9653 63.9013 50.5944 62.2165 50.5944H40.5416C38.8568 50.5944 37.4859 51.9653 37.4859 53.6501V66.458C37.4859 68.1428 38.8568 69.5136 40.5416 69.5136ZM39.6564 53.6501C39.6564 53.1625 40.054 52.7649 40.5416 52.7649H62.2165C62.7041 52.7649 63.1017 53.1625 63.1017 53.6501V66.458C63.1017 66.9456 62.7041 67.3432 62.2165 67.3432H40.5416C40.054 67.3432 39.6564 66.9456 39.6564 66.458V53.6501Z" fill="#0074E0" stroke="#0074E0" stroke-width="0.2"/>
<path d="M55.4202 58.5763C55.4202 56.3476 53.608 54.5354 51.3794 54.5354C49.1507 54.5354 47.3385 56.3476 47.3385 58.5763C47.3385 60.4271 48.5951 61.9774 50.2941 62.4538V64.4876C50.2941 65.0867 50.7803 65.5728 51.3794 65.5728C51.9784 65.5728 52.4646 65.0867 52.4646 64.4876V62.4538C54.1636 61.9774 55.4202 60.4271 55.4202 58.5763ZM51.3794 60.4467C50.3479 60.4467 49.5089 59.6077 49.5089 58.5763C49.5089 57.5448 50.3479 56.7058 51.3794 56.7058C52.4108 56.7058 53.2498 57.5448 53.2498 58.5763C53.2498 59.6077 52.4108 60.4467 51.3794 60.4467Z" fill="#0074E0" stroke="#0074E0" stroke-width="0.2"/>
<path d="M16.8964 25.2758C17.6582 25.2758 18.2757 24.6583 18.2757 23.8965C18.2757 23.1348 17.6582 22.5172 16.8964 22.5172C16.1346 22.5172 15.5171 23.1348 15.5171 23.8965C15.5171 24.6583 16.1346 25.2758 16.8964 25.2758Z" fill="#0074E0"/>
<path d="M22.4135 25.2758C23.1753 25.2758 23.7928 24.6583 23.7928 23.8965C23.7928 23.1348 23.1753 22.5172 22.4135 22.5172C21.6517 22.5172 21.0342 23.1348 21.0342 23.8965C21.0342 24.6583 21.6517 25.2758 22.4135 25.2758Z" fill="#0074E0"/>
<path d="M27.9311 25.2758C28.6928 25.2758 29.3104 24.6583 29.3104 23.8965C29.3104 23.1348 28.6928 22.5172 27.9311 22.5172C27.1693 22.5172 26.5518 23.1348 26.5518 23.8965C26.5518 24.6583 27.1693 25.2758 27.9311 25.2758Z" fill="#0074E0"/>
</svg>
