<svg width="60" height="60" viewBox="0 0 60 60" fill="none" xmlns="http://www.w3.org/2000/svg">
<circle cx="30" cy="30" r="29.5" fill="white" stroke="#2C4470"/>
<path d="M36.9699 25.5856L36.802 25.6412L36.7065 25.79L34.4188 29.3534L34.2226 29.659L34.4524 29.94L42.0364 39.2162V39.9385L40.0551 42.2273H38.9862L29.6587 34.5681L29.3302 34.2984L29.0111 34.5791L20.3168 42.2273H19.5689L17.5818 40.2597V39.5301L25.3276 30.7998L25.5815 30.5137L25.3718 30.1938L23.1 26.7281L22.9762 26.5392L22.7526 26.5072L19.6504 26.0638L16.5999 19.3835L18.9589 17.0501L25.8515 19.9403L26.2947 23.0062L26.3273 23.2316L26.5187 23.355L29.8978 25.5321L30.1655 25.7046L30.435 25.5349L34.1036 23.2255L34.2544 23.1306L34.3112 22.9617L35.5341 19.326L42.7452 16.5815L42.9486 16.7818L42.3074 17.0262L35.9756 19.4396L35.7552 19.5236L35.6798 19.7472L34.8112 22.3244L34.7117 22.6197L34.9329 22.8391L37.0934 24.9816L37.3111 25.1976L37.6023 25.1013L40.2051 24.2412L40.4289 24.1672L40.5142 23.9475L42.9515 17.6745L43.2016 17.0309L43.4147 17.2407L40.6412 24.3678L36.9699 25.5856ZM35.0891 23.373L34.8074 23.0945L34.4719 23.3052L30.2464 25.9581L29.7125 26.2932L30.1605 26.7368L33.1482 29.6953L33.5862 30.129L33.9202 29.611L36.612 25.4363L36.8321 25.0951L36.5432 24.8097L35.0891 23.373ZM23.2482 26.3158L23.4906 26.35L23.6663 26.1796L24.2803 25.5842L24.2804 25.5842L24.2841 25.5805L25.9482 23.9327L26.1273 23.7553L26.0912 23.5059L25.6426 20.4024L25.6021 20.1223L25.3411 20.0129L19.3306 17.4923L19.0227 17.3632L18.7855 17.5981L18.4927 17.888L18.1339 18.2433L18.4927 18.5986L21.3902 21.4677L21.2991 21.5586L21.2003 21.6557L18.2959 18.7796L17.9441 18.4313L17.5923 18.7796L17.1723 19.1955L16.9247 19.4407L17.069 19.7579L19.7194 25.5835L19.833 25.8331L20.1046 25.8715L23.2482 26.3158ZM23.7332 26.4862L23.44 26.7765L23.6694 27.1195L25.4226 29.7408L25.7833 30.2802L26.2129 29.7939L29.3947 26.1927L29.7799 25.7567L29.2909 25.4414L26.9014 23.9007L26.5639 23.6832L26.2786 23.9657L23.7332 26.4862ZM20.0218 41.967H20.2105L20.3521 41.8424L33.0253 30.6921L33.4272 30.3385L33.047 29.9616L29.8938 26.8361L29.5183 26.4639L29.1676 26.8596L17.9804 39.4812L17.8545 39.6232V39.8129V39.9452V40.1538L18.0027 40.3005L19.5396 41.8223L19.6857 41.967H19.8914H20.0218ZM41.7636 39.4852V39.3065L41.6504 39.1683L34.4977 30.4378L34.1665 30.0336L33.7773 30.3823L33.713 30.4399L33.7105 30.4421L29.9871 33.7323L29.5477 34.1206L30.0005 34.4931L38.9478 41.8531L39.0862 41.967H39.2655H39.6982H39.9267L40.0762 41.7942L41.6417 39.9857L41.7636 39.8448V39.6585V39.4852Z" fill="#2C4470" stroke="#2C4470"/>
</svg>
