<svg width="394" height="366" viewBox="0 0 394 366" fill="none" xmlns="http://www.w3.org/2000/svg">
<path d="M81 0.5H374C384.77 0.5 393.5 9.23045 393.5 20V242C393.5 252.77 384.77 261.5 374 261.5H81C70.2305 261.5 61.5 252.77 61.5 242V20C61.5 9.23046 70.2304 0.5 81 0.5Z" fill="white" stroke="#465D88"/>
<path d="M61 20C61 8.9543 69.9543 0 81 0H374C385.046 0 394 8.95431 394 20V52.5H61V20Z" fill="#2C4470"/>
<path d="M81 0.5H374C384.77 0.5 393.5 9.23045 393.5 20V52H61.5V20C61.5 9.23045 70.2304 0.5 81 0.5Z" stroke="#2C4470" stroke-opacity="0.42"/>
<circle cx="89.8623" cy="26.8623" r="7.86232" fill="#FE7171"/>
<path fill-rule="evenodd" clip-rule="evenodd" d="M27.68 88.34C27.68 90.1846 26.1846 91.68 24.34 91.68C22.4954 91.68 21 90.1846 21 88.34C21 86.4954 22.4954 85 24.34 85C26.1846 85 27.68 86.4954 27.68 88.34ZM47.68 88.34C47.68 90.1846 46.1846 91.68 44.34 91.68C42.4954 91.68 41 90.1846 41 88.34C41 86.4954 42.4954 85 44.34 85C46.1846 85 47.68 86.4954 47.68 88.34ZM64.34 91.68C66.1846 91.68 67.68 90.1846 67.68 88.34C67.68 86.4954 66.1846 85 64.34 85C62.4954 85 61 86.4954 61 88.34C61 90.1846 62.4954 91.68 64.34 91.68ZM87.68 88.34C87.68 90.1846 86.1846 91.68 84.34 91.68C82.4954 91.68 81 90.1846 81 88.34C81 86.4954 82.4954 85 84.34 85C86.1846 85 87.68 86.4954 87.68 88.34ZM104.34 91.68C106.185 91.68 107.68 90.1846 107.68 88.34C107.68 86.4954 106.185 85 104.34 85C102.495 85 101 86.4954 101 88.34C101 90.1846 102.495 91.68 104.34 91.68ZM127.68 88.34C127.68 90.1846 126.185 91.68 124.34 91.68C122.495 91.68 121 90.1846 121 88.34C121 86.4954 122.495 85 124.34 85C126.185 85 127.68 86.4954 127.68 88.34ZM144.34 91.68C146.185 91.68 147.68 90.1846 147.68 88.34C147.68 86.4954 146.185 85 144.34 85C142.495 85 141 86.4954 141 88.34C141 90.1846 142.495 91.68 144.34 91.68ZM27.68 108.34C27.68 110.185 26.1846 111.68 24.34 111.68C22.4954 111.68 21 110.185 21 108.34C21 106.495 22.4954 105 24.34 105C26.1846 105 27.68 106.495 27.68 108.34ZM44.34 111.68C46.1846 111.68 47.68 110.185 47.68 108.34C47.68 106.495 46.1846 105 44.34 105C42.4954 105 41 106.495 41 108.34C41 110.185 42.4954 111.68 44.34 111.68ZM67.68 108.34C67.68 110.185 66.1846 111.68 64.34 111.68C62.4954 111.68 61 110.185 61 108.34C61 106.495 62.4954 105 64.34 105C66.1846 105 67.68 106.495 67.68 108.34ZM84.34 111.68C86.1846 111.68 87.68 110.185 87.68 108.34C87.68 106.495 86.1846 105 84.34 105C82.4954 105 81 106.495 81 108.34C81 110.185 82.4954 111.68 84.34 111.68ZM107.68 108.34C107.68 110.185 106.185 111.68 104.34 111.68C102.495 111.68 101 110.185 101 108.34C101 106.495 102.495 105 104.34 105C106.185 105 107.68 106.495 107.68 108.34ZM124.34 111.68C126.185 111.68 127.68 110.185 127.68 108.34C127.68 106.495 126.185 105 124.34 105C122.495 105 121 106.495 121 108.34C121 110.185 122.495 111.68 124.34 111.68ZM147.68 108.34C147.68 110.185 146.185 111.68 144.34 111.68C142.495 111.68 141 110.185 141 108.34C141 106.495 142.495 105 144.34 105C146.185 105 147.68 106.495 147.68 108.34ZM24.34 131.68C26.1846 131.68 27.68 130.185 27.68 128.34C27.68 126.495 26.1846 125 24.34 125C22.4954 125 21 126.495 21 128.34C21 130.185 22.4954 131.68 24.34 131.68ZM47.68 128.34C47.68 130.185 46.1846 131.68 44.34 131.68C42.4954 131.68 41 130.185 41 128.34C41 126.495 42.4954 125 44.34 125C46.1846 125 47.68 126.495 47.68 128.34ZM64.34 131.68C66.1846 131.68 67.68 130.185 67.68 128.34C67.68 126.495 66.1846 125 64.34 125C62.4954 125 61 126.495 61 128.34C61 130.185 62.4954 131.68 64.34 131.68ZM87.68 128.34C87.68 130.185 86.1846 131.68 84.34 131.68C82.4954 131.68 81 130.185 81 128.34C81 126.495 82.4954 125 84.34 125C86.1846 125 87.68 126.495 87.68 128.34ZM24.34 151.68C26.1846 151.68 27.68 150.185 27.68 148.34C27.68 146.495 26.1846 145 24.34 145C22.4954 145 21 146.495 21 148.34C21 150.185 22.4954 151.68 24.34 151.68ZM47.68 148.34C47.68 150.185 46.1846 151.68 44.34 151.68C42.4954 151.68 41 150.185 41 148.34C41 146.495 42.4954 145 44.34 145C46.1846 145 47.68 146.495 47.68 148.34ZM64.34 151.68C66.1846 151.68 67.68 150.185 67.68 148.34C67.68 146.495 66.1846 145 64.34 145C62.4954 145 61 146.495 61 148.34C61 150.185 62.4954 151.68 64.34 151.68ZM87.68 148.34C87.68 150.185 86.1846 151.68 84.34 151.68C82.4954 151.68 81 150.185 81 148.34C81 146.495 82.4954 145 84.34 145C86.1846 145 87.68 146.495 87.68 148.34ZM104.34 151.68C106.185 151.68 107.68 150.185 107.68 148.34C107.68 146.495 106.185 145 104.34 145C102.495 145 101 146.495 101 148.34C101 150.185 102.495 151.68 104.34 151.68ZM127.68 148.34C127.68 150.185 126.185 151.68 124.34 151.68C122.495 151.68 121 150.185 121 148.34C121 146.495 122.495 145 124.34 145C126.185 145 127.68 146.495 127.68 148.34ZM144.34 151.68C146.185 151.68 147.68 150.185 147.68 148.34C147.68 146.495 146.185 145 144.34 145C142.495 145 141 146.495 141 148.34C141 150.185 142.495 151.68 144.34 151.68ZM27.68 168.34C27.68 170.185 26.1846 171.68 24.34 171.68C22.4954 171.68 21 170.185 21 168.34C21 166.495 22.4954 165 24.34 165C26.1846 165 27.68 166.495 27.68 168.34ZM44.34 171.68C46.1846 171.68 47.68 170.185 47.68 168.34C47.68 166.495 46.1846 165 44.34 165C42.4954 165 41 166.495 41 168.34C41 170.185 42.4954 171.68 44.34 171.68ZM67.68 168.34C67.68 170.185 66.1846 171.68 64.34 171.68C62.4954 171.68 61 170.185 61 168.34C61 166.495 62.4954 165 64.34 165C66.1846 165 67.68 166.495 67.68 168.34ZM84.34 171.68C86.1846 171.68 87.68 170.185 87.68 168.34C87.68 166.495 86.1846 165 84.34 165C82.4954 165 81 166.495 81 168.34C81 170.185 82.4954 171.68 84.34 171.68ZM27.68 188.34C27.68 190.185 26.1846 191.68 24.34 191.68C22.4954 191.68 21 190.185 21 188.34C21 186.495 22.4954 185 24.34 185C26.1846 185 27.68 186.495 27.68 188.34ZM44.34 191.68C46.1846 191.68 47.68 190.185 47.68 188.34C47.68 186.495 46.1846 185 44.34 185C42.4954 185 41 186.495 41 188.34C41 190.185 42.4954 191.68 44.34 191.68ZM67.68 188.34C67.68 190.185 66.1846 191.68 64.34 191.68C62.4954 191.68 61 190.185 61 188.34C61 186.495 62.4954 185 64.34 185C66.1846 185 67.68 186.495 67.68 188.34ZM84.34 191.68C86.1846 191.68 87.68 190.185 87.68 188.34C87.68 186.495 86.1846 185 84.34 185C82.4954 185 81 186.495 81 188.34C81 190.185 82.4954 191.68 84.34 191.68ZM27.68 208.34C27.68 210.185 26.1846 211.68 24.34 211.68C22.4954 211.68 21 210.185 21 208.34C21 206.495 22.4954 205 24.34 205C26.1846 205 27.68 206.495 27.68 208.34ZM44.34 211.68C46.1846 211.68 47.68 210.185 47.68 208.34C47.68 206.495 46.1846 205 44.34 205C42.4954 205 41 206.495 41 208.34C41 210.185 42.4954 211.68 44.34 211.68ZM67.68 208.34C67.68 210.185 66.1846 211.68 64.34 211.68C62.4954 211.68 61 210.185 61 208.34C61 206.495 62.4954 205 64.34 205C66.1846 205 67.68 206.495 67.68 208.34ZM84.34 211.68C86.1846 211.68 87.68 210.185 87.68 208.34C87.68 206.495 86.1846 205 84.34 205C82.4954 205 81 206.495 81 208.34C81 210.185 82.4954 211.68 84.34 211.68ZM27.68 228.34C27.68 230.185 26.1846 231.68 24.34 231.68C22.4954 231.68 21 230.185 21 228.34C21 226.495 22.4954 225 24.34 225C26.1846 225 27.68 226.495 27.68 228.34ZM44.34 231.68C46.1846 231.68 47.68 230.185 47.68 228.34C47.68 226.495 46.1846 225 44.34 225C42.4954 225 41 226.495 41 228.34C41 230.185 42.4954 231.68 44.34 231.68ZM67.68 228.34C67.68 230.185 66.1846 231.68 64.34 231.68C62.4954 231.68 61 230.185 61 228.34C61 226.495 62.4954 225 64.34 225C66.1846 225 67.68 226.495 67.68 228.34ZM84.34 231.68C86.1846 231.68 87.68 230.185 87.68 228.34C87.68 226.495 86.1846 225 84.34 225C82.4954 225 81 226.495 81 228.34C81 230.185 82.4954 231.68 84.34 231.68Z" fill="#2C4470" fill-opacity="0.1"/>
<circle cx="114.572" cy="26.8623" r="7.86232" fill="#FFC369"/>
<circle cx="139.282" cy="26.8623" r="7.86232" fill="#1CC298"/>
<circle cx="47.5" cy="220.5" r="47.5" fill="#0074E0"/>
<path d="M105.5 329.5C131.734 329.5 153 308.234 153 282H58C58 308.234 79.2665 329.5 105.5 329.5Z" fill="#A6F1F5"/>
<rect x="98" y="76" width="55" height="52" fill="#E4EAF5"/>
<rect x="98" y="143" width="55" height="52" fill="#E4EAF5"/>
<rect x="98" y="210" width="55" height="25" fill="#E4EAF5"/>
<rect x="168" y="76" width="55" height="52" fill="#E4EAF5"/>
<rect x="238" y="76" width="55" height="52" fill="#E4EAF5"/>
<rect x="308" y="76" width="55" height="52" fill="#E4EAF5"/>
<path d="M194.285 158.75H292.402C297.51 158.75 301.652 162.891 301.652 168V356C301.652 361.109 297.51 365.25 292.402 365.25H194.285C189.177 365.25 185.035 361.109 185.035 356V168C185.035 162.891 189.177 158.75 194.285 158.75Z" fill="white" stroke="#465D88" stroke-width="1.5"/>
<path d="M185.91 184H301.285" stroke="#465D88" stroke-width="1.5" stroke-linecap="round" stroke-linejoin="round"/>
<path d="M185.91 323.75H301.285" stroke="#465D88" stroke-width="1.5" stroke-linecap="round" stroke-linejoin="round"/>
<circle cx="242.785" cy="344.875" r="10.625" stroke="#465D88" stroke-width="1.5"/>
<rect x="194.035" y="192.125" width="99.125" height="66.625" fill="#E7EDF7"/>
<path d="M194.035 265.25H293.16V322.938H194.035V265.25Z" fill="#E7EDF7"/>
<path d="M287.013 253.75H323.987C325.077 253.75 326.011 254.532 326.202 255.606L335.634 308.606C335.88 309.984 334.819 311.25 333.419 311.25H277.581C276.181 311.25 275.12 309.984 275.366 308.606L284.798 255.606C284.989 254.532 285.923 253.75 287.013 253.75Z" fill="#D9F4F5" stroke="#465D88" stroke-width="1.5"/>
<path d="M346.956 224.395H346.956C347.109 224.395 347.258 224.343 347.379 224.249C347.499 224.154 347.585 224.022 347.622 223.873C347.622 223.873 347.622 223.873 347.622 223.873L351.796 207.493L351.796 207.493C351.822 207.392 351.824 207.286 351.803 207.184C351.781 207.082 351.737 206.986 351.673 206.903C351.609 206.82 351.527 206.753 351.433 206.707C351.339 206.66 351.235 206.636 351.131 206.636H351.13H345.562C345.38 206.636 345.206 206.708 345.077 206.837C344.948 206.965 344.876 207.14 344.876 207.322C344.876 207.504 344.948 207.679 345.077 207.807C345.206 207.936 345.38 208.008 345.562 208.008H350.226L346.433 223.022H324.836C324.654 223.022 324.479 223.095 324.35 223.223C324.222 223.352 324.149 223.527 324.149 223.709C324.149 223.891 324.222 224.065 324.35 224.194C324.479 224.323 324.654 224.395 324.836 224.395H346.956Z" fill="#2C4470" stroke="#2C4470" stroke-width="0.1"/>
<path d="M321.119 208.008H326.681C326.863 208.008 327.037 207.936 327.166 207.807C327.295 207.679 327.367 207.504 327.367 207.322C327.367 207.14 327.295 206.965 327.166 206.837C327.037 206.708 326.863 206.636 326.681 206.636H321.119C320.937 206.636 320.762 206.708 320.633 206.837C320.505 206.965 320.432 207.14 320.432 207.322C320.432 207.504 320.505 207.679 320.633 207.807C320.762 207.936 320.937 208.008 321.119 208.008Z" fill="#2C4470" stroke="#2C4470" stroke-width="0.1"/>
<path d="M325.784 228.557C325.626 228.561 325.471 228.509 325.346 228.412C325.221 228.314 325.134 228.176 325.099 228.022L325.784 228.557ZM325.784 228.557H351.76H351.792C351.974 228.557 352.149 228.485 352.278 228.356C352.406 228.227 352.479 228.052 352.479 227.87C352.479 227.688 352.406 227.514 352.278 227.385C352.149 227.256 351.974 227.184 351.792 227.184H326.377L320.958 203.321M325.784 228.557L325.099 228.021L319.692 204.158H312.636C312.454 204.158 312.28 204.086 312.151 203.957C312.022 203.829 311.95 203.654 311.95 203.472C311.95 203.29 312.022 203.115 312.151 202.987C312.28 202.858 312.454 202.786 312.636 202.786H320.272C320.431 202.782 320.586 202.833 320.711 202.931C320.836 203.028 320.923 203.166 320.958 203.321M320.958 203.321L320.909 203.332M320.958 203.321L320.958 203.321L320.909 203.332M320.909 203.332C320.877 203.188 320.796 203.061 320.68 202.97C320.564 202.88 320.42 202.832 320.273 202.836M320.909 203.332L320.273 202.836M320.273 202.836H312.636C312.468 202.836 312.306 202.903 312.186 203.022C312.067 203.141 312 203.303 312 203.472C312 203.641 312.067 203.803 312.186 203.922C312.306 204.041 312.468 204.108 312.636 204.108H319.732L320.273 202.836Z" fill="#2C4470" stroke="#2C4470" stroke-width="0.1"/>
<path d="M349.532 234.59V234.59C349.532 233.905 349.329 233.236 348.948 232.667C348.568 232.098 348.027 231.654 347.394 231.392C346.761 231.13 346.065 231.062 345.394 231.196C344.722 231.33 344.105 231.661 343.622 232.145C343.138 232.63 342.809 233.247 342.676 233.919C342.543 234.591 342.613 235.287 342.875 235.919C343.138 236.551 343.583 237.092 344.153 237.471C344.723 237.851 345.393 238.052 346.078 238.051L346.077 238.001L346.078 238.051C346.994 238.048 347.872 237.682 348.519 237.033C349.166 236.385 349.53 235.507 349.532 234.59ZM344.915 232.858C345.259 232.629 345.664 232.507 346.077 232.508C346.629 232.51 347.158 232.73 347.548 233.12C347.938 233.51 348.158 234.039 348.159 234.59C348.161 235.004 348.039 235.409 347.81 235.753C347.581 236.097 347.255 236.366 346.873 236.525C346.491 236.683 346.071 236.725 345.665 236.645C345.26 236.565 344.887 236.366 344.595 236.073C344.302 235.781 344.103 235.408 344.023 235.002C343.942 234.597 343.984 234.176 344.143 233.795C344.302 233.413 344.57 233.087 344.915 232.858Z" fill="#2C4470" stroke="#2C4470" stroke-width="0.1"/>
<path d="M329.544 237.468C330.113 237.848 330.782 238.051 331.467 238.051C332.385 238.051 333.265 237.687 333.914 237.038C334.563 236.388 334.928 235.508 334.928 234.59C334.928 233.906 334.725 233.237 334.344 232.667C333.964 232.098 333.423 231.655 332.791 231.393C332.159 231.131 331.463 231.062 330.791 231.196C330.12 231.329 329.503 231.659 329.019 232.143C328.535 232.627 328.206 233.244 328.072 233.915C327.939 234.586 328.007 235.282 328.269 235.915C328.531 236.547 328.975 237.088 329.544 237.468ZM330.306 232.861C330.649 232.631 331.053 232.508 331.467 232.508C332.019 232.508 332.55 232.728 332.941 233.118C333.332 233.508 333.553 234.038 333.555 234.59C333.556 235.004 333.435 235.408 333.206 235.752C332.977 236.096 332.652 236.365 332.27 236.524C331.889 236.683 331.469 236.725 331.063 236.645C330.658 236.566 330.285 236.367 329.992 236.075C329.7 235.784 329.5 235.412 329.419 235.006C329.338 234.601 329.379 234.181 329.537 233.799C329.695 233.417 329.962 233.091 330.306 232.861Z" fill="#2C4470" stroke="#2C4470" stroke-width="0.1"/>
<mask id="path-28-outside-1" maskUnits="userSpaceOnUse" x="325.045" y="195" width="22" height="22" fill="black">
<rect fill="white" x="325.045" y="195" width="22" height="22"/>
<path d="M337.595 216.123H334.623C334.492 216.122 334.364 216.081 334.256 216.005C334.149 215.929 334.068 215.821 334.025 215.697L333.586 214.456L332.447 213.978L331.963 213.781L330.773 214.354C330.654 214.411 330.52 214.429 330.39 214.406C330.26 214.383 330.141 214.32 330.048 214.227C329.017 213.183 329.017 213.183 327.941 212.127C327.846 212.033 327.783 211.912 327.76 211.781C327.737 211.65 327.756 211.515 327.814 211.395L328.387 210.211L328.196 209.747C328.043 209.358 327.903 209.027 327.719 208.582L326.471 208.149C326.346 208.106 326.238 208.024 326.161 207.915C326.085 207.807 326.044 207.677 326.045 207.545V204.573C326.045 204.441 326.087 204.313 326.163 204.206C326.239 204.099 326.347 204.018 326.471 203.975L327.744 203.536C327.929 203.097 328.069 202.759 328.221 202.377L328.412 201.913L327.839 200.729C327.781 200.609 327.762 200.474 327.785 200.343C327.808 200.212 327.872 200.091 327.967 199.997C329.017 198.954 329.017 198.954 330.048 197.91C330.141 197.817 330.261 197.756 330.391 197.734C330.521 197.713 330.655 197.732 330.773 197.789L331.963 198.362L332.447 198.158L333.586 197.687L334.025 196.446C334.065 196.319 334.145 196.207 334.252 196.127C334.359 196.047 334.489 196.003 334.623 196.001H337.595C337.733 195.993 337.87 196.031 337.985 196.108C338.099 196.185 338.186 196.297 338.231 196.427L338.664 197.7L339.803 198.171L340.287 198.375L341.477 197.802C341.591 197.749 341.719 197.73 341.843 197.75C341.968 197.769 342.084 197.825 342.177 197.91C343.221 198.973 343.221 198.973 344.277 200.016C344.372 200.11 344.436 200.231 344.458 200.362C344.481 200.493 344.462 200.628 344.404 200.748L343.831 201.932L344.029 202.409C344.181 202.791 344.321 203.122 344.506 203.555L345.747 203.994C345.871 204.037 345.979 204.118 346.055 204.225C346.132 204.332 346.173 204.46 346.173 204.592V207.564C346.174 207.696 346.133 207.826 346.057 207.934C345.981 208.043 345.872 208.125 345.747 208.168L344.506 208.601C344.321 209.04 344.181 209.371 344.029 209.747L343.831 210.23L344.404 211.414C344.462 211.534 344.481 211.669 344.458 211.8C344.436 211.932 344.372 212.052 344.277 212.146C343.221 213.189 343.221 213.189 342.177 214.246C342.084 214.341 341.963 214.404 341.832 214.427C341.7 214.45 341.565 214.431 341.445 214.373L340.255 213.8L339.778 213.998L338.632 214.475L338.2 215.728C338.151 215.848 338.067 215.949 337.959 216.02C337.851 216.09 337.724 216.126 337.595 216.123ZM335.05 214.85H337.118L337.5 213.768C337.529 213.685 337.575 213.609 337.635 213.544C337.695 213.479 337.768 213.428 337.85 213.393L339.269 212.801L340.007 212.496C340.089 212.459 340.178 212.44 340.268 212.44C340.358 212.44 340.447 212.459 340.529 212.496L341.566 212.992C342.202 212.356 342.381 212.171 343.036 211.522L342.533 210.485C342.496 210.403 342.477 210.314 342.477 210.224C342.477 210.134 342.496 210.045 342.533 209.963L342.839 209.225C343.023 208.773 343.182 208.385 343.431 207.806C343.465 207.724 343.517 207.651 343.581 207.591C343.646 207.531 343.723 207.485 343.806 207.456L344.888 207.08V205.025L343.806 204.643C343.723 204.614 343.646 204.568 343.581 204.507C343.517 204.447 343.465 204.374 343.431 204.293C343.182 203.72 343.023 203.332 342.839 202.874L342.533 202.136C342.497 202.054 342.479 201.967 342.479 201.878C342.479 201.789 342.497 201.701 342.533 201.62L343.036 200.583C342.4 199.946 342.215 199.768 341.566 199.113L340.529 199.609C340.447 199.646 340.358 199.665 340.268 199.665C340.178 199.665 340.089 199.646 340.007 199.609L339.269 199.297L337.85 198.712C337.768 198.677 337.695 198.626 337.635 198.561C337.575 198.496 337.529 198.42 337.5 198.336L337.143 197.274H335.075L334.693 198.356C334.664 198.439 334.618 198.515 334.558 198.58C334.497 198.645 334.424 198.696 334.343 198.731L332.93 199.316L332.199 199.628C332.117 199.665 332.028 199.684 331.938 199.684C331.848 199.684 331.759 199.665 331.677 199.628L330.646 199.132C330.01 199.768 329.831 199.953 329.176 200.602L329.653 201.62C329.689 201.701 329.708 201.789 329.708 201.878C329.708 201.967 329.689 202.054 329.653 202.136L329.354 202.861C329.17 203.319 329.004 203.714 328.756 204.293C328.722 204.373 328.671 204.446 328.608 204.506C328.544 204.567 328.469 204.613 328.387 204.643L327.305 205.025V207.099L328.38 207.456C328.463 207.485 328.538 207.532 328.601 207.592C328.665 207.652 328.715 207.725 328.75 207.806C328.998 208.391 329.163 208.779 329.348 209.244L329.653 210.001C329.69 210.083 329.709 210.172 329.709 210.262C329.709 210.352 329.69 210.441 329.653 210.523L329.157 211.56C329.793 212.197 329.978 212.375 330.627 213.03L331.664 212.547C331.746 212.51 331.835 212.491 331.925 212.491C332.015 212.491 332.104 212.51 332.186 212.547L332.93 212.852L334.343 213.444C334.424 213.479 334.497 213.53 334.558 213.595C334.618 213.659 334.664 213.736 334.693 213.819L335.05 214.85Z"/>
</mask>
<path d="M337.595 216.123H334.623C334.492 216.122 334.364 216.081 334.256 216.005C334.149 215.929 334.068 215.821 334.025 215.697L333.586 214.456L332.447 213.978L331.963 213.781L330.773 214.354C330.654 214.411 330.52 214.429 330.39 214.406C330.26 214.383 330.141 214.32 330.048 214.227C329.017 213.183 329.017 213.183 327.941 212.127C327.846 212.033 327.783 211.912 327.76 211.781C327.737 211.65 327.756 211.515 327.814 211.395L328.387 210.211L328.196 209.747C328.043 209.358 327.903 209.027 327.719 208.582L326.471 208.149C326.346 208.106 326.238 208.024 326.161 207.915C326.085 207.807 326.044 207.677 326.045 207.545V204.573C326.045 204.441 326.087 204.313 326.163 204.206C326.239 204.099 326.347 204.018 326.471 203.975L327.744 203.536C327.929 203.097 328.069 202.759 328.221 202.377L328.412 201.913L327.839 200.729C327.781 200.609 327.762 200.474 327.785 200.343C327.808 200.212 327.872 200.091 327.967 199.997C329.017 198.954 329.017 198.954 330.048 197.91C330.141 197.817 330.261 197.756 330.391 197.734C330.521 197.713 330.655 197.732 330.773 197.789L331.963 198.362L332.447 198.158L333.586 197.687L334.025 196.446C334.065 196.319 334.145 196.207 334.252 196.127C334.359 196.047 334.489 196.003 334.623 196.001H337.595C337.733 195.993 337.87 196.031 337.985 196.108C338.099 196.185 338.186 196.297 338.231 196.427L338.664 197.7L339.803 198.171L340.287 198.375L341.477 197.802C341.591 197.749 341.719 197.73 341.843 197.75C341.968 197.769 342.084 197.825 342.177 197.91C343.221 198.973 343.221 198.973 344.277 200.016C344.372 200.11 344.436 200.231 344.458 200.362C344.481 200.493 344.462 200.628 344.404 200.748L343.831 201.932L344.029 202.409C344.181 202.791 344.321 203.122 344.506 203.555L345.747 203.994C345.871 204.037 345.979 204.118 346.055 204.225C346.132 204.332 346.173 204.46 346.173 204.592V207.564C346.174 207.696 346.133 207.826 346.057 207.934C345.981 208.043 345.872 208.125 345.747 208.168L344.506 208.601C344.321 209.04 344.181 209.371 344.029 209.747L343.831 210.23L344.404 211.414C344.462 211.534 344.481 211.669 344.458 211.8C344.436 211.932 344.372 212.052 344.277 212.146C343.221 213.189 343.221 213.189 342.177 214.246C342.084 214.341 341.963 214.404 341.832 214.427C341.7 214.45 341.565 214.431 341.445 214.373L340.255 213.8L339.778 213.998L338.632 214.475L338.2 215.728C338.151 215.848 338.067 215.949 337.959 216.02C337.851 216.09 337.724 216.126 337.595 216.123ZM335.05 214.85H337.118L337.5 213.768C337.529 213.685 337.575 213.609 337.635 213.544C337.695 213.479 337.768 213.428 337.85 213.393L339.269 212.801L340.007 212.496C340.089 212.459 340.178 212.44 340.268 212.44C340.358 212.44 340.447 212.459 340.529 212.496L341.566 212.992C342.202 212.356 342.381 212.171 343.036 211.522L342.533 210.485C342.496 210.403 342.477 210.314 342.477 210.224C342.477 210.134 342.496 210.045 342.533 209.963L342.839 209.225C343.023 208.773 343.182 208.385 343.431 207.806C343.465 207.724 343.517 207.651 343.581 207.591C343.646 207.531 343.723 207.485 343.806 207.456L344.888 207.08V205.025L343.806 204.643C343.723 204.614 343.646 204.568 343.581 204.507C343.517 204.447 343.465 204.374 343.431 204.293C343.182 203.72 343.023 203.332 342.839 202.874L342.533 202.136C342.497 202.054 342.479 201.967 342.479 201.878C342.479 201.789 342.497 201.701 342.533 201.62L343.036 200.583C342.4 199.946 342.215 199.768 341.566 199.113L340.529 199.609C340.447 199.646 340.358 199.665 340.268 199.665C340.178 199.665 340.089 199.646 340.007 199.609L339.269 199.297L337.85 198.712C337.768 198.677 337.695 198.626 337.635 198.561C337.575 198.496 337.529 198.42 337.5 198.336L337.143 197.274H335.075L334.693 198.356C334.664 198.439 334.618 198.515 334.558 198.58C334.497 198.645 334.424 198.696 334.343 198.731L332.93 199.316L332.199 199.628C332.117 199.665 332.028 199.684 331.938 199.684C331.848 199.684 331.759 199.665 331.677 199.628L330.646 199.132C330.01 199.768 329.831 199.953 329.176 200.602L329.653 201.62C329.689 201.701 329.708 201.789 329.708 201.878C329.708 201.967 329.689 202.054 329.653 202.136L329.354 202.861C329.17 203.319 329.004 203.714 328.756 204.293C328.722 204.373 328.671 204.446 328.608 204.506C328.544 204.567 328.469 204.613 328.387 204.643L327.305 205.025V207.099L328.38 207.456C328.463 207.485 328.538 207.532 328.601 207.592C328.665 207.652 328.715 207.725 328.75 207.806C328.998 208.391 329.163 208.779 329.348 209.244L329.653 210.001C329.69 210.083 329.709 210.172 329.709 210.262C329.709 210.352 329.69 210.441 329.653 210.523L329.157 211.56C329.793 212.197 329.978 212.375 330.627 213.03L331.664 212.547C331.746 212.51 331.835 212.491 331.925 212.491C332.015 212.491 332.104 212.51 332.186 212.547L332.93 212.852L334.343 213.444C334.424 213.479 334.497 213.53 334.558 213.595C334.618 213.659 334.664 213.736 334.693 213.819L335.05 214.85Z" fill="#2C4470"/>
<path d="M337.595 216.123H334.623C334.492 216.122 334.364 216.081 334.256 216.005C334.149 215.929 334.068 215.821 334.025 215.697L333.586 214.456L332.447 213.978L331.963 213.781L330.773 214.354C330.654 214.411 330.52 214.429 330.39 214.406C330.26 214.383 330.141 214.32 330.048 214.227C329.017 213.183 329.017 213.183 327.941 212.127C327.846 212.033 327.783 211.912 327.76 211.781C327.737 211.65 327.756 211.515 327.814 211.395L328.387 210.211L328.196 209.747C328.043 209.358 327.903 209.027 327.719 208.582L326.471 208.149C326.346 208.106 326.238 208.024 326.161 207.915C326.085 207.807 326.044 207.677 326.045 207.545V204.573C326.045 204.441 326.087 204.313 326.163 204.206C326.239 204.099 326.347 204.018 326.471 203.975L327.744 203.536C327.929 203.097 328.069 202.759 328.221 202.377L328.412 201.913L327.839 200.729C327.781 200.609 327.762 200.474 327.785 200.343C327.808 200.212 327.872 200.091 327.967 199.997C329.017 198.954 329.017 198.954 330.048 197.91C330.141 197.817 330.261 197.756 330.391 197.734C330.521 197.713 330.655 197.732 330.773 197.789L331.963 198.362L332.447 198.158L333.586 197.687L334.025 196.446C334.065 196.319 334.145 196.207 334.252 196.127C334.359 196.047 334.489 196.003 334.623 196.001H337.595C337.733 195.993 337.87 196.031 337.985 196.108C338.099 196.185 338.186 196.297 338.231 196.427L338.664 197.7L339.803 198.171L340.287 198.375L341.477 197.802C341.591 197.749 341.719 197.73 341.843 197.75C341.968 197.769 342.084 197.825 342.177 197.91C343.221 198.973 343.221 198.973 344.277 200.016C344.372 200.11 344.436 200.231 344.458 200.362C344.481 200.493 344.462 200.628 344.404 200.748L343.831 201.932L344.029 202.409C344.181 202.791 344.321 203.122 344.506 203.555L345.747 203.994C345.871 204.037 345.979 204.118 346.055 204.225C346.132 204.332 346.173 204.46 346.173 204.592V207.564C346.174 207.696 346.133 207.826 346.057 207.934C345.981 208.043 345.872 208.125 345.747 208.168L344.506 208.601C344.321 209.04 344.181 209.371 344.029 209.747L343.831 210.23L344.404 211.414C344.462 211.534 344.481 211.669 344.458 211.8C344.436 211.932 344.372 212.052 344.277 212.146C343.221 213.189 343.221 213.189 342.177 214.246C342.084 214.341 341.963 214.404 341.832 214.427C341.7 214.45 341.565 214.431 341.445 214.373L340.255 213.8L339.778 213.998L338.632 214.475L338.2 215.728C338.151 215.848 338.067 215.949 337.959 216.02C337.851 216.09 337.724 216.126 337.595 216.123ZM335.05 214.85H337.118L337.5 213.768C337.529 213.685 337.575 213.609 337.635 213.544C337.695 213.479 337.768 213.428 337.85 213.393L339.269 212.801L340.007 212.496C340.089 212.459 340.178 212.44 340.268 212.44C340.358 212.44 340.447 212.459 340.529 212.496L341.566 212.992C342.202 212.356 342.381 212.171 343.036 211.522L342.533 210.485C342.496 210.403 342.477 210.314 342.477 210.224C342.477 210.134 342.496 210.045 342.533 209.963L342.839 209.225C343.023 208.773 343.182 208.385 343.431 207.806C343.465 207.724 343.517 207.651 343.581 207.591C343.646 207.531 343.723 207.485 343.806 207.456L344.888 207.08V205.025L343.806 204.643C343.723 204.614 343.646 204.568 343.581 204.507C343.517 204.447 343.465 204.374 343.431 204.293C343.182 203.72 343.023 203.332 342.839 202.874L342.533 202.136C342.497 202.054 342.479 201.967 342.479 201.878C342.479 201.789 342.497 201.701 342.533 201.62L343.036 200.583C342.4 199.946 342.215 199.768 341.566 199.113L340.529 199.609C340.447 199.646 340.358 199.665 340.268 199.665C340.178 199.665 340.089 199.646 340.007 199.609L339.269 199.297L337.85 198.712C337.768 198.677 337.695 198.626 337.635 198.561C337.575 198.496 337.529 198.42 337.5 198.336L337.143 197.274H335.075L334.693 198.356C334.664 198.439 334.618 198.515 334.558 198.58C334.497 198.645 334.424 198.696 334.343 198.731L332.93 199.316L332.199 199.628C332.117 199.665 332.028 199.684 331.938 199.684C331.848 199.684 331.759 199.665 331.677 199.628L330.646 199.132C330.01 199.768 329.831 199.953 329.176 200.602L329.653 201.62C329.689 201.701 329.708 201.789 329.708 201.878C329.708 201.967 329.689 202.054 329.653 202.136L329.354 202.861C329.17 203.319 329.004 203.714 328.756 204.293C328.722 204.373 328.671 204.446 328.608 204.506C328.544 204.567 328.469 204.613 328.387 204.643L327.305 205.025V207.099L328.38 207.456C328.463 207.485 328.538 207.532 328.601 207.592C328.665 207.652 328.715 207.725 328.75 207.806C328.998 208.391 329.163 208.779 329.348 209.244L329.653 210.001C329.69 210.083 329.709 210.172 329.709 210.262C329.709 210.352 329.69 210.441 329.653 210.523L329.157 211.56C329.793 212.197 329.978 212.375 330.627 213.03L331.664 212.547C331.746 212.51 331.835 212.491 331.925 212.491C332.015 212.491 332.104 212.51 332.186 212.547L332.93 212.852L334.343 213.444C334.424 213.479 334.497 213.53 334.558 213.595C334.618 213.659 334.664 213.736 334.693 213.819L335.05 214.85Z" stroke="#2C4470" stroke-width="0.2" mask="url(#path-28-outside-1)"/>
<path d="M340.019 206.056V206.055C340.017 205.285 339.788 204.531 339.359 203.891C338.93 203.251 338.32 202.752 337.608 202.457C336.896 202.163 336.112 202.086 335.356 202.237C334.6 202.388 333.906 202.759 333.361 203.304C332.816 203.849 332.444 204.543 332.294 205.299C332.143 206.055 332.22 206.839 332.514 207.551C332.809 208.264 333.307 208.873 333.948 209.302C334.588 209.731 335.341 209.961 336.112 209.962H336.112C337.148 209.96 338.14 209.548 338.873 208.816C339.605 208.084 340.017 207.091 340.019 206.056ZM334.707 203.966C335.122 203.686 335.611 203.536 336.112 203.535C336.778 203.533 337.418 203.794 337.893 204.261C338.367 204.729 338.638 205.365 338.646 206.031C338.652 206.531 338.509 207.023 338.236 207.442C337.962 207.862 337.57 208.191 337.109 208.387C336.648 208.583 336.139 208.638 335.647 208.545C335.155 208.451 334.702 208.214 334.345 207.862C333.988 207.511 333.744 207.061 333.643 206.57C333.542 206.08 333.59 205.57 333.779 205.106C333.968 204.643 334.291 204.246 334.707 203.966Z" fill="#2C4470" stroke="#2C4470" stroke-width="0.1"/>
<path d="M232.1 273.7H169.4C166.575 273.7 163.867 272.578 161.869 270.581C159.872 268.584 158.75 265.875 158.75 263.05V228.85C158.75 226.026 159.872 223.317 161.869 221.32C163.867 219.322 166.575 218.2 169.4 218.2H232.1C234.925 218.2 237.633 219.322 239.631 221.32C241.628 223.317 242.75 226.026 242.75 228.85V263.05C242.75 265.875 241.628 268.584 239.631 270.581C237.633 272.578 234.925 273.7 232.1 273.7Z" fill="#E6F1FC" stroke="#465D88" stroke-width="1.5"/>
<path d="M212.149 262.3L212.147 262.3C210.878 262.307 209.626 262.005 208.501 261.419C207.375 260.834 206.409 259.982 205.687 258.939C204.965 257.895 204.508 256.692 204.357 255.432C204.205 254.172 204.363 252.894 204.817 251.709C205.271 250.524 206.007 249.468 206.962 248.632C207.917 247.796 209.061 247.205 210.295 246.912C211.53 246.618 212.817 246.63 214.046 246.946C215.275 247.263 216.408 247.874 217.347 248.728L217.851 249.186L218.356 248.728C219.474 247.711 220.863 247.042 222.355 246.8C223.847 246.558 225.376 246.755 226.758 247.367C228.14 247.978 229.314 248.978 230.139 250.244C230.963 251.51 231.402 252.989 231.402 254.5C231.402 256.011 230.963 257.489 230.139 258.756C229.314 260.022 228.14 261.021 226.758 261.633C225.376 262.244 223.847 262.441 222.355 262.199C220.863 261.958 219.474 261.288 218.356 260.272L217.85 259.812L217.346 260.273C215.925 261.57 214.073 262.293 212.149 262.3Z" stroke="#465D88" stroke-width="1.5"/>
<path d="M180.049 234.55V240.25H181.549V234.55H180.049ZM185.134 230.215L185.665 229.685L185.134 230.215C185.528 230.609 185.749 231.143 185.749 231.7V243.1C185.749 243.657 185.528 244.191 185.134 244.585C184.741 244.979 184.206 245.2 183.649 245.2H172.249C171.692 245.2 171.158 244.979 170.764 244.585L170.234 245.115L170.764 244.585C170.371 244.191 170.149 243.657 170.149 243.1V231.7C170.149 231.143 170.371 230.609 170.764 230.215C171.158 229.821 171.692 229.6 172.249 229.6H183.649C184.206 229.6 184.741 229.821 185.134 230.215Z" fill="#CCDEF0" stroke="#465D88" stroke-width="1.5"/>
</svg>
