<svg width="38" height="38" viewBox="0 0 38 38" fill="none" xmlns="http://www.w3.org/2000/svg">
<g opacity="0.8">
<path d="M18.9991 2.37183C9.83008 2.37183 2.37109 9.83111 2.37109 18.9998C2.37109 28.1688 9.83008 35.6284 18.9991 35.6284C28.1675 35.6284 35.627 28.1688 35.627 18.9998C35.627 9.83111 28.1675 2.37183 18.9991 2.37183ZM23.6986 12.8687C23.6986 12.9475 23.6673 13.023 23.6116 13.0787C23.556 13.1343 23.4805 13.1656 23.4017 13.1656L21.5115 13.1668C20.2643 13.1668 20.0363 13.6525 20.0363 14.609V16.5933H23.2782C23.3634 16.5933 23.4448 16.6301 23.5009 16.6943C23.557 16.7584 23.5831 16.8436 23.5727 16.9282L23.1111 20.5005C23.1018 20.5721 23.0669 20.6378 23.0127 20.6855C22.9584 20.7331 22.8887 20.7594 22.8166 20.7594H20.0363V29.6297C20.0363 29.7084 20.0051 29.7839 19.9494 29.8396C19.8937 29.8953 19.8182 29.9266 19.7395 29.9266H16.0511C15.9724 29.9266 15.8968 29.8953 15.8412 29.8396C15.7855 29.7839 15.7542 29.7084 15.7542 29.6297V20.7594H12.9651C12.8863 20.7594 12.8108 20.7281 12.7552 20.6724C12.6995 20.6167 12.6682 20.5412 12.6682 20.4625V16.8902C12.6682 16.8115 12.6995 16.736 12.7552 16.6803C12.8108 16.6246 12.8863 16.5933 12.9651 16.5933H15.7542V14.2554C15.7542 11.159 17.6281 9.23587 20.6452 9.23587C21.9423 9.23587 23.0885 9.33236 23.4406 9.37897C23.512 9.3884 23.5775 9.42343 23.6249 9.47755C23.6724 9.53167 23.6986 9.60119 23.6986 9.67317V12.8687Z" fill="#2C4470"/>
</g>
</svg>
