<svg width="28" height="18" viewBox="0 0 28 18" fill="none" xmlns="http://www.w3.org/2000/svg">
<path d="M27 9.23337C27 9.03282 26.8787 8.76654 26.7556 8.63732L19.8224 1.2705C19.4987 0.935834 18.9743 0.89705 18.5969 1.2367C18.2595 1.54034 18.2511 2.13252 18.5631 2.46225L24.1286 8.36654H1.86667C1.38801 8.36654 1 8.75455 1 9.23321C1 9.71187 1.38801 10.0999 1.86667 10.0999H24.1286L18.5631 16.0042C18.2511 16.3339 18.2733 16.9115 18.5969 17.2297C18.9386 17.5656 19.5037 17.5357 19.8224 17.1959L26.7556 9.82913C26.9594 9.62931 26.9966 9.43686 27 9.23337Z" fill="#0074E0" stroke="#0074E0"/>
</svg>
