<svg width="34" height="34" viewBox="0 0 34 34" fill="none" xmlns="http://www.w3.org/2000/svg">
<path d="M7.30967 14.62L3.90967 17L7.47967 19.55L16.9997 24.99L28.7297 18.19L30.2597 17L26.5197 14.62L16.9997 20.06L7.30967 14.62Z" fill="#BDF3FF"/>
<path d="M16.9878 30.5998C16.5773 30.6053 16.1728 30.5 15.8165 30.2951L4.05963 23.1777C3.50866 22.9418 3.25216 22.3027 3.48697 21.7498C3.59678 21.491 3.80204 21.2851 4.05963 21.1749L6.57585 19.6188L4.05963 18.1058C3.50866 17.8704 3.25216 17.231 3.48697 16.6779C3.59678 16.4191 3.80204 16.2132 4.05963 16.1032L6.57585 14.5469L4.05963 13.0233C3.6887 12.8241 3.44955 12.4437 3.43057 12.022C3.44359 11.5986 3.67894 11.2139 4.04878 11.0098L15.8273 3.70714C16.5472 3.29765 17.4284 3.29765 18.148 3.70714L29.9271 11.0098C30.2967 11.2139 30.5318 11.5986 30.5451 12.022C30.5261 12.4437 30.2869 12.8241 29.916 13.0233L27.4106 14.536L29.9271 16.0924C30.4811 16.3206 30.746 16.9565 30.5182 17.5126C30.4081 17.7814 30.1953 17.995 29.9271 18.1058L27.4217 19.6188L29.9377 21.1749C30.4889 21.4105 30.7454 22.0499 30.5106 22.6028C30.4005 22.8615 30.1956 23.0672 29.9377 23.1777L18.1592 30.2842C17.804 30.4926 17.3994 30.6017 16.9878 30.5998ZM4.51515 22.1761L4.61276 22.2412L16.3696 29.3482C16.7511 29.5439 17.2028 29.5439 17.5843 29.3482L29.352 22.2523C29.3892 22.2333 29.4222 22.2072 29.4496 22.1761L29.3631 22.1108L26.3694 20.2607L18.1592 25.1582C17.433 25.5589 16.5532 25.5589 15.8273 25.1582L7.6062 20.2498L4.61276 22.1L4.51515 22.1761ZM4.51515 17.1045L4.61276 17.1701L16.3696 24.2766C16.7511 24.4725 17.2028 24.4725 17.5843 24.2766L29.352 17.1701C29.3903 17.1478 29.4233 17.1181 29.4496 17.0827L29.352 17.0174L26.3589 15.1673L18.1375 20.1301C17.4119 20.533 16.5309 20.533 15.8056 20.1301L7.6062 15.1673L4.61276 17.0174C4.57507 17.04 4.54199 17.0694 4.51515 17.1045ZM4.51515 12.022L4.62361 12.0982L16.3805 19.205C16.7625 19.399 17.2134 19.399 17.5952 19.205L29.352 12.0982C29.3932 12.0761 29.4304 12.0468 29.4605 12.0111L29.3631 11.9349L17.5301 4.63222C17.1594 4.4404 16.7188 4.4404 16.3479 4.63222L4.62361 11.9458C4.58321 11.9646 4.5466 11.9904 4.51515 12.022Z" fill="#0074E0"/>
</svg>
