<svg width="100" height="100" viewBox="0 0 100 100" fill="none" xmlns="http://www.w3.org/2000/svg">
<path d="M21.5 43L11.5 50L22 57.5L50 73.5L84.5 53.5L89 50L78 43L50 59L21.5 43Z" fill="#BDF3FF"/>
<path d="M49.9644 89.9994C48.7571 90.0154 47.5672 89.7057 46.5193 89.1031L11.9404 68.1695C10.3199 67.4757 9.56546 65.596 10.2561 63.9699C10.5791 63.2088 11.1828 62.603 11.9404 62.279L19.341 57.7024L11.9404 53.2522C10.3199 52.56 9.56546 50.6794 10.2561 49.0525C10.5791 48.2915 11.1828 47.6857 11.9404 47.3624L19.341 42.785L11.9404 38.3036C10.8494 37.7179 10.146 36.5991 10.0902 35.3587C10.1285 34.1136 10.8207 32.982 11.9085 32.3818L46.5512 10.9033C48.6685 9.69891 51.2604 9.69891 53.3769 10.9033L88.0212 32.3818C89.1082 32.982 89.7996 34.1136 89.8387 35.3587C89.7829 36.5991 89.0795 37.7179 87.9885 38.3036L80.6198 42.753L88.0212 47.3304C89.6505 48.0018 90.4296 49.872 89.7597 51.5077C89.436 52.2983 88.8099 52.9265 88.0212 53.2522L80.6525 57.7024L88.0523 62.279C89.6736 62.972 90.428 64.8525 89.7374 66.4786C89.4136 67.2397 88.8107 67.8446 88.0523 68.1695L53.4096 89.0711C52.3649 89.6841 51.175 90.005 49.9644 89.9994ZM13.2801 65.2238L13.5672 65.4151L48.1462 86.3183C49.2682 86.8937 50.5969 86.8937 51.7189 86.3183L86.3298 65.4479C86.439 65.3919 86.5363 65.3151 86.6169 65.2238L86.3625 65.0318L77.5574 59.5901L53.4096 73.9945C51.2739 75.1733 48.6861 75.1733 46.5512 73.9945L22.3715 59.5581L13.5672 64.9998L13.2801 65.2238ZM13.2801 50.3073L13.5672 50.5002L48.1462 71.4017C49.2682 71.9779 50.5969 71.9779 51.7189 71.4017L86.3298 50.5002C86.4422 50.4345 86.5395 50.3473 86.6169 50.2433L86.3298 50.0512L77.5263 44.6096L53.3458 59.206C51.2117 60.3912 48.6207 60.3912 46.4874 59.206L22.3715 44.6096L13.5672 50.0512C13.4564 50.1176 13.3591 50.2041 13.2801 50.3073ZM13.2801 35.3587L13.5991 35.5828L48.1781 56.4852C49.3017 57.0558 50.628 57.0558 51.7508 56.4852L86.3298 35.5828C86.451 35.518 86.5602 35.4316 86.6488 35.3267L86.3625 35.1027L51.5594 13.6241C50.4693 13.0599 49.1733 13.0599 48.0824 13.6241L13.5991 35.1347C13.4803 35.1899 13.3726 35.2659 13.2801 35.3587Z" fill="#0074E0"/>
</svg>
