<svg width="40" height="40" fill="none" xmlns="http://www.w3.org/2000/svg">
    <path d="M4.8 12.4a5.6 5.6 0 0 1 5.6-5.6H30a5.6 5.6 0 0 1 5.6 5.6H4.8z" fill="#fff"/>
    <path d="M33.241 6.8H6.76A2.762 2.762 0 0 0 4 9.559v20.965a2.762 2.762 0 0 0 2.759 2.759H33.24A2.762 2.762 0 0 0 36 30.524V9.56A2.762 2.762 0 0 0 33.241 6.8zM6.76 7.904H33.24c.913 0 1.656.742 1.656 1.655v1.655H5.103V9.559c0-.913.743-1.655 1.656-1.655zM33.24 32.178H6.76a1.657 1.657 0 0 1-1.656-1.655V12.317h29.794v18.207c0 .913-.743 1.655-1.656 1.655z" fill="#2C4470"/>
    <path d="M6.759 10.11a.552.552 0 1 0 0-1.103.552.552 0 0 0 0 1.103zM8.966 10.11a.552.552 0 1 0 0-1.103.552.552 0 0 0 0 1.103zM11.173 10.11a.552.552 0 1 0 0-1.103.552.552 0 0 0 0 1.103z" fill="#2C4470"/>
    <path d="m23.842 25.042.42 2.146-1.277.889-1.862-1.147c-.092.037-.18.048-.28.063l-1.22 1.807-1.526-.272-.504-2.124a1.625 1.625 0 0 1-.243-.157l-2.135.416-.888-1.278 1.143-1.855a1.977 1.977 0 0 1-.06-.268l-1.81-1.231.272-1.526 2.135-.508c.04-.08.088-.158.143-.232l-.41-2.15 1.275-.88 1.854 1.143c.092-.037.18-.049.28-.063L20.373 16l1.522.28.504 2.123c.088.044.17.103.247.15l2.138-.404.885 1.266-1.147 1.862c.03.088.048.18.06.268L26.4 22.78l-.28 1.523-2.127.511a1.616 1.616 0 0 1-.15.228z" fill="#fff" stroke="#2C4470" stroke-miterlimit="10" stroke-linecap="round" stroke-linejoin="round"/>
    <path d="M22.749 22.901a2.793 2.793 0 0 1-3.248 2.254 2.791 2.791 0 0 1-2.254-3.248 2.791 2.791 0 0 1 3.248-2.254 2.793 2.793 0 0 1 2.254 3.248z" fill="#fff" stroke="#2C4470" stroke-miterlimit="10" stroke-linecap="round" stroke-linejoin="round"/>
</svg>
