<svg width="48" height="70" viewBox="0 0 48 70" fill="none" xmlns="http://www.w3.org/2000/svg">
<path d="M0 0H3.72788V3.44915H7.13725V0H10.8651V10.4455H7.13725V6.95344H3.72788V10.4455H0V0ZM15.7663 3.46447H12.4786V0.000612302H22.7701V3.46447H19.487V10.4467H15.7591V3.46447H15.7663ZM24.4039 0H28.2907L30.6817 3.67583L33.0702 0H36.9518V10.4455H33.2396V5.26746L30.6758 8.98189H30.6118L28.0572 5.26807V10.4461H24.4104L24.4039 0ZM38.8118 0H42.5397V6.99939H47.7816V10.4522H38.8124L38.8118 0Z" fill="black"/>
<path d="M0 16.4249H47.2396L42.9362 64.6365L23.5922 70L4.30034 64.644L0 16.4249Z" fill="#E44D26"/>
<path d="M39.2553 61.568L42.933 20.3683H23.6367V65.9012L39.2553 61.568Z" fill="#F16529"/>
<path d="M15.7966 38.2521L15.2561 32.1958H23.6358V26.2828H8.80859L10.4033 44.1666H23.6358V38.2536L15.7966 38.2521ZM10.6512 47.1246L11.4799 56.4121L23.594 59.7747L23.6209 59.7673V53.6154L23.5955 53.6229L17.0255 51.831L16.6045 47.1126H13.4046L10.6512 47.1246Z" fill="#EBEBEB"/>
<path d="M37.2029 39.8378L37.3477 38.2491H23.6016V44.1621H30.8838L30.1969 51.8325L23.6016 53.6124V59.7643L35.7261 56.4046L35.8157 55.4042L37.2029 39.8378ZM23.615 32.1958H37.9002L38.4303 26.2679H23.615V32.1659V32.1958Z" fill="white"/>
</svg>
