<svg width="229" height="179" viewBox="0 0 229 179" fill="none" xmlns="http://www.w3.org/2000/svg">
<path d="M54.9448 147.48L55.0674 147.296L1.42226 116.355C0.809173 115.988 0.441336 115.559 0.441336 115.007C0.441336 114.517 0.809173 114.027 1.42226 113.659L10.8638 108.206L10.7412 108.023L1.29964 113.476C0.625239 113.843 0.25738 114.395 0.25738 114.946C0.25738 115.497 0.625239 116.049 1.29964 116.416L54.9448 147.48Z" fill="#0074E0"/>
<path d="M124.959 155.078C125.45 155.078 125.94 154.955 126.308 154.71L188.781 118.622C189.149 118.377 189.395 118.071 189.395 117.764C189.395 117.519 189.211 117.274 188.965 117.09L151.69 95.5847C151.077 95.2171 149.973 95.2784 149.299 95.7073L86.8251 131.795C86.4572 132.04 86.212 132.347 86.212 132.653C86.212 132.898 86.3959 133.143 86.6411 133.327L123.917 154.833C124.162 155.016 124.591 155.078 124.959 155.078ZM188.72 118.5L126.247 154.588C125.572 154.955 124.591 155.016 124.039 154.71L86.7638 133.204C86.5185 133.082 86.3959 132.898 86.3959 132.714C86.3959 132.469 86.5798 132.224 86.8864 132.04L149.36 95.9523C150.034 95.5847 151.015 95.5234 151.567 95.8298L188.904 117.397C189.149 117.519 189.272 117.703 189.272 117.887C189.211 118.071 189.027 118.316 188.72 118.5Z" fill="#0074E0"/>
<path d="M86.2738 126.404L89.7071 125.913L149.36 91.4798C150.035 91.1121 151.077 91.0509 151.69 91.3572L187.188 111.821L189.395 111.515V114.395C189.395 114.64 189.211 114.946 188.843 115.13L126.37 151.218C125.695 151.585 124.653 151.647 124.04 151.34L86.7642 129.835C86.519 129.651 86.3964 129.467 86.3964 129.222V126.404H86.2738Z" fill="url(#paint0_linear)"/>
<path d="M188.781 112.373L126.307 148.461C125.633 148.828 124.591 148.89 123.978 148.583L86.7021 127.078C86.089 126.71 86.2116 126.159 86.886 125.73L149.36 89.6417C150.034 89.2741 151.076 89.2128 151.689 89.5191L188.965 111.025C189.517 111.392 189.455 112.005 188.781 112.373Z" fill="#0074E0"/>
<path opacity="0.3" d="M183.386 113.108L127.534 145.336C126.921 145.704 126.002 145.704 125.45 145.397L92.0978 126.159C91.5461 125.852 91.6074 125.301 92.2205 124.994L148.073 92.7665C148.686 92.3989 149.605 92.3989 150.157 92.7052L183.509 111.883C184.061 112.189 183.938 112.74 183.386 113.108Z" fill="#081B3F"/>
<path d="M86.6415 126.71L123.917 148.216C124.53 148.583 125.573 148.522 126.247 148.093L188.721 112.005C189.027 111.821 189.211 111.637 189.272 111.392C189.395 111.699 189.211 112.066 188.721 112.311L126.247 148.399C125.573 148.767 124.53 148.828 123.917 148.522L86.6415 127.016C86.335 126.832 86.2124 126.526 86.2737 126.281C86.335 126.465 86.4576 126.587 86.6415 126.71Z" fill="white"/>
<path d="M127.166 94.3595L127.289 94.1757L107.425 82.7182L159.599 52.6347C161.07 51.7769 162.909 51.7769 164.381 52.6347L181.363 62.4379L181.486 62.2541L164.503 52.4509C162.971 51.5931 161.07 51.5931 159.537 52.4509L107.057 82.7182L107.18 82.7795L127.166 94.3595Z" fill="#0074E0"/>
<path d="M14.6651 110.535L24.781 104.898C27.0494 103.611 29.0113 100.854 29.747 97.9743L38.5142 61.8864C39.0659 59.6194 40.2921 57.6588 41.7022 56.3108L42.9284 60.0483C43.2349 60.9673 43.7867 61.6413 44.5837 61.9476C45.5034 62.3153 46.7295 62.1314 47.8944 61.3962L49.3045 60.5997L50.592 64.4597C50.8985 65.3787 51.4503 66.0527 52.2473 66.3591C53.1669 66.7267 54.3931 66.5429 55.558 65.8076L57.3972 64.7661C59.4817 63.5407 61.4436 60.9061 62.1793 58.2102C62.8537 55.7594 64.2638 53.7987 65.7965 52.5734L66.6549 54.3502C67.0227 55.0854 67.5745 55.6368 68.2489 55.8207C69.1685 56.127 70.2721 55.8819 71.4369 55.2692L72.4179 54.7178L74.3184 58.7616C74.6863 59.4968 75.2381 60.0483 75.9125 60.2321C76.8321 60.5384 77.9357 60.2934 79.1005 59.6807L81.185 58.4553C83.4534 57.1073 85.4153 54.2889 86.0897 51.4092L94.7955 12.4416C95.3473 9.99082 96.6961 7.96891 98.1675 6.55971L110.736 40.9321C111.042 41.7899 111.594 42.4026 112.391 42.7089C113.311 43.0765 114.476 42.8314 115.702 42.1575L116.989 41.4222L118.399 45.3435C118.706 46.2013 119.258 46.814 120.055 47.1203C120.974 47.4267 122.139 47.2429 123.365 46.5689L130.661 42.3413L122.814 37.7461H122.752L117.051 40.9934L104.421 6.43717C103.931 5.08923 102.95 4.41526 101.662 4.47653C100.62 4.5378 99.3937 5.1505 98.2901 6.06955L96.8187 1.96447C96.3283 0.616533 95.3473 -0.057436 94.0599 0.00383381C91.4849 0.187643 87.9903 3.37367 87.0093 7.7851L78.3035 46.7527C77.6904 49.5711 75.6672 52.3895 73.5214 53.6762L72.6018 54.2276L71.7435 52.3283C71.1917 51.1641 70.2108 50.6127 68.9846 50.7353C68.065 50.7965 67.0227 51.2867 65.9805 52.0832L64.0186 47.9781C63.4668 46.814 62.4859 46.2626 61.2597 46.3851C58.8687 46.5689 55.6193 49.3873 54.3931 53.6149C53.6574 56.2495 51.7568 58.8229 49.7336 60.0483L49.5497 60.1708L48.2622 56.1883C47.8331 54.7791 46.8521 54.0438 45.5034 54.1051C44.3998 54.1664 43.1123 54.7791 41.8861 55.8207L40.5987 51.7768C40.1695 50.3676 39.1886 49.6324 37.8398 49.6937C35.2648 49.8162 31.8315 52.8797 30.728 57.2911L21.9608 93.3791C21.2864 96.1975 19.3245 98.9546 17.1174 100.18L7.00148 105.817L7.1241 106.001L17.24 100.364C19.5085 99.0772 21.4704 96.32 22.2061 93.4403L30.9732 57.3524C32.0154 53.0635 35.4487 50 37.9011 49.8775C37.9624 49.8775 37.9624 49.8775 38.0237 49.8775C39.1886 49.8775 40.0469 50.5514 40.4147 51.8381L41.7635 55.9432C40.2921 57.2911 39.0046 59.313 38.4529 61.7026L29.6857 97.7905C29.0113 100.609 27.0494 103.366 24.8423 104.591L14.7264 110.228L14.6651 110.535ZM65.6739 52.3283C64.1412 53.6149 62.6698 55.6368 61.9954 58.1489C61.2597 60.7835 59.3591 63.3568 57.3359 64.5822L55.4967 65.6238C54.3318 66.2978 53.2283 66.4816 52.3086 66.114C51.5729 65.8689 51.0824 65.2562 50.7759 64.3372L49.4884 60.4159L49.7336 60.2934C51.8181 59.068 53.78 56.4334 54.5157 53.7375C55.6806 49.5711 58.8687 46.814 61.1984 46.6302C62.3632 46.5076 63.2216 47.0591 63.712 48.1007L65.6739 52.3283ZM49.2432 60.3546L47.7718 61.2124C46.6069 61.8864 45.5034 62.0702 44.5837 61.7026C43.848 61.4575 43.3575 60.8448 43.051 59.9257L41.8248 56.0657C42.9897 55.0241 44.2772 54.3502 45.3807 54.3502C46.6069 54.2889 47.4652 54.9629 47.8944 56.3108L49.2432 60.3546ZM98.0449 6.25336C96.5122 7.66256 95.1021 9.74574 94.5503 12.2578L85.8445 51.2254C85.2314 54.0438 83.2082 56.8622 81.0624 58.1489L78.9779 59.3743C77.8743 59.987 76.8321 60.2321 75.9738 59.9257C75.2994 59.7419 74.8089 59.2518 74.4411 58.5778L72.5405 54.534L73.5214 53.9826C75.7899 52.6346 77.7517 49.8162 78.4261 46.9365L87.132 7.96891C88.1129 3.68003 91.5462 0.493993 93.9985 0.371453C95.2247 0.310183 96.1443 0.922881 96.5735 2.14828L98.0449 6.25336ZM72.2339 54.4727L71.253 55.0241C70.1494 55.6368 69.1072 55.8819 68.2489 55.5756C67.5745 55.3918 67.084 54.9016 66.7162 54.2276L65.8578 52.3895C66.8388 51.593 67.881 51.1641 68.8007 51.1029C69.9655 50.9803 70.8238 51.5318 71.3143 52.5734L72.2339 54.4727ZM130.232 42.2188L123.181 46.2626C122.017 46.9365 120.913 47.1203 120.055 46.814C119.38 46.5689 118.829 46.0175 118.522 45.1597L117.051 41.1772L122.691 37.9299L130.232 42.2188ZM116.867 41.1159L115.518 41.8511C114.353 42.5251 113.249 42.7089 112.391 42.4026C111.717 42.1575 111.165 41.6061 110.858 40.7483L98.2901 6.31463C99.3937 5.33431 100.62 4.78288 101.601 4.72161C102.827 4.66034 103.747 5.27304 104.176 6.49844L116.867 41.1159Z" fill="#0074E0"/>
<path d="M103.072 5.02792L103.194 4.84411L95.4694 0.432678L95.3468 0.616487L103.072 5.02792Z" fill="#0074E0"/>
<path d="M62.7985 46.7908L70.605 51.2905L70.5131 51.4497L62.7066 46.95L62.7985 46.7908Z" fill="#0074E0"/>
<path d="M38.8861 50.0092L47.0225 54.6729L46.931 54.8323L38.7946 50.1686L38.8861 50.0092Z" fill="#0074E0"/>
<path d="M14.6651 110.535L24.781 104.898C27.0494 103.611 29.0113 100.854 29.747 97.9743L38.5142 61.8864C39.0659 59.6194 40.2921 57.6588 41.7022 56.3108L42.9284 60.0483C43.2349 60.9673 43.7867 61.6413 44.5837 61.9476C45.5034 62.3153 46.7295 62.1314 47.8944 61.3962L49.3045 60.5997L50.592 64.4597C50.8985 65.3787 51.4503 66.0527 52.2473 66.3591C53.1669 66.7267 54.3931 66.5429 55.558 65.8076L57.3972 64.7661C59.4817 63.5407 61.4436 60.9061 62.1793 58.2102C62.8537 55.7594 64.2638 53.7987 65.7965 52.5734L66.6549 54.3502C67.0227 55.0854 67.5745 55.6368 68.2489 55.8207C69.1685 56.127 70.2721 55.8819 71.4369 55.2692L72.4179 54.7178L74.3184 58.7616C74.6863 59.4968 75.2381 60.0483 75.9125 60.2321C76.8321 60.5384 77.9357 60.2934 79.1005 59.6807L81.185 58.4553C83.4534 57.1073 85.4153 54.2889 86.0897 51.4092L94.7955 12.4416C95.3473 9.99082 96.6961 7.96891 98.1675 6.55971L110.736 40.9321C111.042 41.7899 111.594 42.4026 112.391 42.7089C113.311 43.0765 114.476 42.8314 115.702 42.1575L116.989 41.4222L118.399 45.3435C118.706 46.2013 119.258 46.814 120.055 47.1203C120.974 47.4267 122.139 47.2429 123.365 46.5689L130.661 42.3413L122.814 37.7461H122.752L117.051 40.9934L104.421 6.43717C103.931 5.08923 102.95 4.41526 101.662 4.47653C100.62 4.5378 99.3937 5.1505 98.2901 6.06955L96.8187 1.96447C96.3283 0.616533 95.3473 -0.057436 94.0599 0.00383381C91.4849 0.187643 87.9903 3.37367 87.0093 7.7851L78.3035 46.7527C77.6904 49.5711 75.6672 52.3895 73.5214 53.6762L72.6018 54.2276L71.7435 52.3283C71.1917 51.1641 70.2108 50.6127 68.9846 50.7353C68.065 50.7965 67.0227 51.2867 65.9805 52.0832L64.0186 47.9781C63.4668 46.814 62.4859 46.2626 61.2597 46.3851C58.8687 46.5689 55.6193 49.3873 54.3931 53.6149C53.6574 56.2495 51.7568 58.8229 49.7336 60.0483L49.5497 60.1708L48.2622 56.1883C47.8331 54.7791 46.8521 54.0438 45.5034 54.1051C44.3998 54.1664 43.1123 54.7791 41.8861 55.8207L40.5987 51.7768C40.1695 50.3676 39.1886 49.6324 37.8398 49.6937C35.2648 49.8162 31.8315 52.8797 30.728 57.2911L21.9608 93.3791C21.2864 96.1975 19.3245 98.9546 17.1174 100.18L7.00148 105.817L7.1241 106.001L17.24 100.364C19.5085 99.0772 21.4704 96.32 22.2061 93.4403L30.9732 57.3524C32.0154 53.0635 35.4487 50 37.9011 49.8775C37.9624 49.8775 37.9624 49.8775 38.0237 49.8775C39.1886 49.8775 40.0469 50.5514 40.4147 51.8381L41.7635 55.9432C40.2921 57.2911 39.0046 59.313 38.4529 61.7026L29.6857 97.7905C29.0113 100.609 27.0494 103.366 24.8423 104.591L14.7264 110.228L14.6651 110.535ZM65.6739 52.3283C64.1412 53.6149 62.6698 55.6368 61.9954 58.1489C61.2597 60.7835 59.3591 63.3568 57.3359 64.5822L55.4967 65.6238C54.3318 66.2978 53.2283 66.4816 52.3086 66.114C51.5729 65.8689 51.0824 65.2562 50.7759 64.3372L49.4884 60.4159L49.7336 60.2934C51.8181 59.068 53.78 56.4334 54.5157 53.7375C55.6806 49.5711 58.8687 46.814 61.1984 46.6302C62.3632 46.5076 63.2216 47.0591 63.712 48.1007L65.6739 52.3283ZM49.2432 60.3546L47.7718 61.2124C46.6069 61.8864 45.5034 62.0702 44.5837 61.7026C43.848 61.4575 43.3575 60.8448 43.051 59.9257L41.8248 56.0657C42.9897 55.0241 44.2772 54.3502 45.3807 54.3502C46.6069 54.2889 47.4652 54.9629 47.8944 56.3108L49.2432 60.3546ZM98.0449 6.25336C96.5122 7.66256 95.1021 9.74574 94.5503 12.2578L85.8445 51.2254C85.2314 54.0438 83.2082 56.8622 81.0624 58.1489L78.9779 59.3743C77.8743 59.987 76.8321 60.2321 75.9738 59.9257C75.2994 59.7419 74.8089 59.2518 74.4411 58.5778L72.5405 54.534L73.5214 53.9826C75.7899 52.6346 77.7517 49.8162 78.4261 46.9365L87.132 7.96891C88.1129 3.68003 91.5462 0.493993 93.9985 0.371453C95.2247 0.310183 96.1443 0.922881 96.5735 2.14828L98.0449 6.25336ZM72.2339 54.4727L71.253 55.0241C70.1494 55.6368 69.1072 55.8819 68.2489 55.5756C67.5745 55.3918 67.084 54.9016 66.7162 54.2276L65.8578 52.3895C66.8388 51.593 67.881 51.1641 68.8007 51.1029C69.9655 50.9803 70.8238 51.5318 71.3143 52.5734L72.2339 54.4727ZM130.232 42.2188L123.181 46.2626C122.017 46.9365 120.913 47.1203 120.055 46.814C119.38 46.5689 118.829 46.0175 118.522 45.1597L117.051 41.1772L122.691 37.9299L130.232 42.2188ZM116.867 41.1159L115.518 41.8511C114.353 42.5251 113.249 42.7089 112.391 42.4026C111.717 42.1575 111.165 41.6061 110.858 40.7483L98.2901 6.31463C99.3937 5.33431 100.62 4.78288 101.601 4.72161C102.827 4.66034 103.747 5.27304 104.176 6.49844L116.867 41.1159Z" fill="#0074E0"/>
<path opacity="0.5" d="M122.813 37.8685L115.64 42.0349C113.495 43.2603 111.594 42.8314 110.858 40.8707L96.696 2.14819C95.102 -2.26324 88.4806 1.7193 87.0705 7.96882L78.3647 46.9364C77.7516 49.8161 75.7284 52.6345 73.5213 53.9212L71.4368 55.1466C69.4136 56.3107 67.5744 56.0044 66.7774 54.2888L63.8958 48.1618C62.1179 44.3631 56.1096 47.9168 54.5156 53.7987C53.7799 56.4945 51.8793 59.0679 49.7948 60.2933L47.9556 61.3349C45.7485 62.6215 43.7866 62.0701 43.1122 60.0482L40.4759 51.9606C39.0045 47.3653 32.3219 51.2253 30.8505 57.4749L22.0833 93.5628C21.4089 96.3812 19.3857 99.1996 17.1786 100.425L7.0627 106.062L122.813 37.8685Z" fill="url(#paint1_linear)"/>
<path opacity="0.5" d="M130.477 42.1575L123.304 46.3238C121.158 47.5492 119.258 47.1203 118.522 45.1597L104.36 6.43716C102.766 2.02573 96.1442 6.00827 94.7341 12.2578L86.0283 51.2254C85.4152 54.1051 83.392 56.9235 81.1849 58.2102L79.1004 59.4356C77.0772 60.5997 75.2379 60.2933 74.4409 58.5778L71.5594 52.4508C69.7815 48.6521 63.7732 52.2057 62.1792 58.0876C61.4435 60.7835 59.5429 63.3568 57.4584 64.5822L55.6192 65.6238C53.412 66.9105 51.4502 66.3591 50.7758 64.3372L48.1395 56.2495C46.6681 51.6543 39.9855 55.5143 38.514 61.7638L29.6243 97.7905C28.9499 100.609 26.9267 103.427 24.7196 104.653L14.6037 110.29L130.477 42.1575Z" fill="url(#paint2_linear)"/>
<path d="M185.839 100.18C186.82 100.18 187.739 99.9962 188.475 99.5673L200.614 92.5826C201.35 92.1537 201.718 91.6022 201.718 90.9895C201.718 90.3768 201.35 89.8254 200.614 89.3965L188.475 82.4118C187.004 81.554 184.674 81.554 183.203 82.4118L171.063 89.3965C170.328 89.8254 169.96 90.3768 169.96 90.9895C169.96 91.6022 170.328 92.1537 171.063 92.5826L183.203 99.5673C183.938 99.9962 184.858 100.18 185.839 100.18ZM188.352 99.3835C186.942 100.18 184.674 100.18 183.325 99.3835L171.186 92.3988C170.512 92.0311 170.205 91.541 170.205 90.9895C170.205 90.4381 170.573 89.948 171.247 89.5803L183.386 82.5956C184.797 81.7991 187.065 81.7991 188.414 82.5956L200.553 89.5803C201.227 89.948 201.534 90.4381 201.534 90.9895C201.534 91.541 201.166 92.0311 200.492 92.3988L188.352 99.3835Z" fill="#0074E0"/>
<path d="M149.422 78.3681L141.513 31.4966L142.126 31.2515L141.145 30.7001C140.961 30.5776 140.716 30.5776 140.409 30.7614L77.2615 67.217C76.771 67.5233 76.3419 68.2585 76.4645 68.81L84.4346 116.049C84.4959 116.294 84.6185 116.478 84.7412 116.539L85.6608 117.091L85.8447 116.233H85.7834L148.563 80.0223C149.115 79.6547 149.544 78.9195 149.422 78.3681Z" fill="url(#paint3_linear)"/>
<path d="M77.6906 68.5035L76.6484 68.0746C76.5257 68.3197 76.4644 68.6261 76.5257 68.8712L84.4959 116.11C84.5572 116.355 84.6798 116.539 84.8024 116.6L85.722 117.152L85.906 116.294H85.8447L89.0327 114.456L77.6906 68.5035Z" fill="url(#paint4_linear)"/>
<path d="M149.606 80.5737L86.4576 117.029C85.9672 117.336 85.538 117.152 85.4767 116.662L77.5066 69.4225C77.4453 68.8711 77.8131 68.1359 78.3036 67.8295L141.452 31.374C141.942 31.0676 142.371 31.2514 142.433 31.7416L150.403 78.9806C150.525 79.4708 150.157 80.2673 149.606 80.5737Z" fill="#142F63"/>
<g opacity="0.51">
<path opacity="0.51" d="M141.697 32.2318L78.2424 68.8099L86.2738 116.172L149.667 79.5934L141.697 32.2318Z" fill="#0056A7"/>
</g>
<path d="M189.272 102.876L185.839 104.653L151.261 84.7402C150.709 84.4339 149.667 84.4339 148.993 84.8628L89.4006 119.235C88.8488 118.929 86.2125 117.642 86.2125 117.642L87.5 119.664C87.5613 119.787 87.6839 119.97 87.8679 120.032L124.285 141.047C124.837 141.354 125.879 141.354 126.554 140.925L187.556 105.756C187.801 105.572 187.985 105.388 188.046 105.204L189.272 102.876Z" fill="url(#paint5_linear)"/>
<path d="M188.779 103.489L126.306 139.577C125.631 139.944 124.589 140.005 123.976 139.699L86.7001 118.193C86.087 117.826 86.2096 117.274 86.884 116.845L149.358 80.7575C150.032 80.3899 151.074 80.3286 151.687 80.635L188.963 102.141C189.515 102.447 189.453 103.06 188.779 103.489Z" fill="url(#paint6_linear)"/>
<path d="M188.782 103.183L126.308 139.27C125.634 139.638 124.592 139.699 123.979 139.393L86.703 117.887C86.519 117.765 86.3964 117.642 86.3351 117.458C86.2738 117.703 86.3964 118.01 86.703 118.194L123.979 139.699C124.592 140.067 125.634 140.006 126.308 139.577L188.782 103.489C189.211 103.244 189.395 102.876 189.334 102.57C189.272 102.815 189.088 102.999 188.782 103.183Z" fill="white"/>
<g opacity="0.15">
<g opacity="0.15">
<g opacity="0.15">
<path opacity="0.15" d="M149.667 80.2673L146.234 82.0442L111.656 62.1315C111.104 61.8251 110.062 61.8251 109.387 62.254L49.8564 96.5651C49.3047 96.2588 46.6684 94.9721 46.6684 94.9721L47.9559 96.994C48.0172 97.1166 48.1398 97.3004 48.3237 97.3616L84.7411 118.377C85.2929 118.684 86.3351 118.684 87.0095 118.255L148.012 83.0858C148.257 82.9019 148.441 82.7181 148.502 82.5343L149.667 80.2673Z" fill="url(#paint7_linear)"/>
<path opacity="0.15" d="M149.177 80.8197L86.6417 116.846C85.9673 117.214 84.9251 117.275 84.312 116.969L47.0363 95.4632C46.4232 95.0956 46.5458 94.5441 47.2202 94.1152L109.694 58.0273C110.368 57.6597 111.41 57.5984 112.023 57.9048L149.299 79.4105C149.912 79.8394 149.851 80.3908 149.177 80.8197Z" fill="#0074E0"/>
<path opacity="0.15" d="M47.2203 94.1143L109.694 58.0264C110.123 57.7813 110.736 57.6588 111.227 57.72C110.859 57.72 110.43 57.8426 110.123 58.0264L47.6495 94.1143C46.9751 94.4819 46.9138 95.0946 47.4656 95.4622L84.8025 116.968C84.9865 117.091 85.293 117.152 85.5995 117.213C85.1704 117.274 84.6799 117.152 84.3734 116.968L47.0977 95.4622C46.4233 95.0946 46.5459 94.4819 47.2203 94.1143Z" fill="white"/>
</g>
<g opacity="0.5">
<path opacity="0.5" d="M116.438 74.6301L118.461 73.466C118.645 73.3434 118.89 73.4047 119.074 73.466L121.281 74.7526C121.465 74.8751 121.465 74.9977 121.281 75.1202L119.258 76.2844C119.074 76.4069 118.829 76.3456 118.645 76.2844L116.438 74.9977C116.254 74.8752 116.254 74.6913 116.438 74.6301Z" fill="#142F63"/>
<path opacity="0.5" d="M113.311 76.4069L115.334 75.2427C115.518 75.1202 115.763 75.1815 115.947 75.2427L118.155 76.5294C118.338 76.652 118.338 76.7745 118.155 76.897L116.131 78.0612C115.947 78.1837 115.702 78.1224 115.518 78.0612L113.311 76.7745C113.189 76.652 113.189 76.4681 113.311 76.4069Z" fill="#142F63"/>
<path opacity="0.5" d="M110.246 78.1837L112.269 77.0195C112.453 76.897 112.698 76.9583 112.882 77.0195L115.089 78.3062C115.273 78.4287 115.273 78.5513 115.089 78.6738L113.066 79.838C112.882 79.9605 112.637 79.8992 112.453 79.838L110.246 78.5513C110.062 78.4287 110.062 78.2449 110.246 78.1837Z" fill="#142F63"/>
<path opacity="0.5" d="M112.576 80.5732L114.599 79.4091C114.783 79.2866 115.028 79.3479 115.212 79.4091L117.051 80.512C117.235 80.6345 117.235 80.7571 117.051 80.8796L115.028 82.0437C114.844 82.1663 114.599 82.105 114.415 82.0437L112.576 80.9409C112.453 80.8183 112.392 80.6345 112.576 80.5732Z" fill="#142F63"/>
<path opacity="0.5" d="M109.51 82.3501L111.533 81.1859C111.717 81.0634 111.962 81.1247 112.146 81.1859L113.986 82.2888C114.17 82.4113 114.17 82.5339 113.986 82.6564L111.962 83.8205C111.778 83.9431 111.533 83.8818 111.349 83.8205L109.51 82.7177C109.326 82.5951 109.326 82.4113 109.51 82.3501Z" fill="#142F63"/>
<path opacity="0.5" d="M106.383 84.1272L108.406 82.9631C108.59 82.8405 108.835 82.9018 109.019 82.9631L110.859 84.0659C111.043 84.1885 111.043 84.311 110.859 84.4336L108.835 85.5977C108.652 85.7202 108.406 85.659 108.222 85.5977L106.383 84.4948C106.26 84.3723 106.26 84.1885 106.383 84.1272Z" fill="#142F63"/>
<path opacity="0.5" d="M103.318 85.904L105.341 84.7399C105.525 84.6173 105.77 84.6786 105.954 84.7399L107.793 85.8427C107.977 85.9653 107.977 86.0878 107.793 86.2104L105.77 87.3745C105.586 87.497 105.341 87.4358 105.157 87.3745L103.318 86.2716C103.134 86.1491 103.134 85.9653 103.318 85.904Z" fill="#142F63"/>
<path opacity="0.5" d="M100.191 87.6808L102.214 86.5167C102.398 86.3941 102.644 86.4554 102.827 86.5167L104.667 87.6195C104.851 87.7421 104.851 87.8646 104.667 87.9871L102.644 89.1513C102.46 89.2738 102.214 89.2125 102.03 89.1513L100.191 88.0484C100.069 87.9259 100.069 87.8033 100.191 87.6808Z" fill="#142F63"/>
<path opacity="0.5" d="M97.1253 89.4576L99.1485 88.2935C99.3324 88.1709 99.5776 88.2322 99.7616 88.2935L101.601 89.3963C101.785 89.5189 101.785 89.6414 101.601 89.7639L99.5777 90.9281C99.3937 91.0506 99.1485 90.9893 98.9646 90.9281L97.1253 89.8252C96.9414 89.7027 96.9414 89.5801 97.1253 89.4576Z" fill="#142F63"/>
<path opacity="0.5" d="M93.9988 91.2342L96.022 90.0701C96.2059 89.9475 96.4512 90.0088 96.6351 90.0701L98.4744 91.1729C98.6583 91.2955 98.6583 91.418 98.4744 91.5406L96.4512 92.7047C96.2672 92.8272 96.022 92.7659 95.8381 92.7047L93.9988 91.6018C93.8762 91.4793 93.8762 91.3567 93.9988 91.2342Z" fill="#142F63"/>
<path opacity="0.5" d="M90.9339 93.0723L92.9571 91.9082C93.141 91.7857 93.3862 91.8469 93.5701 91.9082L95.4094 93.0111C95.5933 93.1336 95.5933 93.2562 95.4094 93.3787L93.3862 94.5428C93.2023 94.6654 92.9571 94.6041 92.7731 94.5428L90.9339 93.44C90.7499 93.3174 90.7499 93.1336 90.9339 93.0723Z" fill="#142F63"/>
<path opacity="0.5" d="M87.8064 94.8491L89.8296 93.685C90.0136 93.5625 90.2588 93.6237 90.4427 93.685L92.282 94.7879C92.4659 94.9104 92.4659 95.0329 92.282 95.1555L90.2588 96.3196C90.0749 96.4421 89.8296 96.3809 89.6457 96.3196L87.8064 95.2168C87.6838 95.0942 87.6838 94.9104 87.8064 94.8491Z" fill="#142F63"/>
<path opacity="0.5" d="M84.7415 96.6259L86.7647 95.4617C86.9486 95.3392 87.1939 95.4005 87.3778 95.4617L89.217 96.5646C89.401 96.6871 89.401 96.8097 89.217 96.9322L87.1938 98.0963C87.0099 98.2189 86.7647 98.1576 86.5808 98.0963L84.7415 96.9935C84.5576 96.8709 84.5576 96.6871 84.7415 96.6259Z" fill="#142F63"/>
<path opacity="0.5" d="M113.863 83.0855L115.886 81.9214C116.07 81.7989 116.315 81.8601 116.499 81.9214L118.339 83.0242C118.523 83.1468 118.523 83.2693 118.339 83.3919L116.315 84.556C116.131 84.6785 115.886 84.6172 115.702 84.556L113.863 83.4531C113.74 83.3306 113.74 83.2081 113.863 83.0855Z" fill="#142F63"/>
<path opacity="0.5" d="M116.99 81.3084L119.013 80.1443C119.197 80.0218 119.442 80.083 119.626 80.1443L121.465 81.2472C121.649 81.3697 121.649 81.4922 121.465 81.6148L119.442 82.7789C119.258 82.9014 119.013 82.8402 118.829 82.7789L116.99 81.676C116.867 81.5535 116.867 81.3697 116.99 81.3084Z" fill="#142F63"/>
<path opacity="0.5" d="M120.178 79.4703L124.469 76.9583C124.653 76.8357 124.898 76.897 125.082 76.9583L126.922 78.0611C127.106 78.1837 127.106 78.3062 126.922 78.4287L122.63 80.9408C122.446 81.0633 122.201 81.0021 122.017 80.9408L120.178 79.8379C119.994 79.7154 119.994 79.5316 120.178 79.4703Z" fill="#142F63"/>
<path opacity="0.5" d="M123.795 80.6346L127.29 78.6127C127.474 78.4901 127.719 78.5514 127.903 78.6127L129.742 79.7155C129.926 79.8381 129.926 79.9606 129.742 80.0832L126.247 82.1051C126.063 82.2276 125.818 82.1663 125.634 82.1051L123.795 81.0022C123.672 80.8797 123.672 80.7571 123.795 80.6346Z" fill="#142F63"/>
<path opacity="0.5" d="M110.798 84.8623L112.821 83.6982C113.005 83.5757 113.25 83.6369 113.434 83.6982L115.273 84.801C115.457 84.9236 115.457 85.0461 115.273 85.1687L113.25 86.3328C113.066 86.4553 112.821 86.3941 112.637 86.3328L110.798 85.2299C110.614 85.1074 110.614 84.9848 110.798 84.8623Z" fill="#142F63"/>
<path opacity="0.5" d="M107.671 86.6391L109.694 85.475C109.878 85.3524 110.123 85.4137 110.307 85.475L112.146 86.5778C112.33 86.7004 112.33 86.8229 112.146 86.9455L110.123 88.1096C109.939 88.2321 109.694 88.1709 109.51 88.1096L107.671 87.0067C107.548 86.9455 107.548 86.7617 107.671 86.6391Z" fill="#142F63"/>
<path opacity="0.5" d="M104.605 88.4773L106.628 87.3132C106.812 87.1906 107.058 87.2519 107.242 87.3132L109.081 88.416C109.265 88.5386 109.265 88.6611 109.081 88.7837L107.058 89.9478C106.874 90.0703 106.628 90.0091 106.445 89.9478L104.605 88.8449C104.421 88.7224 104.421 88.5386 104.605 88.4773Z" fill="#142F63"/>
<path opacity="0.5" d="M101.478 90.2541L103.501 89.09C103.685 88.9674 103.931 89.0287 104.115 89.09L105.954 90.1928C106.138 90.3154 106.138 90.4379 105.954 90.5605L103.931 91.7246C103.747 91.8471 103.501 91.7859 103.318 91.7246L101.478 90.6217C101.356 90.4992 101.356 90.3154 101.478 90.2541Z" fill="#142F63"/>
<path opacity="0.5" d="M98.4134 92.0307L100.437 90.8666C100.621 90.744 100.866 90.8053 101.05 90.8666L102.889 91.9694C103.073 92.092 103.073 92.2145 102.889 92.3371L100.866 93.5012C100.682 93.6237 100.437 93.5625 100.253 93.5012L98.4134 92.3983C98.2295 92.2758 98.2295 92.092 98.4134 92.0307Z" fill="#142F63"/>
<path opacity="0.5" d="M95.2864 93.8075L97.3096 92.6434C97.4935 92.5208 97.7388 92.5821 97.9227 92.6434L99.762 93.7462C99.9459 93.8688 99.9459 93.9913 99.762 94.1139L97.7388 95.278C97.5548 95.4005 97.3096 95.3392 97.1257 95.278L95.2864 94.1751C95.1638 94.0526 95.1638 93.93 95.2864 93.8075Z" fill="#142F63"/>
<path opacity="0.5" d="M92.221 95.5844L94.2442 94.4202C94.4281 94.2977 94.6733 94.359 94.8573 94.4202L96.6965 95.5231C96.8805 95.6456 96.8805 95.7682 96.6965 95.8907L94.6733 97.0549C94.4894 97.1774 94.2442 97.1161 94.0603 97.0549L92.221 95.952C92.0371 95.8295 92.0371 95.7069 92.221 95.5844Z" fill="#142F63"/>
<path opacity="0.5" d="M89.094 97.3612L91.1172 96.197C91.3012 96.0745 91.5464 96.1358 91.7303 96.197L93.5696 97.2999C93.7535 97.4224 93.7535 97.545 93.5696 97.6675L91.5464 98.8316C91.3625 98.9542 91.1172 98.8929 90.9333 98.8316L89.094 97.7288C88.9714 97.6062 88.9714 97.4837 89.094 97.3612Z" fill="#142F63"/>
<path opacity="0.5" d="M86.0286 99.1379L88.0518 97.9738C88.2357 97.8513 88.4809 97.9126 88.6649 97.9738L90.5041 99.0767C90.6881 99.1992 90.6881 99.3218 90.5041 99.4443L88.4809 100.608C88.297 100.731 88.0518 100.67 87.8679 100.608L86.0286 99.5056C85.8446 99.383 85.8446 99.2605 86.0286 99.1379Z" fill="#142F63"/>
<path opacity="0.5" d="M80.5109 102.324L84.8638 99.812C85.0477 99.6895 85.293 99.7508 85.4769 99.812L87.3162 100.915C87.5001 101.037 87.5001 101.16 87.3162 101.282L82.9632 103.795C82.7793 103.917 82.5341 103.856 82.3502 103.795L80.5109 102.692C80.3883 102.569 80.3883 102.447 80.5109 102.324Z" fill="#142F63"/>
<path opacity="0.5" d="M86.2126 105.633L89.8912 103.488C90.0751 103.366 90.3203 103.427 90.5042 103.488L92.3435 104.591C92.5274 104.714 92.5274 104.836 92.3435 104.959L88.665 107.103C88.481 107.226 88.2358 107.164 88.0519 107.103L86.2126 106C86.0287 105.878 86.0287 105.755 86.2126 105.633Z" fill="#142F63"/>
<path opacity="0.5" d="M111.227 87.9258L113.25 86.7617C113.434 86.6391 113.679 86.7004 113.863 86.7617L115.702 87.8645C115.886 87.9871 115.886 88.1096 115.702 88.2321L113.679 89.3963C113.495 89.5188 113.25 89.4575 113.066 89.3963L111.227 88.2934C111.043 88.1709 111.043 88.0483 111.227 87.9258Z" fill="#142F63"/>
<path opacity="0.5" d="M114.353 86.0877L116.377 84.9236C116.56 84.8011 116.806 84.8623 116.99 84.9236L118.829 86.0265C119.013 86.149 119.013 86.2715 118.829 86.3941L116.806 87.5582C116.622 87.6807 116.377 87.6195 116.193 87.5582L114.353 86.4553C114.231 86.3328 114.231 86.2103 114.353 86.0877Z" fill="#142F63"/>
<path opacity="0.5" d="M117.541 84.2496L119.564 83.0855C119.748 82.963 119.994 83.0242 120.178 83.0855L122.017 84.1884C122.201 84.3109 122.201 84.4335 122.017 84.556L119.994 85.7201C119.81 85.8427 119.564 85.7814 119.381 85.7201L117.541 84.6173C117.419 84.4947 117.357 84.3722 117.541 84.2496Z" fill="#142F63"/>
<path opacity="0.5" d="M120.729 82.4112L122.752 81.2471C122.936 81.1245 123.182 81.1858 123.366 81.2471L125.205 82.3499C125.389 82.4725 125.389 82.595 125.205 82.7176L123.182 83.8817C122.998 84.0042 122.752 83.943 122.569 83.8817L120.729 82.7788C120.545 82.6563 120.545 82.5337 120.729 82.4112Z" fill="#142F63"/>
<path opacity="0.5" d="M108.1 89.7026L110.123 88.5385C110.307 88.4159 110.552 88.4772 110.736 88.5385L112.575 89.6413C112.759 89.7639 112.759 89.8864 112.575 90.0089L110.552 91.1731C110.368 91.2956 110.123 91.2343 109.939 91.1731L108.1 90.0702C107.977 89.9477 107.977 89.8251 108.1 89.7026Z" fill="#142F63"/>
<path opacity="0.5" d="M105.035 91.4793L107.058 90.3152C107.242 90.1927 107.487 90.2539 107.671 90.3152L109.51 91.418C109.694 91.5406 109.694 91.6631 109.51 91.7857L107.487 92.9498C107.303 93.0723 107.058 93.0111 106.874 92.9498L105.035 91.8469C104.851 91.7244 104.851 91.6019 105.035 91.4793Z" fill="#142F63"/>
<path opacity="0.5" d="M101.908 93.2561L103.931 92.092C104.115 91.9694 104.36 92.0307 104.544 92.092L106.384 93.1948C106.567 93.3174 106.567 93.4399 106.384 93.5625L104.36 94.7266C104.176 94.8491 103.931 94.7879 103.747 94.7266L101.908 93.6237C101.785 93.5012 101.785 93.3787 101.908 93.2561Z" fill="#142F63"/>
<path opacity="0.5" d="M98.8421 95.0942L100.865 93.9301C101.049 93.8075 101.294 93.8688 101.478 93.9301L103.318 95.0329C103.502 95.1555 103.502 95.278 103.318 95.4005L101.294 96.5647C101.11 96.6872 100.865 96.6259 100.681 96.5647L98.8421 95.4618C98.6581 95.3393 98.6581 95.1555 98.8421 95.0942Z" fill="#142F63"/>
<path opacity="0.5" d="M95.7156 96.8711L97.7388 95.707C97.9227 95.5844 98.168 95.6457 98.3519 95.707L100.191 96.8098C100.375 96.9324 100.375 97.0549 100.191 97.1775L98.168 98.3416C97.984 98.4641 97.7388 98.4029 97.5549 98.3416L95.7156 97.2387C95.593 97.1162 95.593 96.9324 95.7156 96.8711Z" fill="#142F63"/>
<path opacity="0.5" d="M92.6502 98.6479L94.6734 97.4838C94.8573 97.3612 95.1026 97.4225 95.2865 97.4838L97.1257 98.5866C97.3097 98.7092 97.3097 98.8317 97.1257 98.9542L95.1026 100.118C94.9186 100.241 94.6734 100.18 94.4895 100.118L92.6502 99.0155C92.4663 98.893 92.4663 98.7092 92.6502 98.6479Z" fill="#142F63"/>
<path opacity="0.5" d="M89.5232 100.425L91.5464 99.2606C91.7303 99.138 91.9756 99.1993 92.1595 99.2606L93.9988 100.363C94.1827 100.486 94.1827 100.609 93.9988 100.731L91.9756 101.895C91.7917 102.018 91.5464 101.956 91.3625 101.895L89.5232 100.792C89.4006 100.67 89.4006 100.486 89.5232 100.425Z" fill="#142F63"/>
<path opacity="0.5" d="M86.4578 102.201L88.481 101.037C88.6649 100.915 88.9102 100.976 89.0941 101.037L90.9333 102.14C91.1173 102.263 91.1173 102.385 90.9333 102.508L88.9102 103.672C88.7263 103.795 88.481 103.733 88.2971 103.672L86.4578 102.569C86.3352 102.447 86.2739 102.324 86.4578 102.201Z" fill="#142F63"/>
<path opacity="0.5" d="M83.3313 103.978L85.3545 102.814C85.5385 102.692 85.7837 102.753 85.9676 102.814L87.8069 103.917C87.9908 104.04 87.9908 104.162 87.8069 104.285L85.7837 105.449C85.5998 105.571 85.3545 105.51 85.1706 105.449L83.3313 104.346C83.2087 104.223 83.2087 104.101 83.3313 103.978Z" fill="#142F63"/>
<path opacity="0.5" d="M118.706 86.8843L120.73 85.7202C120.913 85.5976 121.159 85.6589 121.343 85.7202L123.182 86.823C123.366 86.9456 123.366 87.0681 123.182 87.1906L121.159 88.3548C120.975 88.4773 120.73 88.416 120.546 88.3548L118.706 87.2519C118.522 87.1294 118.522 87.0068 118.706 86.8843Z" fill="#142F63"/>
<path opacity="0.5" d="M121.772 85.1074L123.795 83.9433C123.979 83.8208 124.224 83.882 124.408 83.9433L126.247 85.0462C126.431 85.1687 126.431 85.2912 126.247 85.4138L124.224 86.5779C124.04 86.7004 123.795 86.6392 123.611 86.5779L121.772 85.4751C121.588 85.3525 121.588 85.23 121.772 85.1074Z" fill="#142F63"/>
<path opacity="0.5" d="M124.837 83.3306L126.86 82.1665C127.044 82.044 127.29 82.1052 127.473 82.1665L129.313 83.2694C129.497 83.3919 129.497 83.5144 129.313 83.637L127.29 84.8011C127.106 84.9237 126.86 84.8624 126.676 84.8011L124.837 83.6983C124.715 83.5757 124.653 83.4532 124.837 83.3306Z" fill="#142F63"/>
<path opacity="0.5" d="M127.903 81.5535L129.926 80.3894C130.11 80.2669 130.355 80.3281 130.539 80.3894L132.378 81.4923C132.562 81.6148 132.562 81.7373 132.378 81.8599L130.355 83.024C130.171 83.1465 129.926 83.0853 129.742 83.024L127.903 81.9212C127.78 81.7986 127.78 81.6761 127.903 81.5535Z" fill="#142F63"/>
<path opacity="0.5" d="M130.907 83.3306L132.93 82.1665C133.114 82.044 133.359 82.1052 133.543 82.1665L134.156 82.5341C134.34 82.6567 134.34 82.7792 134.156 82.9017L132.133 84.0659C131.949 84.1884 131.704 84.1271 131.52 84.0659L130.907 83.6983C130.723 83.5757 130.723 83.3919 130.907 83.3306Z" fill="#142F63"/>
<path opacity="0.5" d="M126.86 85.6589L128.883 84.4948C129.067 84.3722 129.313 84.4335 129.497 84.4948L130.11 84.8624C130.294 84.9849 130.294 85.1075 130.11 85.23L128.086 86.3941C127.903 86.5167 127.657 86.4554 127.473 86.3941L126.86 86.0265C126.738 85.904 126.738 85.7202 126.86 85.6589Z" fill="#142F63"/>
<path opacity="0.5" d="M123.795 87.3744L125.818 86.2103C126.002 86.0877 126.247 86.149 126.431 86.2103L127.044 86.5779C127.228 86.7004 127.228 86.823 127.044 86.9455L125.021 88.1096C124.837 88.2322 124.592 88.1709 124.408 88.1096L123.795 87.742C123.672 87.6807 123.672 87.4969 123.795 87.3744Z" fill="#142F63"/>
<path opacity="0.5" d="M120.729 89.1512L122.753 87.9871C122.937 87.8645 123.182 87.9258 123.366 87.9871L123.979 88.3547C124.163 88.4772 124.163 88.5998 123.979 88.7223L121.956 89.8864C121.772 90.009 121.526 89.9477 121.343 89.8864L120.729 89.5188C120.607 89.3963 120.607 89.2737 120.729 89.1512Z" fill="#142F63"/>
<path opacity="0.5" d="M117.664 90.9279L119.687 89.7637C119.871 89.6412 120.116 89.7025 120.3 89.7637L120.913 90.1314C121.097 90.2539 121.097 90.3764 120.913 90.499L118.89 91.6631C118.706 91.7857 118.461 91.7244 118.277 91.6631L117.664 91.2955C117.541 91.173 117.541 91.0504 117.664 90.9279Z" fill="#142F63"/>
<path opacity="0.5" d="M100.559 100.792L102.582 99.6282C102.766 99.5056 103.011 99.5669 103.195 99.6282L103.808 99.9958C103.992 100.118 103.992 100.241 103.808 100.363L101.785 101.528C101.601 101.65 101.356 101.589 101.172 101.528L100.559 101.16C100.436 101.037 100.436 100.915 100.559 100.792Z" fill="#142F63"/>
<path opacity="0.5" d="M97.4936 102.569L99.5167 101.405C99.7007 101.282 99.9459 101.344 100.13 101.405L100.743 101.773C100.927 101.895 100.927 102.018 100.743 102.14L98.7197 103.304C98.5358 103.427 98.2906 103.366 98.1067 103.304L97.4936 102.937C97.371 102.814 97.371 102.692 97.4936 102.569Z" fill="#142F63"/>
<path opacity="0.5" d="M94.4281 104.346L96.4513 103.182C96.6352 103.059 96.8805 103.121 97.0644 103.182L97.6775 103.55C97.8614 103.672 97.8614 103.795 97.6775 103.917L95.6543 105.081C95.4704 105.204 95.2251 105.143 95.0412 105.081L94.4281 104.714C94.3055 104.591 94.3055 104.469 94.4281 104.346Z" fill="#142F63"/>
<path opacity="0.5" d="M91.3627 106.123L93.3859 104.959C93.5698 104.836 93.815 104.897 93.999 104.959L94.6121 105.326C94.796 105.449 94.796 105.571 94.6121 105.694L92.5889 106.858C92.405 106.981 92.1597 106.919 91.9758 106.858L91.3627 106.49C91.2401 106.368 91.2401 106.184 91.3627 106.123Z" fill="#142F63"/>
<path opacity="0.5" d="M115.579 88.6611L117.603 87.497C117.787 87.3744 118.032 87.4357 118.216 87.497L120.055 88.5998C120.239 88.7224 120.239 88.8449 120.055 88.9674L118.032 90.1316C117.848 90.2541 117.603 90.1928 117.419 90.1316L115.579 89.0287C115.457 88.9674 115.457 88.7836 115.579 88.6611Z" fill="#142F63"/>
<path opacity="0.5" d="M112.514 90.4992L114.538 89.335C114.722 89.2125 114.967 89.2738 115.151 89.335L116.99 90.4379C117.174 90.5604 117.174 90.683 116.99 90.8055L114.967 91.9696C114.783 92.0922 114.538 92.0309 114.354 91.9696L112.514 90.8668C112.331 90.7442 112.331 90.5604 112.514 90.4992Z" fill="#142F63"/>
<path opacity="0.5" d="M109.388 92.2758L111.411 91.1116C111.595 90.9891 111.84 91.0504 112.024 91.1116L113.863 92.2145C114.047 92.337 114.047 92.4596 113.863 92.5821L111.84 93.7462C111.656 93.8688 111.411 93.8075 111.227 93.7462L109.388 92.6434C109.265 92.5209 109.265 92.337 109.388 92.2758Z" fill="#142F63"/>
<path opacity="0.5" d="M106.322 94.0526L108.345 92.8884C108.529 92.7659 108.774 92.8272 108.958 92.8884L110.798 93.9913C110.982 94.1138 110.982 94.2364 110.798 94.3589L108.774 95.523C108.591 95.6456 108.345 95.5843 108.161 95.523L106.322 94.4202C106.138 94.2976 106.138 94.1138 106.322 94.0526Z" fill="#142F63"/>
<path opacity="0.5" d="M103.195 95.8295L105.218 94.6654C105.402 94.5428 105.647 94.6041 105.831 94.6654L107.671 95.7682C107.855 95.8908 107.855 96.0133 107.671 96.1358L105.647 97.3C105.464 97.4225 105.218 97.3612 105.034 97.3L103.195 96.1971C103.073 96.0746 103.073 95.952 103.195 95.8295Z" fill="#142F63"/>
<path opacity="0.5" d="M100.13 97.6063L102.153 96.4421C102.337 96.3196 102.582 96.3809 102.766 96.4421L104.605 97.545C104.789 97.6675 104.789 97.7901 104.605 97.9126L102.582 99.0767C102.398 99.1993 102.153 99.138 101.969 99.0767L100.13 97.9739C99.9458 97.8514 99.9458 97.7288 100.13 97.6063Z" fill="#142F63"/>
<path opacity="0.5" d="M97.0027 99.3831L99.0259 98.2189C99.2099 98.0964 99.4551 98.1577 99.639 98.2189L101.478 99.3218C101.662 99.4443 101.662 99.5669 101.478 99.6894L99.4551 100.854C99.2711 100.976 99.0259 100.915 98.842 100.854L97.0027 99.7507C96.8801 99.6281 96.8801 99.5056 97.0027 99.3831Z" fill="#142F63"/>
<path opacity="0.5" d="M93.9378 101.16L95.961 99.9959C96.1449 99.8733 96.3901 99.9346 96.5741 99.9959L98.4133 101.099C98.5973 101.221 98.5973 101.344 98.4133 101.466L96.3901 102.63C96.2062 102.753 95.961 102.692 95.777 102.63L93.9378 101.528C93.7538 101.405 93.7538 101.283 93.9378 101.16Z" fill="#142F63"/>
<path opacity="0.5" d="M90.8108 102.998L92.834 101.834C93.0179 101.711 93.2632 101.773 93.4471 101.834L95.2864 102.937C95.4703 103.059 95.4703 103.182 95.2864 103.304L93.2632 104.469C93.0792 104.591 92.834 104.53 92.6501 104.469L90.8108 103.366C90.6882 103.243 90.6882 103.059 90.8108 102.998Z" fill="#142F63"/>
<path opacity="0.5" d="M115.763 78.7352L121.649 75.3041C121.833 75.1815 122.078 75.2428 122.262 75.3041L124.101 76.4069C124.285 76.5295 124.285 76.652 124.101 76.7746L118.216 80.2057C118.032 80.3282 117.786 80.267 117.603 80.2057L115.763 79.1028C115.579 78.9803 115.579 78.7965 115.763 78.7352Z" fill="#142F63"/>
<path opacity="0.5" d="M77.7521 100.67L83.6377 97.2387C83.8217 97.1162 84.0669 97.1774 84.2508 97.2387L86.0901 98.3416C86.274 98.4641 86.274 98.5866 86.0901 98.7092L80.2045 102.14C80.0205 102.263 79.7753 102.202 79.5914 102.14L77.7521 101.037C77.5682 100.915 77.5682 100.731 77.7521 100.67Z" fill="#142F63"/>
<path opacity="0.5" d="M83.4537 93.6237L85.4769 92.4595C85.6608 92.337 85.9061 92.3983 86.09 92.4595L88.2971 93.7462C88.481 93.8687 88.481 93.9913 88.2971 94.1138L86.2739 95.2779C86.09 95.4005 85.8448 95.3392 85.6608 95.2779L83.4537 93.9913C83.3311 93.8687 83.3311 93.6849 83.4537 93.6237Z" fill="#142F63"/>
<path opacity="0.5" d="M105.954 80.6344L109.142 78.7963C109.326 78.6738 109.571 78.7351 109.755 78.7963L111.962 80.083C112.146 80.2055 112.146 80.3281 111.962 80.4506L108.774 82.2887C108.59 82.4113 108.345 82.35 108.161 82.2887L105.954 81.0021C105.77 80.8795 105.77 80.757 105.954 80.6344Z" fill="#142F63"/>
<path opacity="0.5" d="M86.4578 91.9082L89.6459 90.0701C89.8298 89.9475 90.075 90.0088 90.2589 90.0701L92.4661 91.3567C92.65 91.4793 92.65 91.6018 92.4661 91.7244L89.278 93.5625C89.0941 93.685 88.8488 93.6237 88.6649 93.5625L86.4578 92.2758C86.2739 92.1533 86.2739 91.9694 86.4578 91.9082Z" fill="#142F63"/>
<path opacity="0.5" d="M101.478 83.2079L104.666 81.3698C104.85 81.2473 105.096 81.3086 105.279 81.3698L107.487 82.6565C107.67 82.779 107.67 82.9016 107.487 83.0241L104.299 84.8622C104.115 84.9847 103.869 84.9235 103.685 84.8622L101.478 83.5755C101.294 83.453 101.294 83.3305 101.478 83.2079Z" fill="#142F63"/>
<path opacity="0.5" d="M107.487 83.0854L93.5698 91.1117C93.3858 91.2343 93.1406 91.2343 92.9567 91.1117L90.6883 89.7638C90.5043 89.6412 90.5043 89.5187 90.6883 89.3962L104.605 81.3698L107.487 83.0854Z" fill="#142F63"/>
<path opacity="0.5" d="M77.7523 98.5867L75.5452 99.8733C75.4225 99.9346 75.1773 99.9346 75.0547 99.8733L74.1351 99.3219C74.0124 99.2606 74.0124 99.1381 74.1351 99.0155L76.3422 97.7289C76.4648 97.6676 76.71 97.6676 76.8326 97.7289L77.7523 98.2803C77.8749 98.3416 77.8749 98.4641 77.7523 98.5867Z" fill="#142F63"/>
<path opacity="0.5" d="M80.8787 96.7485L78.6716 98.0351C78.549 98.0964 78.3038 98.0964 78.1812 98.0351L77.2615 97.4837C77.1389 97.4224 77.1389 97.2999 77.2615 97.1773L79.4686 95.8907C79.5912 95.8294 79.8365 95.8294 79.9591 95.8907L80.8787 96.4421C81.0014 96.5646 81.0014 96.6872 80.8787 96.7485Z" fill="#142F63"/>
<path opacity="0.5" d="M84.0057 94.9717L81.7986 96.2583C81.6759 96.3196 81.4307 96.3196 81.3081 96.2583L80.3884 95.7069C80.2658 95.6456 80.2658 95.5231 80.3884 95.4006L82.5956 94.1139C82.7182 94.0526 82.9634 94.0526 83.0861 94.1139L84.0057 94.6653C84.1283 94.7878 84.1283 94.9104 84.0057 94.9717Z" fill="#142F63"/>
<path opacity="0.5" d="M82.473 97.7287L80.2659 99.0154C80.1433 99.0767 79.898 99.0767 79.7754 99.0154L78.8558 98.464C78.7332 98.4027 78.7332 98.2802 78.8558 98.1576L81.0629 96.871C81.1855 96.8097 81.4307 96.8097 81.5534 96.871L82.473 97.4224C82.5956 97.4837 82.5956 97.6062 82.473 97.7287Z" fill="#142F63"/>
</g>
</g>
</g>
<g opacity="0.8">
<path opacity="0.8" d="M160.028 99.4447L161.99 98.2806C162.174 98.1581 162.113 98.0355 161.929 97.913L159.599 96.565C159.415 96.4425 159.109 96.4425 158.986 96.565L157.024 97.7292C156.84 97.7904 156.901 97.9743 157.085 98.0968L159.415 99.4447C159.599 99.5673 159.844 99.5673 160.028 99.4447Z" fill="#142F63"/>
<path opacity="0.8" d="M156.963 101.222L158.925 100.057C159.109 99.9349 159.047 99.8123 158.863 99.6898L156.534 98.3418C156.35 98.2193 156.043 98.2193 155.92 98.3418L153.959 99.506C153.775 99.6285 153.836 99.7511 154.02 99.8736L156.35 101.222C156.534 101.344 156.779 101.344 156.963 101.222Z" fill="#142F63"/>
<path opacity="0.8" d="M153.897 102.998L155.859 101.834C156.043 101.712 155.982 101.589 155.798 101.467L153.468 100.119C153.284 99.9961 152.978 99.9961 152.855 100.119L150.893 101.283C150.709 101.405 150.771 101.528 150.954 101.65L153.284 102.998C153.468 103.121 153.713 103.121 153.897 102.998Z" fill="#142F63"/>
<path opacity="0.8" d="M149.667 101.528L151.629 100.364C151.813 100.303 151.751 100.119 151.567 99.9962L149.606 98.8321C149.422 98.7095 149.115 98.7095 148.992 98.8321L147.031 99.9962C146.847 100.119 146.908 100.241 147.092 100.364L149.054 101.528C149.238 101.651 149.483 101.651 149.667 101.528Z" fill="#142F63"/>
<path opacity="0.8" d="M146.602 103.305L148.564 102.141C148.748 102.079 148.686 101.896 148.502 101.773L146.541 100.609C146.357 100.486 146.05 100.486 145.927 100.609L143.966 101.773C143.782 101.834 143.843 102.018 144.027 102.141L145.989 103.305C146.173 103.427 146.418 103.427 146.602 103.305Z" fill="#142F63"/>
<path opacity="0.8" d="M143.536 105.082L145.498 103.917C145.682 103.795 145.62 103.672 145.437 103.55L143.475 102.386C143.291 102.263 142.984 102.263 142.862 102.386L140.9 103.55C140.716 103.611 140.777 103.795 140.961 103.917L142.923 105.082C143.107 105.143 143.352 105.204 143.536 105.082Z" fill="#142F63"/>
<path opacity="0.8" d="M140.471 106.858L142.432 105.694C142.616 105.633 142.555 105.449 142.371 105.327L140.409 104.163C140.225 104.04 139.919 104.04 139.796 104.163L137.834 105.327C137.65 105.449 137.712 105.572 137.896 105.694L139.857 106.858C140.041 106.92 140.287 106.92 140.471 106.858Z" fill="#142F63"/>
<path opacity="0.8" d="M137.406 108.635L139.367 107.471C139.551 107.41 139.49 107.226 139.306 107.103L137.344 105.939C137.16 105.817 136.854 105.817 136.731 105.939L134.769 107.103C134.585 107.165 134.647 107.349 134.831 107.471L136.793 108.635C136.976 108.696 137.222 108.696 137.406 108.635Z" fill="#142F63"/>
<path opacity="0.8" d="M134.34 110.412L136.302 109.248C136.485 109.125 136.424 109.003 136.24 108.88L134.278 107.716C134.094 107.594 133.788 107.594 133.665 107.716L131.703 108.88C131.519 108.942 131.581 109.125 131.765 109.248L133.727 110.412C133.911 110.473 134.156 110.473 134.34 110.412Z" fill="#142F63"/>
<path opacity="0.8" d="M131.274 112.189L133.236 111.025C133.42 110.902 133.359 110.78 133.175 110.657L131.213 109.493C131.029 109.37 130.722 109.37 130.6 109.493L128.638 110.657C128.454 110.78 128.515 110.902 128.699 111.025L130.661 112.189C130.845 112.25 131.09 112.25 131.274 112.189Z" fill="#142F63"/>
<path opacity="0.8" d="M128.209 113.904L130.171 112.74C130.355 112.618 130.294 112.495 130.11 112.373L128.148 111.209C127.964 111.086 127.658 111.086 127.535 111.209L125.573 112.373C125.389 112.495 125.45 112.618 125.634 112.74L127.596 113.904C127.78 114.027 128.025 114.027 128.209 113.904Z" fill="#142F63"/>
<path opacity="0.8" d="M125.143 115.681L127.105 114.517C127.289 114.456 127.228 114.272 127.044 114.149L125.082 112.985C124.898 112.863 124.592 112.863 124.469 112.985L122.507 114.149C122.323 114.272 122.385 114.395 122.568 114.517L124.53 115.681C124.714 115.804 124.959 115.804 125.143 115.681Z" fill="#142F63"/>
<path opacity="0.8" d="M122.078 117.458L124.04 116.294C124.224 116.233 124.162 116.049 123.979 115.926L122.017 114.762C121.833 114.64 121.526 114.64 121.404 114.762L119.442 115.926C119.258 115.988 119.319 116.171 119.503 116.294L121.465 117.458C121.649 117.519 121.894 117.581 122.078 117.458Z" fill="#142F63"/>
<path opacity="0.8" d="M145.13 100.731L147.092 99.5673C147.276 99.4447 147.215 99.3222 147.031 99.1996L145.069 98.0355C144.885 97.913 144.578 97.913 144.456 98.0355L142.494 99.1996C142.31 99.2609 142.371 99.4447 142.555 99.5673L144.517 100.731C144.701 100.793 145.008 100.793 145.13 100.731Z" fill="#142F63"/>
<path opacity="0.8" d="M148.257 98.8932L150.219 97.7291C150.403 97.6678 150.342 97.484 150.158 97.3615L148.196 96.1974C148.012 96.0748 147.705 96.0748 147.583 96.1974L145.621 97.3615C145.437 97.484 145.498 97.6066 145.682 97.7291L147.644 98.8932C147.828 99.0158 148.073 99.0158 148.257 98.8932Z" fill="#142F63"/>
<path opacity="0.8" d="M151.383 97.1166L155.675 94.6658C155.859 94.5432 155.798 94.4207 155.614 94.2981L153.652 93.134C153.468 93.0115 153.161 93.0115 153.039 93.134L148.747 95.5848C148.563 95.6461 148.625 95.8299 148.808 95.9524L150.77 97.1166C150.954 97.1778 151.2 97.2391 151.383 97.1166Z" fill="#142F63"/>
<path opacity="0.8" d="M149.177 94.9108L152.671 92.8889C152.855 92.8276 152.794 92.6438 152.61 92.5212L150.648 91.3571C150.464 91.2346 150.158 91.2346 150.035 91.3571L146.54 93.379C146.356 93.5016 146.418 93.6241 146.602 93.7466L148.563 94.9108C148.747 95.0333 149.054 95.0333 149.177 94.9108Z" fill="#142F63"/>
<path opacity="0.8" d="M142.065 102.508L144.027 101.344C144.211 101.222 144.149 101.099 143.965 100.976L142.003 99.8123C141.82 99.6898 141.513 99.6898 141.39 99.8123L139.428 100.976C139.245 101.099 139.306 101.222 139.49 101.344L141.452 102.508C141.636 102.569 141.942 102.569 142.065 102.508Z" fill="#142F63"/>
<path opacity="0.8" d="M138.999 104.224L140.961 103.06C141.145 102.937 141.084 102.815 140.9 102.692L138.938 101.528C138.754 101.405 138.448 101.405 138.325 101.528L136.363 102.692C136.179 102.815 136.24 102.937 136.424 103.06L138.386 104.224C138.57 104.346 138.877 104.346 138.999 104.224Z" fill="#142F63"/>
<path opacity="0.8" d="M135.934 106.001L137.896 104.837C138.08 104.775 138.018 104.591 137.834 104.469L135.873 103.305C135.689 103.182 135.382 103.182 135.259 103.305L133.298 104.469C133.114 104.591 133.175 104.714 133.359 104.837L135.321 106.001C135.505 106.123 135.811 106.123 135.934 106.001Z" fill="#142F63"/>
<path opacity="0.8" d="M132.868 107.777L134.83 106.613C135.014 106.491 134.953 106.368 134.769 106.246L132.807 105.082C132.623 104.959 132.317 104.959 132.194 105.082L130.232 106.246C130.048 106.307 130.11 106.491 130.294 106.613L132.255 107.777C132.439 107.839 132.746 107.9 132.868 107.777Z" fill="#142F63"/>
<path opacity="0.8" d="M129.803 109.554L131.765 108.39C131.949 108.268 131.888 108.145 131.704 108.023L129.742 106.858C129.558 106.736 129.251 106.736 129.129 106.858L127.167 108.023C126.983 108.145 127.044 108.268 127.228 108.39L129.19 109.554C129.374 109.616 129.68 109.616 129.803 109.554Z" fill="#142F63"/>
<path opacity="0.8" d="M126.738 111.331L128.699 110.167C128.883 110.106 128.822 109.922 128.638 109.799L126.676 108.635C126.492 108.513 126.186 108.513 126.063 108.635L124.101 109.799C123.917 109.922 123.979 110.044 124.163 110.167L126.125 111.331C126.308 111.392 126.615 111.392 126.738 111.331Z" fill="#142F63"/>
<path opacity="0.8" d="M123.672 113.108L125.634 111.944C125.818 111.883 125.757 111.699 125.573 111.576L123.611 110.412C123.427 110.29 123.12 110.29 122.998 110.412L121.036 111.576C120.852 111.637 120.913 111.821 121.097 111.944L123.059 113.108C123.243 113.169 123.55 113.169 123.672 113.108Z" fill="#142F63"/>
<path opacity="0.8" d="M120.607 114.885L122.569 113.721C122.753 113.598 122.691 113.476 122.507 113.353L120.545 112.189C120.362 112.066 120.055 112.066 119.932 112.189L117.97 113.353C117.787 113.414 117.848 113.598 118.032 113.721L119.994 114.885C120.178 114.946 120.484 114.946 120.607 114.885Z" fill="#142F63"/>
<path opacity="0.8" d="M117.541 116.6L119.503 115.436C119.687 115.375 119.626 115.191 119.442 115.069L117.48 113.904C117.296 113.782 116.99 113.782 116.867 113.904L114.905 115.069C114.721 115.191 114.782 115.314 114.966 115.436L116.928 116.6C117.112 116.723 117.419 116.723 117.541 116.6Z" fill="#142F63"/>
<path opacity="0.8" d="M112.085 119.786L116.438 117.274C116.622 117.152 116.56 117.029 116.376 116.907L114.415 115.743C114.231 115.62 113.924 115.62 113.801 115.743L109.449 118.255C109.265 118.377 109.326 118.5 109.51 118.622L111.472 119.786C111.656 119.848 111.962 119.848 112.085 119.786Z" fill="#142F63"/>
<path opacity="0.8" d="M106.138 116.355L109.816 114.272C110 114.15 109.939 114.027 109.755 113.904L107.793 112.74C107.609 112.618 107.303 112.618 107.18 112.74L103.501 114.824C103.317 114.885 103.379 115.069 103.563 115.191L105.525 116.355C105.708 116.417 106.015 116.417 106.138 116.355Z" fill="#142F63"/>
<path opacity="0.8" d="M136.731 102.141L138.693 100.977C138.877 100.854 138.816 100.731 138.632 100.609L136.67 99.4448C136.486 99.3223 136.18 99.3223 136.057 99.4448L134.095 100.609C133.911 100.67 133.972 100.854 134.156 100.977L136.118 102.141C136.241 102.202 136.547 102.202 136.731 102.141Z" fill="#142F63"/>
<path opacity="0.8" d="M139.858 100.302L141.82 99.1384C142.004 99.0158 141.942 98.8933 141.758 98.7707L139.796 97.6066C139.613 97.4841 139.306 97.4841 139.183 97.6066L137.221 98.7707C137.038 98.832 137.099 99.0158 137.283 99.1384L139.245 100.302C139.429 100.425 139.674 100.425 139.858 100.302Z" fill="#142F63"/>
<path opacity="0.8" d="M142.985 98.5257L144.947 97.3616C145.13 97.3003 145.069 97.1165 144.885 96.9939L142.923 95.8298C142.739 95.7073 142.433 95.7073 142.31 95.8298L140.348 96.9939C140.164 97.1165 140.226 97.239 140.41 97.3616L142.372 98.5257C142.556 98.587 142.801 98.587 142.985 98.5257Z" fill="#142F63"/>
<path opacity="0.8" d="M146.111 96.6876L148.073 95.5235C148.257 95.401 148.196 95.2784 148.012 95.1559L146.05 93.9917C145.866 93.8692 145.559 93.8692 145.437 93.9917L143.475 95.1559C143.291 95.2784 143.352 95.401 143.536 95.5235L145.498 96.6876C145.682 96.8102 145.989 96.8102 146.111 96.6876Z" fill="#142F63"/>
<path opacity="0.8" d="M133.665 103.917L135.627 102.753C135.811 102.631 135.75 102.508 135.566 102.386L133.604 101.222C133.42 101.099 133.114 101.099 132.991 101.222L131.029 102.386C130.845 102.508 130.906 102.631 131.09 102.753L133.052 103.917C133.175 103.979 133.481 103.979 133.665 103.917Z" fill="#142F63"/>
<path opacity="0.8" d="M130.6 105.694L132.562 104.53C132.746 104.408 132.684 104.285 132.5 104.162L130.539 102.998C130.355 102.876 130.048 102.876 129.926 102.998L127.964 104.162C127.78 104.285 127.841 104.408 128.025 104.53L129.987 105.694C130.171 105.755 130.416 105.755 130.6 105.694Z" fill="#142F63"/>
<path opacity="0.8" d="M127.535 107.41L129.497 106.246C129.681 106.184 129.619 106.001 129.436 105.878L127.474 104.714C127.29 104.591 126.983 104.591 126.861 104.714L124.899 105.878C124.715 106.001 124.776 106.123 124.96 106.246L126.922 107.41C127.106 107.532 127.351 107.532 127.535 107.41Z" fill="#142F63"/>
<path opacity="0.8" d="M124.469 109.187L126.431 108.023C126.615 107.961 126.554 107.778 126.37 107.655L124.408 106.491C124.224 106.368 123.917 106.368 123.795 106.491L121.833 107.655C121.649 107.716 121.71 107.9 121.894 108.023L123.856 109.187C124.04 109.309 124.285 109.309 124.469 109.187Z" fill="#142F63"/>
<path opacity="0.8" d="M121.404 110.963L123.366 109.799C123.549 109.677 123.488 109.554 123.304 109.432L121.342 108.268C121.158 108.145 120.852 108.145 120.729 108.268L118.767 109.432C118.583 109.493 118.645 109.677 118.829 109.799L120.791 110.963C120.974 111.086 121.22 111.086 121.404 110.963Z" fill="#142F63"/>
<path opacity="0.8" d="M118.339 112.74L120.301 111.576C120.484 111.515 120.423 111.331 120.239 111.209L118.277 110.044C118.093 109.922 117.787 109.922 117.664 110.044L115.702 111.209C115.518 111.331 115.58 111.454 115.764 111.576L117.726 112.74C117.91 112.802 118.155 112.863 118.339 112.74Z" fill="#142F63"/>
<path opacity="0.8" d="M115.273 114.517L117.235 113.353C117.419 113.292 117.357 113.108 117.173 112.985L115.211 111.821C115.028 111.699 114.721 111.699 114.598 111.821L112.637 112.985C112.453 113.047 112.514 113.23 112.698 113.353L114.66 114.517C114.844 114.578 115.089 114.578 115.273 114.517Z" fill="#142F63"/>
<path opacity="0.8" d="M112.207 116.294L114.169 115.13C114.353 115.007 114.292 114.885 114.108 114.762L112.146 113.598C111.962 113.476 111.656 113.476 111.533 113.598L109.571 114.762C109.387 114.824 109.448 115.007 109.632 115.13L111.594 116.294C111.778 116.355 112.023 116.355 112.207 116.294Z" fill="#142F63"/>
<path opacity="0.8" d="M109.142 118.071L111.104 116.907C111.288 116.845 111.226 116.662 111.042 116.539L109.081 115.375C108.897 115.252 108.59 115.252 108.468 115.375L106.506 116.539C106.322 116.662 106.383 116.784 106.567 116.907L108.529 118.071C108.713 118.132 108.958 118.132 109.142 118.071Z" fill="#142F63"/>
<path opacity="0.8" d="M138.325 97.7904L140.287 96.6263C140.471 96.5037 140.41 96.3812 140.226 96.2587L138.264 95.0945C138.08 94.972 137.773 94.972 137.651 95.0945L135.689 96.2587C135.505 96.3812 135.566 96.5037 135.75 96.6263L137.712 97.7904C137.896 97.8517 138.141 97.8517 138.325 97.7904Z" fill="#142F63"/>
<path opacity="0.8" d="M141.39 96.0136L143.352 94.8495C143.536 94.7882 143.475 94.6044 143.291 94.4819L141.329 93.3177C141.145 93.1952 140.839 93.1952 140.716 93.3177L138.754 94.4819C138.57 94.5431 138.632 94.7269 138.816 94.8495L140.777 96.0136C140.961 96.0749 141.207 96.0749 141.39 96.0136Z" fill="#142F63"/>
<path opacity="0.8" d="M144.394 94.2369L146.356 93.0727C146.54 93.0115 146.479 92.8277 146.295 92.7051L144.333 91.541C144.149 91.4185 143.843 91.4185 143.72 91.541L141.758 92.7051C141.574 92.8277 141.635 92.9502 141.819 93.0727L143.781 94.2369C143.965 94.2981 144.272 94.3594 144.394 94.2369Z" fill="#142F63"/>
<path opacity="0.8" d="M147.46 92.46L149.422 91.2959C149.606 91.1734 149.544 91.0508 149.36 90.9283L147.398 89.7641C147.215 89.6416 146.908 89.6416 146.785 89.7641L144.824 90.9283C144.64 91.0508 144.701 91.1734 144.885 91.2959L146.847 92.46C147.031 92.5826 147.337 92.5826 147.46 92.46Z" fill="#142F63"/>
<path opacity="0.8" d="M144.333 90.6831L146.295 89.519C146.479 89.3964 146.417 89.2739 146.233 89.1514L145.559 88.7837C145.375 88.6612 145.069 88.6612 144.946 88.7837L142.984 89.9479C142.8 90.0091 142.861 90.1929 143.045 90.3155L143.72 90.6831C143.904 90.7444 144.149 90.7444 144.333 90.6831Z" fill="#142F63"/>
<path opacity="0.8" d="M140.348 92.9502L142.31 91.7861C142.494 91.7248 142.432 91.541 142.249 91.4185L141.574 91.0508C141.39 90.9283 141.084 90.9283 140.961 91.0508L138.999 92.215C138.815 92.3375 138.877 92.46 139.061 92.5826L139.735 92.9502C139.919 93.0727 140.164 93.0727 140.348 92.9502Z" fill="#142F63"/>
<path opacity="0.8" d="M137.344 94.727L139.306 93.5629C139.49 93.5016 139.429 93.3178 139.245 93.1952L138.57 92.8276C138.386 92.7051 138.08 92.7051 137.957 92.8276L135.995 93.9918C135.811 94.1143 135.873 94.2368 136.057 94.3594L136.731 94.727C136.854 94.7883 137.16 94.7883 137.344 94.727Z" fill="#142F63"/>
<path opacity="0.8" d="M134.279 96.5038L136.241 95.3397C136.424 95.2171 136.363 95.0946 136.179 94.972L135.505 94.6044C135.321 94.4819 135.014 94.4819 134.892 94.6044L132.93 95.7685C132.746 95.8298 132.807 96.0136 132.991 96.1362L133.666 96.5038C133.849 96.565 134.095 96.565 134.279 96.5038Z" fill="#142F63"/>
<path opacity="0.8" d="M131.274 98.2194L133.236 97.0553C133.42 96.9328 133.359 96.8102 133.175 96.6877L132.5 96.3201C132.316 96.1975 132.01 96.1975 131.887 96.3201L129.925 97.4842C129.742 97.5455 129.803 97.7293 129.987 97.8518L130.661 98.2194C130.784 98.2807 131.09 98.342 131.274 98.2194Z" fill="#142F63"/>
<path opacity="0.8" d="M114.292 108.023L116.254 106.858C116.438 106.797 116.376 106.613 116.192 106.491L115.518 106.123C115.334 106.001 115.028 106.001 114.905 106.123L112.943 107.287C112.759 107.41 112.82 107.532 113.004 107.655L113.679 108.023C113.863 108.084 114.108 108.084 114.292 108.023Z" fill="#142F63"/>
<path opacity="0.8" d="M111.288 109.738L113.25 108.574C113.434 108.451 113.372 108.329 113.188 108.206L112.514 107.839C112.33 107.716 112.024 107.716 111.901 107.839L109.939 109.003C109.755 109.125 109.816 109.248 110 109.371L110.675 109.738C110.797 109.861 111.104 109.861 111.288 109.738Z" fill="#142F63"/>
<path opacity="0.8" d="M108.222 111.515L110.184 110.351C110.368 110.289 110.307 110.106 110.123 109.983L109.449 109.616C109.265 109.493 108.958 109.493 108.836 109.616L106.874 110.78C106.69 110.902 106.751 111.025 106.935 111.147L107.609 111.515C107.793 111.576 108.039 111.576 108.222 111.515Z" fill="#142F63"/>
<path opacity="0.8" d="M105.157 113.292L107.119 112.128C107.303 112.066 107.242 111.882 107.058 111.76L106.383 111.392C106.199 111.27 105.893 111.27 105.77 111.392L103.808 112.556C103.624 112.679 103.686 112.802 103.87 112.924L104.544 113.292C104.728 113.353 105.034 113.353 105.157 113.292Z" fill="#142F63"/>
<path opacity="0.8" d="M135.26 99.5059L137.221 98.3418C137.405 98.2193 137.344 98.0967 137.16 97.9742L135.198 96.81C135.014 96.6875 134.708 96.6875 134.585 96.81L132.623 97.9742C132.439 98.0355 132.501 98.2193 132.685 98.3418L134.646 99.5059C134.83 99.6285 135.076 99.6285 135.26 99.5059Z" fill="#142F63"/>
<path opacity="0.8" d="M132.194 101.283L134.156 100.119C134.34 100.057 134.279 99.8736 134.095 99.7511L132.133 98.587C131.949 98.4644 131.642 98.4644 131.52 98.587L129.558 99.7511C129.374 99.8736 129.435 99.9962 129.619 100.119L131.581 101.283C131.765 101.405 132.01 101.405 132.194 101.283Z" fill="#142F63"/>
<path opacity="0.8" d="M129.129 103.06L131.091 101.896C131.275 101.834 131.213 101.65 131.029 101.528L129.067 100.364C128.883 100.241 128.577 100.241 128.454 100.364L126.492 101.528C126.309 101.589 126.37 101.773 126.554 101.896L128.516 103.06C128.7 103.121 128.945 103.182 129.129 103.06Z" fill="#142F63"/>
<path opacity="0.8" d="M126.063 104.836L128.025 103.672C128.209 103.55 128.148 103.427 127.964 103.305L126.002 102.141C125.818 102.018 125.512 102.018 125.389 102.141L123.427 103.305C123.243 103.366 123.304 103.55 123.488 103.672L125.45 104.836C125.634 104.898 125.879 104.898 126.063 104.836Z" fill="#142F63"/>
<path opacity="0.8" d="M122.998 106.613L124.96 105.449C125.144 105.327 125.082 105.204 124.898 105.081L122.937 103.917C122.753 103.795 122.446 103.795 122.323 103.917L120.362 105.081C120.178 105.204 120.239 105.327 120.423 105.449L122.385 106.613C122.569 106.674 122.814 106.674 122.998 106.613Z" fill="#142F63"/>
<path opacity="0.8" d="M119.932 108.39L121.894 107.226C122.078 107.165 122.017 106.981 121.833 106.858L119.871 105.694C119.687 105.572 119.381 105.572 119.258 105.694L117.296 106.858C117.112 106.981 117.174 107.103 117.358 107.226L119.319 108.39C119.503 108.451 119.749 108.451 119.932 108.39Z" fill="#142F63"/>
<path opacity="0.8" d="M116.867 110.167L118.829 109.003C119.013 108.88 118.952 108.758 118.768 108.635L116.806 107.471C116.622 107.349 116.315 107.349 116.193 107.471L114.231 108.635C114.047 108.697 114.108 108.88 114.292 109.003L116.254 110.167C116.438 110.228 116.683 110.228 116.867 110.167Z" fill="#142F63"/>
<path opacity="0.8" d="M113.802 111.883L115.763 110.718C115.947 110.596 115.886 110.473 115.702 110.351L113.74 109.187C113.556 109.064 113.25 109.064 113.127 109.187L111.165 110.351C110.981 110.473 111.043 110.596 111.227 110.718L113.189 111.883C113.372 112.005 113.618 112.005 113.802 111.883Z" fill="#142F63"/>
<path opacity="0.8" d="M110.736 113.659L112.698 112.495C112.882 112.373 112.821 112.25 112.637 112.128L110.675 110.963C110.491 110.841 110.184 110.841 110.062 110.963L108.1 112.128C107.916 112.25 107.977 112.373 108.161 112.495L110.123 113.659C110.307 113.782 110.614 113.782 110.736 113.659Z" fill="#142F63"/>
<path opacity="0.8" d="M152.794 99.7511L158.618 96.3813C158.802 96.2587 158.741 96.1362 158.557 96.0137L156.595 94.8495C156.411 94.727 156.104 94.727 155.982 94.8495L150.157 98.2194C149.973 98.3419 150.035 98.4644 150.219 98.587L152.181 99.7511C152.364 99.8124 152.61 99.8124 152.794 99.7511Z" fill="#142F63"/>
<path opacity="0.8" d="M115.15 121.441L120.974 118.071C121.158 117.948 121.097 117.826 120.913 117.703L118.951 116.539C118.767 116.417 118.461 116.417 118.338 116.539L112.514 119.909C112.33 120.031 112.391 120.154 112.575 120.277L114.537 121.441C114.721 121.563 114.966 121.563 115.15 121.441Z" fill="#142F63"/>
<path opacity="0.8" d="M127.412 118.316L129.374 117.152C129.558 117.029 129.496 116.907 129.312 116.784L126.983 115.436C126.799 115.314 126.492 115.314 126.37 115.436L124.408 116.6C124.224 116.723 124.285 116.845 124.469 116.968L126.799 118.316C126.921 118.377 127.228 118.377 127.412 118.316Z" fill="#142F63"/>
<path opacity="0.8" d="M149.667 105.449L152.855 103.611C153.039 103.55 152.977 103.366 152.793 103.243L150.464 101.896C150.28 101.773 149.973 101.773 149.851 101.896L146.663 103.734C146.479 103.856 146.54 103.979 146.724 104.101L149.054 105.449C149.176 105.572 149.483 105.572 149.667 105.449Z" fill="#142F63"/>
<path opacity="0.8" d="M130.355 116.6L133.543 114.762C133.727 114.64 133.665 114.517 133.481 114.395L131.152 113.047C130.968 112.924 130.661 112.924 130.539 113.047L127.351 114.885C127.167 115.007 127.228 115.13 127.412 115.252L129.742 116.6C129.926 116.662 130.171 116.723 130.355 116.6Z" fill="#142F63"/>
<path opacity="0.8" d="M145.192 108.022L148.38 106.184C148.564 106.123 148.502 105.939 148.318 105.817L145.989 104.469C145.805 104.346 145.498 104.346 145.376 104.469L142.188 106.307C142.004 106.429 142.065 106.552 142.249 106.675L144.579 108.022C144.762 108.084 145.069 108.084 145.192 108.022Z" fill="#142F63"/>
<path opacity="0.8" d="M145.375 104.469L131.581 112.434C131.397 112.556 131.397 112.679 131.581 112.802L133.972 114.149C134.156 114.272 134.401 114.272 134.585 114.149L148.379 106.184L145.375 104.469Z" fill="#142F63"/>
<path opacity="0.8" d="M118.829 121.502L116.622 122.789C116.499 122.85 116.499 122.972 116.683 123.095L117.664 123.646C117.787 123.708 118.032 123.769 118.155 123.646L120.362 122.36C120.484 122.298 120.484 122.176 120.3 122.053L119.32 121.502C119.197 121.441 118.952 121.441 118.829 121.502Z" fill="#142F63"/>
<path opacity="0.8" d="M121.894 119.725L119.687 121.012C119.564 121.073 119.564 121.196 119.748 121.318L120.729 121.869C120.852 121.931 121.097 121.992 121.22 121.869L123.427 120.583C123.549 120.522 123.549 120.399 123.365 120.276L122.384 119.725C122.262 119.664 122.017 119.664 121.894 119.725Z" fill="#142F63"/>
<path opacity="0.8" d="M124.959 117.948L122.752 119.235C122.63 119.296 122.63 119.419 122.814 119.541L123.795 120.093C123.917 120.154 124.162 120.215 124.285 120.093L126.492 118.806C126.615 118.745 126.615 118.622 126.431 118.5L125.45 117.948C125.327 117.887 125.082 117.887 124.959 117.948Z" fill="#142F63"/>
<path opacity="0.8" d="M120.239 118.745L118.032 120.031C117.909 120.093 117.909 120.215 118.093 120.338L119.074 120.889C119.196 120.951 119.442 121.012 119.564 120.889L121.771 119.603C121.894 119.541 121.894 119.419 121.71 119.296L120.729 118.745C120.607 118.684 120.361 118.684 120.239 118.745Z" fill="#142F63"/>
</g>
<path d="M88.9714 71.0767C89.094 71.0767 89.2779 71.0155 89.4618 70.9542C89.9523 70.6479 90.1976 70.0964 90.1362 69.6063C90.0749 69.3612 89.9523 69.1774 89.7684 69.1161C89.5232 68.9936 89.2779 69.0548 89.0327 69.1774C88.5422 69.4225 88.297 70.0352 88.3583 70.5253C88.4196 70.7704 88.5422 70.9542 88.7261 71.0155C88.7874 71.0768 88.8487 71.0767 88.9714 71.0767ZM89.4005 69.2999C89.4618 69.2999 89.5231 69.2999 89.5845 69.3612C89.7071 69.4225 89.8297 69.545 89.8297 69.7288C89.9523 70.1577 89.7071 70.6479 89.2779 70.8929C89.094 71.0155 88.9101 71.0155 88.7261 70.9542C88.6035 70.8929 88.4809 70.7704 88.4809 70.5866C88.3583 70.1577 88.6035 69.6675 89.0327 69.4225C89.1553 69.2999 89.2779 69.2999 89.4005 69.2999Z" fill="#0074E0"/>
<path d="M86.4577 72.5473C86.5803 72.5473 86.7642 72.486 86.9482 72.4247C87.4386 72.1797 87.6839 71.5669 87.6226 71.0768C87.5613 70.8317 87.4386 70.6479 87.2547 70.5866C87.0095 70.4641 86.7642 70.5254 86.519 70.6479C86.0285 70.893 85.7833 71.5057 85.8446 71.9958C85.9059 72.2409 86.0285 72.4247 86.2124 72.486C86.2124 72.5473 86.3351 72.5473 86.4577 72.5473ZM86.8868 70.7092C86.9482 70.7092 87.0095 70.7092 87.0708 70.7704C87.1934 70.8317 87.316 70.9542 87.316 71.1381C87.4386 71.5669 87.1934 72.0571 86.7642 72.3022C86.5803 72.4247 86.3964 72.4247 86.2124 72.3635C86.0898 72.3022 85.9672 72.1796 85.9672 71.9958C85.8446 71.5669 86.0898 71.0768 86.519 70.8317C86.6416 70.7704 86.7642 70.7092 86.8868 70.7092Z" fill="#0074E0"/>
<path d="M83.3312 73.4663C83.4538 73.8952 83.883 74.079 84.3122 73.834C84.7413 73.5889 84.9866 73.0374 84.9252 72.6086C84.8026 72.1797 84.3735 71.9959 83.9443 72.2409C83.5151 72.4247 83.2699 73.0374 83.3312 73.4663Z" fill="#0074E0"/>
<path d="M131.765 45.5885L133.113 44.792L133.052 44.1793L131.703 44.9758L131.765 45.5885Z" fill="#0074E0"/>
<path d="M129.803 46.6914L131.151 45.9561L131.09 45.3434L129.741 46.0787L129.803 46.6914Z" fill="#0074E0"/>
<path d="M133.727 44.4856L136.669 42.77L136.608 42.1573L133.604 43.8116L133.727 44.4856Z" fill="#0074E0"/>
<path d="M185.839 73.0375C186.697 73.0375 187.494 72.8536 188.107 72.486L200.246 65.5013C200.859 65.1337 201.227 64.6435 201.227 64.0921C201.227 63.5406 200.859 63.0505 200.246 62.6829L188.107 55.6981C186.82 54.9629 184.796 54.9629 183.509 55.6981L171.37 62.6829C170.757 63.0505 170.389 63.5406 170.389 64.0921C170.389 64.6435 170.757 65.1337 171.37 65.5013L183.509 72.486C184.183 72.8536 184.98 73.0375 185.839 73.0375ZM187.984 72.3022C186.758 72.9762 184.858 72.9762 183.631 72.3022L171.492 65.3175C170.941 65.0111 170.634 64.5822 170.634 64.0921C170.634 63.6632 170.941 63.2343 171.492 62.8667L183.631 55.8819C184.858 55.2079 186.758 55.2079 187.984 55.8819L200.124 62.8667C200.675 63.173 200.982 63.6019 200.982 64.0921C200.982 64.521 200.675 64.9498 200.124 65.3175L187.984 72.3022Z" fill="#0074E0"/>
<path opacity="0.4" d="M170.082 61.4575V57.2912L170.818 56.8623C171.002 58.1489 172.535 59.0067 173.822 59.1905L182.528 64.2759L186.329 65.6239L198.407 59.3743L198.1 59.1905C199.143 58.7004 199.694 57.5975 200.246 56.6172L201.043 57.1073L201.534 57.2299V61.4575C201.534 62.0089 201.166 62.5604 200.491 62.928L188.352 69.9127C186.942 70.7093 184.612 70.7093 183.202 69.9127L171.063 62.928C170.389 62.4991 170.021 62.0089 170.021 61.4575C170.082 61.5188 170.082 61.4575 170.082 61.4575Z" fill="#0074E0"/>
<path d="M170.082 57.7813V55.0241L170.818 54.5952C171.002 55.8819 172.535 56.7397 173.822 56.9235L182.528 62.0089L186.329 63.3568L198.407 57.1073L198.1 56.9235C199.143 56.4333 199.694 55.3305 200.246 54.3502L201.043 54.8403L201.534 54.9629V57.7813C201.534 58.3327 201.166 58.8841 200.491 59.2517L188.352 66.2365C186.942 67.033 184.612 67.033 183.202 66.2365L171.063 59.2517C170.389 58.8229 170.021 58.3327 170.021 57.7813C170.082 57.7813 170.082 57.7813 170.082 57.7813Z" fill="url(#paint8_linear)"/>
<path opacity="0.3" d="M173.822 56.9235L182.528 62.0089L185.838 63.173V66.9105C184.919 66.9105 183.999 66.7267 183.263 66.2978L171.124 59.313C170.45 58.8841 170.082 58.394 170.082 57.8425V57.7813V55.0241L170.756 54.6565H170.818C171.063 55.8819 172.596 56.7397 173.822 56.9235Z" fill="#0F054C"/>
<path d="M188.414 63.4793L200.553 56.4946C201.963 55.6981 201.963 54.3501 200.553 53.4924L188.414 46.5076C187.004 45.7111 184.674 45.7111 183.264 46.5076L171.125 53.4924C169.715 54.2889 169.715 55.6368 171.125 56.4333L183.264 63.4793C184.674 64.3371 187.004 64.3371 188.414 63.4793Z" fill="url(#paint9_linear)"/>
<path d="M171.125 56.4945L183.264 63.4792C184.674 64.2758 187.003 64.2758 188.414 63.4792L200.553 56.4945C201.166 56.1269 201.534 55.6367 201.595 55.2078C201.656 55.8205 201.35 56.4332 200.553 56.8621L188.414 63.8469C187.003 64.6434 184.674 64.6434 183.264 63.8469L171.125 56.8621C170.327 56.4332 169.96 55.8205 170.082 55.2078C170.144 55.6367 170.511 56.1269 171.125 56.4945Z" fill="white"/>
<path d="M109.142 178.789C110.184 178.789 111.165 178.544 111.962 178.115L160.702 149.992C161.499 149.564 161.867 148.951 161.867 148.338C161.867 147.725 161.438 147.113 160.702 146.684L150.402 140.741L150.28 140.925L160.58 146.868C161.254 147.297 161.683 147.787 161.683 148.338C161.683 148.89 161.315 149.441 160.58 149.809L111.839 177.931C110.368 178.789 107.916 178.789 106.444 177.931L70.7624 157.406L70.6398 157.59L106.321 178.115C107.119 178.605 108.099 178.789 109.142 178.789Z" fill="#0074E0"/>
<path d="M186.758 147.787C187.371 147.787 187.923 147.664 188.475 147.358L204.538 138.045L204.415 137.861L188.352 147.174C187.371 147.725 186.145 147.725 185.164 147.174L162.173 133.878L162.051 134.062L185.041 147.358C185.593 147.664 186.145 147.787 186.758 147.787Z" fill="#0074E0"/>
<path opacity="0.4" d="M49.488 48.0394C48.3706 48.0394 47.4648 47.1342 47.4648 46.0175C47.4648 44.9008 48.3706 43.9956 49.488 43.9956C50.6054 43.9956 51.5112 44.9008 51.5112 46.0175C51.5112 47.1342 50.6054 48.0394 49.488 48.0394Z" fill="#0074E0"/>
<path opacity="0.4" d="M49.4879 46.8753C49.0138 46.8753 48.6295 46.4912 48.6295 46.0175C48.6295 45.5438 49.0138 45.1597 49.4879 45.1597C49.9619 45.1597 50.3462 45.5438 50.3462 46.0175C50.3462 46.4912 49.9619 46.8753 49.4879 46.8753Z" fill="#0074E0"/>
<path opacity="0.4" d="M80.2654 12.5642C79.148 12.5642 78.2422 11.6589 78.2422 10.5423C78.2422 9.42559 79.148 8.52036 80.2654 8.52036C81.3828 8.52036 82.2886 9.42559 82.2886 10.5423C82.2886 11.6589 81.3828 12.5642 80.2654 12.5642Z" fill="#0074E0"/>
<path opacity="0.4" d="M80.2657 11.4C79.7917 11.4 79.4074 11.016 79.4074 10.5422C79.4074 10.0685 79.7917 9.68445 80.2657 9.68445C80.7397 9.68445 81.124 10.0685 81.124 10.5422C81.124 11.016 80.7397 11.4 80.2657 11.4Z" fill="#0074E0"/>
<path opacity="0.4" d="M22.5735 55.1466C21.4561 55.1466 20.5503 54.2414 20.5503 53.1247C20.5503 52.0081 21.4561 51.1028 22.5735 51.1028C23.6909 51.1028 24.5967 52.0081 24.5967 53.1247C24.5967 54.2414 23.6909 55.1466 22.5735 55.1466Z" fill="#0074E0"/>
<path opacity="0.4" d="M22.5738 53.9826C22.0998 53.9826 21.7155 53.5985 21.7155 53.1248C21.7155 52.6511 22.0998 52.267 22.5738 52.267C23.0478 52.267 23.4321 52.6511 23.4321 53.1248C23.4321 53.5985 23.0478 53.9826 22.5738 53.9826Z" fill="#0074E0"/>
<path d="M214.286 140.312C218.026 140.312 221.827 139.515 224.647 137.861C227.467 136.268 229 134.123 229 131.795C229 129.528 227.467 127.384 224.647 125.73C218.945 122.421 209.626 122.421 203.863 125.73C201.043 127.323 199.511 129.467 199.511 131.795C199.511 134.062 201.043 136.207 203.863 137.861C206.745 139.454 210.546 140.312 214.286 140.312ZM214.286 123.401C218.026 123.401 221.704 124.198 224.586 125.852C227.283 127.445 228.816 129.528 228.816 131.734C228.816 133.94 227.345 136.023 224.586 137.616C218.945 140.863 209.688 140.863 204.047 137.616C201.35 136.023 199.817 133.94 199.817 131.734C199.817 129.528 201.288 127.445 204.047 125.852C206.868 124.259 210.546 123.401 214.286 123.401Z" fill="#0074E0"/>
<path d="M133.604 50.6127L136.853 48.7133L136.73 47.9781L133.481 49.8775L133.604 50.6127Z" fill="#0074E0"/>
<path d="M130.845 52.2057L132.439 51.2866L132.316 50.4901L130.722 51.4704L130.845 52.2057Z" fill="#0074E0"/>
<path d="M132.929 52.8796L134.339 52.0831L134.217 51.3478L132.807 52.1443L132.929 52.8796Z" fill="#0074E0"/>
<path d="M130.661 54.2277L132.255 53.3086L132.132 52.5734L130.538 53.4924L130.661 54.2277Z" fill="#0074E0"/>
<path d="M128.27 57.5362L134.584 53.86L134.462 53.1248L128.147 56.8009L128.27 57.5362Z" fill="#0074E0"/>
<path d="M133.788 72.1797L140.103 68.5035L139.98 67.7682L133.665 71.4444L133.788 72.1797Z" fill="#0074E0"/>
<path d="M131.335 73.5889L132.929 72.6698L132.807 71.8733L131.213 72.8536L131.335 73.5889Z" fill="#0074E0"/>
<path d="M133.542 56.372L134.891 55.6368L134.768 54.8403L133.42 55.6368L133.542 56.372Z" fill="#0074E0"/>
<path d="M131.213 57.72L132.807 56.8009L132.684 56.0657L131.09 56.9847L131.213 57.72Z" fill="#0074E0"/>
<path d="M131.703 59.3742L135.198 57.3523L135.075 56.6171L131.581 58.639L131.703 59.3742Z" fill="#0074E0"/>
<path d="M129.373 60.7222L130.967 59.8032L130.845 59.0679L129.251 59.987L129.373 60.7222Z" fill="#0074E0"/>
<path d="M127.044 62.0701L128.638 61.1511L128.515 60.4158L126.921 61.3349L127.044 62.0701Z" fill="#0074E0"/>
<path d="M123.242 64.2758L126.308 62.499L126.185 61.7637L123.12 63.5406L123.242 64.2758Z" fill="#0074E0"/>
<path d="M125.633 66.7266L127.289 65.7463L127.166 65.011L125.511 65.9301L125.633 66.7266Z" fill="#0074E0"/>
<path d="M121.893 68.8712L124.897 67.0944L124.775 66.3591L121.771 68.136L121.893 68.8712Z" fill="#0074E0"/>
<path d="M134.155 61.7638L135.811 60.8448L135.627 60.1096L134.033 61.0286L134.155 61.7638Z" fill="#0074E0"/>
<path d="M131.825 63.1118L133.419 62.1928L133.297 61.4575L131.703 62.3766L131.825 63.1118Z" fill="#0074E0"/>
<path d="M128.024 65.3175L131.09 63.5407L130.967 62.8054L127.902 64.5822L128.024 65.3175Z" fill="#0074E0"/>
<path d="M123.059 66.2978L124.653 65.3175L124.53 64.5822L122.936 65.5013L123.059 66.2978Z" fill="#0074E0"/>
<path d="M120.729 67.6457L122.323 66.7267L122.2 65.9302L120.606 66.9105L120.729 67.6457Z" fill="#0074E0"/>
<path d="M116.928 69.7901L119.993 68.0746L119.871 67.2781L116.805 69.0549L116.928 69.7901Z" fill="#0074E0"/>
<path d="M128.822 75.0594L130.416 74.079L130.293 73.3438L128.699 74.2629L128.822 75.0594Z" fill="#0074E0"/>
<path d="M125.02 77.2038L128.085 75.4269L127.963 74.6917L124.897 76.4685L125.02 77.2038Z" fill="#0074E0"/>
<path d="M134.768 65.2562L136.362 64.3371L136.24 63.6019L134.646 64.5209L134.768 65.2562Z" fill="#0074E0"/>
<path d="M130.967 67.4618L134.033 65.685L133.91 64.9498L130.845 66.7266L130.967 67.4618Z" fill="#0074E0"/>
<path d="M127.044 77.939L128.638 77.02L128.515 76.2847L126.921 77.2038L127.044 77.939Z" fill="#0074E0"/>
<path d="M123.242 80.1447L126.308 78.3679L126.185 77.6326L123.12 79.4095L123.242 80.1447Z" fill="#0074E0"/>
<path d="M123.426 60.2933L125.021 59.3743L124.898 58.639L123.304 59.5581L123.426 60.2933Z" fill="#0074E0"/>
<path d="M125.879 58.8841L127.473 57.9651L127.35 57.2299L125.756 58.1489L125.879 58.8841Z" fill="#0074E0"/>
<path d="M119.625 62.499L122.69 60.7222L122.568 59.9869L119.502 61.7638L119.625 62.499Z" fill="#0074E0"/>
<path d="M134.033 59.9257L135.504 59.1292L135.382 58.3327L133.91 59.1905L134.033 59.9257Z" fill="#0074E0"/>
<path d="M129.741 62.4377L133.236 60.4158L133.113 59.6806L129.557 61.7025L129.741 62.4377Z" fill="#0074E0"/>
<path d="M125.388 64.9499L128.944 62.8667L128.822 62.1315L125.266 64.2146L125.388 64.9499Z" fill="#0074E0"/>
<path d="M117.418 63.7858L118.889 62.928L118.705 62.1927L117.295 63.0505L117.418 63.7858Z" fill="#0074E0"/>
<path d="M113.065 66.2978L116.621 64.2146L116.498 63.4794L112.943 65.5625L113.065 66.2978Z" fill="#0074E0"/>
<path d="M108.774 68.7486L112.33 66.7267L112.207 65.9915L108.651 68.0134L108.774 68.7486Z" fill="#0074E0"/>
<path d="M132.5 64.6435L136.056 62.6216L135.933 61.8864L132.377 63.9083L132.5 64.6435Z" fill="#0074E0"/>
<path d="M130.661 65.7463L131.703 65.1336L131.581 64.3984L130.538 65.0111L130.661 65.7463Z" fill="#0074E0"/>
<path d="M128.76 66.8492L129.864 66.1752L129.741 65.44L128.638 66.0527L128.76 66.8492Z" fill="#0074E0"/>
<path d="M125.327 68.8098L127.963 67.2781L127.841 66.5428L125.204 68.0746L125.327 68.8098Z" fill="#0074E0"/>
<path d="M121.403 65.3175L122.507 64.6435L122.384 63.9083L121.281 64.5822L121.403 65.3175Z" fill="#0074E0"/>
<path d="M117.97 67.278L120.667 65.7463L120.545 65.011L117.847 66.5428L117.97 67.278Z" fill="#0074E0"/>
<path d="M117.234 67.707L119.932 66.1752L119.809 65.44L117.111 66.9718L117.234 67.707Z" fill="#0074E0"/>
<path d="M131.519 77.3264L134.953 75.3045L134.83 74.5693L131.335 76.5912L131.519 77.3264Z" fill="#0074E0"/>
<path d="M129.128 78.6742L130.783 77.7552L130.661 76.9587L129.005 77.939L129.128 78.6742Z" fill="#0074E0"/>
<path d="M126.799 80.0221L128.393 79.1031L128.27 78.3679L126.676 79.2869L126.799 80.0221Z" fill="#0074E0"/>
<path d="M122.997 82.2279L126.062 80.4511L125.94 79.7158L122.874 81.4314L122.997 82.2279Z" fill="#0074E0"/>
<path d="M120.606 83.5759L122.2 82.6569L122.078 81.9216L120.484 82.8407L120.606 83.5759Z" fill="#0074E0"/>
<path d="M116.805 85.7816L119.871 84.0048L119.748 83.2695L116.683 85.0464L116.805 85.7816Z" fill="#0074E0"/>
<path d="M128.454 82.9019L130.048 81.9828L129.925 81.2476L128.331 82.1667L128.454 82.9019Z" fill="#0074E0"/>
<path d="M124.653 85.1077L127.718 83.3308L127.596 82.5956L124.53 84.3724L124.653 85.1077Z" fill="#0074E0"/>
<path d="M136.853 78.0616L138.447 77.1426L138.325 76.3461L136.731 77.3264L136.853 78.0616Z" fill="#0074E0"/>
<path d="M134.523 79.4095L136.117 78.4904L135.995 77.7552L134.401 78.6742L134.523 79.4095Z" fill="#0074E0"/>
<path d="M130.722 81.6152L133.788 79.8384L133.665 79.1031L130.6 80.8187L130.722 81.6152Z" fill="#0074E0"/>
<path d="M133.787 77.8778L135.259 77.0812L135.136 76.2847L133.665 77.1425L133.787 77.8778Z" fill="#0074E0"/>
<path d="M129.496 80.3899L133.052 78.368L132.929 77.5715L129.373 79.6546L129.496 80.3899Z" fill="#0074E0"/>
<path d="M125.143 82.9019L128.699 80.8187L128.577 80.0835L125.021 82.1054L125.143 82.9019Z" fill="#0074E0"/>
<path d="M138.079 79.287L141.574 77.2651L141.451 76.4686L137.957 78.5518L138.079 79.287Z" fill="#0074E0"/>
<path d="M136.179 80.3898L137.282 79.7158L137.16 78.9806L136.056 79.5933L136.179 80.3898Z" fill="#0074E0"/>
<path d="M134.339 81.4314L135.381 80.8187L135.259 80.0835L134.217 80.6962L134.339 81.4314Z" fill="#0074E0"/>
<path d="M130.845 83.4533L133.542 81.9216L133.42 81.1251L130.722 82.7181L130.845 83.4533Z" fill="#0074E0"/>
<path d="M130.109 83.8823L132.807 82.2892L132.684 81.554L129.986 83.0857L130.109 83.8823Z" fill="#0074E0"/>
<path d="M136.485 72.5473L137.527 71.8734L137.405 71.1381L136.362 71.8121L136.485 72.5473Z" fill="#0074E0"/>
<path d="M132.99 74.5079L135.688 72.9762L135.565 72.241L132.868 73.7727L132.99 74.5079Z" fill="#0074E0"/>
<path d="M129.496 76.5911L132.132 74.9981L132.01 74.2629L129.312 75.7946L129.496 76.5911Z" fill="#0074E0"/>
<path d="M115.824 88.2323L117.479 87.3132L117.357 86.578L115.702 87.497L115.824 88.2323Z" fill="#0074E0"/>
<path d="M112.084 90.4382L115.088 88.6613L114.966 87.9261L111.962 89.7029L112.084 90.4382Z" fill="#0074E0"/>
<path d="M121.832 84.8013L124.469 83.2695L124.346 82.5343L121.71 84.0661L121.832 84.8013Z" fill="#0074E0"/>
<path d="M118.277 86.8843L120.974 85.2913L120.851 84.5561L118.154 86.0878L118.277 86.8843Z" fill="#0074E0"/>
<path d="M138.324 65.1337L139.428 64.521L139.305 63.7858L138.202 64.3985L138.324 65.1337Z" fill="#0074E0"/>
<path d="M134.891 67.1556L137.589 65.5626L137.466 64.8273L134.769 66.3591L134.891 67.1556Z" fill="#0074E0"/>
<path d="M131.335 69.1774L134.033 67.6457L133.91 66.8492L131.213 68.4422L131.335 69.1774Z" fill="#0074E0"/>
<path opacity="0.4" d="M68.7393 113.904C68.7393 113.659 68.494 113.414 68.2488 113.414C68.0035 113.414 67.7583 113.659 67.7583 113.904C67.7583 114.15 68.0035 114.395 68.2488 114.395C68.494 114.395 68.7393 114.211 68.7393 113.904Z" fill="#0074E0"/>
<path opacity="0.4" d="M60.1558 136.329C60.1558 136.084 59.9105 135.839 59.6653 135.839C59.4201 135.839 59.1749 136.084 59.1749 136.329C59.1749 136.574 59.4201 136.819 59.6653 136.819C59.9105 136.819 60.1558 136.636 60.1558 136.329Z" fill="#0074E0"/>
<path opacity="0.4" d="M60.34 120.338C59.9337 120.338 59.6043 120.009 59.6043 119.603C59.6043 119.197 59.9337 118.867 60.34 118.867C60.7463 118.867 61.0757 119.197 61.0757 119.603C61.0757 120.009 60.7463 120.338 60.34 120.338Z" fill="#0074E0"/>
<path opacity="0.8" d="M59.2366 107.716C58.9657 107.716 58.7461 107.497 58.7461 107.226C58.7461 106.955 58.9657 106.736 59.2366 106.736C59.5075 106.736 59.7271 106.955 59.7271 107.226C59.7271 107.497 59.5075 107.716 59.2366 107.716Z" fill="#0074E0"/>
<path opacity="0.8" d="M67.084 127.874C67.084 127.445 66.7161 127.078 66.287 127.078C65.8578 127.078 65.4899 127.445 65.4899 127.874C65.4899 128.303 65.8578 128.671 66.287 128.671C66.7161 128.671 67.084 128.303 67.084 127.874Z" fill="#0074E0"/>
<path opacity="0.8" d="M65.9189 125.914C65.6142 125.914 65.3671 125.667 65.3671 125.362C65.3671 125.058 65.6142 124.811 65.9189 124.811C66.2237 124.811 66.4707 125.058 66.4707 125.362C66.4707 125.667 66.2237 125.914 65.9189 125.914Z" fill="#0074E0"/>
<path d="M90.0747 88.5999C90.2586 88.5999 90.4426 88.5386 90.6265 88.4774L105.402 79.9609C106.015 79.5932 106.383 78.7355 106.26 78.0002L105.341 72.3634C105.279 71.9958 105.095 71.6894 104.789 71.5056C104.544 71.3831 104.237 71.3831 103.93 71.5669L89.0938 80.0221C88.4807 80.3898 88.1128 81.2475 88.2355 81.9828L89.1551 87.6196C89.2164 87.9872 89.4003 88.2936 89.7069 88.4774C89.8295 88.5386 89.9521 88.5999 90.0747 88.5999ZM104.421 71.6282C104.482 71.6282 104.605 71.6282 104.666 71.6894C104.85 71.812 105.034 71.9958 105.095 72.3021L106.015 77.939C106.138 78.6129 105.77 79.3482 105.279 79.6545L90.5039 88.171C90.2586 88.2936 90.0747 88.2936 89.8908 88.2323C89.7069 88.1098 89.5229 87.9259 89.4616 87.6196L88.542 81.9828C88.4194 81.3088 88.7872 80.5736 89.2777 80.2672L104.053 71.7507C104.114 71.6282 104.298 71.6282 104.421 71.6282Z" fill="#0074E0"/>
<path d="M91.6684 98.2805C91.8523 98.2805 92.0363 98.2193 92.2202 98.158L106.996 89.6415C107.609 89.2739 107.977 88.4161 107.854 87.6808L106.934 82.044C106.873 81.6764 106.689 81.37 106.383 81.1862C106.137 81.0637 105.831 81.0637 105.524 81.2475L90.7488 89.764C90.1357 90.1316 89.7678 90.9894 89.8905 91.7247L90.8101 97.3615C90.8714 97.7291 91.0553 98.0355 91.3619 98.2193C91.4232 98.2805 91.5458 98.2805 91.6684 98.2805ZM106.015 81.3088C106.076 81.3088 106.199 81.3088 106.26 81.37C106.444 81.4926 106.628 81.6764 106.689 81.9827L107.609 87.6196C107.731 88.2935 107.363 89.0288 106.873 89.3351L92.0976 97.8517C91.8523 97.9742 91.6684 97.9742 91.4845 97.9129C91.3006 97.7904 91.1166 97.6066 91.0553 97.3002L90.1357 91.6634C90.0131 90.9894 90.3809 90.2542 90.8714 89.9478L105.647 81.4313C105.769 81.37 105.892 81.3088 106.015 81.3088Z" fill="#0074E0"/>
<path opacity="0.5" d="M104.053 79.287C103.808 79.4095 103.562 79.4095 103.501 79.1645L101.784 74.4467C101.6 73.8953 100.803 74.3854 100.619 75.1819L99.5772 79.8997C99.5159 80.2673 99.2707 80.5737 98.9641 80.7575L98.7189 80.88C98.4737 81.0026 98.2284 81.0026 98.1671 80.7575L97.7993 80.0222C97.554 79.5321 96.8796 80.0222 96.6344 80.6962C96.5731 81.0026 96.3279 81.3089 96.0826 81.4927L95.8374 81.6153C95.5922 81.7991 95.3469 81.6765 95.2243 81.4314L94.9178 80.4511C94.7338 79.8997 93.9368 80.3286 93.7529 81.1251L92.7107 85.5365C92.6494 85.9041 92.4041 86.2105 92.0976 86.3943L104.053 79.287Z" fill="url(#paint10_linear)"/>
<path d="M93.9372 96.075C94.2437 95.8912 94.489 95.5236 94.6116 95.156L95.6538 90.7445C95.7764 90.2544 96.1443 89.948 96.3895 89.948C96.4508 89.948 96.5122 89.948 96.5735 90.1318L96.88 91.1122C96.9413 91.2347 97.0026 91.3572 97.1252 91.4185C97.2479 91.4798 97.4318 91.4185 97.6157 91.3572L97.8609 91.2347C98.1675 91.0509 98.4127 90.7445 98.474 90.3769C98.5966 89.948 98.9645 89.6417 99.2097 89.5804C99.3323 89.5804 99.3936 89.5804 99.3936 89.7029L99.7615 90.4382C99.8228 90.5607 99.8841 90.622 100.007 90.6833C100.129 90.7445 100.313 90.6833 100.497 90.622L100.742 90.4995C101.049 90.3156 101.294 89.948 101.417 89.5804L102.459 84.8626C102.582 84.4337 102.95 84.0661 103.195 84.0048C103.317 84.0048 103.379 84.0661 103.379 84.1274L105.095 88.8452C105.157 88.9677 105.218 89.0902 105.341 89.1515C105.463 89.2128 105.647 89.1515 105.831 89.0902L105.708 88.8452C105.586 88.9064 105.525 88.9064 105.402 88.9064C105.341 88.9064 105.341 88.8452 105.279 88.7839L103.563 84.0661C103.501 83.8823 103.317 83.7598 103.133 83.7598C102.766 83.7598 102.275 84.1887 102.153 84.8014L101.11 89.5191C101.049 89.8255 100.804 90.1318 100.559 90.3156L100.313 90.4382C100.191 90.4995 100.129 90.4995 100.068 90.4995C100.007 90.4995 100.007 90.4382 99.9454 90.3769L99.5776 89.6417C99.5163 89.4579 99.3323 89.3353 99.1484 89.3966C98.7806 89.4579 98.3514 89.8255 98.2288 90.3769C98.1675 90.6833 97.9222 90.9896 97.7383 91.1122L97.4931 91.2347C97.3705 91.296 97.3092 91.296 97.1865 91.296C97.1252 91.296 97.0639 91.2347 97.0639 91.1734L96.7574 90.1931C96.6961 89.948 96.5121 89.8868 96.3282 89.8868C95.9604 89.8868 95.4699 90.3156 95.3473 90.9283L94.305 95.3398C94.2437 95.6461 93.9985 95.9525 93.7533 96.075H93.9372Z" fill="#0074E0"/>
<defs>
<linearGradient id="paint0_linear" x1="88.1922" y1="121.429" x2="191.271" y2="121.429" gradientUnits="userSpaceOnUse">
<stop stop-color="#57A1D7"/>
<stop offset="1" stop-color="#BCD7FF"/>
</linearGradient>
<linearGradient id="paint1_linear" x1="122.789" y1="53.1132" x2="6.96946" y2="53.1132" gradientUnits="userSpaceOnUse">
<stop stop-color="#0074E0"/>
<stop offset="1" stop-color="#081B3F"/>
</linearGradient>
<linearGradient id="paint2_linear" x1="130.449" y1="57.4021" x2="14.6301" y2="57.4021" gradientUnits="userSpaceOnUse">
<stop stop-color="#0074E0"/>
<stop offset="1" stop-color="#081B3F"/>
</linearGradient>
<linearGradient id="paint3_linear" x1="76.5056" y1="73.8426" x2="149.452" y2="73.8426" gradientUnits="userSpaceOnUse">
<stop stop-color="#BFECF6"/>
<stop offset="1" stop-color="#E9F5FD"/>
</linearGradient>
<linearGradient id="paint4_linear" x1="76.5059" y1="92.5381" x2="89.0316" y2="92.5381" gradientUnits="userSpaceOnUse">
<stop stop-color="#57A9D7"/>
<stop offset="1" stop-color="#BCE7FF"/>
</linearGradient>
<linearGradient id="paint5_linear" x1="86.2786" y1="112.936" x2="189.303" y2="112.936" gradientUnits="userSpaceOnUse">
<stop stop-color="#0074E0"/>
<stop offset="1" stop-color="#C8E4FF"/>
</linearGradient>
<linearGradient id="paint6_linear" x1="120.892" y1="110.121" x2="223.971" y2="110.121" gradientUnits="userSpaceOnUse">
<stop stop-color="#CEDFF7"/>
<stop offset="1" stop-color="#FBFDFF"/>
</linearGradient>
<linearGradient id="paint7_linear" x1="46.6626" y1="90.2771" x2="149.687" y2="90.2771" gradientUnits="userSpaceOnUse">
<stop stop-color="#5761D7"/>
<stop offset="0.1779" stop-color="#5C66D9"/>
<stop offset="0.3876" stop-color="#6A73DF"/>
<stop offset="0.6134" stop-color="#8289E8"/>
<stop offset="0.849" stop-color="#A3A7F5"/>
<stop offset="1" stop-color="#BCBEFF"/>
</linearGradient>
<linearGradient id="paint8_linear" x1="198.465" y1="49.5541" x2="173.453" y2="64.0039" gradientUnits="userSpaceOnUse">
<stop stop-color="#0074E0"/>
<stop offset="1" stop-color="#005FB7"/>
</linearGradient>
<linearGradient id="paint9_linear" x1="201.602" y1="55.0108" x2="170.068" y2="55.0108" gradientUnits="userSpaceOnUse">
<stop stop-color="#E9FDFD"/>
<stop offset="1" stop-color="#BFE6F6"/>
</linearGradient>
<linearGradient id="paint10_linear" x1="102.897" y1="77.6205" x2="81.6344" y2="86.7229" gradientUnits="userSpaceOnUse">
<stop stop-color="#0074E0"/>
<stop offset="1" stop-color="#081B3F"/>
</linearGradient>
</defs>
</svg>