<svg width="587" height="432" viewBox="0 0 587 432" fill="none" xmlns="http://www.w3.org/2000/svg">
<path d="M539 215L587 215" stroke="#002046"/>
<path d="M0 215L48 215" stroke="#002046"/>
<path d="M447.5 388L544 388" stroke="#002046"/>
<path d="M447.5 44L544 44" stroke="#002046"/>
<path d="M46 388L142.5 388" stroke="#002046"/>
<path d="M46 44L142.5 44" stroke="#002046"/>
<circle cx="293" cy="221" r="200.5" fill="white" stroke="#002046"/>
<circle cx="293" cy="221" r="119.5" fill="#002046" stroke="#002046"/>
<circle cx="496" cy="215" r="43.5" fill="white" stroke="#002046"/>
<circle cx="406" cy="388" r="43.5" fill="white" stroke="#002046"/>
<circle cx="90" cy="215" r="43.5" fill="white" stroke="#002046"/>
<circle cx="186" cy="388" r="43.5" fill="white" stroke="#002046"/>
<circle cx="406" cy="44" r="43.5" fill="white" stroke="#002046"/>
<circle cx="186" cy="44" r="43.5" fill="white" stroke="#002046"/>
<mask id="path-15-outside-1" maskUnits="userSpaceOnUse" x="246.685" y="220.031" width="19" height="41" fill="black">
<rect fill="white" x="246.685" y="220.031" width="19" height="41"/>
<path d="M256.107 260.2C256.518 260.2 256.792 259.926 256.792 259.515V237.603C260.969 237.192 264.256 233.631 264.256 229.317C264.256 224.729 260.558 221.031 255.97 221.031C251.382 221.031 247.685 224.729 247.685 229.317C247.685 233.7 251.108 237.329 255.491 237.603V259.515C255.422 259.858 255.765 260.2 256.107 260.2ZM248.986 229.317C248.986 225.482 252.136 222.401 255.902 222.401C259.668 222.401 262.886 225.482 262.886 229.317C262.886 232.878 260.216 235.822 256.792 236.233V234.384L260.147 231.029C260.421 230.755 260.421 230.344 260.147 230.07C259.873 229.796 259.463 229.796 259.189 230.07L256.792 232.467V228.016C256.792 227.605 256.518 227.331 256.107 227.331C255.696 227.331 255.422 227.605 255.422 228.016V232.467L253.026 230.07C252.752 229.796 252.341 229.796 252.067 230.07C251.793 230.344 251.793 230.755 252.067 231.029L255.422 234.384V236.302C251.862 235.959 248.986 232.946 248.986 229.317Z"/>
</mask>
<path d="M256.107 260.2C256.518 260.2 256.792 259.926 256.792 259.515V237.603C260.969 237.192 264.256 233.631 264.256 229.317C264.256 224.729 260.558 221.031 255.97 221.031C251.382 221.031 247.685 224.729 247.685 229.317C247.685 233.7 251.108 237.329 255.491 237.603V259.515C255.422 259.858 255.765 260.2 256.107 260.2ZM248.986 229.317C248.986 225.482 252.136 222.401 255.902 222.401C259.668 222.401 262.886 225.482 262.886 229.317C262.886 232.878 260.216 235.822 256.792 236.233V234.384L260.147 231.029C260.421 230.755 260.421 230.344 260.147 230.07C259.873 229.796 259.463 229.796 259.189 230.07L256.792 232.467V228.016C256.792 227.605 256.518 227.331 256.107 227.331C255.696 227.331 255.422 227.605 255.422 228.016V232.467L253.026 230.07C252.752 229.796 252.341 229.796 252.067 230.07C251.793 230.344 251.793 230.755 252.067 231.029L255.422 234.384V236.302C251.862 235.959 248.986 232.946 248.986 229.317Z" fill="white"/>
<path d="M256.792 237.603L256.733 237.006L256.192 237.059V237.603H256.792ZM255.491 237.603H256.091V237.039L255.528 237.004L255.491 237.603ZM255.491 259.515L256.079 259.633L256.091 259.575V259.515H255.491ZM256.792 236.233H256.192V236.91L256.863 236.829L256.792 236.233ZM256.792 234.384L256.368 233.96L256.192 234.136V234.384H256.792ZM260.147 231.029L259.723 230.605L259.723 230.605L260.147 231.029ZM259.189 230.07L258.764 229.646L258.764 229.646L259.189 230.07ZM256.792 232.467H256.192V233.916L257.216 232.891L256.792 232.467ZM255.422 232.467L254.998 232.891L256.022 233.916V232.467H255.422ZM252.067 231.029L252.491 230.605L252.491 230.605L252.067 231.029ZM255.422 234.384H256.022V234.136L255.847 233.96L255.422 234.384ZM255.422 236.302L255.365 236.899L256.022 236.962V236.302H255.422ZM256.107 260.8C256.449 260.8 256.78 260.683 257.028 260.436C257.275 260.188 257.392 259.857 257.392 259.515H256.192C256.192 259.551 256.186 259.572 256.183 259.58C256.18 259.588 256.178 259.589 256.179 259.587C256.181 259.586 256.18 259.588 256.172 259.591C256.164 259.594 256.143 259.6 256.107 259.6V260.8ZM257.392 259.515V237.603H256.192V259.515H257.392ZM256.851 238.2C261.334 237.759 264.856 233.94 264.856 229.317H263.656C263.656 233.322 260.604 236.625 256.733 237.006L256.851 238.2ZM264.856 229.317C264.856 224.398 260.889 220.431 255.97 220.431V221.631C260.227 221.631 263.656 225.061 263.656 229.317H264.856ZM255.97 220.431C251.051 220.431 247.085 224.398 247.085 229.317H248.285C248.285 225.061 251.714 221.631 255.97 221.631V220.431ZM247.085 229.317C247.085 234.018 250.757 237.908 255.453 238.202L255.528 237.004C251.46 236.75 248.285 233.381 248.285 229.317H247.085ZM254.891 237.603V259.515H256.091V237.603H254.891ZM254.903 259.398C254.821 259.806 254.991 260.165 255.206 260.395C255.42 260.624 255.743 260.8 256.107 260.8V259.6C256.121 259.6 256.123 259.603 256.113 259.599C256.104 259.594 256.093 259.586 256.084 259.577C256.074 259.567 256.074 259.563 256.077 259.57C256.079 259.574 256.081 259.582 256.082 259.594C256.083 259.605 256.082 259.619 256.079 259.633L254.903 259.398ZM249.586 229.317C249.586 225.818 252.463 223.001 255.902 223.001V221.801C251.808 221.801 248.386 225.147 248.386 229.317H249.586ZM255.902 223.001C259.348 223.001 262.286 225.825 262.286 229.317H263.486C263.486 225.14 259.988 221.801 255.902 221.801V223.001ZM262.286 229.317C262.286 232.573 259.844 235.263 256.72 235.638L256.863 236.829C260.588 236.382 263.486 233.183 263.486 229.317H262.286ZM257.392 236.233V234.384H256.192V236.233H257.392ZM257.216 234.809L260.572 231.453L259.723 230.605L256.368 233.96L257.216 234.809ZM260.572 231.453C261.08 230.945 261.08 230.154 260.572 229.646L259.723 230.495C259.751 230.523 259.753 230.543 259.753 230.55C259.753 230.557 259.751 230.577 259.723 230.605L260.572 231.453ZM260.572 229.646C260.063 229.138 259.273 229.138 258.764 229.646L259.613 230.495C259.641 230.467 259.661 230.465 259.668 230.465C259.675 230.465 259.695 230.467 259.723 230.495L260.572 229.646ZM258.764 229.646L256.368 232.043L257.216 232.891L259.613 230.495L258.764 229.646ZM257.392 232.467V228.016H256.192V232.467H257.392ZM257.392 228.016C257.392 227.674 257.275 227.343 257.028 227.095C256.78 226.848 256.449 226.731 256.107 226.731V227.931C256.143 227.931 256.164 227.937 256.172 227.941C256.18 227.944 256.181 227.946 256.179 227.944C256.178 227.942 256.18 227.943 256.183 227.951C256.186 227.96 256.192 227.98 256.192 228.016H257.392ZM256.107 226.731C255.765 226.731 255.434 226.848 255.186 227.095C254.939 227.343 254.822 227.674 254.822 228.016H256.022C256.022 227.98 256.028 227.96 256.032 227.951C256.035 227.943 256.037 227.942 256.035 227.944C256.033 227.946 256.034 227.944 256.042 227.941C256.051 227.937 256.071 227.931 256.107 227.931V226.731ZM254.822 228.016V232.467H256.022V228.016H254.822ZM255.847 232.043L253.45 229.646L252.601 230.495L254.998 232.891L255.847 232.043ZM253.45 229.646C252.942 229.138 252.151 229.138 251.643 229.646L252.491 230.495C252.519 230.467 252.539 230.465 252.546 230.465C252.553 230.465 252.573 230.467 252.601 230.495L253.45 229.646ZM251.643 229.646C251.135 230.154 251.135 230.945 251.643 231.453L252.491 230.605C252.463 230.577 252.462 230.557 252.462 230.55C252.462 230.543 252.463 230.523 252.491 230.495L251.643 229.646ZM251.643 231.453L254.998 234.809L255.847 233.96L252.491 230.605L251.643 231.453ZM254.822 234.384V236.302H256.022V234.384H254.822ZM255.48 235.704C252.213 235.39 249.586 232.624 249.586 229.317H248.386C248.386 233.269 251.51 236.528 255.365 236.899L255.48 235.704Z" fill="white" mask="url(#path-15-outside-1)"/>
<path d="M287.285 182C286.774 182 286.263 182.51 286.263 183.531V221.287L269.9 225.879C269.388 225.879 268.877 226.389 268.877 227.409V258.022H248.534C247.511 257.512 247 258.532 247 259.043C247 259.553 247.511 260.063 248.534 260.063H270.411H287.797H329.727H337.909C338.42 260.063 339.443 259.553 339.443 258.532C339.443 258.022 338.932 257.002 337.909 257.002H331.261V183.531C331.261 183.02 330.75 182 329.727 182H287.285ZM288.819 184.551H328.193V257.512H316.432V243.736H318.478C318.989 243.736 320.012 243.226 320.012 242.205C320.012 241.695 319.5 240.675 318.478 240.675H298.535C298.024 240.675 297.001 241.185 297.001 242.205C297.001 242.716 297.512 243.736 298.535 243.736H300.581V257.512H288.819V222.307V184.551ZM295.978 191.184C294.956 191.184 294.444 191.694 294.444 192.204V200.368C294.444 200.878 294.956 201.898 295.978 201.898H304.671C305.183 201.898 306.205 201.388 306.205 200.368V192.204C306.205 191.694 305.694 190.674 304.671 190.674H295.978C295.978 191.184 295.978 191.184 295.978 191.184ZM312.342 191.184C311.83 191.184 311.319 191.694 311.319 192.204V200.368C311.319 200.878 311.83 201.898 312.853 201.898H321.546C322.057 201.898 323.08 201.388 323.08 200.368V192.204C323.08 191.694 322.569 190.674 321.546 190.674H312.342C312.342 191.184 312.342 191.184 312.342 191.184ZM297.512 193.735H303.649V199.347H297.512V193.735ZM313.876 193.735H320.012V199.347H313.876V193.735ZM295.978 207.511C294.956 207.511 294.444 208.021 294.444 209.041V217.205C294.444 217.715 294.956 218.736 295.978 218.736H304.671C305.183 218.736 306.205 218.225 306.205 217.205V209.041C306.205 208.021 305.183 207.511 304.671 207.511H295.978ZM312.853 207.511C311.83 207.511 311.319 208.021 311.319 209.041V217.205C311.319 217.715 311.83 218.736 312.853 218.736H321.546C322.057 218.736 323.08 218.225 323.08 217.205V209.041C322.569 208.021 322.057 207.511 321.546 207.511H312.853ZM297.512 210.062H303.649V215.674H297.512V210.062ZM313.876 210.062H320.012V215.674H313.876V210.062ZM295.978 223.838C295.467 223.838 294.956 224.348 294.956 225.368V233.532C294.956 234.042 295.467 235.062 296.49 235.062H305.183C305.694 235.062 306.717 234.552 306.717 233.532V225.368C306.717 224.858 306.205 223.838 305.183 223.838H295.978ZM312.342 223.838C311.83 223.838 311.319 224.348 311.319 225.368V233.532C311.319 234.042 311.83 235.062 312.853 235.062H321.546C322.057 235.062 323.08 234.552 323.08 233.532V225.368C323.08 224.858 322.569 223.838 321.546 223.838H312.342ZM286.263 223.838V257.512H271.434V227.919L286.263 223.838ZM297.512 226.389H303.649V232.001H297.512V226.389ZM313.876 226.389H320.012V232.001H313.876V226.389ZM303.649 243.736H313.876V257.512H303.649V243.736Z" fill="white"/>
<path d="M406.656 55V38.264C406.656 37.9013 406.656 37.5387 406.656 37.176C406.677 36.792 406.688 36.408 406.688 36.024C406.005 36.8773 405.173 37.6133 404.192 38.232C403.211 38.8293 402.197 39.2667 401.152 39.544L400.736 38.104C401.205 37.976 401.728 37.784 402.304 37.528C402.88 37.2507 403.456 36.92 404.032 36.536C404.629 36.152 405.173 35.736 405.664 35.288C406.155 34.84 406.539 34.3707 406.816 33.88H408.256V55H406.656Z" fill="#002046"/>
<path d="M186.112 33.56C187.2 33.56 188.139 33.72 188.928 34.04C189.717 34.36 190.389 34.8293 190.944 35.448C191.499 36.0667 191.947 36.824 192.288 37.72L190.784 38.424C190.485 37.4213 189.952 36.6107 189.184 35.992C188.416 35.352 187.36 35.032 186.016 35.032C184.885 35.032 183.904 35.2987 183.072 35.832C182.261 36.3653 181.589 37.0907 181.056 38.008C180.523 38.9253 180.128 39.9813 179.872 41.176C179.637 42.3493 179.52 43.5867 179.52 44.888C179.52 45.208 179.531 45.5493 179.552 45.912C179.573 46.2747 179.605 46.648 179.648 47.032H179.744C179.893 45.88 180.277 44.9413 180.896 44.216C181.536 43.4693 182.293 42.9147 183.168 42.552C184.064 42.168 184.981 41.976 185.92 41.976C187.328 41.976 188.533 42.2533 189.536 42.808C190.56 43.3413 191.349 44.1093 191.904 45.112C192.459 46.1147 192.736 47.2987 192.736 48.664C192.736 50.008 192.448 51.1813 191.872 52.184C191.296 53.1867 190.485 53.9653 189.44 54.52C188.416 55.0533 187.189 55.32 185.76 55.32C184.075 55.32 182.645 54.8827 181.472 54.008C180.32 53.112 179.456 51.8533 178.88 50.232C178.304 48.6107 178.016 46.68 178.016 44.44C178.016 42.0507 178.368 40.056 179.072 38.456C179.776 36.8347 180.736 35.6187 181.952 34.808C183.189 33.976 184.576 33.56 186.112 33.56ZM185.792 43.48C184.725 43.48 183.787 43.7253 182.976 44.216C182.187 44.6853 181.568 45.3147 181.12 46.104C180.693 46.872 180.48 47.7253 180.48 48.664C180.48 49.6027 180.704 50.4667 181.152 51.256C181.6 52.024 182.219 52.6427 183.008 53.112C183.797 53.5813 184.704 53.816 185.728 53.816C187.392 53.816 188.693 53.3467 189.632 52.408C190.592 51.4693 191.072 50.2 191.072 48.6C191.072 47.576 190.859 46.68 190.432 45.912C190.005 45.144 189.397 44.5467 188.608 44.12C187.84 43.6933 186.901 43.48 185.792 43.48Z" fill="#002046"/>
<path d="M89.992 226.32C88.1573 226.32 86.6213 225.915 85.384 225.104C84.168 224.293 83.3147 223.045 82.824 221.36L84.36 220.592C84.68 221.957 85.3093 223.013 86.248 223.76C87.1867 224.485 88.4453 224.848 90.024 224.848C91.1333 224.848 92.0827 224.635 92.872 224.208C93.6827 223.76 94.312 223.141 94.76 222.352C95.2293 221.541 95.464 220.613 95.464 219.568C95.464 218.459 95.2507 217.52 94.824 216.752C94.3973 215.963 93.7893 215.355 93 214.928C92.232 214.501 91.3147 214.288 90.248 214.288C89.3307 214.288 88.5307 214.395 87.848 214.608C87.1653 214.8 86.568 215.077 86.056 215.44C85.5653 215.781 85.1493 216.187 84.808 216.656L83.432 216.432L84.552 204.88H96.232V206.352H85.896L85.064 214.544L85 214.96H85.032C85.544 214.363 86.2373 213.861 87.112 213.456C87.9867 213.029 89.1067 212.816 90.472 212.816C91.816 212.816 92.9787 213.093 93.96 213.648C94.9413 214.203 95.7093 214.981 96.264 215.984C96.84 216.987 97.128 218.16 97.128 219.504C97.128 220.528 96.9467 221.467 96.584 222.32C96.2427 223.152 95.752 223.867 95.112 224.464C94.4933 225.061 93.7467 225.52 92.872 225.84C92.0187 226.16 91.0587 226.32 89.992 226.32Z" fill="#002046"/>
<path d="M188.808 399V392.984H178.312V391.768L188.36 377.88H190.408V391.608H194.472V392.984H190.408V399H188.808ZM180.04 391.608H188.808V381.944C188.808 381.517 188.808 381.069 188.808 380.6C188.829 380.131 188.851 379.672 188.872 379.224H188.808C188.573 379.672 188.285 380.152 187.944 380.664C187.624 381.155 187.325 381.603 187.048 382.008L180.04 391.608Z" fill="#002046"/>
<path d="M489.08 226V224.688C491.085 223.109 492.824 221.701 494.296 220.464C495.768 219.227 496.995 218.085 497.976 217.04C498.957 215.973 499.683 214.96 500.152 214C500.621 213.019 500.856 212.016 500.856 210.992C500.856 209.477 500.387 208.272 499.448 207.376C498.531 206.48 497.272 206.032 495.672 206.032C494.008 206.032 492.675 206.555 491.672 207.6C490.691 208.645 490.136 210.043 490.008 211.792L488.6 210.992C488.728 209.691 489.091 208.56 489.688 207.6C490.285 206.64 491.085 205.893 492.088 205.36C493.112 204.827 494.317 204.56 495.704 204.56C496.749 204.56 497.688 204.709 498.52 205.008C499.373 205.307 500.088 205.744 500.664 206.32C501.261 206.875 501.72 207.547 502.04 208.336C502.36 209.125 502.52 210.011 502.52 210.992C502.52 212.421 502.115 213.819 501.304 215.184C500.515 216.528 499.299 217.947 497.656 219.44C496.013 220.933 493.933 222.629 491.416 224.528V224.56C491.587 224.56 491.8 224.56 492.056 224.56C492.333 224.539 492.6 224.528 492.856 224.528C493.133 224.528 493.357 224.528 493.528 224.528H503.192V226H489.08Z" fill="#002046"/>
<path d="M405.864 399.32C403.987 399.32 402.365 398.883 401 398.008C399.635 397.112 398.739 395.907 398.312 394.392L399.88 393.56C400.093 394.435 400.456 395.192 400.968 395.832C401.501 396.472 402.173 396.973 402.984 397.336C403.816 397.677 404.819 397.848 405.992 397.848C407.059 397.848 407.976 397.656 408.744 397.272C409.533 396.888 410.141 396.344 410.568 395.64C411.016 394.936 411.24 394.104 411.24 393.144C411.24 392.227 411.048 391.469 410.664 390.872C410.28 390.275 409.725 389.827 409 389.528C408.296 389.229 407.443 389.08 406.44 389.08C406.099 389.08 405.779 389.091 405.48 389.112C405.203 389.112 404.947 389.133 404.712 389.176V387.576C404.925 387.597 405.149 387.608 405.384 387.608C405.64 387.608 405.875 387.608 406.088 387.608C407.645 387.608 408.808 387.235 409.576 386.488C410.344 385.741 410.728 384.664 410.728 383.256C410.728 381.912 410.312 380.877 409.48 380.152C408.648 379.405 407.496 379.032 406.024 379.032C404.595 379.032 403.421 379.363 402.504 380.024C401.608 380.685 400.968 381.581 400.584 382.712L399.08 381.976C399.4 381.08 399.891 380.301 400.552 379.64C401.213 378.979 402.013 378.467 402.952 378.104C403.891 377.72 404.925 377.528 406.056 377.528C407.421 377.528 408.573 377.773 409.512 378.264C410.451 378.733 411.165 379.384 411.656 380.216C412.147 381.048 412.392 382.008 412.392 383.096C412.392 383.8 412.285 384.451 412.072 385.048C411.88 385.645 411.603 386.179 411.24 386.648C410.899 387.096 410.483 387.459 409.992 387.736C409.501 388.013 408.957 388.205 408.36 388.312V388.344C409.064 388.387 409.693 388.536 410.248 388.792C410.803 389.048 411.272 389.389 411.656 389.816C412.061 390.243 412.371 390.744 412.584 391.32C412.797 391.896 412.904 392.515 412.904 393.176C412.904 394.392 412.605 395.459 412.008 396.376C411.411 397.293 410.579 398.019 409.512 398.552C408.467 399.064 407.251 399.32 405.864 399.32Z" fill="#002046"/>
</svg>
