<svg width="38" height="38" viewBox="0 0 38 38" fill="none" xmlns="http://www.w3.org/2000/svg">
<g opacity="0.8">
<path d="M19.0153 22.361C20.8524 22.361 22.3424 20.9179 22.3424 19.1385C22.3424 17.3572 20.8521 15.9153 19.0153 15.9153C17.1789 15.9153 15.6895 17.3572 15.6895 19.1385C15.6895 20.9176 17.1789 22.361 19.0153 22.361Z" fill="#2C4470"/>
<path d="M22.7848 16.0086H24.6566C24.8543 16.008 25.0437 15.9292 25.1835 15.7893C25.3232 15.6495 25.4019 15.46 25.4024 15.2623V13.4784C25.4019 13.2806 25.3232 13.0911 25.1835 12.9512C25.0438 12.8112 24.8544 12.7322 24.6566 12.7314H22.7848C22.587 12.7321 22.3975 12.811 22.2578 12.951C22.118 13.091 22.0394 13.2806 22.0391 13.4784V15.2623C22.0394 15.46 22.118 15.6496 22.2578 15.7895C22.3976 15.9294 22.5871 16.0082 22.7848 16.0086Z" fill="#2C4470"/>
<path d="M24.166 19.3183C24.166 22.0721 21.8599 24.3064 19.0164 24.3064C16.1735 24.3064 13.868 22.0724 13.868 19.3183C13.868 18.8234 13.9434 18.3472 14.0814 17.8962H12.5605V24.893C12.5605 25.2555 12.8562 25.55 13.2187 25.55H24.7517C24.9262 25.5501 25.0935 25.4809 25.217 25.3577C25.3405 25.2346 25.4101 25.0674 25.4105 24.893V17.8962H23.9528C24.0912 18.3472 24.166 18.8234 24.166 19.3183Z" fill="#2C4470"/>
<path d="M18.9985 2.37183C9.83008 2.37183 2.37109 9.83111 2.37109 18.9998C2.37109 28.1688 9.83008 35.6284 18.9985 35.6284C28.1675 35.6284 35.627 28.1688 35.627 18.9998C35.627 9.83111 28.1675 2.37183 18.9985 2.37183ZM27.2807 25.3292C27.2807 26.4983 26.3239 27.4542 25.1551 27.4542H12.8442C11.6752 27.4542 10.718 26.4983 10.718 25.3292V13.0187C10.718 11.849 11.6755 10.8924 12.8442 10.8924H25.1554C26.3245 10.8924 27.281 11.849 27.281 13.0187V25.3292H27.2807Z" fill="#2C4470"/>
</g>
</svg>
