<svg width="100" height="100" viewBox="0 0 100 100" fill="none" xmlns="http://www.w3.org/2000/svg">
<circle cx="38" cy="38" r="6" fill="#BDF3FF"/>
<circle cx="62" cy="62" r="6" fill="#BDF3FF"/>
<mask id="path-3-outside-1" maskUnits="userSpaceOnUse" x="9" y="9" width="82" height="82" fill="black">
<rect fill="white" x="9" y="9" width="82" height="82"/>
<path d="M50 10C42.0888 10 34.3552 12.346 27.7772 16.7412C21.1992 21.1365 16.0723 27.3836 13.0448 34.6927C10.0173 42.0017 9.2252 50.0444 10.7686 57.8036C12.312 65.5629 16.1216 72.6902 21.7157 78.2843C27.3098 83.8784 34.4372 87.688 42.1964 89.2314C49.9556 90.7748 57.9983 89.9827 65.3074 86.9552C72.6164 83.9277 78.8635 78.8008 83.2588 72.2228C87.6541 65.6448 90 57.9113 90 50C90 44.7471 88.9654 39.5457 86.9552 34.6927C84.945 29.8396 81.9986 25.4301 78.2843 21.7157C74.5699 18.0014 70.1604 15.055 65.3074 13.0448C60.4543 11.0346 55.2529 10 50 10V10ZM45.55 12.27C42.55 15.48 40.04 21.97 38.55 30.94C38.55 30.94 38.55 31 38.55 31.03L38 31C36.1435 31 34.363 31.7375 33.0503 33.0503C31.7375 34.363 31 36.1435 31 38C30.9898 38.1832 30.9898 38.3668 31 38.55C30.9103 38.54 30.8197 38.54 30.73 38.55C21.86 40.09 15.43 42.55 12.24 45.55C13.2532 37.0699 17.0891 29.1769 23.1309 23.1407C29.1726 17.1044 37.069 13.2756 45.55 12.27V12.27ZM31.43 40.39C31.8879 41.6469 32.6964 42.7463 33.7598 43.558C34.8232 44.3697 36.0968 44.8597 37.43 44.97C37.2403 45.1505 37.129 45.3983 37.12 45.66C37 47.09 37 48.55 37 50C37 53.48 37.16 57 37.45 60.38C21.83 58.76 12 54.26 12 50C12 46.24 19.5 42.52 31.1 40.51C31.2166 40.4913 31.3286 40.4506 31.43 40.39V40.39ZM38 43C37.0111 43 36.0444 42.7068 35.2222 42.1573C34.3999 41.6079 33.7591 40.827 33.3806 39.9134C33.0022 38.9998 32.9032 37.9945 33.0961 37.0245C33.289 36.0546 33.7652 35.1637 34.4645 34.4645C35.1637 33.7652 36.0547 33.289 37.0246 33.0961C37.9945 32.9031 38.9998 33.0022 39.9134 33.3806C40.8271 33.759 41.608 34.3999 42.1574 35.2221C42.7068 36.0444 43 37.0111 43 38C43 38.6566 42.8707 39.3068 42.6194 39.9134C42.3681 40.52 41.9998 41.0712 41.5356 41.5355C41.0713 41.9998 40.5201 42.3681 39.9134 42.6194C39.3068 42.8707 38.6566 43 38 43V43ZM12.27 54.46C16.56 58.46 26.44 61.19 37.64 62.36C38.81 73.56 41.55 83.44 45.54 87.73C37.069 86.7131 29.1849 82.881 23.152 76.8481C17.119 70.8151 13.2869 62.931 12.27 54.46V54.46ZM54.5 87.72C57.41 84.62 59.81 78.45 61.37 69.72C61.3929 69.5764 61.3842 69.4295 61.3444 69.2896C61.3047 69.1497 61.2349 69.0202 61.14 68.91C61.4242 68.9603 61.7116 68.9903 62 69C63.7719 68.9842 65.4719 68.297 66.757 67.077C68.0421 65.857 68.8168 64.195 68.9246 62.4263C69.0325 60.6576 68.4655 58.9138 67.3381 57.5467C66.2108 56.1796 64.6069 55.291 62.85 55.06C62.8841 54.9772 62.9043 54.8894 62.91 54.8C63 53.22 63 51.6 63 50C63.0303 49.4137 63.0303 48.8263 63 48.24C62.9332 47.8292 62.8865 47.4154 62.86 47C62.86 46.7348 62.7547 46.4804 62.5671 46.2929C62.3796 46.1054 62.1252 46 61.86 46C61.5948 46 61.3404 46.1054 61.1529 46.2929C60.9654 46.4804 60.86 46.7348 60.86 47C60.86 47.85 60.93 48.17 60.96 48.4C61.0062 48.932 61.0196 49.4664 61 50C61 51.58 61 53.17 60.91 54.73C60.909 54.8493 60.9293 54.9678 60.97 55.08C59.4033 55.3197 57.9643 56.0839 56.8885 57.2477C55.8126 58.4115 55.1635 59.9059 55.0473 61.4866C54.9312 63.0672 55.3549 64.6405 56.2491 65.949C57.1434 67.2576 58.4552 68.2239 59.97 68.69C59.8293 68.7573 59.7063 68.8565 59.6108 68.9798C59.5153 69.1031 59.45 69.247 59.42 69.4C57.38 80.7 53.69 88 50 88C45.74 88 41.24 78.17 39.62 62.55C43 62.84 46.52 63 50 63C51.29 63 52.57 63 53.83 62.94C54.0952 62.94 54.3496 62.8346 54.5371 62.6471C54.7247 62.4596 54.83 62.2052 54.83 61.94C54.83 61.6748 54.7247 61.4204 54.5371 61.2329C54.3496 61.0454 54.0952 60.94 53.83 60.94C52.59 60.94 51.33 61 50.06 61C46.32 61 42.79 60.84 39.5 60.56C39.16 57.27 39 53.74 39 50C39 48.57 39 47.13 39.07 45.72C39.0725 45.5771 39.0444 45.4353 38.9874 45.3042C38.9305 45.1731 38.8461 45.0557 38.74 44.96C40.4215 44.7821 41.9818 44.0015 43.1325 42.7626C44.2832 41.5236 44.9466 39.9101 45 38.22C45.0384 38.4566 45.1604 38.6716 45.344 38.8258C45.5275 38.98 45.7603 39.0631 46 39.06C46.2282 39.064 46.4561 39.0439 46.68 39H47C47.2652 39 47.5196 38.8946 47.7071 38.7071C47.8947 38.5196 48 38.2652 48 38C48 37.7348 47.8947 37.4804 47.7071 37.2929C47.5196 37.1054 47.2652 37 47 37C46.7406 36.9752 46.4794 36.9752 46.22 37H45.93C45.7022 37.0104 45.4847 37.0984 45.3138 37.2494C45.1428 37.4003 45.0286 37.6052 44.99 37.83C44.9676 36.4208 44.5203 35.0512 43.7067 33.9003C42.8931 32.7495 41.7511 31.8711 40.43 31.38C40.4357 31.3268 40.4357 31.2732 40.43 31.22C42.48 19.57 46.22 12 50 12C53.78 12 57.3 19.16 59.33 30.25C59.3778 30.5152 59.5289 30.7506 59.7502 30.9044C59.9715 31.0582 60.2448 31.1177 60.51 31.07C60.7752 31.0223 61.0106 30.8711 61.1644 30.6498C61.3182 30.4285 61.3778 30.1552 61.33 29.89C59.77 21.38 57.39 15.33 54.52 12.27C62.9722 13.2958 70.8364 17.1261 76.8551 23.1484C82.8738 29.1707 86.6993 37.0372 87.72 45.49C85.17 43.11 80.51 41.05 74 39.49C73.872 39.4604 73.7394 39.4563 73.6097 39.4779C73.4801 39.4996 73.356 39.5466 73.2445 39.6163C73.1331 39.6859 73.0365 39.7768 72.9602 39.8839C72.8839 39.9909 72.8295 40.1119 72.8 40.24C72.7399 40.4972 72.7839 40.7678 72.9226 40.9926C73.0612 41.2174 73.2832 41.3783 73.54 41.44C82.46 43.57 88 46.84 88 50C88 53.6 81 57.24 70 59.28C69.7348 59.3052 69.4905 59.4347 69.3207 59.6401C69.151 59.8454 69.0698 60.1098 69.095 60.375C69.1202 60.6402 69.2497 60.8846 69.4551 61.0543C69.6604 61.224 69.9248 61.3052 70.19 61.28H70.37C78.72 59.72 84.67 57.35 87.7 54.52C86.6734 62.9686 82.8455 70.8295 76.8275 76.8475C70.8095 82.8655 62.9486 86.6934 54.5 87.72ZM62 57C62.9889 57 63.9556 57.2932 64.7779 57.8427C65.6001 58.3921 66.241 59.173 66.6194 60.0866C66.9979 61.0002 67.0969 62.0055 66.9039 62.9755C66.711 63.9454 66.2348 64.8363 65.5356 65.5355C64.8363 66.2348 63.9454 66.711 62.9755 66.9039C62.0056 67.0968 61.0002 66.9978 60.0866 66.6194C59.173 66.241 58.3921 65.6001 57.8427 64.7779C57.2933 63.9556 57 62.9889 57 62C57 60.6739 57.5268 59.4021 58.4645 58.4645C59.4022 57.5268 60.6739 57 62 57ZM64.21 37.29C64.3928 37.4816 64.4963 37.7352 64.5 38C64.5008 38.1316 64.4756 38.2621 64.4258 38.3839C64.376 38.5057 64.3027 38.6166 64.21 38.71C64.0698 38.849 63.8916 38.9435 63.6979 38.9814C63.5041 39.0193 63.3035 38.999 63.1212 38.9231C62.939 38.8472 62.7833 38.719 62.6738 38.5547C62.5643 38.3904 62.5058 38.1974 62.5058 38C62.5058 37.8026 62.5643 37.6096 62.6738 37.4453C62.7833 37.281 62.939 37.1528 63.1212 37.0769C63.3035 37.001 63.5041 36.9807 63.6979 37.0186C63.8916 37.0565 64.0698 37.151 64.21 37.29V37.29ZM59 38C59 38.2967 58.912 38.5867 58.7472 38.8334C58.5824 39.08 58.3481 39.2723 58.074 39.3858C57.8 39.4993 57.4984 39.5291 57.2074 39.4712C56.9164 39.4133 56.6491 39.2704 56.4394 39.0607C56.2296 38.8509 56.0867 38.5836 56.0288 38.2926C55.971 38.0017 56.0007 37.7001 56.1142 37.426C56.2277 37.1519 56.42 36.9176 56.6667 36.7528C56.9133 36.588 57.2033 36.5 57.5 36.5C57.8978 36.5 58.2794 36.658 58.5607 36.9393C58.842 37.2206 59 37.6022 59 38Z"/>
</mask>
<path d="M50 10C42.0888 10 34.3552 12.346 27.7772 16.7412C21.1992 21.1365 16.0723 27.3836 13.0448 34.6927C10.0173 42.0017 9.2252 50.0444 10.7686 57.8036C12.312 65.5629 16.1216 72.6902 21.7157 78.2843C27.3098 83.8784 34.4372 87.688 42.1964 89.2314C49.9556 90.7748 57.9983 89.9827 65.3074 86.9552C72.6164 83.9277 78.8635 78.8008 83.2588 72.2228C87.6541 65.6448 90 57.9113 90 50C90 44.7471 88.9654 39.5457 86.9552 34.6927C84.945 29.8396 81.9986 25.4301 78.2843 21.7157C74.5699 18.0014 70.1604 15.055 65.3074 13.0448C60.4543 11.0346 55.2529 10 50 10V10ZM45.55 12.27C42.55 15.48 40.04 21.97 38.55 30.94C38.55 30.94 38.55 31 38.55 31.03L38 31C36.1435 31 34.363 31.7375 33.0503 33.0503C31.7375 34.363 31 36.1435 31 38C30.9898 38.1832 30.9898 38.3668 31 38.55C30.9103 38.54 30.8197 38.54 30.73 38.55C21.86 40.09 15.43 42.55 12.24 45.55C13.2532 37.0699 17.0891 29.1769 23.1309 23.1407C29.1726 17.1044 37.069 13.2756 45.55 12.27V12.27ZM31.43 40.39C31.8879 41.6469 32.6964 42.7463 33.7598 43.558C34.8232 44.3697 36.0968 44.8597 37.43 44.97C37.2403 45.1505 37.129 45.3983 37.12 45.66C37 47.09 37 48.55 37 50C37 53.48 37.16 57 37.45 60.38C21.83 58.76 12 54.26 12 50C12 46.24 19.5 42.52 31.1 40.51C31.2166 40.4913 31.3286 40.4506 31.43 40.39V40.39ZM38 43C37.0111 43 36.0444 42.7068 35.2222 42.1573C34.3999 41.6079 33.7591 40.827 33.3806 39.9134C33.0022 38.9998 32.9032 37.9945 33.0961 37.0245C33.289 36.0546 33.7652 35.1637 34.4645 34.4645C35.1637 33.7652 36.0547 33.289 37.0246 33.0961C37.9945 32.9031 38.9998 33.0022 39.9134 33.3806C40.8271 33.759 41.608 34.3999 42.1574 35.2221C42.7068 36.0444 43 37.0111 43 38C43 38.6566 42.8707 39.3068 42.6194 39.9134C42.3681 40.52 41.9998 41.0712 41.5356 41.5355C41.0713 41.9998 40.5201 42.3681 39.9134 42.6194C39.3068 42.8707 38.6566 43 38 43V43ZM12.27 54.46C16.56 58.46 26.44 61.19 37.64 62.36C38.81 73.56 41.55 83.44 45.54 87.73C37.069 86.7131 29.1849 82.881 23.152 76.8481C17.119 70.8151 13.2869 62.931 12.27 54.46V54.46ZM54.5 87.72C57.41 84.62 59.81 78.45 61.37 69.72C61.3929 69.5764 61.3842 69.4295 61.3444 69.2896C61.3047 69.1497 61.2349 69.0202 61.14 68.91C61.4242 68.9603 61.7116 68.9903 62 69C63.7719 68.9842 65.4719 68.297 66.757 67.077C68.0421 65.857 68.8168 64.195 68.9246 62.4263C69.0325 60.6576 68.4655 58.9138 67.3381 57.5467C66.2108 56.1796 64.6069 55.291 62.85 55.06C62.8841 54.9772 62.9043 54.8894 62.91 54.8C63 53.22 63 51.6 63 50C63.0303 49.4137 63.0303 48.8263 63 48.24C62.9332 47.8292 62.8865 47.4154 62.86 47C62.86 46.7348 62.7547 46.4804 62.5671 46.2929C62.3796 46.1054 62.1252 46 61.86 46C61.5948 46 61.3404 46.1054 61.1529 46.2929C60.9654 46.4804 60.86 46.7348 60.86 47C60.86 47.85 60.93 48.17 60.96 48.4C61.0062 48.932 61.0196 49.4664 61 50C61 51.58 61 53.17 60.91 54.73C60.909 54.8493 60.9293 54.9678 60.97 55.08C59.4033 55.3197 57.9643 56.0839 56.8885 57.2477C55.8126 58.4115 55.1635 59.9059 55.0473 61.4866C54.9312 63.0672 55.3549 64.6405 56.2491 65.949C57.1434 67.2576 58.4552 68.2239 59.97 68.69C59.8293 68.7573 59.7063 68.8565 59.6108 68.9798C59.5153 69.1031 59.45 69.247 59.42 69.4C57.38 80.7 53.69 88 50 88C45.74 88 41.24 78.17 39.62 62.55C43 62.84 46.52 63 50 63C51.29 63 52.57 63 53.83 62.94C54.0952 62.94 54.3496 62.8346 54.5371 62.6471C54.7247 62.4596 54.83 62.2052 54.83 61.94C54.83 61.6748 54.7247 61.4204 54.5371 61.2329C54.3496 61.0454 54.0952 60.94 53.83 60.94C52.59 60.94 51.33 61 50.06 61C46.32 61 42.79 60.84 39.5 60.56C39.16 57.27 39 53.74 39 50C39 48.57 39 47.13 39.07 45.72C39.0725 45.5771 39.0444 45.4353 38.9874 45.3042C38.9305 45.1731 38.8461 45.0557 38.74 44.96C40.4215 44.7821 41.9818 44.0015 43.1325 42.7626C44.2832 41.5236 44.9466 39.9101 45 38.22C45.0384 38.4566 45.1604 38.6716 45.344 38.8258C45.5275 38.98 45.7603 39.0631 46 39.06C46.2282 39.064 46.4561 39.0439 46.68 39H47C47.2652 39 47.5196 38.8946 47.7071 38.7071C47.8947 38.5196 48 38.2652 48 38C48 37.7348 47.8947 37.4804 47.7071 37.2929C47.5196 37.1054 47.2652 37 47 37C46.7406 36.9752 46.4794 36.9752 46.22 37H45.93C45.7022 37.0104 45.4847 37.0984 45.3138 37.2494C45.1428 37.4003 45.0286 37.6052 44.99 37.83C44.9676 36.4208 44.5203 35.0512 43.7067 33.9003C42.8931 32.7495 41.7511 31.8711 40.43 31.38C40.4357 31.3268 40.4357 31.2732 40.43 31.22C42.48 19.57 46.22 12 50 12C53.78 12 57.3 19.16 59.33 30.25C59.3778 30.5152 59.5289 30.7506 59.7502 30.9044C59.9715 31.0582 60.2448 31.1177 60.51 31.07C60.7752 31.0223 61.0106 30.8711 61.1644 30.6498C61.3182 30.4285 61.3778 30.1552 61.33 29.89C59.77 21.38 57.39 15.33 54.52 12.27C62.9722 13.2958 70.8364 17.1261 76.8551 23.1484C82.8738 29.1707 86.6993 37.0372 87.72 45.49C85.17 43.11 80.51 41.05 74 39.49C73.872 39.4604 73.7394 39.4563 73.6097 39.4779C73.4801 39.4996 73.356 39.5466 73.2445 39.6163C73.1331 39.6859 73.0365 39.7768 72.9602 39.8839C72.8839 39.9909 72.8295 40.1119 72.8 40.24C72.7399 40.4972 72.7839 40.7678 72.9226 40.9926C73.0612 41.2174 73.2832 41.3783 73.54 41.44C82.46 43.57 88 46.84 88 50C88 53.6 81 57.24 70 59.28C69.7348 59.3052 69.4905 59.4347 69.3207 59.6401C69.151 59.8454 69.0698 60.1098 69.095 60.375C69.1202 60.6402 69.2497 60.8846 69.4551 61.0543C69.6604 61.224 69.9248 61.3052 70.19 61.28H70.37C78.72 59.72 84.67 57.35 87.7 54.52C86.6734 62.9686 82.8455 70.8295 76.8275 76.8475C70.8095 82.8655 62.9486 86.6934 54.5 87.72ZM62 57C62.9889 57 63.9556 57.2932 64.7779 57.8427C65.6001 58.3921 66.241 59.173 66.6194 60.0866C66.9979 61.0002 67.0969 62.0055 66.9039 62.9755C66.711 63.9454 66.2348 64.8363 65.5356 65.5355C64.8363 66.2348 63.9454 66.711 62.9755 66.9039C62.0056 67.0968 61.0002 66.9978 60.0866 66.6194C59.173 66.241 58.3921 65.6001 57.8427 64.7779C57.2933 63.9556 57 62.9889 57 62C57 60.6739 57.5268 59.4021 58.4645 58.4645C59.4022 57.5268 60.6739 57 62 57ZM64.21 37.29C64.3928 37.4816 64.4963 37.7352 64.5 38C64.5008 38.1316 64.4756 38.2621 64.4258 38.3839C64.376 38.5057 64.3027 38.6166 64.21 38.71C64.0698 38.849 63.8916 38.9435 63.6979 38.9814C63.5041 39.0193 63.3035 38.999 63.1212 38.9231C62.939 38.8472 62.7833 38.719 62.6738 38.5547C62.5643 38.3904 62.5058 38.1974 62.5058 38C62.5058 37.8026 62.5643 37.6096 62.6738 37.4453C62.7833 37.281 62.939 37.1528 63.1212 37.0769C63.3035 37.001 63.5041 36.9807 63.6979 37.0186C63.8916 37.0565 64.0698 37.151 64.21 37.29V37.29ZM59 38C59 38.2967 58.912 38.5867 58.7472 38.8334C58.5824 39.08 58.3481 39.2723 58.074 39.3858C57.8 39.4993 57.4984 39.5291 57.2074 39.4712C56.9164 39.4133 56.6491 39.2704 56.4394 39.0607C56.2296 38.8509 56.0867 38.5836 56.0288 38.2926C55.971 38.0017 56.0007 37.7001 56.1142 37.426C56.2277 37.1519 56.42 36.9176 56.6667 36.7528C56.9133 36.588 57.2033 36.5 57.5 36.5C57.8978 36.5 58.2794 36.658 58.5607 36.9393C58.842 37.2206 59 37.6022 59 38Z" fill="#0074E0"/>
<path d="M50 10C42.0888 10 34.3552 12.346 27.7772 16.7412C21.1992 21.1365 16.0723 27.3836 13.0448 34.6927C10.0173 42.0017 9.2252 50.0444 10.7686 57.8036C12.312 65.5629 16.1216 72.6902 21.7157 78.2843C27.3098 83.8784 34.4372 87.688 42.1964 89.2314C49.9556 90.7748 57.9983 89.9827 65.3074 86.9552C72.6164 83.9277 78.8635 78.8008 83.2588 72.2228C87.6541 65.6448 90 57.9113 90 50C90 44.7471 88.9654 39.5457 86.9552 34.6927C84.945 29.8396 81.9986 25.4301 78.2843 21.7157C74.5699 18.0014 70.1604 15.055 65.3074 13.0448C60.4543 11.0346 55.2529 10 50 10V10ZM45.55 12.27C42.55 15.48 40.04 21.97 38.55 30.94C38.55 30.94 38.55 31 38.55 31.03L38 31C36.1435 31 34.363 31.7375 33.0503 33.0503C31.7375 34.363 31 36.1435 31 38C30.9898 38.1832 30.9898 38.3668 31 38.55C30.9103 38.54 30.8197 38.54 30.73 38.55C21.86 40.09 15.43 42.55 12.24 45.55C13.2532 37.0699 17.0891 29.1769 23.1309 23.1407C29.1726 17.1044 37.069 13.2756 45.55 12.27V12.27ZM31.43 40.39C31.8879 41.6469 32.6964 42.7463 33.7598 43.558C34.8232 44.3697 36.0968 44.8597 37.43 44.97C37.2403 45.1505 37.129 45.3983 37.12 45.66C37 47.09 37 48.55 37 50C37 53.48 37.16 57 37.45 60.38C21.83 58.76 12 54.26 12 50C12 46.24 19.5 42.52 31.1 40.51C31.2166 40.4913 31.3286 40.4506 31.43 40.39V40.39ZM38 43C37.0111 43 36.0444 42.7068 35.2222 42.1573C34.3999 41.6079 33.7591 40.827 33.3806 39.9134C33.0022 38.9998 32.9032 37.9945 33.0961 37.0245C33.289 36.0546 33.7652 35.1637 34.4645 34.4645C35.1637 33.7652 36.0547 33.289 37.0246 33.0961C37.9945 32.9031 38.9998 33.0022 39.9134 33.3806C40.8271 33.759 41.608 34.3999 42.1574 35.2221C42.7068 36.0444 43 37.0111 43 38C43 38.6566 42.8707 39.3068 42.6194 39.9134C42.3681 40.52 41.9998 41.0712 41.5356 41.5355C41.0713 41.9998 40.5201 42.3681 39.9134 42.6194C39.3068 42.8707 38.6566 43 38 43V43ZM12.27 54.46C16.56 58.46 26.44 61.19 37.64 62.36C38.81 73.56 41.55 83.44 45.54 87.73C37.069 86.7131 29.1849 82.881 23.152 76.8481C17.119 70.8151 13.2869 62.931 12.27 54.46V54.46ZM54.5 87.72C57.41 84.62 59.81 78.45 61.37 69.72C61.3929 69.5764 61.3842 69.4295 61.3444 69.2896C61.3047 69.1497 61.2349 69.0202 61.14 68.91C61.4242 68.9603 61.7116 68.9903 62 69C63.7719 68.9842 65.4719 68.297 66.757 67.077C68.0421 65.857 68.8168 64.195 68.9246 62.4263C69.0325 60.6576 68.4655 58.9138 67.3381 57.5467C66.2108 56.1796 64.6069 55.291 62.85 55.06C62.8841 54.9772 62.9043 54.8894 62.91 54.8C63 53.22 63 51.6 63 50C63.0303 49.4137 63.0303 48.8263 63 48.24C62.9332 47.8292 62.8865 47.4154 62.86 47C62.86 46.7348 62.7547 46.4804 62.5671 46.2929C62.3796 46.1054 62.1252 46 61.86 46C61.5948 46 61.3404 46.1054 61.1529 46.2929C60.9654 46.4804 60.86 46.7348 60.86 47C60.86 47.85 60.93 48.17 60.96 48.4C61.0062 48.932 61.0196 49.4664 61 50C61 51.58 61 53.17 60.91 54.73C60.909 54.8493 60.9293 54.9678 60.97 55.08C59.4033 55.3197 57.9643 56.0839 56.8885 57.2477C55.8126 58.4115 55.1635 59.9059 55.0473 61.4866C54.9312 63.0672 55.3549 64.6405 56.2491 65.949C57.1434 67.2576 58.4552 68.2239 59.97 68.69C59.8293 68.7573 59.7063 68.8565 59.6108 68.9798C59.5153 69.1031 59.45 69.247 59.42 69.4C57.38 80.7 53.69 88 50 88C45.74 88 41.24 78.17 39.62 62.55C43 62.84 46.52 63 50 63C51.29 63 52.57 63 53.83 62.94C54.0952 62.94 54.3496 62.8346 54.5371 62.6471C54.7247 62.4596 54.83 62.2052 54.83 61.94C54.83 61.6748 54.7247 61.4204 54.5371 61.2329C54.3496 61.0454 54.0952 60.94 53.83 60.94C52.59 60.94 51.33 61 50.06 61C46.32 61 42.79 60.84 39.5 60.56C39.16 57.27 39 53.74 39 50C39 48.57 39 47.13 39.07 45.72C39.0725 45.5771 39.0444 45.4353 38.9874 45.3042C38.9305 45.1731 38.8461 45.0557 38.74 44.96C40.4215 44.7821 41.9818 44.0015 43.1325 42.7626C44.2832 41.5236 44.9466 39.9101 45 38.22C45.0384 38.4566 45.1604 38.6716 45.344 38.8258C45.5275 38.98 45.7603 39.0631 46 39.06C46.2282 39.064 46.4561 39.0439 46.68 39H47C47.2652 39 47.5196 38.8946 47.7071 38.7071C47.8947 38.5196 48 38.2652 48 38C48 37.7348 47.8947 37.4804 47.7071 37.2929C47.5196 37.1054 47.2652 37 47 37C46.7406 36.9752 46.4794 36.9752 46.22 37H45.93C45.7022 37.0104 45.4847 37.0984 45.3138 37.2494C45.1428 37.4003 45.0286 37.6052 44.99 37.83C44.9676 36.4208 44.5203 35.0512 43.7067 33.9003C42.8931 32.7495 41.7511 31.8711 40.43 31.38C40.4357 31.3268 40.4357 31.2732 40.43 31.22C42.48 19.57 46.22 12 50 12C53.78 12 57.3 19.16 59.33 30.25C59.3778 30.5152 59.5289 30.7506 59.7502 30.9044C59.9715 31.0582 60.2448 31.1177 60.51 31.07C60.7752 31.0223 61.0106 30.8711 61.1644 30.6498C61.3182 30.4285 61.3778 30.1552 61.33 29.89C59.77 21.38 57.39 15.33 54.52 12.27C62.9722 13.2958 70.8364 17.1261 76.8551 23.1484C82.8738 29.1707 86.6993 37.0372 87.72 45.49C85.17 43.11 80.51 41.05 74 39.49C73.872 39.4604 73.7394 39.4563 73.6097 39.4779C73.4801 39.4996 73.356 39.5466 73.2445 39.6163C73.1331 39.6859 73.0365 39.7768 72.9602 39.8839C72.8839 39.9909 72.8295 40.1119 72.8 40.24C72.7399 40.4972 72.7839 40.7678 72.9226 40.9926C73.0612 41.2174 73.2832 41.3783 73.54 41.44C82.46 43.57 88 46.84 88 50C88 53.6 81 57.24 70 59.28C69.7348 59.3052 69.4905 59.4347 69.3207 59.6401C69.151 59.8454 69.0698 60.1098 69.095 60.375C69.1202 60.6402 69.2497 60.8846 69.4551 61.0543C69.6604 61.224 69.9248 61.3052 70.19 61.28H70.37C78.72 59.72 84.67 57.35 87.7 54.52C86.6734 62.9686 82.8455 70.8295 76.8275 76.8475C70.8095 82.8655 62.9486 86.6934 54.5 87.72ZM62 57C62.9889 57 63.9556 57.2932 64.7779 57.8427C65.6001 58.3921 66.241 59.173 66.6194 60.0866C66.9979 61.0002 67.0969 62.0055 66.9039 62.9755C66.711 63.9454 66.2348 64.8363 65.5356 65.5355C64.8363 66.2348 63.9454 66.711 62.9755 66.9039C62.0056 67.0968 61.0002 66.9978 60.0866 66.6194C59.173 66.241 58.3921 65.6001 57.8427 64.7779C57.2933 63.9556 57 62.9889 57 62C57 60.6739 57.5268 59.4021 58.4645 58.4645C59.4022 57.5268 60.6739 57 62 57ZM64.21 37.29C64.3928 37.4816 64.4963 37.7352 64.5 38C64.5008 38.1316 64.4756 38.2621 64.4258 38.3839C64.376 38.5057 64.3027 38.6166 64.21 38.71C64.0698 38.849 63.8916 38.9435 63.6979 38.9814C63.5041 39.0193 63.3035 38.999 63.1212 38.9231C62.939 38.8472 62.7833 38.719 62.6738 38.5547C62.5643 38.3904 62.5058 38.1974 62.5058 38C62.5058 37.8026 62.5643 37.6096 62.6738 37.4453C62.7833 37.281 62.939 37.1528 63.1212 37.0769C63.3035 37.001 63.5041 36.9807 63.6979 37.0186C63.8916 37.0565 64.0698 37.151 64.21 37.29V37.29ZM59 38C59 38.2967 58.912 38.5867 58.7472 38.8334C58.5824 39.08 58.3481 39.2723 58.074 39.3858C57.8 39.4993 57.4984 39.5291 57.2074 39.4712C56.9164 39.4133 56.6491 39.2704 56.4394 39.0607C56.2296 38.8509 56.0867 38.5836 56.0288 38.2926C55.971 38.0017 56.0007 37.7001 56.1142 37.426C56.2277 37.1519 56.42 36.9176 56.6667 36.7528C56.9133 36.588 57.2033 36.5 57.5 36.5C57.8978 36.5 58.2794 36.658 58.5607 36.9393C58.842 37.2206 59 37.6022 59 38Z" stroke="#0074E0" stroke-width="0.6" mask="url(#path-3-outside-1)"/>
</svg>
