<svg width="95" height="45" viewBox="0 0 95 45" fill="none" xmlns="http://www.w3.org/2000/svg">
<path d="M80.7736 11.0378V17.5178H87.5912V21.0278H80.7736V29.0378C80.7736 29.8478 80.7959 30.6578 80.8853 31.3553C81.0642 32.5478 81.7795 33.7178 82.763 34.1678C84.0371 34.7528 84.9312 34.6403 87.5912 34.5503L86.943 38.4203C86.7642 38.5103 86.0489 38.4878 85.3783 38.4878C83.8136 38.4878 77.9124 39.0503 76.7053 32.9303C76.5042 31.8728 76.5489 30.7928 76.5489 29.1278V21.0728H73.5089L73.5536 17.4953H76.5489V11.0378H80.7736ZM69.2171 17.4953V38.0828H65.0148V17.4953H69.2171ZM69.2171 11.0378V14.7053H64.97V11.0378H69.2171ZM50.53 34.0328H61.3042L57.2806 38.0828H46.2383V11.0378H50.53V34.0328Z" fill="black"/>
<path d="M0 18V36C2.02833 35.205 3.87046 33.9945 5.40961 32.4452C6.94875 30.8959 8.15135 29.0417 8.94118 27L0 18Z" fill="#324FFF"/>
<path d="M8.94118 27C10.2153 33.1425 10.1259 37.575 8.94118 45L0 36L8.94118 27Z" fill="#283198"/>
<path d="M8.94141 27V45L17.8826 36C15.4967 32.456 12.4622 29.4016 8.94141 27Z" fill="#00FFFF"/>
<path d="M17.8826 0V18C17.8826 18 10.7967 12.5325 8.94141 9L17.8826 0Z" fill="#324FFF"/>
<path d="M8.94141 9V27C12.8573 25.1185 16.0134 21.9417 17.8826 18L8.94141 9Z" fill="#324FFF"/>
<path d="M17.8826 18C19.2089 23.9257 19.2089 30.0743 17.8826 36L8.94141 27L17.8826 18Z" fill="#00E8FF"/>
<path d="M17.8828 18V36C21.6828 34.3125 24.924 31.725 26.824 27C25.5052 23.175 22.7781 20.0475 17.8828 18Z" fill="#283198"/>
<path d="M26.824 9V27L17.8828 18L26.824 9Z" fill="#283198"/>
<path d="M26.824 27C28.1875 33.075 27.9193 39.06 26.824 45L17.8828 36L26.824 27Z" fill="#00E8FF"/>
<path d="M26.8242 27V45L35.7654 36C34.5583 32.625 31.6748 29.7225 26.8242 27Z" fill="#324FFF"/>
<path d="M35.7654 18V36L26.8242 27L35.7654 18Z" fill="#324FFF"/>
</svg>
