<svg width="176" height="51" viewBox="0 0 176 51" fill="none" xmlns="http://www.w3.org/2000/svg">
<g clip-path="url(#clip0)">
<path d="M155.169 50.7135C154.731 50.7137 154.301 50.5985 153.921 50.3792L149.945 48.0244C149.349 47.6931 149.647 47.5738 149.838 47.5051C150.466 47.3089 151.067 47.0341 151.626 46.6873C151.674 46.6647 151.726 46.655 151.778 46.6592C151.831 46.6633 151.881 46.6813 151.924 46.7112L154.976 48.5258C155.032 48.5566 155.096 48.5728 155.161 48.5728C155.225 48.5728 155.289 48.5566 155.345 48.5258L167.251 41.6435C167.306 41.61 167.352 41.5627 167.384 41.5062C167.416 41.4498 167.432 41.386 167.432 41.3211V27.5624C167.433 27.4963 167.416 27.4313 167.383 27.3738C167.351 27.3163 167.304 27.2681 167.248 27.2341L155.348 20.3696C155.293 20.3374 155.229 20.3204 155.165 20.3204C155.101 20.3204 155.037 20.3374 154.982 20.3696L143.082 27.2341C143.025 27.2677 142.978 27.3157 142.945 27.3733C142.912 27.4309 142.895 27.496 142.895 27.5624V41.3211C142.894 41.3863 142.912 41.4503 142.945 41.5065C142.978 41.5627 143.025 41.6089 143.082 41.6405L146.342 43.5267C148.113 44.4221 149.197 43.3685 149.197 42.3329V28.7353C149.197 28.69 149.206 28.6451 149.224 28.6032C149.241 28.5614 149.267 28.5234 149.299 28.4915C149.331 28.4596 149.369 28.4344 149.411 28.4173C149.453 28.4002 149.498 28.3917 149.543 28.3921H151.051C151.096 28.3917 151.141 28.4002 151.183 28.4173C151.225 28.4344 151.263 28.4596 151.295 28.4915C151.327 28.5234 151.353 28.5614 151.37 28.6032C151.388 28.6451 151.397 28.69 151.397 28.7353V42.321C151.397 44.6877 150.112 46.0427 147.871 46.0427C147.183 46.0427 146.643 46.0427 145.13 45.2965L142.006 43.5058C141.627 43.2836 141.312 42.966 141.093 42.5843C140.874 42.2027 140.759 41.7703 140.758 41.3301V27.5713C140.758 27.1314 140.873 26.6992 141.092 26.3179C141.311 25.9366 141.627 25.6196 142.006 25.3986L153.927 18.5072C154.311 18.2972 154.741 18.1871 155.178 18.1871C155.616 18.1871 156.046 18.2972 156.43 18.5072L168.35 25.3986C168.73 25.6198 169.045 25.9368 169.264 26.3181C169.483 26.6993 169.599 27.1314 169.599 27.5713V41.3301C169.598 41.7702 169.482 42.2025 169.263 42.5841C169.044 42.9657 168.73 43.2834 168.35 43.5058L156.43 50.3882C156.046 50.6061 155.611 50.7183 155.169 50.7135Z" fill="#679E63"/>
<path d="M158.832 41.2345C153.623 41.2345 152.532 38.8468 152.532 36.8323C152.532 36.7871 152.54 36.7423 152.558 36.7005C152.575 36.6586 152.6 36.6206 152.632 36.5887C152.664 36.5567 152.702 36.5315 152.743 36.5144C152.785 36.4972 152.83 36.4886 152.875 36.489H154.416C154.499 36.4883 154.58 36.5183 154.643 36.5733C154.707 36.6282 154.747 36.7044 154.758 36.7875C154.991 38.3574 155.682 39.1513 158.832 39.1513C161.341 39.1513 162.408 38.5812 162.408 37.2501C162.408 36.4801 162.11 35.91 158.209 35.528C154.952 35.2057 152.938 34.4834 152.938 31.8749C152.938 29.4694 154.961 28.0338 158.355 28.0338C162.17 28.0338 164.056 29.359 164.295 32.2122C164.299 32.2598 164.293 32.3077 164.278 32.353C164.262 32.3982 164.238 32.4397 164.205 32.4748C164.173 32.5095 164.134 32.5372 164.09 32.5562C164.046 32.5752 163.999 32.5851 163.952 32.5853H162.408C162.33 32.5851 162.255 32.5584 162.194 32.5096C162.134 32.4608 162.091 32.3927 162.074 32.3166C161.702 30.6662 160.802 30.1379 158.355 30.1379C155.617 30.1379 155.298 31.093 155.298 31.8093C155.298 32.6748 155.673 32.9285 159.372 33.4179C163.07 33.9074 164.768 34.5879 164.768 37.1636C164.768 39.7392 162.62 41.2345 158.832 41.2345Z" fill="#679E63"/>
<path d="M175.999 26.8043C175.999 27.2588 175.865 27.7032 175.613 28.0811C175.361 28.459 175.002 28.7536 174.583 28.9275C174.164 29.1014 173.702 29.1469 173.257 29.0583C172.812 28.9696 172.403 28.7507 172.082 28.4293C171.761 28.1079 171.543 27.6984 171.454 27.2527C171.366 26.8069 171.411 26.3448 171.585 25.9249C171.759 25.505 172.053 25.146 172.43 24.8935C172.807 24.641 173.251 24.5062 173.705 24.5062C174.313 24.5078 174.896 24.7504 175.326 25.1811C175.756 25.6117 175.998 26.1953 175.999 26.8043ZM171.78 26.8043C171.779 27.1862 171.891 27.5597 172.102 27.8777C172.313 28.1957 172.613 28.4437 172.965 28.5904C173.317 28.7371 173.705 28.7757 174.079 28.7015C174.453 28.6273 174.796 28.4436 175.066 28.1736C175.336 27.9036 175.519 27.5595 175.593 27.185C175.667 26.8104 175.629 26.4223 175.482 26.0697C175.336 25.7172 175.088 25.4161 174.771 25.2047C174.453 24.9933 174.08 24.8811 173.699 24.8823C173.191 24.8838 172.705 25.086 172.346 25.4449C171.986 25.8037 171.783 26.2901 171.78 26.7984V26.8043ZM172.844 25.521H173.738C174.036 25.521 174.632 25.521 174.632 26.2014C174.643 26.3484 174.6 26.4943 174.51 26.6111C174.42 26.7279 174.291 26.8073 174.146 26.8342C174.498 26.858 174.521 27.0908 174.569 27.4311C174.582 27.663 174.628 27.8919 174.703 28.1115H174.158C174.158 27.9892 174.059 27.3326 174.059 27.2968C174.024 27.1505 173.973 27.0789 173.791 27.0789H173.347V28.1115H172.85L172.844 25.521ZM173.329 26.6521H173.729C173.779 26.6588 173.831 26.6542 173.879 26.6387C173.928 26.6232 173.972 26.597 174.01 26.5622C174.047 26.5274 174.076 26.4848 174.095 26.4374C174.114 26.39 174.122 26.339 174.119 26.288C174.119 25.9358 173.875 25.9358 173.741 25.9358H173.329V26.6521Z" fill="#679E63"/>
<path fill-rule="evenodd" clip-rule="evenodd" d="M28.2898 27.025C28.291 26.7559 28.221 26.4913 28.087 26.258C27.953 26.0248 27.7598 25.8312 27.5269 25.6969L14.9063 18.4235C14.6945 18.301 14.4563 18.2314 14.212 18.2206H14.0808C13.8356 18.2317 13.5965 18.3013 13.3835 18.4235L0.7629 25.6969C0.530658 25.8319 0.337928 26.0256 0.20403 26.2587C0.0701321 26.4918 -0.000230174 26.7561 5.65674e-07 27.025L0.0268224 46.6126C0.0256501 46.7467 0.0604254 46.8786 0.127521 46.9946C0.194616 47.1106 0.291572 47.2065 0.408271 47.2722C0.522504 47.3412 0.653357 47.3776 0.786739 47.3776C0.920121 47.3776 1.05098 47.3412 1.16521 47.2722L8.66605 42.9715C8.89725 42.836 9.08921 42.6426 9.22299 42.4102C9.35678 42.1778 9.42776 41.9145 9.42894 41.6463V32.4927C9.42877 32.2253 9.49892 31.9627 9.63232 31.7311C9.76572 31.4995 9.95767 31.3072 10.1889 31.1735L13.3835 29.3291C13.6164 29.1948 13.8807 29.1248 14.1494 29.1261C14.4152 29.1249 14.6766 29.195 14.9063 29.3291L18.101 31.1735C18.3321 31.3072 18.5241 31.4995 18.6575 31.7311C18.7909 31.9627 18.861 32.2253 18.8609 32.4927V41.6463C18.8624 41.9148 18.9338 42.1783 19.0681 42.4107C19.2024 42.6431 19.395 42.8364 19.6267 42.9715L27.1246 47.2722C27.24 47.3411 27.3718 47.3774 27.5061 47.3774C27.6403 47.3774 27.7721 47.3411 27.8875 47.2722C28.0026 47.2049 28.0981 47.1087 28.1645 46.9929C28.2309 46.8772 28.2659 46.7461 28.266 46.6126L28.2898 27.025Z" fill="#333333"/>
<path fill-rule="evenodd" clip-rule="evenodd" d="M89.0119 0.0954911C88.896 0.0312077 88.7653 -0.00172317 88.6328 -6.22109e-05C88.5003 0.00159875 88.3706 0.0377943 88.2563 0.104964C88.142 0.172133 88.0471 0.26796 87.9811 0.383003C87.915 0.498045 87.88 0.628338 87.8795 0.761049V20.1606C87.879 20.2549 87.854 20.3473 87.8069 20.429C87.7599 20.5106 87.6925 20.5786 87.6113 20.6262C87.5302 20.6731 87.4382 20.6978 87.3446 20.6978C87.2509 20.6978 87.159 20.6731 87.0779 20.6262L83.9279 18.7967C83.6965 18.6625 83.4339 18.5919 83.1665 18.5919C82.8991 18.5919 82.6365 18.6625 82.4051 18.7967L69.7785 26.0939C69.5461 26.2272 69.3531 26.4198 69.2191 26.652C69.0851 26.8842 69.0149 27.1479 69.0156 27.4161V42.0165C69.0158 42.2845 69.0864 42.5478 69.2204 42.7798C69.3543 43.0119 69.5468 43.2046 69.7785 43.3386L82.4051 50.6418C82.6367 50.7754 82.8993 50.8457 83.1665 50.8457C83.4338 50.8457 83.6963 50.7754 83.9279 50.6418L96.5575 43.3386C96.7888 43.2042 96.981 43.0114 97.1149 42.7794C97.2487 42.5474 97.3196 42.2844 97.3204 42.0165V5.62885C97.3205 5.35667 97.2479 5.08941 97.11 4.85482C96.9722 4.62023 96.7742 4.42685 96.5366 4.29476L89.0119 0.0954911ZM87.8408 37.2233C87.8411 37.2905 87.8237 37.3566 87.7902 37.4148C87.7567 37.473 87.7083 37.5213 87.65 37.5546L83.314 40.0586C83.2557 40.091 83.19 40.108 83.1233 40.108C83.0566 40.108 82.9909 40.091 82.9326 40.0586L78.5995 37.5546C78.5413 37.5213 78.4929 37.473 78.4594 37.4148C78.4259 37.3566 78.4084 37.2905 78.4088 37.2233V32.2093C78.409 32.1429 78.4263 32.0778 78.4593 32.0202C78.4922 31.9626 78.5395 31.9146 78.5966 31.881L82.9326 29.3709C82.9905 29.3371 83.0563 29.3193 83.1233 29.3193C83.1903 29.3193 83.2561 29.3371 83.314 29.3709L87.65 31.881C87.7078 31.914 87.7559 31.9618 87.7894 32.0195C87.8229 32.0771 87.8406 32.1426 87.8408 32.2093V37.2233Z" fill="#333333"/>
<path fill-rule="evenodd" clip-rule="evenodd" d="M131.069 32.0779C131.3 31.9442 131.492 31.7519 131.625 31.5204C131.759 31.2888 131.829 31.0261 131.829 30.7587V27.2221C131.829 26.9543 131.759 26.6913 131.625 26.4592C131.492 26.2272 131.3 26.0343 131.069 25.8999L118.514 18.6057C118.281 18.4716 118.018 18.401 117.749 18.401C117.481 18.401 117.218 18.4716 116.985 18.6057L104.364 25.9059C104.132 26.0392 103.939 26.2317 103.805 26.464C103.671 26.6962 103.601 26.9598 103.602 27.228V41.8225C103.602 42.0916 103.673 42.3559 103.808 42.5886C103.943 42.8213 104.137 43.0141 104.37 43.1476L116.917 50.3105C117.144 50.4378 117.401 50.5047 117.662 50.5047C117.922 50.5047 118.179 50.4378 118.407 50.3105L125.994 46.0874C126.112 46.0209 126.21 45.9242 126.278 45.8072C126.346 45.6903 126.382 45.5573 126.382 45.4218C126.382 45.2864 126.346 45.1534 126.278 45.0364C126.21 44.9195 126.112 44.8228 125.994 44.7563L113.293 37.4561C113.176 37.3891 113.079 37.2926 113.012 37.1763C112.945 37.06 112.909 36.928 112.908 36.7935V32.2272C112.908 32.0933 112.944 31.9619 113.011 31.8461C113.078 31.7303 113.174 31.6342 113.29 31.5676L117.244 29.2844C117.36 29.217 117.491 29.1815 117.624 29.1815C117.758 29.1815 117.889 29.217 118.004 29.2844L121.962 31.5676C122.078 31.6342 122.174 31.7303 122.241 31.8461C122.308 31.9619 122.343 32.0933 122.343 32.2272V35.8086C122.343 35.9429 122.378 36.075 122.445 36.1914C122.511 36.3077 122.608 36.4043 122.724 36.4713C122.84 36.5383 122.972 36.5733 123.106 36.5728C123.24 36.5722 123.372 36.5361 123.488 36.4682L131.069 32.0779Z" fill="#333333"/>
<path fill-rule="evenodd" clip-rule="evenodd" d="M117.573 31.3945C117.618 31.3683 117.669 31.3545 117.722 31.3545C117.774 31.3545 117.825 31.3683 117.871 31.3945L120.302 32.7942C120.347 32.8203 120.385 32.8577 120.411 32.9027C120.437 32.9477 120.451 32.9988 120.451 33.0509V35.8504C120.45 35.902 120.436 35.9525 120.41 35.9969C120.384 36.0414 120.347 36.0783 120.302 36.1041L117.879 37.5069C117.834 37.533 117.783 37.5468 117.73 37.5468C117.678 37.5468 117.627 37.533 117.581 37.5069L115.162 36.1041C115.118 36.078 115.081 36.0409 115.055 35.9964C115.03 35.952 115.016 35.9017 115.016 35.8504V33.0509C115.016 32.9991 115.029 32.9482 115.055 32.9032C115.08 32.8582 115.117 32.8206 115.162 32.7942L117.573 31.3945Z" fill="#679E63"/>
<path fill-rule="evenodd" clip-rule="evenodd" d="M49.4129 18.6803C49.1823 18.547 48.9207 18.4768 48.6544 18.4768C48.3882 18.4768 48.1266 18.547 47.896 18.6803L35.341 25.9358C35.11 26.069 34.9182 26.2607 34.7848 26.4918C34.6514 26.7229 34.5811 26.9851 34.5811 27.252V41.7778C34.5813 42.0442 34.6517 42.3059 34.7851 42.5365C34.9185 42.767 35.1103 42.9583 35.341 43.091L47.8871 50.3554C48.1177 50.4887 48.3792 50.5589 48.6455 50.5589C48.9118 50.5589 49.1733 50.4887 49.4039 50.3554L61.959 43.091C62.1889 42.9576 62.3799 42.7662 62.5127 42.5357C62.6456 42.3052 62.7156 42.0439 62.7159 41.7778V27.252C62.7159 26.9851 62.6456 26.7229 62.5122 26.4918C62.3788 26.2607 62.1869 26.069 61.956 25.9358L49.4129 18.6803Z" fill="url(#paint0_linear)"/>
<path d="M61.9908 25.9356L49.4 18.6802C49.276 18.6089 49.1426 18.5557 49.0037 18.522L34.8662 42.7416C34.9882 42.8794 35.131 42.9972 35.2894 43.0908L47.904 50.3552C48.0799 50.4557 48.274 50.5204 48.475 50.5455C48.676 50.5706 48.88 50.5557 49.0752 50.5014L62.3276 26.1952C62.226 26.0956 62.113 26.0084 61.9908 25.9356Z" fill="url(#paint1_linear)"/>
<path d="M47.4775 16.0121L47.3047 16.1106H47.5341L47.4775 16.0121Z" fill="url(#paint2_linear)"/>
<path d="M61.9954 43.0909C62.1766 42.9866 62.3355 42.8475 62.4628 42.6816C62.5902 42.5156 62.6835 42.3261 62.7374 42.1239L48.9338 18.4982C48.5693 18.4238 48.1903 18.4842 47.8669 18.6683L35.3506 25.882L48.8593 50.5314C49.0543 50.5046 49.2424 50.4408 49.4135 50.3433L61.9954 43.0909Z" fill="url(#paint3_linear)"/>
<path d="M63.1674 42.8582L63.084 42.7179V42.9059L63.1674 42.8582Z" fill="url(#paint4_linear)"/>
<path d="M61.9973 43.091L49.4273 50.3554C49.2562 50.4528 49.0681 50.5166 48.873 50.5434L49.1234 51.0001L63.085 42.906V42.715L62.7393 42.118C62.6861 42.3213 62.5931 42.512 62.4657 42.679C62.3383 42.846 62.1791 42.9861 61.9973 43.091Z" fill="url(#paint5_linear)"/>
<path d="M61.9973 43.091L49.4273 50.3554C49.2562 50.4528 49.0681 50.5166 48.873 50.5434L49.1234 51.0001L63.085 42.906V42.715L62.7393 42.118C62.6861 42.3213 62.5931 42.512 62.4657 42.679C62.3383 42.846 62.1791 42.9861 61.9973 43.091Z" fill="url(#paint6_linear)"/>
</g>
<defs>
<linearGradient id="paint0_linear" x1="53.7578" y1="24.0824" x2="42.3882" y2="47.2469" gradientUnits="userSpaceOnUse">
<stop stop-color="#3F873F"/>
<stop offset="0.33" stop-color="#3F8B3D"/>
<stop offset="0.64" stop-color="#3E9637"/>
<stop offset="0.93" stop-color="#3DA92E"/>
<stop offset="1" stop-color="#3DAE2B"/>
</linearGradient>
<linearGradient id="paint1_linear" x1="46.7418" y1="36.2114" x2="78.6027" y2="12.7061" gradientUnits="userSpaceOnUse">
<stop offset="0.14" stop-color="#3F873F"/>
<stop offset="0.4" stop-color="#529F44"/>
<stop offset="0.71" stop-color="#63B649"/>
<stop offset="0.91" stop-color="#6ABF4B"/>
</linearGradient>
<linearGradient id="paint2_linear" x1="34.1392" y1="16.0628" x2="63.1671" y2="16.0628" gradientUnits="userSpaceOnUse">
<stop offset="0.09" stop-color="#6ABF4B"/>
<stop offset="0.29" stop-color="#63B649"/>
<stop offset="0.6" stop-color="#529F44"/>
<stop offset="0.86" stop-color="#3F873F"/>
</linearGradient>
<linearGradient id="paint3_linear" x1="5317.18" y1="8985.22" x2="7985.21" y2="8985.22" gradientUnits="userSpaceOnUse">
<stop offset="0.09" stop-color="#6ABF4B"/>
<stop offset="0.29" stop-color="#63B649"/>
<stop offset="0.6" stop-color="#529F44"/>
<stop offset="0.86" stop-color="#3F873F"/>
</linearGradient>
<linearGradient id="paint4_linear" x1="72.6427" y1="69.6892" x2="80.7705" y2="69.6892" gradientUnits="userSpaceOnUse">
<stop offset="0.09" stop-color="#6ABF4B"/>
<stop offset="0.29" stop-color="#63B649"/>
<stop offset="0.6" stop-color="#529F44"/>
<stop offset="0.86" stop-color="#3F873F"/>
</linearGradient>
<linearGradient id="paint5_linear" x1="2789.79" y1="2884.63" x2="4174.33" y2="2884.63" gradientUnits="userSpaceOnUse">
<stop offset="0.09" stop-color="#6ABF4B"/>
<stop offset="0.29" stop-color="#63B649"/>
<stop offset="0.6" stop-color="#529F44"/>
<stop offset="0.86" stop-color="#3F873F"/>
</linearGradient>
<linearGradient id="paint6_linear" x1="4375.99" y1="2195.21" x2="3997.85" y2="3429.6" gradientUnits="userSpaceOnUse">
<stop stop-color="#3F873F"/>
<stop offset="0.33" stop-color="#3F8B3D"/>
<stop offset="0.64" stop-color="#3E9637"/>
<stop offset="0.93" stop-color="#3DA92E"/>
<stop offset="1" stop-color="#3DAE2B"/>
</linearGradient>
<clipPath id="clip0">
<rect width="176" height="51" fill="white"/>
</clipPath>
</defs>
</svg>
