<svg width="60" height="60" viewBox="0 0 60 60" fill="none" xmlns="http://www.w3.org/2000/svg">
<circle cx="30" cy="30" r="29.5" fill="white" stroke="#0074E0"/>
<path d="M48.1394 34.5597L43.6216 23.22C43.563 23.0731 43.4497 22.9547 43.3056 22.8897C43.1614 22.8247 42.9976 22.8181 42.8487 22.8714L37.9243 24.6334C37.8469 24.6611 37.7759 24.7042 37.7155 24.76C37.6552 24.8159 37.6067 24.8833 37.5731 24.9584C37.5395 25.0334 37.5213 25.1145 37.5198 25.1967C37.5182 25.2789 37.5333 25.3606 37.5641 25.4368L37.8877 26.239L35.8425 26.9106C35.0818 26.6169 32.4034 25.5797 31.6488 25.2396C30.4443 24.6987 29.3429 25.1285 28.0651 25.946C27.1646 25.2567 26.3209 25.2524 25.1798 25.8978C24.3861 26.3459 23.1492 27.0919 22.5772 27.4387L21.612 26.8947L22.0552 25.9704C22.124 25.8267 22.1339 25.6618 22.0828 25.5109C22.0317 25.36 21.9237 25.235 21.7817 25.1627L17.3549 22.9038C17.2833 22.8673 17.2052 22.8452 17.1251 22.8389C17.045 22.8326 16.9644 22.8422 16.888 22.8671C16.8116 22.892 16.7409 22.9317 16.6799 22.984C16.6189 23.0363 16.5688 23.1001 16.5325 23.1718L11.0659 33.9681C10.9931 34.1119 10.98 34.2787 11.0297 34.4321C11.0793 34.5855 11.1876 34.713 11.3309 34.7868L15.9842 37.1813C16.0707 37.2258 16.1666 37.2491 16.2639 37.249C16.3301 37.2492 16.396 37.2382 16.4586 37.2167C16.5359 37.1907 16.6073 37.1495 16.6684 37.0955C16.7295 37.0415 16.7792 36.9758 16.8145 36.9023L17.1693 36.1623L17.7309 36.547C17.6221 36.7649 17.5265 36.9891 17.4446 37.2185C17.4251 37.2797 17.4152 37.3436 17.4153 37.4078C17.4153 38.9451 18.9971 39.7949 19.6638 40.0849C19.7728 40.4249 19.9539 40.7374 20.1949 41.0008C20.4359 41.2643 20.7311 41.4725 21.0601 41.6112C21.1988 41.6521 21.3428 41.6726 21.4874 41.6722C21.7102 41.6694 21.9303 41.6229 22.1352 41.5355C22.3456 41.9933 22.692 42.3751 23.1273 42.6289C23.5169 42.8359 23.9657 42.9034 24.399 42.82C24.6663 43.3062 25.0772 43.698 25.5754 43.9421C25.7587 44.0183 25.9551 44.0577 26.1536 44.0581C26.3598 44.0581 26.5639 44.0166 26.7537 43.936C27.2768 43.7056 27.7269 43.3366 28.0553 42.8688C28.3606 43.113 28.827 43.4793 29.346 43.8927C29.7441 44.1932 30.2319 44.3506 30.7306 44.3396C31.1483 44.3394 31.5603 44.2428 31.9346 44.0575C32.2111 43.9254 32.457 43.7372 32.6568 43.5048C32.8565 43.2724 33.0056 43.0009 33.0945 42.7077C33.3111 42.7045 33.5266 42.6767 33.7368 42.6246C34.1225 42.5303 34.4836 42.3546 34.7958 42.1093C35.108 41.8639 35.3641 41.5546 35.547 41.2021C35.6636 41.2197 35.7813 41.2289 35.8992 41.2296C36.4799 41.2257 37.0459 41.0462 37.5227 40.7148C37.9995 40.3833 38.3649 39.9154 38.5708 39.3724C38.5977 39.3724 38.6227 39.3773 38.6496 39.3773C39.2834 39.3961 39.8997 39.1683 40.3688 38.7418C40.6837 38.4533 40.8984 38.0719 40.9817 37.653C41.065 37.2342 41.0127 36.7997 40.8322 36.4126L41.8139 35.978L42.1723 36.8669C42.2178 36.9797 42.296 37.0764 42.3968 37.1445C42.4977 37.2126 42.6165 37.249 42.7382 37.249C42.813 37.2492 42.8871 37.2353 42.9568 37.2081L47.7908 35.3558C47.866 35.3269 47.9348 35.2833 47.9931 35.2277C48.0513 35.172 48.098 35.1054 48.1305 35.0316C48.1629 34.9578 48.1803 34.8784 48.1819 34.7978C48.1834 34.7172 48.169 34.6371 48.1394 34.5622V34.5597ZM15.9849 35.8082L12.4292 33.9767L17.3451 24.2695L20.6968 25.979L15.9849 35.8082ZM18.6412 37.5006C18.8241 37.0454 19.0596 36.613 19.3427 36.2124C19.4566 36.1225 19.5947 36.0687 19.7394 36.0578C19.884 36.0469 20.0286 36.0795 20.1547 36.1513C20.2044 36.1664 20.2504 36.1918 20.2896 36.2259C20.3287 36.2601 20.3602 36.3021 20.3818 36.3494C20.4035 36.3966 20.4148 36.4479 20.4152 36.4999C20.4155 36.5518 20.4047 36.6033 20.3836 36.6507C20.151 37.4023 19.9141 38.2137 19.7554 38.7698C19.2639 38.4951 18.7004 38.0494 18.6412 37.5006ZM21.4105 40.439C21.1779 40.37 20.9502 40.0043 20.8165 39.6844C21.2704 38.9168 21.7665 38.1749 22.3025 37.4621C22.4247 37.3001 22.6011 37.1875 22.7995 37.1448C22.9979 37.1021 23.205 37.1322 23.3831 37.2295C23.6273 37.398 23.4905 37.735 23.3336 37.9878C23.3287 37.9951 23.3287 38.0036 23.3245 38.0116C23.3159 38.0287 23.3019 38.0439 23.2939 38.0616C23.1865 38.3058 22.4856 39.4329 21.9905 40.207C21.8336 40.3352 21.5937 40.4927 21.4105 40.439ZM24.2982 41.5929C24.2028 41.6268 24.1014 41.6409 24.0003 41.6343C23.8992 41.6277 23.8005 41.6005 23.7103 41.5544C23.4212 41.3523 23.2105 41.0567 23.1138 40.7174C23.4734 40.152 24.2488 38.9206 24.4075 38.5629C24.4776 38.4845 24.5724 38.4324 24.6761 38.4151C24.7938 38.3952 24.9144 38.4 25.03 38.4295C25.1457 38.4589 25.2539 38.5123 25.3477 38.5861C25.4709 38.6673 25.5629 38.7879 25.6086 38.9282C25.6543 39.0685 25.651 39.2202 25.5992 39.3584L24.2982 41.5929ZM26.283 42.8078C25.9643 42.9415 25.6218 42.4763 25.4283 42.1521L26.6634 40.4652C26.7933 40.4614 26.9227 40.4839 27.0438 40.5313C27.1649 40.5787 27.2751 40.6501 27.3679 40.7412C27.428 40.8577 27.4643 40.985 27.4748 41.1157C27.4853 41.2464 27.4697 41.3779 27.429 41.5025C27.2226 42.065 26.814 42.5304 26.283 42.8078ZM39.5055 37.8785C39.3274 38.01 39.1214 38.099 38.9035 38.1386C38.6856 38.1781 38.4616 38.1673 38.2485 38.1068C38.243 38.1068 38.2393 38.1019 38.2338 38.1007H38.2265C38.1687 38.0839 38.1134 38.0593 38.0623 38.0275C37.7027 37.7875 35.8205 35.9773 34.7185 34.8925C34.6015 34.7881 34.4488 34.7328 34.292 34.738C34.1353 34.7432 33.9866 34.8085 33.8767 34.9203C33.7668 35.0322 33.7042 35.182 33.7018 35.3388C33.6994 35.4956 33.7574 35.6473 33.8638 35.7624C34.3522 36.2447 36.8248 38.6685 37.3871 39.0433C37.2935 39.245 37.1605 39.426 36.996 39.5756C36.8315 39.7252 36.6388 39.8405 36.4292 39.9146C36.2537 39.9921 36.0621 40.0259 35.8707 40.0131C35.6793 40.0004 35.4939 39.9414 35.3302 39.8413C34.5402 39.1386 32.3998 36.9963 32.3747 36.9749C32.2596 36.8637 32.1054 36.8022 31.9453 36.8036C31.7852 36.805 31.6321 36.8692 31.5189 36.9824C31.4057 37.0956 31.3415 37.2487 31.3401 37.4088C31.3387 37.5688 31.4003 37.723 31.5115 37.8382C31.5975 37.9243 33.5787 39.9042 34.4419 40.6844C34.3354 40.8712 34.192 41.0344 34.0205 41.1642C33.8491 41.294 33.6531 41.3877 33.4444 41.4396C33.2987 41.4888 33.1443 41.5069 32.9912 41.4927C32.838 41.4785 32.6896 41.4324 32.5554 41.3572L30.3851 39.188C30.3283 39.1314 30.261 39.0864 30.1869 39.0557C30.1128 39.0251 30.0334 39.0093 29.9532 39.0093C29.873 39.0094 29.7936 39.0252 29.7196 39.0559C29.6455 39.0866 29.5782 39.1316 29.5215 39.1883C29.4648 39.2451 29.4199 39.3124 29.3892 39.3865C29.3585 39.4606 29.3428 39.54 29.3428 39.6202C29.3428 39.7004 29.3586 39.7798 29.3894 39.8539C29.4201 39.9279 29.4651 39.9952 29.5218 40.0519L31.6903 42.2205C31.7597 42.2866 31.8355 42.3456 31.9168 42.3963C31.871 42.5211 31.8009 42.6356 31.7104 42.7331C31.62 42.8306 31.511 42.9091 31.39 42.9641C31.1922 43.0708 30.9702 43.1246 30.7456 43.1201C30.5209 43.1156 30.3012 43.053 30.1079 42.9384C29.4662 42.425 28.9021 41.9811 28.6243 41.7626C28.7076 41.4698 28.7267 41.1625 28.6802 40.8616C28.6337 40.5608 28.5228 40.2736 28.3551 40.0196C28.1742 39.792 27.9464 39.6061 27.6873 39.4743C27.4281 39.3425 27.1437 39.268 26.8532 39.2558C26.8814 38.9298 26.8212 38.6022 26.6789 38.3075C26.5367 38.0129 26.3177 37.7619 26.0449 37.5812C25.6571 37.3031 25.187 37.1638 24.7103 37.1856C24.6331 36.7957 24.4068 36.4514 24.0797 36.2258C23.7052 35.9903 23.2651 35.881 22.8239 35.9139C22.3828 35.9469 21.9638 36.1204 21.6285 36.409C21.6118 36.1191 21.5158 35.8394 21.3508 35.6004C21.1859 35.3615 20.9583 35.1725 20.6931 35.0542C20.3119 34.8505 19.8724 34.783 19.4476 34.8629C19.0227 34.9429 18.6379 35.1654 18.3567 35.4938L17.7028 35.0463L21.0827 27.9949L22.289 28.675C22.3836 28.7283 22.4906 28.7554 22.5991 28.7536C22.7075 28.7517 22.8136 28.721 22.9063 28.6646C22.9252 28.653 24.7622 27.5333 25.7806 26.9552C26.291 26.667 26.6151 26.5718 26.9405 26.6859C26.0403 27.3685 25.4349 28.3691 25.2482 29.4833C24.9885 30.2036 25.0249 30.9975 25.3495 31.6909C25.5201 31.9322 25.739 32.1353 25.9925 32.2872C26.2459 32.4391 26.5283 32.5365 26.8215 32.5731C27.0631 32.6235 27.3127 32.6205 27.5531 32.5644C27.7934 32.5083 28.0186 32.4005 28.2129 32.2483C28.7647 31.8433 29.1491 31.2502 29.2935 30.581L29.9357 30.161C31.784 31.191 33.7102 32.0744 35.6965 32.8033C36.2662 33.3527 38.8584 35.8455 39.4817 36.547C39.5807 36.6266 39.6609 36.7269 39.7167 36.841C39.7726 36.955 39.8027 37.0799 39.805 37.2068C39.8073 37.3338 39.7816 37.4597 39.7299 37.5757C39.6781 37.6916 39.6016 37.7954 39.5055 37.8785ZM40.0868 35.4083C39.0397 34.318 36.5458 31.9284 36.4292 31.8155C36.3541 31.7439 36.2621 31.6924 36.1618 31.6659C34.3589 31.194 30.2398 28.943 30.2013 28.9186C30.1043 28.8654 29.9947 28.8396 29.8841 28.8439C29.7736 28.8482 29.6663 28.8825 29.5737 28.943L28.3985 29.7122C28.3214 29.763 28.2569 29.8306 28.2097 29.9099C28.1626 29.9892 28.134 30.0782 28.1262 30.1701C28.1025 30.3842 28.0352 30.5912 27.9286 30.7783C27.8219 30.9654 27.678 31.1287 27.5059 31.2581C27.4476 31.3089 27.3788 31.3462 27.3043 31.3673C27.2299 31.3884 27.1518 31.3928 27.0755 31.3802C26.7189 31.2916 26.4955 31.2263 26.399 31.0651C26.3239 30.943 26.2287 30.6079 26.435 29.7831C26.838 28.1719 27.3734 27.8294 28.4406 27.1536L28.7025 26.9863C30.031 26.1316 30.6055 26.1066 31.1494 26.352C32.0579 26.7604 35.4633 28.0712 35.6062 28.1267C35.7374 28.1768 35.8817 28.1805 36.0152 28.1371L38.345 27.3734L41.3566 34.8442L40.0868 35.4083ZM43.0783 35.854L38.9323 25.5687L42.7034 24.2195L46.7743 34.437L43.0783 35.854Z" fill="#0074E0"/>
</svg>
