<svg width="100" height="100" viewBox="0 0 100 100" fill="none" xmlns="http://www.w3.org/2000/svg">
<path d="M12 26C12 21.0294 16.0294 17 21 17H80C84.9706 17 89 21.0294 89 26V31H12V26Z" fill="#BDF3FF"/>
<path d="M83.1034 17H16.8966C13.0924 17 10 20.0952 10 23.8966V76.3104C10 80.1117 13.0924 83.2069 16.8966 83.2069H83.1034C86.9076 83.2069 90 80.1117 90 76.3104V23.8966C90 20.0952 86.9076 17 83.1034 17ZM16.8966 19.7586H83.1034C85.3848 19.7586 87.2414 21.6152 87.2414 23.8966V28.0345H12.7586V23.8966C12.7586 21.6152 14.6152 19.7586 16.8966 19.7586ZM83.1034 80.4483H16.8966C14.6152 80.4483 12.7586 78.5917 12.7586 76.3104V30.7931H87.2414V76.3104C87.2414 78.5917 85.3848 80.4483 83.1034 80.4483Z" fill="#0074E0"/>
<path d="M16.8969 25.2758C17.6587 25.2758 18.2762 24.6583 18.2762 23.8965C18.2762 23.1348 17.6587 22.5172 16.8969 22.5172C16.1351 22.5172 15.5176 23.1348 15.5176 23.8965C15.5176 24.6583 16.1351 25.2758 16.8969 25.2758Z" fill="#0074E0"/>
<path d="M22.4135 25.2758C23.1753 25.2758 23.7928 24.6583 23.7928 23.8965C23.7928 23.1348 23.1753 22.5172 22.4135 22.5172C21.6517 22.5172 21.0342 23.1348 21.0342 23.8965C21.0342 24.6583 21.6517 25.2758 22.4135 25.2758Z" fill="#0074E0"/>
<path d="M27.9311 25.2758C28.6928 25.2758 29.3104 24.6583 29.3104 23.8965C29.3104 23.1348 28.6928 22.5172 27.9311 22.5172C27.1693 22.5172 26.5518 23.1348 26.5518 23.8965C26.5518 24.6583 27.1693 25.2758 27.9311 25.2758Z" fill="#0074E0"/>
<path d="M59.6071 62.6059L60.6564 67.9705L57.4631 70.1914L52.8076 67.3247C52.5779 67.4172 52.3575 67.4451 52.1095 67.4823L49.0586 72.0006L45.2438 71.319L43.9833 66.0104C43.7625 65.9006 43.56 65.7539 43.3759 65.6164L38.0392 66.6565L35.8181 63.4631L38.6757 58.8262C38.6109 58.5872 38.5553 58.376 38.5273 58.1556L34 55.0771L34.6814 51.2624L40.0178 49.9924C40.1183 49.7903 40.2375 49.5969 40.3749 49.4128L39.3531 44.0393L42.5373 41.8368L47.1743 44.6943C47.404 44.6018 47.6246 44.5737 47.8725 44.5365L50.9324 40L54.7381 40.6998L55.9987 46.0086C56.2194 46.1184 56.4219 46.2651 56.6151 46.3842L61.9612 45.3715L64.1729 48.5375L61.3062 53.1929C61.3802 53.4134 61.4266 53.643 61.4547 53.8634L66.0003 56.9511L65.3005 60.7567L59.9827 62.0356C59.8912 62.2195 59.7444 62.4221 59.6071 62.6059Z" fill="#BDF3FF" stroke="#0074E0" stroke-width="2.2" stroke-miterlimit="10" stroke-linecap="round" stroke-linejoin="round"/>
<path d="M56.8724 57.2533C56.1857 61.0535 52.559 63.5734 48.7523 62.8868C44.9455 62.2001 42.4322 58.5733 43.1189 54.7666C43.8055 50.9599 47.4322 48.4465 51.239 49.1332C55.0391 49.8199 57.5591 53.4466 56.8724 57.2533Z" fill="white" stroke="#0074E0" stroke-width="2.2" stroke-miterlimit="10" stroke-linecap="round" stroke-linejoin="round"/>
</svg>
