<svg width="60" height="60" viewBox="0 0 60 60" fill="none" xmlns="http://www.w3.org/2000/svg">
<circle cx="30" cy="30" r="29.5" fill="white" stroke="#2C4470"/>
<path d="M19.606 33.0938L19.9609 32.7402L19.6067 32.3861L17.0615 29.8409C16.9805 29.7599 16.9802 29.6287 17.0607 29.5473C17.1418 29.4653 17.2743 29.4649 17.3559 29.5465L19.8955 32.0862L20.249 32.4397L20.6026 32.0862L23.1422 29.5465C23.2238 29.4649 23.3563 29.4653 23.4374 29.5473L23.7842 29.2044L23.4374 29.5473C23.5179 29.6287 23.5176 29.7599 23.4366 29.8409L20.8914 32.3861L20.5372 32.7402L20.8921 33.0938L23.4359 35.6284C23.5169 35.709 23.5173 35.84 23.437 35.9213C23.3561 36.0031 23.224 36.0034 23.1427 35.9221L20.6026 33.382L20.249 33.0284L19.8955 33.382L17.3554 35.9221C17.274 36.0034 17.142 36.0031 17.0611 35.9213C16.9808 35.84 16.9812 35.709 17.0622 35.6284L19.606 33.0938Z" fill="white" stroke="#2C4470"/>
<circle cx="20.1482" cy="20.1482" r="3.54816" stroke="#2C4470" stroke-width="1.2"/>
<circle cx="39.8523" cy="39.8519" r="3.54816" stroke="#2C4470" stroke-width="1.2"/>
<path d="M36.3741 18.0895L36.5385 17.8703L36.7028 18.0895L41.5916 24.6078C41.6601 24.6991 41.6418 24.8286 41.5507 24.8974C41.4592 24.9664 41.329 24.948 41.2602 24.8563L37.9012 20.3777L36.9422 19.099L37.0016 20.6963C37.0113 20.9593 37.0123 21.2215 37.0123 21.4966C37.0123 32.8609 27.9692 42.1314 16.6934 42.4976C16.5941 42.5008 16.5 42.4187 16.5 42.3006C16.5 42.1911 16.5927 42.0845 16.7267 42.0799C27.7729 41.6975 36.5958 32.6365 36.5958 21.4966C36.5958 20.9983 36.5746 20.5071 36.5392 20.0216L36.4421 18.6893L35.6405 19.758L31.8168 24.8563C31.748 24.948 31.6178 24.9664 31.5263 24.8974C31.4352 24.8286 31.4169 24.6991 31.4854 24.6078L36.3741 18.0895Z" fill="#0074E0" stroke="#0074E0"/>
</svg>
