<svg width="34" height="34" viewBox="0 0 34 34" fill="none" xmlns="http://www.w3.org/2000/svg">
<path d="M4.08008 10.54C4.08008 7.91115 6.2112 5.78003 8.84008 5.78003H25.5001C28.129 5.78003 30.2601 7.91115 30.2601 10.54V10.54H4.08008V10.54Z" fill="#BDF3FF"/>
<path d="M28.2551 5.78003H5.74473C4.45132 5.78003 3.3999 6.83239 3.3999 8.12486V25.9455C3.3999 27.238 4.45132 28.2904 5.74473 28.2904H28.2551C29.5485 28.2904 30.5999 27.238 30.5999 25.9455V8.12486C30.5999 6.83239 29.5485 5.78003 28.2551 5.78003ZM5.74473 6.71796H28.2551C29.0307 6.71796 29.662 7.34919 29.662 8.12486V9.53175H4.33783V8.12486C4.33783 7.34919 4.96906 6.71796 5.74473 6.71796ZM28.2551 27.3524H5.74473C4.96906 27.3524 4.33783 26.7212 4.33783 25.9455V10.4697H29.662V25.9455C29.662 26.7212 29.0307 27.3524 28.2551 27.3524Z" fill="#0074E0"/>
<path d="M5.74436 8.59381C6.00336 8.59381 6.21332 8.38385 6.21332 8.12485C6.21332 7.86585 6.00336 7.65588 5.74436 7.65588C5.48535 7.65588 5.27539 7.86585 5.27539 8.12485C5.27539 8.38385 5.48535 8.59381 5.74436 8.59381Z" fill="#0074E0"/>
<path d="M7.62082 8.59381C7.87982 8.59381 8.08979 8.38385 8.08979 8.12485C8.08979 7.86585 7.87982 7.65588 7.62082 7.65588C7.36182 7.65588 7.15186 7.86585 7.15186 8.12485C7.15186 8.38385 7.36182 8.59381 7.62082 8.59381Z" fill="#0074E0"/>
<path d="M9.49631 8.59381C9.75531 8.59381 9.96528 8.38385 9.96528 8.12485C9.96528 7.86585 9.75531 7.65588 9.49631 7.65588C9.23731 7.65588 9.02734 7.86585 9.02734 8.12485C9.02734 8.38385 9.23731 8.59381 9.49631 8.59381Z" fill="#0074E0"/>
<path d="M20.2665 21.286L20.6232 23.1099L19.5375 23.865L17.9546 22.8904C17.8766 22.9218 17.8016 22.9313 17.7173 22.9439L16.68 24.4802L15.3829 24.2484L14.9544 22.4435C14.8793 22.4062 14.8104 22.3563 14.7479 22.3096L12.9334 22.6632L12.1782 21.5774L13.1498 20.0009C13.1278 19.9196 13.1089 19.8478 13.0993 19.7729L11.5601 18.7262L11.7917 17.4292L13.6061 16.9974C13.6403 16.9287 13.6808 16.8629 13.7275 16.8003L13.3801 14.9733L14.4627 14.2245L16.0393 15.196C16.1174 15.1646 16.1924 15.155 16.2767 15.1424L17.3171 13.6L18.611 13.8379L19.0396 15.6429C19.1147 15.6802 19.1835 15.7301 19.2492 15.7706L21.0669 15.4263L21.8188 16.5027L20.8442 18.0855C20.8693 18.1605 20.8851 18.2386 20.8946 18.3135L22.4402 19.3633L22.2022 20.6572L20.3942 21.0921C20.3631 21.1546 20.3132 21.2235 20.2665 21.286Z" fill="#BDF3FF" stroke="#0074E0" stroke-miterlimit="10" stroke-linecap="round" stroke-linejoin="round"/>
<path d="M19.3367 19.4661C19.1032 20.7582 17.8701 21.615 16.5759 21.3815C15.2816 21.1481 14.427 19.9149 14.6605 18.6206C14.894 17.3264 16.127 16.4718 17.4213 16.7053C18.7134 16.9388 19.5702 18.1718 19.3367 19.4661Z" fill="white" stroke="#0074E0" stroke-miterlimit="10" stroke-linecap="round" stroke-linejoin="round"/>
</svg>
