<svg width="476" height="349" viewBox="0 0 476 349" fill="none" xmlns="http://www.w3.org/2000/svg">
<path d="M61.5 20C61.5 9.23046 70.2304 0.5 81 0.5H374C384.77 0.5 393.5 9.23045 393.5 20V242C393.5 252.77 384.77 261.5 374 261.5H81C70.2305 261.5 61.5 252.77 61.5 242V20Z" fill="white" stroke="#465D88"/>
<path d="M61 20C61 8.9543 69.9543 0 81 0H374C385.046 0 394 8.95431 394 20V52.5H61V20Z" fill="#2C4470"/>
<path d="M61.5 20C61.5 9.23045 70.2304 0.5 81 0.5H374C384.77 0.5 393.5 9.23045 393.5 20V52H61.5V20Z" stroke="#2C4470" stroke-opacity="0.42"/>
<circle cx="89.8623" cy="26.8623" r="7.86232" fill="#FE7171"/>
<path fill-rule="evenodd" clip-rule="evenodd" d="M472.34 342C470.495 342 469 343.495 469 345.34C469 347.185 470.495 348.68 472.34 348.68C474.184 348.68 475.68 347.185 475.68 345.34C475.68 343.495 474.184 342 472.34 342ZM452.34 342C450.495 342 449 343.495 449 345.34C449 347.185 450.495 348.68 452.34 348.68C454.184 348.68 455.68 347.185 455.68 345.34C455.68 343.495 454.184 342 452.34 342ZM429 345.34C429 343.495 430.495 342 432.34 342C434.184 342 435.68 343.495 435.68 345.34C435.68 347.185 434.184 348.68 432.34 348.68C430.495 348.68 429 347.185 429 345.34ZM412.34 342C410.495 342 409 343.495 409 345.34C409 347.185 410.495 348.68 412.34 348.68C414.184 348.68 415.68 347.185 415.68 345.34C415.68 343.495 414.184 342 412.34 342ZM389 345.34C389 343.495 390.495 342 392.34 342C394.184 342 395.68 343.495 395.68 345.34C395.68 347.185 394.184 348.68 392.34 348.68C390.495 348.68 389 347.185 389 345.34ZM372.34 342C370.495 342 369 343.495 369 345.34C369 347.185 370.495 348.68 372.34 348.68C374.184 348.68 375.68 347.185 375.68 345.34C375.68 343.495 374.184 342 372.34 342ZM349 345.34C349 343.495 350.495 342 352.34 342C354.184 342 355.68 343.495 355.68 345.34C355.68 347.185 354.184 348.68 352.34 348.68C350.495 348.68 349 347.185 349 345.34ZM332.34 342C330.495 342 329 343.495 329 345.34C329 347.185 330.495 348.68 332.34 348.68C334.184 348.68 335.68 347.185 335.68 345.34C335.68 343.495 334.184 342 332.34 342ZM469 325.34C469 323.495 470.495 322 472.34 322C474.184 322 475.68 323.495 475.68 325.34C475.68 327.185 474.184 328.68 472.34 328.68C470.495 328.68 469 327.185 469 325.34ZM452.34 322C450.495 322 449 323.495 449 325.34C449 327.185 450.495 328.68 452.34 328.68C454.184 328.68 455.68 327.185 455.68 325.34C455.68 323.495 454.184 322 452.34 322ZM429 325.34C429 323.495 430.495 322 432.34 322C434.184 322 435.68 323.495 435.68 325.34C435.68 327.185 434.184 328.68 432.34 328.68C430.495 328.68 429 327.185 429 325.34ZM412.34 322C410.495 322 409 323.495 409 325.34C409 327.185 410.495 328.68 412.34 328.68C414.184 328.68 415.68 327.185 415.68 325.34C415.68 323.495 414.184 322 412.34 322ZM389 325.34C389 323.495 390.495 322 392.34 322C394.184 322 395.68 323.495 395.68 325.34C395.68 327.185 394.184 328.68 392.34 328.68C390.495 328.68 389 327.185 389 325.34ZM372.34 322C370.495 322 369 323.495 369 325.34C369 327.185 370.495 328.68 372.34 328.68C374.184 328.68 375.68 327.185 375.68 325.34C375.68 323.495 374.184 322 372.34 322ZM349 325.34C349 323.495 350.495 322 352.34 322C354.184 322 355.68 323.495 355.68 325.34C355.68 327.185 354.184 328.68 352.34 328.68C350.495 328.68 349 327.185 349 325.34ZM332.34 322C330.495 322 329 323.495 329 325.34C329 327.185 330.495 328.68 332.34 328.68C334.184 328.68 335.68 327.185 335.68 325.34C335.68 323.495 334.184 322 332.34 322ZM469 305.34C469 303.495 470.495 302 472.34 302C474.184 302 475.68 303.495 475.68 305.34C475.68 307.185 474.184 308.68 472.34 308.68C470.495 308.68 469 307.185 469 305.34ZM452.34 302C450.495 302 449 303.495 449 305.34C449 307.185 450.495 308.68 452.34 308.68C454.184 308.68 455.68 307.185 455.68 305.34C455.68 303.495 454.184 302 452.34 302ZM429 305.34C429 303.495 430.495 302 432.34 302C434.184 302 435.68 303.495 435.68 305.34C435.68 307.185 434.184 308.68 432.34 308.68C430.495 308.68 429 307.185 429 305.34ZM412.34 302C410.495 302 409 303.495 409 305.34C409 307.185 410.495 308.68 412.34 308.68C414.184 308.68 415.68 307.185 415.68 305.34C415.68 303.495 414.184 302 412.34 302ZM389 305.34C389 303.495 390.495 302 392.34 302C394.184 302 395.68 303.495 395.68 305.34C395.68 307.185 394.184 308.68 392.34 308.68C390.495 308.68 389 307.185 389 305.34ZM372.34 302C370.495 302 369 303.495 369 305.34C369 307.185 370.495 308.68 372.34 308.68C374.184 308.68 375.68 307.185 375.68 305.34C375.68 303.495 374.184 302 372.34 302ZM349 305.34C349 303.495 350.495 302 352.34 302C354.184 302 355.68 303.495 355.68 305.34C355.68 307.185 354.184 308.68 352.34 308.68C350.495 308.68 349 307.185 349 305.34ZM332.34 302C330.495 302 329 303.495 329 305.34C329 307.185 330.495 308.68 332.34 308.68C334.184 308.68 335.68 307.185 335.68 305.34C335.68 303.495 334.184 302 332.34 302ZM469 285.34C469 283.495 470.495 282 472.34 282C474.184 282 475.68 283.495 475.68 285.34C475.68 287.185 474.184 288.68 472.34 288.68C470.495 288.68 469 287.185 469 285.34ZM452.34 282C450.495 282 449 283.495 449 285.34C449 287.185 450.495 288.68 452.34 288.68C454.184 288.68 455.68 287.185 455.68 285.34C455.68 283.495 454.184 282 452.34 282ZM429 285.34C429 283.495 430.495 282 432.34 282C434.184 282 435.68 283.495 435.68 285.34C435.68 287.185 434.184 288.68 432.34 288.68C430.495 288.68 429 287.185 429 285.34ZM412.34 282C410.495 282 409 283.495 409 285.34C409 287.185 410.495 288.68 412.34 288.68C414.184 288.68 415.68 287.185 415.68 285.34C415.68 283.495 414.184 282 412.34 282ZM389 285.34C389 283.495 390.495 282 392.34 282C394.184 282 395.68 283.495 395.68 285.34C395.68 287.185 394.184 288.68 392.34 288.68C390.495 288.68 389 287.185 389 285.34ZM372.34 282C370.495 282 369 283.495 369 285.34C369 287.185 370.495 288.68 372.34 288.68C374.184 288.68 375.68 287.185 375.68 285.34C375.68 283.495 374.184 282 372.34 282ZM349 285.34C349 283.495 350.495 282 352.34 282C354.184 282 355.68 283.495 355.68 285.34C355.68 287.185 354.184 288.68 352.34 288.68C350.495 288.68 349 287.185 349 285.34ZM332.34 282C330.495 282 329 283.495 329 285.34C329 287.185 330.495 288.68 332.34 288.68C334.184 288.68 335.68 287.185 335.68 285.34C335.68 283.495 334.184 282 332.34 282ZM469 265.34C469 263.495 470.495 262 472.34 262C474.184 262 475.68 263.495 475.68 265.34C475.68 267.185 474.184 268.68 472.34 268.68C470.495 268.68 469 267.185 469 265.34ZM452.34 262C450.495 262 449 263.495 449 265.34C449 267.185 450.495 268.68 452.34 268.68C454.184 268.68 455.68 267.185 455.68 265.34C455.68 263.495 454.184 262 452.34 262ZM429 265.34C429 263.495 430.495 262 432.34 262C434.184 262 435.68 263.495 435.68 265.34C435.68 267.185 434.184 268.68 432.34 268.68C430.495 268.68 429 267.185 429 265.34ZM412.34 262C410.495 262 409 263.495 409 265.34C409 267.185 410.495 268.68 412.34 268.68C414.184 268.68 415.68 267.185 415.68 265.34C415.68 263.495 414.184 262 412.34 262ZM469 245.34C469 243.495 470.495 242 472.34 242C474.184 242 475.68 243.495 475.68 245.34C475.68 247.185 474.184 248.68 472.34 248.68C470.495 248.68 469 247.185 469 245.34ZM452.34 242C450.495 242 449 243.495 449 245.34C449 247.185 450.495 248.68 452.34 248.68C454.184 248.68 455.68 247.185 455.68 245.34C455.68 243.495 454.184 242 452.34 242ZM429 245.34C429 243.495 430.495 242 432.34 242C434.184 242 435.68 243.495 435.68 245.34C435.68 247.185 434.184 248.68 432.34 248.68C430.495 248.68 429 247.185 429 245.34ZM412.34 242C410.495 242 409 243.495 409 245.34C409 247.185 410.495 248.68 412.34 248.68C414.184 248.68 415.68 247.185 415.68 245.34C415.68 243.495 414.184 242 412.34 242ZM469 225.34C469 223.495 470.495 222 472.34 222C474.184 222 475.68 223.495 475.68 225.34C475.68 227.185 474.184 228.68 472.34 228.68C470.495 228.68 469 227.185 469 225.34ZM452.34 222C450.495 222 449 223.495 449 225.34C449 227.185 450.495 228.68 452.34 228.68C454.184 228.68 455.68 227.185 455.68 225.34C455.68 223.495 454.184 222 452.34 222ZM429 225.34C429 223.495 430.495 222 432.34 222C434.184 222 435.68 223.495 435.68 225.34C435.68 227.185 434.184 228.68 432.34 228.68C430.495 228.68 429 227.185 429 225.34ZM412.34 222C410.495 222 409 223.495 409 225.34C409 227.185 410.495 228.68 412.34 228.68C414.184 228.68 415.68 227.185 415.68 225.34C415.68 223.495 414.184 222 412.34 222ZM469 205.34C469 203.495 470.495 202 472.34 202C474.184 202 475.68 203.495 475.68 205.34C475.68 207.185 474.184 208.68 472.34 208.68C470.495 208.68 469 207.185 469 205.34ZM452.34 202C450.495 202 449 203.495 449 205.34C449 207.185 450.495 208.68 452.34 208.68C454.184 208.68 455.68 207.185 455.68 205.34C455.68 203.495 454.184 202 452.34 202ZM429 205.34C429 203.495 430.495 202 432.34 202C434.184 202 435.68 203.495 435.68 205.34C435.68 207.185 434.184 208.68 432.34 208.68C430.495 208.68 429 207.185 429 205.34ZM412.34 202C410.495 202 409 203.495 409 205.34C409 207.185 410.495 208.68 412.34 208.68C414.184 208.68 415.68 207.185 415.68 205.34C415.68 203.495 414.184 202 412.34 202Z" fill="#2C4470" fill-opacity="0.1"/>
<circle cx="114.572" cy="26.8623" r="7.86232" fill="#FFC369"/>
<circle cx="139.282" cy="26.8623" r="7.86232" fill="#1CC298"/>
<circle cx="47.5" cy="220.5" r="47.5" fill="#FFC42D"/>
<circle cx="229.5" cy="258.5" r="33.5" fill="#2C4470"/>
<path d="M227.97 262.159C229.743 262.159 231.181 260.722 231.181 258.949C231.181 257.176 229.743 255.738 227.97 255.738C226.197 255.738 224.76 257.176 224.76 258.949C224.76 260.722 226.197 262.159 227.97 262.159Z" fill="#00B3EC"/>
<path d="M227.971 266.303C223.462 266.303 219.522 265.773 216.574 264.762C214.662 264.11 213.038 263.24 211.88 262.249C210.652 261.2 210 260.055 210 258.949C210 256.826 212.328 254.747 216.235 253.391C219.433 252.279 223.603 251.658 227.964 251.658C232.249 251.658 236.361 252.259 239.539 253.359C241.4 253.999 242.967 254.83 244.08 255.751C245.289 256.762 245.928 257.868 245.928 258.949C245.928 261.155 243.325 263.387 239.13 264.775C236.163 265.76 232.198 266.303 227.971 266.303ZM227.971 253.193C223.833 253.193 219.74 253.794 216.747 254.837C213.153 256.09 211.541 257.804 211.541 258.949C211.541 260.138 213.274 262.012 217.073 263.31C219.861 264.263 223.635 264.769 227.971 264.769C232.038 264.769 235.83 264.257 238.651 263.317C242.596 262.006 244.4 260.132 244.4 258.949C244.4 258.341 243.939 257.625 243.102 256.928C242.136 256.122 240.729 255.387 239.047 254.805C236.022 253.769 232.089 253.193 227.971 253.193Z" fill="#00B3EC"/>
<path d="M220.686 274.95C220.033 274.95 219.458 274.809 218.972 274.528C217.136 273.466 216.497 270.409 217.271 266.348C217.904 263.016 219.451 259.102 221.632 255.323C223.775 251.614 226.345 248.352 228.884 246.146C230.368 244.854 231.871 243.907 233.227 243.408C234.704 242.865 235.983 242.865 236.917 243.402C238.829 244.502 239.462 247.879 238.567 252.202C237.933 255.272 236.424 258.974 234.314 262.639C232.063 266.54 229.633 269.686 227.285 271.739C225.763 273.069 224.197 274.042 222.764 274.547C222.016 274.815 221.312 274.95 220.686 274.95ZM222.291 255.706L222.956 256.09C220.89 259.672 219.362 263.515 218.773 266.636C218.064 270.377 218.748 272.628 219.733 273.197C219.976 273.338 220.296 273.415 220.686 273.415C221.958 273.415 223.96 272.609 226.275 270.588C228.494 268.65 230.816 265.632 232.984 261.878C235.017 258.354 236.463 254.811 237.064 251.901C237.902 247.828 237.179 245.333 236.149 244.739C235.625 244.438 234.774 244.476 233.751 244.854C232.568 245.289 231.231 246.139 229.888 247.31C227.477 249.407 225.015 252.528 222.956 256.097L222.291 255.706Z" fill="#00B3EC"/>
<path d="M235.255 274.969C233.515 274.969 231.309 273.92 229.007 271.937C226.436 269.725 223.82 266.431 221.633 262.652C219.484 258.942 217.949 255.086 217.303 251.78C216.926 249.848 216.856 248.077 217.099 246.651C217.367 245.097 218 243.99 218.941 243.447C220.846 242.34 224.089 243.479 227.389 246.414C229.729 248.493 232.185 251.652 234.302 255.31C236.559 259.211 238.075 262.888 238.676 265.945C239.066 267.928 239.13 269.769 238.855 271.266C238.561 272.858 237.896 273.99 236.937 274.547C236.457 274.828 235.888 274.969 235.255 274.969ZM222.963 261.884C225.035 265.465 227.606 268.708 230.011 270.774C232.895 273.255 235.184 273.792 236.176 273.216C237.205 272.622 237.96 270.185 237.18 266.246C236.604 263.355 235.152 259.838 232.978 256.084C230.938 252.56 228.591 249.535 226.372 247.565C223.264 244.803 220.744 244.182 219.714 244.777C219.19 245.078 218.8 245.839 218.614 246.913C218.403 248.154 218.467 249.74 218.813 251.486C219.427 254.626 220.898 258.316 222.963 261.884Z" fill="#00B3EC"/>
<path d="M105.5 329.5C131.734 329.5 153 308.234 153 282H58C58 308.234 79.2665 329.5 105.5 329.5Z" fill="#FFF8E7"/>
<path d="M135.999 291.2L113.655 299.168L117.063 328.712L135.999 339.2L154.935 328.712L158.343 299.168L135.999 291.2Z" fill="#DD0031"/>
<path d="M136 291.2V296.528V296.504V320.816V339.2L154.936 328.712L158.344 299.168L136 291.2Z" fill="#C3002F"/>
<path d="M135.999 296.504L122.031 327.824H127.239L130.047 320.816H141.903L144.711 327.824H149.919L135.999 296.504ZM140.079 316.496H131.919L135.999 306.68L140.079 316.496Z" fill="white"/>
<path d="M59.5817 232.26C61.7542 232.072 63.4392 230.16 63.3292 227.875C63.2142 225.59 61.3417 223.755 59.0592 223.755H58.9067C56.5492 223.832 54.7117 225.815 54.7867 228.177C54.8617 229.375 55.3517 230.35 56.0217 231.06C53.4017 236.155 49.4692 239.9 43.5117 243.047C39.5042 245.142 35.2717 245.932 31.1517 245.37C27.7067 244.885 25.0117 243.345 23.3617 240.875C20.8917 237.127 20.6667 233.085 22.7242 229.04C24.2267 226.117 26.4717 223.982 27.9717 222.932C27.5967 221.96 27.1467 220.312 26.9217 219.077C15.8317 227.02 16.9592 237.88 20.3292 243.012C22.8392 246.757 27.9717 249.152 33.5892 249.152C35.0867 249.152 36.6617 249.042 38.1967 248.667C47.9367 246.795 55.3142 240.952 59.5467 232.337L59.5817 232.26V232.26ZM72.9517 222.895C67.1492 216.077 58.6067 212.332 48.8667 212.332H47.5917C46.9592 210.947 45.4992 210.085 43.8492 210.085H43.7367C41.3792 210.085 39.5417 212.11 39.6192 214.467C39.6942 216.712 41.6042 218.587 43.8892 218.587H44.0742C45.7617 218.512 47.2217 217.462 47.8192 215.965H49.2067C54.9792 215.965 60.4442 217.65 65.4267 220.945C69.2442 223.455 71.9817 226.75 73.5167 230.685C74.8617 233.905 74.7892 237.052 73.4042 239.677C71.2692 243.795 67.6717 245.97 62.9167 245.97C59.9192 245.97 56.9992 245.032 55.4992 244.36C54.6017 245.105 53.1017 246.342 52.0142 247.092C55.3092 248.587 58.6442 249.45 61.8642 249.45C69.1692 249.45 74.5967 245.332 76.6592 241.36C78.9042 236.865 78.7192 229.3 72.9867 222.82L72.9517 222.895V222.895ZM34.2242 233.605C34.2967 235.852 36.2067 237.725 38.4942 237.725H38.6442C41.0417 237.65 42.8767 235.667 42.7642 233.305C42.7642 231.057 40.8167 229.187 38.5317 229.187H38.3792C38.2292 229.187 38.0067 229.187 37.8167 229.26C34.7092 224.015 33.3967 218.395 33.8867 212.332C34.1842 207.762 35.6842 203.79 38.3792 200.495C40.6267 197.685 44.8592 196.297 47.7442 196.225C55.8342 196.072 59.2067 206.152 59.4667 210.16L63.2117 211.282C62.3492 198.997 54.7117 192.552 47.4067 192.552C40.5517 192.552 34.2242 197.535 31.6742 204.84C28.1917 214.58 30.4767 223.942 34.7467 231.435C34.3742 231.922 34.1492 232.782 34.2242 233.605V233.605Z" fill="white"/>
<path fill-rule="evenodd" clip-rule="evenodd" d="M147 72H84V128H147V72ZM377 72H162V128H377V72ZM162 136H228V192H162V136ZM302 136H237V192H302V136ZM311 136H377V192H311V136ZM147 136H84V141H147V136ZM84 149H147V154H84V149ZM129 162H84V167H129V162Z" fill="#2C4470" fill-opacity="0.2"/>
</svg>
