<svg width="60" height="60" viewBox="0 0 60 60" fill="none" xmlns="http://www.w3.org/2000/svg">
<circle cx="30" cy="30" r="29.5" fill="white" stroke="#0074E0"/>
<path d="M32.9798 22.0048C32.8221 22.0197 32.6714 22.0772 32.5438 22.1711C32.4162 22.265 32.3165 22.3917 32.2554 22.5378L26.1318 36.5346C26.0393 36.7485 26.0356 36.9903 26.1215 37.2069C26.2074 37.4235 26.3758 37.5971 26.5897 37.6896C26.8036 37.782 27.0454 37.7857 27.262 37.6998C27.4786 37.614 27.6522 37.4456 27.7447 37.2317L33.8683 23.2349C33.9316 23.0946 33.9568 22.9401 33.9414 22.7869C33.9259 22.6338 33.8703 22.4874 33.7801 22.3626C33.69 22.2378 33.5686 22.139 33.428 22.0762C33.2875 22.0134 33.1329 21.9887 32.9798 22.0048ZM23.8354 22.8796C23.6381 22.8902 23.4502 22.9673 23.3023 23.0983L16.304 29.2218C16.2086 29.304 16.1321 29.4057 16.0796 29.5201C16.0272 29.6345 16 29.7589 16 29.8847C16 30.0106 16.0272 30.135 16.0796 30.2494C16.1321 30.3638 16.2086 30.4655 16.304 30.5477L23.3023 36.6713C23.3893 36.7472 23.4904 36.8053 23.5999 36.8421C23.7094 36.8789 23.825 36.8937 23.9402 36.8857C24.0554 36.8776 24.1679 36.8469 24.2712 36.7953C24.3745 36.7437 24.4666 36.6722 24.5422 36.5849C24.6178 36.4976 24.6754 36.3962 24.7118 36.2866C24.7481 36.177 24.7624 36.0613 24.7539 35.9461C24.7453 35.8309 24.7142 35.7186 24.6621 35.6155C24.61 35.5124 24.5381 35.4206 24.4505 35.3454L18.2039 29.8916L24.4505 24.4241C24.5919 24.3059 24.6924 24.1461 24.7377 23.9674C24.7829 23.7887 24.7705 23.6003 24.7023 23.4291C24.6341 23.2578 24.5136 23.1125 24.3579 23.0138C24.2023 22.9152 24.0194 22.8682 23.8354 22.8796V22.8796ZM36.0553 22.8796C35.8806 22.8906 35.7133 22.9537 35.5749 23.0609C35.4365 23.168 35.3334 23.3141 35.279 23.4804C35.2245 23.6468 35.2212 23.8256 35.2694 23.9938C35.3176 24.162 35.4152 24.3119 35.5495 24.4241L41.7961 29.8916L35.5495 35.3454C35.4619 35.4206 35.39 35.5124 35.3379 35.6155C35.2858 35.7186 35.2547 35.8309 35.2461 35.9461C35.2376 36.0613 35.2519 36.177 35.2882 36.2866C35.3246 36.3962 35.3822 36.4976 35.4578 36.5849C35.5334 36.6722 35.6255 36.7437 35.7288 36.7953C35.8321 36.8469 35.9446 36.8776 36.0598 36.8857C36.175 36.8937 36.2906 36.8789 36.4001 36.8421C36.5096 36.8053 36.6107 36.7472 36.6977 36.6713L43.696 30.5477C43.7914 30.4655 43.8679 30.3638 43.9204 30.2494C43.9728 30.135 44 30.0106 44 29.8847C44 29.7589 43.9728 29.6345 43.9204 29.5201C43.8679 29.4057 43.7914 29.304 43.696 29.2218L36.6977 23.0983C36.6105 23.0209 36.5088 22.9616 36.3985 22.9241C36.2882 22.8865 36.1715 22.8714 36.0553 22.8796V22.8796Z" fill="#0074E0"/>
</svg>
