<svg width="100" height="100" viewBox="0 0 100 100" fill="none" xmlns="http://www.w3.org/2000/svg">
<circle cx="50" cy="50" r="50" fill="#2C4470"/>
<path d="M49.9506 54.98C52.7231 54.98 54.9706 52.7324 54.9706 49.9599C54.9706 47.1875 52.7231 44.9399 49.9506 44.9399C47.1782 44.9399 44.9307 47.1875 44.9307 49.9599C44.9307 52.7324 47.1782 54.98 49.9506 54.98Z" fill="white"/>
<path d="M49.9506 61.4601C42.9006 61.4601 36.7406 60.6301 32.1306 59.0501C29.1406 58.0301 26.6006 56.6701 24.7906 55.1201C22.8706 53.4801 21.8506 51.6901 21.8506 49.9601C21.8506 46.6401 25.4906 43.3901 31.6006 41.2701C36.6006 39.5301 43.1206 38.5601 49.9406 38.5601C56.6406 38.5601 63.0706 39.5001 68.0406 41.2201C70.9506 42.2201 73.4006 43.5201 75.1406 44.9601C77.0306 46.5401 78.0306 48.2701 78.0306 49.9601C78.0306 53.4101 73.9606 56.9001 67.4006 59.0701C62.7606 60.6101 56.5606 61.4601 49.9506 61.4601ZM49.9506 40.9601C43.4806 40.9601 37.0806 41.9001 32.4006 43.5301C26.7806 45.4901 24.2606 48.1701 24.2606 49.9601C24.2606 51.8201 26.9706 54.7501 32.9106 56.7801C37.2706 58.2701 43.1706 59.0601 49.9506 59.0601C56.3106 59.0601 62.2406 58.2601 66.6506 56.7901C72.8206 54.7401 75.6406 51.8101 75.6406 49.9601C75.6406 49.0101 74.9206 47.8901 73.6106 46.8001C72.1006 45.5401 69.9006 44.3901 67.2706 43.4801C62.5406 41.8601 56.3906 40.9601 49.9506 40.9601Z" fill="white"/>
<path d="M38.5599 74.98C37.5399 74.98 36.6399 74.76 35.8799 74.32C33.0099 72.66 32.0099 67.88 33.2199 61.53C34.2099 56.32 36.6299 50.2 40.0399 44.29C43.3899 38.49 47.4099 33.39 51.3799 29.94C53.6999 27.92 56.0499 26.44 58.1699 25.66C60.4799 24.81 62.4799 24.81 63.9399 25.65C66.9299 27.37 67.9199 32.65 66.5199 39.41C65.5299 44.21 63.1699 50 59.8699 55.73C56.3499 61.83 52.5499 66.75 48.8799 69.96C46.4999 72.04 44.0499 73.56 41.8099 74.35C40.6399 74.77 39.5399 74.98 38.5599 74.98ZM41.0699 44.89L42.1099 45.49C38.8799 51.09 36.4899 57.1 35.5699 61.98C34.4599 67.83 35.5299 71.35 37.0699 72.24C37.4499 72.46 37.9499 72.58 38.5599 72.58C40.5499 72.58 43.6799 71.32 47.2999 68.16C50.7699 65.13 54.3999 60.41 57.7899 54.54C60.9699 49.03 63.2299 43.49 64.1699 38.94C65.4799 32.57 64.3499 28.67 62.7399 27.74C61.9199 27.27 60.5899 27.33 58.9899 27.92C57.1399 28.6 55.0499 29.93 52.9499 31.76C49.1799 35.04 45.3299 39.92 42.1099 45.5L41.0699 44.89Z" fill="white"/>
<path d="M61.3401 75.01C58.6201 75.01 55.1701 73.37 51.5701 70.27C47.5501 66.81 43.4601 61.66 40.0401 55.75C36.6801 49.95 34.2801 43.92 33.2701 38.75C32.6801 35.73 32.5701 32.96 32.9501 30.73C33.3701 28.3 34.3601 26.57 35.8301 25.72C38.8101 23.99 43.8801 25.77 49.0401 30.36C52.7001 33.61 56.5401 38.55 59.8501 44.27C63.3801 50.37 65.7501 56.12 66.6901 60.9C67.3001 64 67.4001 66.88 66.9701 69.22C66.5101 71.71 65.4701 73.48 63.9701 74.35C63.2201 74.79 62.3301 75.01 61.3401 75.01ZM42.1201 54.55C45.3601 60.15 49.3801 65.22 53.1401 68.45C57.6501 72.33 61.2301 73.17 62.7801 72.27C64.3901 71.34 65.5701 67.53 64.3501 61.37C63.4501 56.85 61.1801 51.35 57.7801 45.48C54.5901 39.97 50.9201 35.24 47.4501 32.16C42.5901 27.84 38.6501 26.87 37.0401 27.8C36.2201 28.27 35.6101 29.46 35.3201 31.14C34.9901 33.08 35.0901 35.56 35.6301 38.29C36.5901 43.2 38.8901 48.97 42.1201 54.55Z" fill="white"/>
</svg>
