<svg width="460" height="347" viewBox="0 0 460 347" fill="none" xmlns="http://www.w3.org/2000/svg">
<path d="M40.5 20C40.5 9.23046 49.2304 0.5 60 0.5H353C363.77 0.5 372.5 9.23045 372.5 20V242C372.5 252.77 363.77 261.5 353 261.5H60C49.2305 261.5 40.5 252.77 40.5 242V20Z" fill="white" stroke="#465D88"/>
<path d="M40 20C40 8.9543 48.9543 0 60 0H353C364.046 0 373 8.95431 373 20V52.5H40V20Z" fill="#2C4470"/>
<path d="M40.5 20C40.5 9.23045 49.2304 0.5 60 0.5H353C363.77 0.5 372.5 9.23045 372.5 20V52H40.5V20Z" stroke="#2C4470" stroke-opacity="0.42"/>
<circle cx="68.8623" cy="26.8623" r="7.86232" fill="#FE7171"/>
<path fill-rule="evenodd" clip-rule="evenodd" d="M3.34 91.68C5.18463 91.68 6.68 90.1846 6.68 88.34C6.68 86.4954 5.18463 85 3.34 85C1.49537 85 0 86.4954 0 88.34C0 90.1846 1.49537 91.68 3.34 91.68ZM23.34 91.68C25.1846 91.68 26.68 90.1846 26.68 88.34C26.68 86.4954 25.1846 85 23.34 85C21.4954 85 20 86.4954 20 88.34C20 90.1846 21.4954 91.68 23.34 91.68ZM46.68 88.34C46.68 90.1846 45.1846 91.68 43.34 91.68C41.4954 91.68 40 90.1846 40 88.34C40 86.4954 41.4954 85 43.34 85C45.1846 85 46.68 86.4954 46.68 88.34ZM63.34 91.68C65.1846 91.68 66.68 90.1846 66.68 88.34C66.68 86.4954 65.1846 85 63.34 85C61.4954 85 60 86.4954 60 88.34C60 90.1846 61.4954 91.68 63.34 91.68ZM86.68 88.34C86.68 90.1846 85.1846 91.68 83.34 91.68C81.4954 91.68 80 90.1846 80 88.34C80 86.4954 81.4954 85 83.34 85C85.1846 85 86.68 86.4954 86.68 88.34ZM103.34 91.68C105.185 91.68 106.68 90.1846 106.68 88.34C106.68 86.4954 105.185 85 103.34 85C101.495 85 100 86.4954 100 88.34C100 90.1846 101.495 91.68 103.34 91.68ZM126.68 88.34C126.68 90.1846 125.185 91.68 123.34 91.68C121.495 91.68 120 90.1846 120 88.34C120 86.4954 121.495 85 123.34 85C125.185 85 126.68 86.4954 126.68 88.34ZM143.34 91.68C145.185 91.68 146.68 90.1846 146.68 88.34C146.68 86.4954 145.185 85 143.34 85C141.495 85 140 86.4954 140 88.34C140 90.1846 141.495 91.68 143.34 91.68ZM6.68 108.34C6.68 110.185 5.18463 111.68 3.34 111.68C1.49537 111.68 0 110.185 0 108.34C0 106.495 1.49537 105 3.34 105C5.18463 105 6.68 106.495 6.68 108.34ZM23.34 111.68C25.1846 111.68 26.68 110.185 26.68 108.34C26.68 106.495 25.1846 105 23.34 105C21.4954 105 20 106.495 20 108.34C20 110.185 21.4954 111.68 23.34 111.68ZM46.68 108.34C46.68 110.185 45.1846 111.68 43.34 111.68C41.4954 111.68 40 110.185 40 108.34C40 106.495 41.4954 105 43.34 105C45.1846 105 46.68 106.495 46.68 108.34ZM63.34 111.68C65.1846 111.68 66.68 110.185 66.68 108.34C66.68 106.495 65.1846 105 63.34 105C61.4954 105 60 106.495 60 108.34C60 110.185 61.4954 111.68 63.34 111.68ZM86.68 108.34C86.68 110.185 85.1846 111.68 83.34 111.68C81.4954 111.68 80 110.185 80 108.34C80 106.495 81.4954 105 83.34 105C85.1846 105 86.68 106.495 86.68 108.34ZM103.34 111.68C105.185 111.68 106.68 110.185 106.68 108.34C106.68 106.495 105.185 105 103.34 105C101.495 105 100 106.495 100 108.34C100 110.185 101.495 111.68 103.34 111.68ZM126.68 108.34C126.68 110.185 125.185 111.68 123.34 111.68C121.495 111.68 120 110.185 120 108.34C120 106.495 121.495 105 123.34 105C125.185 105 126.68 106.495 126.68 108.34ZM143.34 111.68C145.185 111.68 146.68 110.185 146.68 108.34C146.68 106.495 145.185 105 143.34 105C141.495 105 140 106.495 140 108.34C140 110.185 141.495 111.68 143.34 111.68ZM6.68 128.34C6.68 130.185 5.18463 131.68 3.34 131.68C1.49537 131.68 0 130.185 0 128.34C0 126.495 1.49537 125 3.34 125C5.18463 125 6.68 126.495 6.68 128.34ZM23.34 131.68C25.1846 131.68 26.68 130.185 26.68 128.34C26.68 126.495 25.1846 125 23.34 125C21.4954 125 20 126.495 20 128.34C20 130.185 21.4954 131.68 23.34 131.68ZM46.68 128.34C46.68 130.185 45.1846 131.68 43.34 131.68C41.4954 131.68 40 130.185 40 128.34C40 126.495 41.4954 125 43.34 125C45.1846 125 46.68 126.495 46.68 128.34ZM63.34 131.68C65.1846 131.68 66.68 130.185 66.68 128.34C66.68 126.495 65.1846 125 63.34 125C61.4954 125 60 126.495 60 128.34C60 130.185 61.4954 131.68 63.34 131.68ZM86.68 128.34C86.68 130.185 85.1846 131.68 83.34 131.68C81.4954 131.68 80 130.185 80 128.34C80 126.495 81.4954 125 83.34 125C85.1846 125 86.68 126.495 86.68 128.34ZM103.34 131.68C105.185 131.68 106.68 130.185 106.68 128.34C106.68 126.495 105.185 125 103.34 125C101.495 125 100 126.495 100 128.34C100 130.185 101.495 131.68 103.34 131.68ZM126.68 128.34C126.68 130.185 125.185 131.68 123.34 131.68C121.495 131.68 120 130.185 120 128.34C120 126.495 121.495 125 123.34 125C125.185 125 126.68 126.495 126.68 128.34ZM143.34 131.68C145.185 131.68 146.68 130.185 146.68 128.34C146.68 126.495 145.185 125 143.34 125C141.495 125 140 126.495 140 128.34C140 130.185 141.495 131.68 143.34 131.68ZM6.68 148.34C6.68 150.185 5.18463 151.68 3.34 151.68C1.49537 151.68 0 150.185 0 148.34C0 146.495 1.49537 145 3.34 145C5.18463 145 6.68 146.495 6.68 148.34ZM23.34 151.68C25.1846 151.68 26.68 150.185 26.68 148.34C26.68 146.495 25.1846 145 23.34 145C21.4954 145 20 146.495 20 148.34C20 150.185 21.4954 151.68 23.34 151.68ZM46.68 148.34C46.68 150.185 45.1846 151.68 43.34 151.68C41.4954 151.68 40 150.185 40 148.34C40 146.495 41.4954 145 43.34 145C45.1846 145 46.68 146.495 46.68 148.34ZM63.34 151.68C65.1846 151.68 66.68 150.185 66.68 148.34C66.68 146.495 65.1846 145 63.34 145C61.4954 145 60 146.495 60 148.34C60 150.185 61.4954 151.68 63.34 151.68ZM86.68 148.34C86.68 150.185 85.1846 151.68 83.34 151.68C81.4954 151.68 80 150.185 80 148.34C80 146.495 81.4954 145 83.34 145C85.1846 145 86.68 146.495 86.68 148.34ZM103.34 151.68C105.185 151.68 106.68 150.185 106.68 148.34C106.68 146.495 105.185 145 103.34 145C101.495 145 100 146.495 100 148.34C100 150.185 101.495 151.68 103.34 151.68ZM126.68 148.34C126.68 150.185 125.185 151.68 123.34 151.68C121.495 151.68 120 150.185 120 148.34C120 146.495 121.495 145 123.34 145C125.185 145 126.68 146.495 126.68 148.34ZM143.34 151.68C145.185 151.68 146.68 150.185 146.68 148.34C146.68 146.495 145.185 145 143.34 145C141.495 145 140 146.495 140 148.34C140 150.185 141.495 151.68 143.34 151.68ZM6.68 168.34C6.68 170.185 5.18463 171.68 3.34 171.68C1.49537 171.68 0 170.185 0 168.34C0 166.495 1.49537 165 3.34 165C5.18463 165 6.68 166.495 6.68 168.34ZM23.34 171.68C25.1846 171.68 26.68 170.185 26.68 168.34C26.68 166.495 25.1846 165 23.34 165C21.4954 165 20 166.495 20 168.34C20 170.185 21.4954 171.68 23.34 171.68ZM46.68 168.34C46.68 170.185 45.1846 171.68 43.34 171.68C41.4954 171.68 40 170.185 40 168.34C40 166.495 41.4954 165 43.34 165C45.1846 165 46.68 166.495 46.68 168.34ZM63.34 171.68C65.1846 171.68 66.68 170.185 66.68 168.34C66.68 166.495 65.1846 165 63.34 165C61.4954 165 60 166.495 60 168.34C60 170.185 61.4954 171.68 63.34 171.68ZM6.68 188.34C6.68 190.185 5.18463 191.68 3.34 191.68C1.49537 191.68 0 190.185 0 188.34C0 186.495 1.49537 185 3.34 185C5.18463 185 6.68 186.495 6.68 188.34ZM23.34 191.68C25.1846 191.68 26.68 190.185 26.68 188.34C26.68 186.495 25.1846 185 23.34 185C21.4954 185 20 186.495 20 188.34C20 190.185 21.4954 191.68 23.34 191.68ZM46.68 188.34C46.68 190.185 45.1846 191.68 43.34 191.68C41.4954 191.68 40 190.185 40 188.34C40 186.495 41.4954 185 43.34 185C45.1846 185 46.68 186.495 46.68 188.34ZM63.34 191.68C65.1846 191.68 66.68 190.185 66.68 188.34C66.68 186.495 65.1846 185 63.34 185C61.4954 185 60 186.495 60 188.34C60 190.185 61.4954 191.68 63.34 191.68ZM6.68 208.34C6.68 210.185 5.18463 211.68 3.34 211.68C1.49537 211.68 0 210.185 0 208.34C0 206.495 1.49537 205 3.34 205C5.18463 205 6.68 206.495 6.68 208.34ZM23.34 211.68C25.1846 211.68 26.68 210.185 26.68 208.34C26.68 206.495 25.1846 205 23.34 205C21.4954 205 20 206.495 20 208.34C20 210.185 21.4954 211.68 23.34 211.68ZM46.68 208.34C46.68 210.185 45.1846 211.68 43.34 211.68C41.4954 211.68 40 210.185 40 208.34C40 206.495 41.4954 205 43.34 205C45.1846 205 46.68 206.495 46.68 208.34ZM63.34 211.68C65.1846 211.68 66.68 210.185 66.68 208.34C66.68 206.495 65.1846 205 63.34 205C61.4954 205 60 206.495 60 208.34C60 210.185 61.4954 211.68 63.34 211.68ZM6.68 228.34C6.68 230.185 5.18463 231.68 3.34 231.68C1.49537 231.68 0 230.185 0 228.34C0 226.495 1.49537 225 3.34 225C5.18463 225 6.68 226.495 6.68 228.34ZM23.34 231.68C25.1846 231.68 26.68 230.185 26.68 228.34C26.68 226.495 25.1846 225 23.34 225C21.4954 225 20 226.495 20 228.34C20 230.185 21.4954 231.68 23.34 231.68ZM46.68 228.34C46.68 230.185 45.1846 231.68 43.34 231.68C41.4954 231.68 40 230.185 40 228.34C40 226.495 41.4954 225 43.34 225C45.1846 225 46.68 226.495 46.68 228.34ZM63.34 231.68C65.1846 231.68 66.68 230.185 66.68 228.34C66.68 226.495 65.1846 225 63.34 225C61.4954 225 60 226.495 60 228.34C60 230.185 61.4954 231.68 63.34 231.68Z" fill="#2C4470" fill-opacity="0.1"/>
<circle cx="93.5723" cy="26.8623" r="7.86232" fill="#FFC369"/>
<circle cx="118.282" cy="26.8623" r="7.86232" fill="#1CC298"/>
<rect x="71" y="73" width="270" height="78" fill="#E7EDF7"/>
<rect x="71" y="165" width="81" height="78" fill="#E7EDF7"/>
<rect x="166" y="165" width="81" height="78" fill="#E7EDF7"/>
<rect x="261" y="165" width="81" height="78" fill="#E7EDF7"/>
<circle cx="353.5" cy="243.5" r="47.5" fill="#FFC42D"/>
<path d="M459.5 142.5C459.5 116.266 438.234 95 412 95L412 190C438.234 190 459.5 168.734 459.5 142.5Z" fill="#0074E0" fill-opacity="0.6"/>
<path d="M14 121.5H136.687C141.934 121.5 146.187 125.753 146.187 131V299C146.187 304.247 141.934 308.5 136.687 308.5H14C8.75329 308.5 4.5 304.247 4.5 299V131C4.5 125.753 8.75329 121.5 14 121.5Z" fill="white" stroke="#465D88"/>
<path d="M4.5 136.5H146" stroke="#465D88" stroke-linecap="round" stroke-linejoin="round"/>
<path d="M5 283H146.5" stroke="#465D88" stroke-linecap="round" stroke-linejoin="round"/>
<circle cx="75" cy="296" r="6.5" stroke="#2C4470"/>
<rect x="16" y="145" width="117" height="83" fill="#E7EDF7"/>
<rect x="16" y="235" width="35" height="35" fill="#E7EDF7"/>
<rect x="57" y="235" width="35" height="35" fill="#E7EDF7"/>
<rect x="98" y="235" width="35" height="35" fill="#E7EDF7"/>
<path d="M200 219.5H252.687C257.934 219.5 262.187 223.753 262.187 229V337C262.187 342.247 257.934 346.5 252.687 346.5H200C194.753 346.5 190.5 342.247 190.5 337V229C190.5 223.753 194.753 219.5 200 219.5Z" fill="white" stroke="#465D88"/>
<path d="M191 235H262" stroke="#465D88" stroke-linecap="round" stroke-linejoin="round"/>
<path d="M191 321H262" stroke="#465D88" stroke-linecap="round" stroke-linejoin="round"/>
<circle cx="226" cy="334" r="6.5" stroke="#2C4470"/>
<rect x="196" y="240" width="61" height="41" fill="#E7EDF7"/>
<path d="M196 285H257V320.5H196V285Z" fill="#E7EDF7"/>
</svg>
