<svg width="105" height="100" fill="none" xmlns="http://www.w3.org/2000/svg">
    <path d="M33.14 83.239h29.572c1.368 0 2.746.056 4.114 0h.057c1.217 0 1.217-1.888 0-1.888H37.31c-1.368 0-2.745-.056-4.114 0h-.056c-1.208 0-1.217 1.888 0 1.888z" fill="#0074E0" stroke="#0074E0"/>
    <path d="M88.113 23.982V59.79c0 1.143.075 2.284-.359 3.37-.802 2.038-2.802 3.198-4.944 3.198H17.053c-1.095-.01-2.142-.32-3.039-.962-1.33-.953-2.094-2.51-2.104-4.133V24.19c0-2.538 1.642-4.727 4.18-5.227.642-.123 1.33-.076 1.982-.076h59.303c1.868 0 3.737-.01 5.605 0a5.149 5.149 0 0 1 5.133 5.095c.01 1.218 1.896 1.218 1.887 0-.038-3.83-3.161-6.944-6.992-6.982H17.902c-1 0-1.982 0-2.954.302-3 .925-4.934 3.727-4.944 6.831-.01 3.18 0 6.36 0 9.54v27.052c0 .264-.01.538.01.802.085 1.972 1 3.888 2.547 5.124 1.434 1.15 3.114 1.594 4.916 1.594h65.399c2.765-.01 5.378-1.557 6.501-4.123.595-1.368.614-2.736.614-4.18v-35.96c.009-1.207-1.878-1.207-1.878 0z" fill="#0074E0"/>
    <path d="M88.113 23.982V59.79c0 1.143.075 2.284-.359 3.37-.802 2.038-2.802 3.198-4.944 3.198H17.053c-1.095-.01-2.142-.32-3.039-.962-1.33-.953-2.094-2.51-2.104-4.133V24.19c0-2.538 1.642-4.727 4.18-5.227.642-.123 1.33-.076 1.982-.076h59.303c1.868 0 3.737-.01 5.605 0a5.149 5.149 0 0 1 5.133 5.095zm0 0c.01 1.218 1.896 1.218 1.887 0-.038-3.83-3.161-6.944-6.992-6.982H17.902c-1 0-1.982 0-2.954.302-3 .925-4.934 3.727-4.944 6.831-.01 3.18 0 6.36 0 9.54v27.052c0 .264-.01.538.01.802.085 1.972 1 3.888 2.547 5.124 1.434 1.15 3.114 1.594 4.916 1.594h65.399c2.765-.01 5.378-1.557 6.501-4.123.595-1.368.614-2.736.614-4.18v-35.96c.009-1.207-1.878-1.207-1.878 0z" stroke="#0074E0"/>
    <path d="M55.833 67.302v14.993l.944-.944h-13.54c.31.312.632.633.943.944V67.302l-.944.943h13.541c1.217 0 1.217-1.887 0-1.887h-13.54a.959.959 0 0 0-.944.944v14.993c0 .51.434.944.944.944h13.54c.51 0 .943-.434.943-.944V67.302c0-1.208-1.887-1.218-1.887 0z" fill="#0074E0" stroke="#0074E0"/>
    <path fill="#BDF3FF" d="M81 41h21v32H81z"/>
    <path d="M104.25 43.345c0-2.543-2.069-4.595-4.625-4.595h-16.25c-2.556 0-4.625 2.052-4.625 4.595V78.28c0 2.542 2.069 4.595 4.625 4.595h16.25c2.556 0 4.625-2.053 4.625-4.595V43.345zm-23.393 3.353h21.286v25.835H80.857V46.698zM99.634 80.78H83.366a2.518 2.518 0 0 1-2.509-2.517V74.63h21.286v3.634a2.518 2.518 0 0 1-2.51 2.517zm2.509-37.417v1.24H80.857v-1.24a2.518 2.518 0 0 1 2.51-2.517h16.267a2.518 2.518 0 0 1 2.509 2.517z" fill="#0074E0" stroke="#0074E0" stroke-width=".5"/>
    <path d="M93.68 76.7h-4.358a1.047 1.047 0 1 0 0 2.097h4.357a1.047 1.047 0 1 0 0-2.096z" fill="#0074E0" stroke="#0074E0" stroke-width=".5"/>
    <path d="M24.5 33H70M24.5 45h21" stroke="#0074E0" stroke-width="2.5" stroke-linecap="round" stroke-linejoin="round"/>
    <path d="M84.5 53.5H99M84.5 60h8" stroke="#0074E0" stroke-width="2" stroke-linecap="round" stroke-linejoin="round"/>
</svg>
