<svg width="34" height="34" viewBox="0 0 34 34" fill="none" xmlns="http://www.w3.org/2000/svg">
<path d="M4.08008 10.54C4.08008 7.91115 6.2112 5.78003 8.84008 5.78003H25.5001C28.129 5.78003 30.2601 7.91115 30.2601 10.54V10.54H4.08008V10.54Z" fill="#BDF3FF"/>
<path d="M28.2551 5.78003H5.74473C4.45132 5.78003 3.3999 6.83239 3.3999 8.12486V25.9455C3.3999 27.238 4.45132 28.2904 5.74473 28.2904H28.2551C29.5485 28.2904 30.5999 27.238 30.5999 25.9455V8.12486C30.5999 6.83239 29.5485 5.78003 28.2551 5.78003ZM5.74473 6.71796H28.2551C29.0307 6.71796 29.662 7.34919 29.662 8.12486V9.53175H4.33783V8.12486C4.33783 7.34919 4.96906 6.71796 5.74473 6.71796ZM28.2551 27.3524H5.74473C4.96906 27.3524 4.33783 26.7212 4.33783 25.9455V10.4697H29.662V25.9455C29.662 26.7212 29.0307 27.3524 28.2551 27.3524Z" fill="#0074E0"/>
<rect x="13.2598" y="17.6801" width="8.16" height="5.44" fill="#BDF3FF"/>
<path d="M14.7891 18.0062H20.1487C20.3888 18.0062 20.5837 17.8113 20.5837 17.5712V15.8963C20.5837 14.9176 19.7875 14.1214 18.8088 14.1214H16.129C15.1502 14.1214 14.3541 14.9176 14.3541 15.8963V17.5712C14.3541 17.8113 14.5489 18.0062 14.7891 18.0062ZM19.7137 15.8963V17.1362H15.2241V15.8963C15.2241 15.3975 15.6302 14.9914 16.129 14.9914H18.8088C19.3076 14.9914 19.7137 15.3975 19.7137 15.8963Z" fill="#0074E0" stroke="#0074E0" stroke-width="0.2"/>
<path d="M13.7842 23.7007H21.1537C21.763 23.7007 22.2586 23.2051 22.2586 22.5958V18.2411C22.2586 17.6319 21.763 17.1362 21.1537 17.1362H13.7842C13.1749 17.1362 12.6793 17.6319 12.6793 18.2411V22.5958C12.6793 23.2051 13.1749 23.7007 13.7842 23.7007ZM13.5492 18.2411C13.5492 18.1118 13.6549 18.0062 13.7842 18.0062H21.1537C21.283 18.0062 21.3887 18.1118 21.3887 18.2411V22.5958C21.3887 22.7252 21.283 22.8308 21.1537 22.8308H13.7842C13.6549 22.8308 13.5492 22.7252 13.5492 22.5958V18.2411Z" fill="#0074E0" stroke="#0074E0" stroke-width="0.2"/>
<path d="M18.9092 19.916C18.9092 19.1218 18.2635 18.476 17.4693 18.476C16.6751 18.476 16.0294 19.1218 16.0294 19.916C16.0294 20.5584 16.4539 21.0986 17.0343 21.2834V21.9258C17.0343 22.1659 17.2292 22.3608 17.4693 22.3608C17.7094 22.3608 17.9043 22.1659 17.9043 21.9258V21.2834C18.4847 21.0986 18.9092 20.5584 18.9092 19.916ZM17.4693 20.4859C17.155 20.4859 16.8993 20.2302 16.8993 19.916C16.8993 19.6017 17.155 19.346 17.4693 19.346C17.7835 19.346 18.0392 19.6017 18.0392 19.916C18.0392 20.2302 17.7835 20.4859 17.4693 20.4859Z" fill="#0074E0" stroke="#0074E0" stroke-width="0.2"/>
<path d="M5.74436 8.59381C6.00336 8.59381 6.21332 8.38385 6.21332 8.12485C6.21332 7.86585 6.00336 7.65588 5.74436 7.65588C5.48535 7.65588 5.27539 7.86585 5.27539 8.12485C5.27539 8.38385 5.48535 8.59381 5.74436 8.59381Z" fill="#0074E0"/>
<path d="M7.62082 8.59381C7.87982 8.59381 8.08979 8.38385 8.08979 8.12485C8.08979 7.86585 7.87982 7.65588 7.62082 7.65588C7.36182 7.65588 7.15186 7.86585 7.15186 8.12485C7.15186 8.38385 7.36182 8.59381 7.62082 8.59381Z" fill="#0074E0"/>
<path d="M9.49631 8.59381C9.75531 8.59381 9.96528 8.38385 9.96528 8.12485C9.96528 7.86585 9.75531 7.65588 9.49631 7.65588C9.23731 7.65588 9.02734 7.86585 9.02734 8.12485C9.02734 8.38385 9.23731 8.59381 9.49631 8.59381Z" fill="#0074E0"/>
</svg>
