<svg width="394" height="338" viewBox="0 0 394 338" fill="none" xmlns="http://www.w3.org/2000/svg">
<path d="M61.5 20C61.5 9.23046 70.2304 0.5 81 0.5H374C384.77 0.5 393.5 9.23045 393.5 20V242C393.5 252.77 384.77 261.5 374 261.5H81C70.2305 261.5 61.5 252.77 61.5 242V20Z" fill="white" stroke="#465D88"/>
<path d="M61 20C61 8.9543 69.9543 0 81 0H374C385.046 0 394 8.95431 394 20V52.5H61V20Z" fill="#2C4470"/>
<path d="M61.5 20C61.5 9.23045 70.2304 0.5 81 0.5H374C384.77 0.5 393.5 9.23045 393.5 20V52H61.5V20Z" stroke="#2C4470" stroke-opacity="0.42"/>
<circle cx="89.8623" cy="26.8623" r="7.86232" fill="#FE7171"/>
<path fill-rule="evenodd" clip-rule="evenodd" d="M24.34 91.68C26.1846 91.68 27.68 90.1846 27.68 88.34C27.68 86.4954 26.1846 85 24.34 85C22.4954 85 21 86.4954 21 88.34C21 90.1846 22.4954 91.68 24.34 91.68ZM44.34 91.68C46.1846 91.68 47.68 90.1846 47.68 88.34C47.68 86.4954 46.1846 85 44.34 85C42.4954 85 41 86.4954 41 88.34C41 90.1846 42.4954 91.68 44.34 91.68ZM67.68 88.34C67.68 90.1846 66.1846 91.68 64.34 91.68C62.4954 91.68 61 90.1846 61 88.34C61 86.4954 62.4954 85 64.34 85C66.1846 85 67.68 86.4954 67.68 88.34ZM84.34 91.68C86.1846 91.68 87.68 90.1846 87.68 88.34C87.68 86.4954 86.1846 85 84.34 85C82.4954 85 81 86.4954 81 88.34C81 90.1846 82.4954 91.68 84.34 91.68ZM107.68 88.34C107.68 90.1846 106.185 91.68 104.34 91.68C102.495 91.68 101 90.1846 101 88.34C101 86.4954 102.495 85 104.34 85C106.185 85 107.68 86.4954 107.68 88.34ZM124.34 91.68C126.185 91.68 127.68 90.1846 127.68 88.34C127.68 86.4954 126.185 85 124.34 85C122.495 85 121 86.4954 121 88.34C121 90.1846 122.495 91.68 124.34 91.68ZM147.68 88.34C147.68 90.1846 146.185 91.68 144.34 91.68C142.495 91.68 141 90.1846 141 88.34C141 86.4954 142.495 85 144.34 85C146.185 85 147.68 86.4954 147.68 88.34ZM164.34 91.68C166.185 91.68 167.68 90.1846 167.68 88.34C167.68 86.4954 166.185 85 164.34 85C162.495 85 161 86.4954 161 88.34C161 90.1846 162.495 91.68 164.34 91.68ZM27.68 108.34C27.68 110.185 26.1846 111.68 24.34 111.68C22.4954 111.68 21 110.185 21 108.34C21 106.495 22.4954 105 24.34 105C26.1846 105 27.68 106.495 27.68 108.34ZM44.34 111.68C46.1846 111.68 47.68 110.185 47.68 108.34C47.68 106.495 46.1846 105 44.34 105C42.4954 105 41 106.495 41 108.34C41 110.185 42.4954 111.68 44.34 111.68ZM67.68 108.34C67.68 110.185 66.1846 111.68 64.34 111.68C62.4954 111.68 61 110.185 61 108.34C61 106.495 62.4954 105 64.34 105C66.1846 105 67.68 106.495 67.68 108.34ZM84.34 111.68C86.1846 111.68 87.68 110.185 87.68 108.34C87.68 106.495 86.1846 105 84.34 105C82.4954 105 81 106.495 81 108.34C81 110.185 82.4954 111.68 84.34 111.68ZM107.68 108.34C107.68 110.185 106.185 111.68 104.34 111.68C102.495 111.68 101 110.185 101 108.34C101 106.495 102.495 105 104.34 105C106.185 105 107.68 106.495 107.68 108.34ZM124.34 111.68C126.185 111.68 127.68 110.185 127.68 108.34C127.68 106.495 126.185 105 124.34 105C122.495 105 121 106.495 121 108.34C121 110.185 122.495 111.68 124.34 111.68ZM147.68 108.34C147.68 110.185 146.185 111.68 144.34 111.68C142.495 111.68 141 110.185 141 108.34C141 106.495 142.495 105 144.34 105C146.185 105 147.68 106.495 147.68 108.34ZM164.34 111.68C166.185 111.68 167.68 110.185 167.68 108.34C167.68 106.495 166.185 105 164.34 105C162.495 105 161 106.495 161 108.34C161 110.185 162.495 111.68 164.34 111.68ZM27.68 128.34C27.68 130.185 26.1846 131.68 24.34 131.68C22.4954 131.68 21 130.185 21 128.34C21 126.495 22.4954 125 24.34 125C26.1846 125 27.68 126.495 27.68 128.34ZM44.34 131.68C46.1846 131.68 47.68 130.185 47.68 128.34C47.68 126.495 46.1846 125 44.34 125C42.4954 125 41 126.495 41 128.34C41 130.185 42.4954 131.68 44.34 131.68ZM67.68 128.34C67.68 130.185 66.1846 131.68 64.34 131.68C62.4954 131.68 61 130.185 61 128.34C61 126.495 62.4954 125 64.34 125C66.1846 125 67.68 126.495 67.68 128.34ZM84.34 131.68C86.1846 131.68 87.68 130.185 87.68 128.34C87.68 126.495 86.1846 125 84.34 125C82.4954 125 81 126.495 81 128.34C81 130.185 82.4954 131.68 84.34 131.68ZM107.68 128.34C107.68 130.185 106.185 131.68 104.34 131.68C102.495 131.68 101 130.185 101 128.34C101 126.495 102.495 125 104.34 125C106.185 125 107.68 126.495 107.68 128.34ZM124.34 131.68C126.185 131.68 127.68 130.185 127.68 128.34C127.68 126.495 126.185 125 124.34 125C122.495 125 121 126.495 121 128.34C121 130.185 122.495 131.68 124.34 131.68ZM147.68 128.34C147.68 130.185 146.185 131.68 144.34 131.68C142.495 131.68 141 130.185 141 128.34C141 126.495 142.495 125 144.34 125C146.185 125 147.68 126.495 147.68 128.34ZM164.34 131.68C166.185 131.68 167.68 130.185 167.68 128.34C167.68 126.495 166.185 125 164.34 125C162.495 125 161 126.495 161 128.34C161 130.185 162.495 131.68 164.34 131.68ZM27.68 148.34C27.68 150.185 26.1846 151.68 24.34 151.68C22.4954 151.68 21 150.185 21 148.34C21 146.495 22.4954 145 24.34 145C26.1846 145 27.68 146.495 27.68 148.34ZM44.34 151.68C46.1846 151.68 47.68 150.185 47.68 148.34C47.68 146.495 46.1846 145 44.34 145C42.4954 145 41 146.495 41 148.34C41 150.185 42.4954 151.68 44.34 151.68ZM67.68 148.34C67.68 150.185 66.1846 151.68 64.34 151.68C62.4954 151.68 61 150.185 61 148.34C61 146.495 62.4954 145 64.34 145C66.1846 145 67.68 146.495 67.68 148.34ZM84.34 151.68C86.1846 151.68 87.68 150.185 87.68 148.34C87.68 146.495 86.1846 145 84.34 145C82.4954 145 81 146.495 81 148.34C81 150.185 82.4954 151.68 84.34 151.68ZM107.68 148.34C107.68 150.185 106.185 151.68 104.34 151.68C102.495 151.68 101 150.185 101 148.34C101 146.495 102.495 145 104.34 145C106.185 145 107.68 146.495 107.68 148.34ZM124.34 151.68C126.185 151.68 127.68 150.185 127.68 148.34C127.68 146.495 126.185 145 124.34 145C122.495 145 121 146.495 121 148.34C121 150.185 122.495 151.68 124.34 151.68ZM147.68 148.34C147.68 150.185 146.185 151.68 144.34 151.68C142.495 151.68 141 150.185 141 148.34C141 146.495 142.495 145 144.34 145C146.185 145 147.68 146.495 147.68 148.34ZM164.34 151.68C166.185 151.68 167.68 150.185 167.68 148.34C167.68 146.495 166.185 145 164.34 145C162.495 145 161 146.495 161 148.34C161 150.185 162.495 151.68 164.34 151.68ZM27.68 168.34C27.68 170.185 26.1846 171.68 24.34 171.68C22.4954 171.68 21 170.185 21 168.34C21 166.495 22.4954 165 24.34 165C26.1846 165 27.68 166.495 27.68 168.34ZM44.34 171.68C46.1846 171.68 47.68 170.185 47.68 168.34C47.68 166.495 46.1846 165 44.34 165C42.4954 165 41 166.495 41 168.34C41 170.185 42.4954 171.68 44.34 171.68ZM67.68 168.34C67.68 170.185 66.1846 171.68 64.34 171.68C62.4954 171.68 61 170.185 61 168.34C61 166.495 62.4954 165 64.34 165C66.1846 165 67.68 166.495 67.68 168.34ZM84.34 171.68C86.1846 171.68 87.68 170.185 87.68 168.34C87.68 166.495 86.1846 165 84.34 165C82.4954 165 81 166.495 81 168.34C81 170.185 82.4954 171.68 84.34 171.68ZM27.68 188.34C27.68 190.185 26.1846 191.68 24.34 191.68C22.4954 191.68 21 190.185 21 188.34C21 186.495 22.4954 185 24.34 185C26.1846 185 27.68 186.495 27.68 188.34ZM44.34 191.68C46.1846 191.68 47.68 190.185 47.68 188.34C47.68 186.495 46.1846 185 44.34 185C42.4954 185 41 186.495 41 188.34C41 190.185 42.4954 191.68 44.34 191.68ZM67.68 188.34C67.68 190.185 66.1846 191.68 64.34 191.68C62.4954 191.68 61 190.185 61 188.34C61 186.495 62.4954 185 64.34 185C66.1846 185 67.68 186.495 67.68 188.34ZM84.34 191.68C86.1846 191.68 87.68 190.185 87.68 188.34C87.68 186.495 86.1846 185 84.34 185C82.4954 185 81 186.495 81 188.34C81 190.185 82.4954 191.68 84.34 191.68ZM27.68 208.34C27.68 210.185 26.1846 211.68 24.34 211.68C22.4954 211.68 21 210.185 21 208.34C21 206.495 22.4954 205 24.34 205C26.1846 205 27.68 206.495 27.68 208.34ZM44.34 211.68C46.1846 211.68 47.68 210.185 47.68 208.34C47.68 206.495 46.1846 205 44.34 205C42.4954 205 41 206.495 41 208.34C41 210.185 42.4954 211.68 44.34 211.68ZM67.68 208.34C67.68 210.185 66.1846 211.68 64.34 211.68C62.4954 211.68 61 210.185 61 208.34C61 206.495 62.4954 205 64.34 205C66.1846 205 67.68 206.495 67.68 208.34ZM84.34 211.68C86.1846 211.68 87.68 210.185 87.68 208.34C87.68 206.495 86.1846 205 84.34 205C82.4954 205 81 206.495 81 208.34C81 210.185 82.4954 211.68 84.34 211.68ZM27.68 228.34C27.68 230.185 26.1846 231.68 24.34 231.68C22.4954 231.68 21 230.185 21 228.34C21 226.495 22.4954 225 24.34 225C26.1846 225 27.68 226.495 27.68 228.34ZM44.34 231.68C46.1846 231.68 47.68 230.185 47.68 228.34C47.68 226.495 46.1846 225 44.34 225C42.4954 225 41 226.495 41 228.34C41 230.185 42.4954 231.68 44.34 231.68ZM67.68 228.34C67.68 230.185 66.1846 231.68 64.34 231.68C62.4954 231.68 61 230.185 61 228.34C61 226.495 62.4954 225 64.34 225C66.1846 225 67.68 226.495 67.68 228.34ZM84.34 231.68C86.1846 231.68 87.68 230.185 87.68 228.34C87.68 226.495 86.1846 225 84.34 225C82.4954 225 81 226.495 81 228.34C81 230.185 82.4954 231.68 84.34 231.68Z" fill="#2C4470" fill-opacity="0.1"/>
<circle cx="114.572" cy="26.8623" r="7.86232" fill="#FFC369"/>
<circle cx="139.282" cy="26.8623" r="7.86232" fill="#1CC298"/>
<path d="M298.76 217.116C305.352 229.289 307.765 243.289 305.631 256.966C303.496 270.643 296.932 283.242 286.945 292.828C276.959 302.413 264.102 308.457 250.349 310.029C236.596 311.602 222.706 308.617 210.814 301.534C198.921 294.45 189.682 283.658 184.514 270.816C179.347 257.974 178.538 243.791 182.211 230.444C185.884 217.097 193.835 205.325 204.845 196.935C215.855 188.544 229.315 183.999 243.158 183.997C243.659 183.997 244.159 184.004 244.658 184.016L243.989 157.011C243.712 157.008 243.436 157 243.158 157C223.241 157.006 203.886 163.605 188.114 175.767C172.341 187.929 161.039 204.97 155.97 224.231C150.901 243.492 152.35 263.89 160.093 282.24C167.835 300.591 181.434 315.862 198.768 325.671C216.102 335.48 236.195 339.276 255.913 336.464C275.63 333.653 293.863 324.394 307.764 310.131C321.666 295.869 330.456 277.405 332.761 257.622C335.066 237.839 330.758 217.849 320.508 200.772L298.76 217.116Z" fill="#02C19F"/>
<path d="M298.76 217.116L320.507 200.772C312.565 187.538 301.359 176.564 287.961 168.902C274.563 161.24 259.422 157.145 243.988 157.01L244.657 184.016C255.792 184.277 266.66 187.476 276.161 193.288C285.662 199.101 293.458 207.321 298.76 217.116Z" fill="#E6E6E6"/>
<circle cx="47.5" cy="220.5" r="47.5" fill="#FFC42D"/>
<path d="M105.5 329.5C131.734 329.5 153 308.234 153 282H58C58 308.234 79.2665 329.5 105.5 329.5Z" fill="#FFF8E7"/>
<path d="M333 128.5H199.5V64" stroke="#C6D4DE"/>
<path d="M210.677 100.288L200 127H333V124.378V106.351L319.028 95.699L301.365 100.288L279.352 92.0936L264.193 93.7324L242.839 78L222.145 100.288H210.677Z" fill="#FFE4F1"/>
<path d="M200 127L210.677 100.288H222.145L242.839 78L264.193 93.7324L279.352 92.0936L301.365 100.288L319.028 95.699L333 106.351" stroke="#FF296A" stroke-width="2"/>
<path d="M229.701 103.203L200.788 128H333V109.772L314.075 106.159L292.39 107.637L273.202 96.799L249.02 109.772L229.701 103.203Z" fill="#E2E5FF"/>
<path d="M200.788 127.672L229.701 102.875L249.02 109.444L273.202 96.4706L292.127 107.637L314.075 105.831L333 109.444" stroke="#5D50F5" stroke-width="2"/>
</svg>
