<svg width="60" height="60" viewBox="0 0 60 60" fill="none" xmlns="http://www.w3.org/2000/svg">
<circle cx="30" cy="30" r="29.5" fill="white" stroke="#2C4470"/>
<mask id="path-2-inside-1" fill="white">
<path d="M44.0818 26.6137C44.0818 26.0681 43.8488 25.5431 43.443 25.1737C43.0377 24.805 42.489 24.6244 41.9481 24.6746C40.9599 24.7679 40.1859 25.6532 40.1859 26.6901L40.1862 30.2872C39.9298 30.3717 39.6949 30.5058 39.5071 30.6943C39.4685 30.7298 38.5548 31.5696 38.3433 31.7848C38.1966 31.9339 38.0478 32.0887 37.8962 32.2462C37.1547 33.018 36.3877 33.8159 35.5092 34.3312C35.3046 34.4507 35.104 34.5612 34.9084 34.6685C33.9005 35.2225 32.9485 35.7459 32.3233 37.0324C31.7824 38.1389 31.5491 39.4671 31.5887 41.2112L31.4801 43.4438C31.4655 43.7464 31.7066 43.9997 32.0095 43.9997H32.0098C32.2924 43.9997 32.5255 43.7779 32.5392 43.4953L32.6484 41.2437C32.6484 41.2321 32.6487 41.2203 32.6487 41.2087C32.6106 39.6297 32.8096 38.4508 33.276 37.4969C33.7545 36.5124 34.4888 36.1087 35.4188 35.5974C35.6225 35.4858 35.8312 35.3707 36.0445 35.2459C37.0502 34.656 37.9056 33.766 38.6605 32.9805C38.809 32.8261 38.955 32.6742 39.0991 32.5276C39.2591 32.3644 39.9654 31.7121 40.2402 31.4592C40.5107 31.189 40.987 31.189 41.2578 31.4592C41.3932 31.5945 41.4677 31.7758 41.468 31.9695C41.468 32.1629 41.3941 32.3438 41.2596 32.4783L37.2231 36.5149C37.0487 36.6893 37.0175 36.961 37.1479 37.1703C37.1772 37.2174 37.2171 37.2773 37.2752 37.3406C37.4327 37.5125 37.676 37.5721 37.8891 37.4779C38.0856 37.3911 38.1882 37.2168 38.2013 37.0355L38.43 36.8069L41.9372 33.2996C42.4915 32.7453 42.6787 31.8968 42.3421 31.1887C42.1091 30.6986 41.7054 30.402 41.2459 30.2685L41.2456 26.6904C41.2456 26.1944 41.5978 25.7727 42.047 25.7303C42.076 25.7275 42.1047 25.7262 42.1334 25.7262C42.3543 25.7262 42.563 25.807 42.7289 25.958C42.9145 26.1271 43.0212 26.366 43.0212 26.614V34.9065C43.0212 35.117 42.9526 35.3473 42.7901 35.4574L42.529 35.7185L38.2338 40.0143C38.0703 40.1774 37.9224 40.3212 37.7718 40.4189C37.6323 40.5093 37.5297 40.6463 37.5079 40.811L37.1644 43.4002C37.1223 43.7177 37.3694 43.9997 37.6897 43.9997C37.9555 43.9997 38.1801 43.8029 38.2151 43.5393L38.5282 41.1791C38.7076 41.0387 38.8614 40.8849 38.9831 40.7636L43.5447 36.202C43.6722 36.0744 43.8042 35.9421 43.9277 35.7899C44.0397 35.6517 44.1136 35.6336 44.0694 35.4742C44.1027 35.3426 44.0818 35.0478 44.0818 34.9062V26.6137Z"/>
</mask>
<path d="M44.0818 26.6137C44.0818 26.0681 43.8488 25.5431 43.443 25.1737C43.0377 24.805 42.489 24.6244 41.9481 24.6746C40.9599 24.7679 40.1859 25.6532 40.1859 26.6901L40.1862 30.2872C39.9298 30.3717 39.6949 30.5058 39.5071 30.6943C39.4685 30.7298 38.5548 31.5696 38.3433 31.7848C38.1966 31.9339 38.0478 32.0887 37.8962 32.2462C37.1547 33.018 36.3877 33.8159 35.5092 34.3312C35.3046 34.4507 35.104 34.5612 34.9084 34.6685C33.9005 35.2225 32.9485 35.7459 32.3233 37.0324C31.7824 38.1389 31.5491 39.4671 31.5887 41.2112L31.4801 43.4438C31.4655 43.7464 31.7066 43.9997 32.0095 43.9997H32.0098C32.2924 43.9997 32.5255 43.7779 32.5392 43.4953L32.6484 41.2437C32.6484 41.2321 32.6487 41.2203 32.6487 41.2087C32.6106 39.6297 32.8096 38.4508 33.276 37.4969C33.7545 36.5124 34.4888 36.1087 35.4188 35.5974C35.6225 35.4858 35.8312 35.3707 36.0445 35.2459C37.0502 34.656 37.9056 33.766 38.6605 32.9805C38.809 32.8261 38.955 32.6742 39.0991 32.5276C39.2591 32.3644 39.9654 31.7121 40.2402 31.4592C40.5107 31.189 40.987 31.189 41.2578 31.4592C41.3932 31.5945 41.4677 31.7758 41.468 31.9695C41.468 32.1629 41.3941 32.3438 41.2596 32.4783L37.2231 36.5149C37.0487 36.6893 37.0175 36.961 37.1479 37.1703C37.1772 37.2174 37.2171 37.2773 37.2752 37.3406C37.4327 37.5125 37.676 37.5721 37.8891 37.4779C38.0856 37.3911 38.1882 37.2168 38.2013 37.0355L38.43 36.8069L41.9372 33.2996C42.4915 32.7453 42.6787 31.8968 42.3421 31.1887C42.1091 30.6986 41.7054 30.402 41.2459 30.2685L41.2456 26.6904C41.2456 26.1944 41.5978 25.7727 42.047 25.7303C42.076 25.7275 42.1047 25.7262 42.1334 25.7262C42.3543 25.7262 42.563 25.807 42.7289 25.958C42.9145 26.1271 43.0212 26.366 43.0212 26.614V34.9065C43.0212 35.117 42.9526 35.3473 42.7901 35.4574L42.529 35.7185L38.2338 40.0143C38.0703 40.1774 37.9224 40.3212 37.7718 40.4189C37.6323 40.5093 37.5297 40.6463 37.5079 40.811L37.1644 43.4002C37.1223 43.7177 37.3694 43.9997 37.6897 43.9997C37.9555 43.9997 38.1801 43.8029 38.2151 43.5393L38.5282 41.1791C38.7076 41.0387 38.8614 40.8849 38.9831 40.7636L43.5447 36.202C43.6722 36.0744 43.8042 35.9421 43.9277 35.7899C44.0397 35.6517 44.1136 35.6336 44.0694 35.4742C44.1027 35.3426 44.0818 35.0478 44.0818 34.9062V26.6137Z" fill="#2C4470"/>
<path d="M43.443 25.1737L44.116 24.4342L44.116 24.4341L43.443 25.1737ZM41.9481 24.6746L41.8557 23.6789L41.8542 23.6791L41.9481 24.6746ZM40.1859 26.6901L39.1859 26.6901L39.1859 26.6902L40.1859 26.6901ZM40.1862 30.2872L40.4993 31.2369L41.1863 31.0104L41.1862 30.2871L40.1862 30.2872ZM39.5071 30.6943L40.1839 31.4304L40.2 31.4157L40.2154 31.4002L39.5071 30.6943ZM38.3433 31.7848L39.0563 32.4859L39.0565 32.4857L38.3433 31.7848ZM37.8962 32.2462L37.1757 31.5528L37.1751 31.5534L37.8962 32.2462ZM35.5092 34.3312L36.0134 35.1948L36.0152 35.1938L35.5092 34.3312ZM34.9084 34.6685L34.4274 33.7917L34.4267 33.7921L34.9084 34.6685ZM32.3233 37.0324L33.2217 37.4716L33.2227 37.4695L32.3233 37.0324ZM31.5887 41.2112L32.5875 41.2598L32.5892 41.2242L32.5884 41.1885L31.5887 41.2112ZM31.4801 43.4438L30.4813 43.3953L30.4813 43.3954L31.4801 43.4438ZM32.5392 43.4953L33.538 43.5438L33.538 43.5437L32.5392 43.4953ZM32.6484 41.2437L33.6472 41.2921L33.6484 41.2679V41.2437H32.6484ZM32.6487 41.2087H33.6487V41.1967L33.6484 41.1846L32.6487 41.2087ZM33.276 37.4969L34.1744 37.9361L34.1754 37.934L33.276 37.4969ZM35.4188 35.5974L34.938 34.7206L34.937 34.7212L35.4188 35.5974ZM36.0445 35.2459L36.5493 36.1091L36.5505 36.1084L36.0445 35.2459ZM38.6605 32.9805L37.9397 32.2874L37.9395 32.2876L38.6605 32.9805ZM39.0991 32.5276L39.8123 33.2286L39.813 33.2278L39.0991 32.5276ZM40.2402 31.4592L40.9175 32.1949L40.9325 32.1811L40.9469 32.1667L40.2402 31.4592ZM41.2578 31.4592L41.9649 30.752L41.9641 30.7512L41.2578 31.4592ZM41.468 31.9695L42.468 31.9695L42.468 31.9679L41.468 31.9695ZM37.1479 37.1703L37.9968 36.6418L37.9967 36.6415L37.1479 37.1703ZM37.2752 37.3406L36.5379 38.0162L36.5379 38.0163L37.2752 37.3406ZM37.8891 37.4779L37.4854 36.563L37.4847 36.5633L37.8891 37.4779ZM38.2013 37.0355L37.4942 36.3284L37.2308 36.5918L37.2039 36.9634L38.2013 37.0355ZM38.43 36.8069L39.1371 37.514L39.1371 37.514L38.43 36.8069ZM41.9372 33.2996L41.2301 32.5925L41.2301 32.5925L41.9372 33.2996ZM42.3421 31.1887L43.2453 30.7594L43.2452 30.7593L42.3421 31.1887ZM41.2459 30.2685L40.2459 30.2685L40.246 31.0193L40.9669 31.2287L41.2459 30.2685ZM41.2456 26.6904L40.2456 26.6904L40.2456 26.6905L41.2456 26.6904ZM42.047 25.7303L42.141 26.7258L42.1433 26.7256L42.047 25.7303ZM42.7289 25.958L43.4023 25.2187L43.4019 25.2183L42.7289 25.958ZM42.7901 35.4574L42.2291 34.6295L42.1503 34.6829L42.083 34.7503L42.7901 35.4574ZM42.529 35.7185L41.8219 35.0114L41.8218 35.0114L42.529 35.7185ZM38.2338 40.0143L38.9402 40.7221L38.9409 40.7213L38.2338 40.0143ZM37.7718 40.4189L37.2279 39.5797L37.2275 39.58L37.7718 40.4189ZM37.5079 40.811L38.4992 40.9425L38.4992 40.9424L37.5079 40.811ZM37.1644 43.4002L36.1731 43.2687L36.1731 43.2687L37.1644 43.4002ZM38.2151 43.5393L37.2237 43.4077L37.2237 43.4079L38.2151 43.5393ZM38.5282 41.1791L37.9119 40.3916L37.5906 40.6431L37.5369 41.0475L38.5282 41.1791ZM38.9831 40.7636L39.6893 41.4716L39.6902 41.4707L38.9831 40.7636ZM43.5447 36.202L44.2518 36.9091L44.2518 36.9091L43.5447 36.202ZM43.9277 35.7899L44.7042 36.42L44.7046 36.4195L43.9277 35.7899ZM44.0694 35.4742L43.1 35.2284L43.0347 35.486L43.1059 35.742L44.0694 35.4742ZM45.0818 26.6137C45.0818 25.7845 44.7286 24.9916 44.116 24.4342L42.7699 25.9133C42.969 26.0945 43.0818 26.3517 43.0818 26.6137H45.0818ZM44.116 24.4341C43.501 23.8746 42.6739 23.6029 41.8557 23.6789L42.0406 25.6704C42.3042 25.6459 42.5744 25.7355 42.77 25.9134L44.116 24.4341ZM41.8542 23.6791C40.3169 23.8241 39.1859 25.1736 39.1859 26.6901H41.1859C41.1859 26.1328 41.6028 25.7117 42.0421 25.6702L41.8542 23.6791ZM39.1859 26.6902L39.1862 30.2873L41.1862 30.2871L41.1859 26.69L39.1859 26.6902ZM39.8731 29.3375C39.4922 29.463 39.1143 29.6718 38.7989 29.9883L40.2154 31.4002C40.2756 31.3399 40.3675 31.2804 40.4993 31.2369L39.8731 29.3375ZM38.8303 29.9581C38.8068 29.9798 37.8647 30.8451 37.63 31.084L39.0565 32.4857C39.2448 32.2941 40.1301 31.4799 40.1839 31.4304L38.8303 29.9581ZM37.6302 31.0837C37.4791 31.2374 37.3264 31.3962 37.1757 31.5528L38.6168 32.9396C38.7693 32.7811 38.9142 32.6305 39.0563 32.4859L37.6302 31.0837ZM37.1751 31.5534C36.4119 32.3478 35.7404 33.0362 35.0032 33.4687L36.0152 35.1938C37.0349 34.5956 37.8976 33.6881 38.6173 32.939L37.1751 31.5534ZM35.005 33.4677C34.8132 33.5796 34.6233 33.6843 34.4274 33.7917L35.3894 35.5452C35.5847 35.438 35.7959 35.3218 36.0134 35.1948L35.005 33.4677ZM34.4267 33.7921C33.422 34.3444 32.201 34.996 31.4239 36.5953L33.2227 37.4695C33.6959 36.4958 34.379 36.1006 35.3901 35.5448L34.4267 33.7921ZM31.4249 36.5932C30.7907 37.8906 30.5471 39.3926 30.5889 41.2339L32.5884 41.1885C32.551 39.5417 32.7741 38.3871 33.2217 37.4716L31.4249 36.5932ZM30.5899 41.1627L30.4813 43.3953L32.4789 43.4924L32.5875 41.2598L30.5899 41.1627ZM30.4813 43.3954C30.439 44.2681 31.1348 44.9997 32.0095 44.9997V42.9997C32.2784 42.9997 32.4919 43.2247 32.479 43.4922L30.4813 43.3954ZM32.0095 44.9997H32.0098V42.9997H32.0095V44.9997ZM32.0098 44.9997C32.8258 44.9997 33.4984 44.3593 33.538 43.5438L31.5404 43.4468C31.5525 43.1965 31.7591 42.9997 32.0098 42.9997V44.9997ZM33.538 43.5437L33.6472 41.2921L31.6495 41.1952L31.5404 43.4469L33.538 43.5437ZM33.6484 41.2437C33.6484 41.2457 33.6483 41.2466 33.6484 41.2395C33.6485 41.2349 33.6487 41.2223 33.6487 41.2087H31.6487C31.6487 41.2067 31.6487 41.2058 31.6486 41.2129C31.6485 41.2175 31.6484 41.2301 31.6484 41.2437H33.6484ZM33.6484 41.1846C33.6125 39.6937 33.8045 38.6927 34.1744 37.9361L32.3776 37.0577C31.8148 38.209 31.6088 39.5656 31.649 41.2328L33.6484 41.1846ZM34.1754 37.934C34.4985 37.2693 34.951 36.9958 35.9006 36.4737L34.937 34.7212C34.0267 35.2216 33.0106 35.7555 32.3766 37.0597L34.1754 37.934ZM35.8995 36.4743C36.1037 36.3623 36.323 36.2415 36.5493 36.1091L35.5397 34.3826C35.3393 34.4998 35.1412 34.6092 34.938 34.7206L35.8995 36.4743ZM36.5505 36.1084C37.6959 35.4366 38.6446 34.4402 39.3815 33.6735L37.9395 32.2876C37.1666 33.0918 36.4046 33.8754 35.5386 34.3833L36.5505 36.1084ZM39.3813 33.6737C39.5308 33.5183 39.6727 33.3705 39.8123 33.2286L38.386 31.8266C38.2372 31.9778 38.0872 32.134 37.9397 32.2874L39.3813 33.6737ZM39.813 33.2278C39.9499 33.0883 40.6285 32.4609 40.9175 32.1949L39.5629 30.7234C39.3023 30.9634 38.5684 31.6405 38.3852 31.8273L39.813 33.2278ZM40.9469 32.1667C40.8729 32.2406 40.7948 32.2565 40.7489 32.2565C40.703 32.2565 40.6252 32.2406 40.5515 32.1671L41.9641 30.7512C41.3032 30.0919 40.1946 30.0913 39.5335 30.7516L40.9469 32.1667ZM40.5507 32.1663C40.496 32.1116 40.4681 32.0379 40.468 31.9711L42.468 31.9679C42.4673 31.5136 42.2903 31.0775 41.9649 30.752L40.5507 32.1663ZM40.468 31.9695C40.468 31.9038 40.4952 31.8285 40.5525 31.7712L41.9668 33.1854C42.293 32.8592 42.468 32.4221 42.468 31.9695H40.468ZM40.5525 31.7712L36.516 35.8078L37.9302 37.222L41.9668 33.1854L40.5525 31.7712ZM36.516 35.8078C36.0128 36.3109 35.9227 37.0948 36.2991 37.699L37.9967 36.6415C38.1123 36.8271 38.0845 37.0676 37.9302 37.222L36.516 35.8078ZM36.2989 37.6988C36.3442 37.7715 36.4212 37.8889 36.5379 38.0162L38.0125 36.665C38.0124 36.665 38.0123 36.6648 38.0119 36.6644C38.0115 36.6639 38.0109 36.6631 38.0099 36.6617C38.0078 36.6589 38.0042 36.6537 37.9968 36.6418L36.2989 37.6988ZM36.5379 38.0163C36.9636 38.4806 37.6593 38.6728 38.2935 38.3924L37.4847 36.5633C37.6927 36.4713 37.9018 36.5443 38.0124 36.6649L36.5379 38.0163ZM38.2928 38.3927C38.858 38.1433 39.1614 37.624 39.1987 37.1076L37.2039 36.9634C37.2092 36.8907 37.2331 36.81 37.2843 36.7339C37.3378 36.6544 37.4106 36.5959 37.4854 36.563L38.2928 38.3927ZM38.9084 37.7426L39.1371 37.514L37.7229 36.0997L37.4942 36.3284L38.9084 37.7426ZM39.1371 37.514L42.6443 34.0067L41.2301 32.5925L37.7229 36.0997L39.1371 37.514ZM42.6443 34.0067C43.4665 33.1845 43.7818 31.8881 43.2453 30.7594L41.4389 31.618C41.5756 31.9055 41.5165 32.3061 41.2301 32.5925L42.6443 34.0067ZM43.2452 30.7593C42.8753 29.9814 42.2253 29.5117 41.5249 29.3082L40.9669 31.2287C41.1855 31.2923 41.3428 31.4159 41.439 31.6181L43.2452 30.7593ZM42.2459 30.2684L42.2456 26.6903L40.2456 26.6905L40.2459 30.2685L42.2459 30.2684ZM42.2456 26.6904C42.2456 26.6787 42.2501 26.6756 42.2455 26.6811C42.2406 26.687 42.2083 26.7195 42.141 26.7258L41.953 24.7347C40.9153 24.8327 40.2456 25.7574 40.2456 26.6904H42.2456ZM42.1433 26.7256C42.1375 26.7262 42.1339 26.7262 42.1334 26.7262V24.7262C42.0755 24.7262 42.0146 24.7287 41.9507 24.7349L42.1433 26.7256ZM42.1334 26.7262C42.121 26.7262 42.1055 26.7238 42.0895 26.7175C42.0735 26.7113 42.0622 26.7034 42.056 26.6977L43.4019 25.2183C43.0535 24.9014 42.6055 24.7262 42.1334 24.7262V26.7262ZM42.0555 26.6972C42.0367 26.6801 42.0212 26.6523 42.0212 26.614H44.0212C44.0212 26.0797 43.7923 25.574 43.4023 25.2187L42.0555 26.6972ZM42.0212 26.614V34.9065H44.0212V26.614H42.0212ZM42.0212 34.9065C42.0212 34.9056 42.0212 34.9035 42.022 34.8987C42.0228 34.8942 42.0253 34.8813 42.033 34.8613C42.0457 34.828 42.0946 34.7206 42.2291 34.6295L43.351 36.2852C43.9219 35.8984 44.0212 35.2454 44.0212 34.9065H42.0212ZM42.083 34.7503L41.8219 35.0114L43.2361 36.4256L43.4972 36.1645L42.083 34.7503ZM41.8218 35.0114L37.5266 39.3072L38.9409 40.7213L43.2361 36.4255L41.8218 35.0114ZM37.5273 39.3065C37.3508 39.4827 37.2756 39.5488 37.2279 39.5797L38.3156 41.2581C38.5693 41.0937 38.7898 40.8722 38.9402 40.7221L37.5273 39.3065ZM37.2275 39.58C36.8973 39.7942 36.5846 40.1663 36.5165 40.6796L38.4992 40.9424C38.4748 41.1263 38.3674 41.2245 38.316 41.2578L37.2275 39.58ZM36.5166 40.6795L36.1731 43.2687L38.1557 43.5317L38.4992 40.9425L36.5166 40.6795ZM36.1731 43.2687C36.0515 44.1855 36.7649 44.9997 37.6897 44.9997V42.9997C37.9739 42.9997 38.1931 43.2499 38.1557 43.5316L36.1731 43.2687ZM37.6897 44.9997C38.4573 44.9997 39.1056 44.4312 39.2064 43.6707L37.2237 43.4079C37.2546 43.1746 37.4538 42.9997 37.6897 42.9997V44.9997ZM39.2064 43.6708L39.5196 41.3106L37.5369 41.0475L37.2237 43.4077L39.2064 43.6708ZM39.1446 41.9666C39.378 41.7839 39.5718 41.5887 39.6893 41.4716L38.2769 40.0556C38.151 40.1812 38.0372 40.2936 37.9119 40.3916L39.1446 41.9666ZM39.6902 41.4707L44.2518 36.9091L42.8375 35.4949L38.276 40.0565L39.6902 41.4707ZM44.2518 36.9091C44.3757 36.7852 44.5433 36.6183 44.7042 36.42L43.1512 35.1598C43.0651 35.266 42.9688 35.3636 42.8375 35.4949L44.2518 36.9091ZM44.7046 36.4195C44.7069 36.4167 44.7076 36.4158 44.7353 36.3861C44.7484 36.372 44.8282 36.2894 44.8972 36.1825C44.9836 36.0487 45.0577 35.8751 45.0773 35.6643C45.0951 35.4739 45.0625 35.3133 45.0328 35.2065L43.1059 35.742C43.0983 35.7148 43.0731 35.6162 43.086 35.4784C43.1008 35.3201 43.1576 35.1896 43.2171 35.0975C43.2592 35.0323 43.3023 34.9901 43.2714 35.0233C43.2551 35.0408 43.2045 35.094 43.1508 35.1603L44.7046 36.4195ZM45.0387 35.72C45.0923 35.5087 45.0889 35.2734 45.0881 35.1842C45.0874 35.1191 45.0856 35.0554 45.0842 35.0072C45.0826 34.9522 45.0818 34.9238 45.0818 34.9062H43.0818C43.0818 34.9593 43.0837 35.0209 43.085 35.0651C43.0865 35.1161 43.0877 35.1609 43.0882 35.2037C43.0886 35.2473 43.0879 35.2763 43.087 35.2934C43.0865 35.3013 43.0863 35.3007 43.0872 35.2935C43.0879 35.2879 43.091 35.2639 43.1 35.2284L45.0387 35.72ZM45.0818 34.9062V26.6137H43.0818V34.9062H45.0818Z" fill="#2C4470" mask="url(#path-2-inside-1)"/>
<path d="M16.9019 35.8534L16.9019 35.8534L21.4588 40.4106C21.4588 40.4106 21.4588 40.4106 21.4588 40.4106C21.5815 40.5333 21.7157 40.6665 21.8678 40.7853L22.0289 40.911L22.0557 41.1136L22.3686 43.4738L21.9172 43.5337L22.3686 43.4738C22.3706 43.489 22.3833 43.5 22.3982 43.5C22.4164 43.5 22.4303 43.4841 22.4279 43.4662C22.4279 43.4662 22.4279 43.4662 22.4279 43.4661L22.0845 40.8777C22.0842 40.8768 22.0833 40.875 22.0813 40.8721C22.0762 40.8648 22.0649 40.8521 22.0441 40.8386L22.0437 40.8383C21.8421 40.7073 21.6584 40.5256 21.501 40.3684L21.5006 40.3681L17.2051 36.0719L17.2049 36.0718L16.971 35.8376C16.6434 35.5846 16.5665 35.1695 16.5665 34.9064V26.6136C16.5665 26.2225 16.7342 25.8501 17.022 25.588L17.0223 25.5878C17.2794 25.3539 17.6077 25.2258 17.9539 25.2258C17.9972 25.2258 18.0421 25.2277 18.0885 25.2322L18.0404 25.7299M16.9019 35.8534L24.2966 34.8146C23.3603 34.2653 22.5521 33.429 21.7886 32.6346L21.7885 32.6345L21.7733 32.6187C21.6301 32.4698 21.4872 32.3212 21.3461 32.1776L21.3458 32.1773C21.1753 32.0042 20.4667 31.3497 20.2088 31.1125C19.7111 30.6256 18.9406 30.6427 18.4772 31.1057L18.4766 31.1063C18.2472 31.3362 18.1208 31.6445 18.1203 31.969V31.9698C18.1203 32.2926 18.2443 32.6013 18.4751 32.8321L18.4751 32.8321L22.5117 36.8678L22.512 36.8681C22.5216 36.8776 22.5237 36.8929 22.516 36.9052L22.5154 36.9062C22.4922 36.9436 22.4674 36.9791 22.4344 37.0128L22.4344 37.0128C22.4209 37.0266 22.4082 37.0308 22.4021 37.0317C22.4006 37.0319 22.3996 37.0319 22.399 37.0319L22.3983 37.0318L22.3982 37.0318L22.3982 37.0318L22.3982 37.0318L22.3967 37.031L22.3966 37.0309C22.3842 37.023 22.3793 37.0161 22.3772 37.0124C22.3747 37.0081 22.3735 37.0036 22.3734 36.9994L22.3646 36.8057L22.2274 36.6685L22.0115 36.4526L18.5046 32.9457L18.5045 32.9456C18.0839 32.5253 17.9608 31.9008 18.1975 31.403L18.1975 31.4028C18.3618 31.0568 18.6425 30.8465 18.9813 30.7483L19.3421 30.6437V30.2681V26.6901C19.3421 25.9754 18.831 25.3023 18.0873 25.2321L18.0404 25.7299M16.9019 35.8534C16.7769 35.7285 16.6562 35.6074 16.5488 35.4751C16.5421 35.4668 16.5355 35.4588 16.529 35.4512L16.5051 35.3573C16.5048 35.3548 16.5034 35.3438 16.5021 35.3217C16.5003 35.289 16.4997 35.2477 16.5002 35.1989C16.5006 35.1505 16.502 35.101 16.5035 35.0506L16.5037 35.0455C16.505 34.9998 16.5065 34.9488 16.5065 34.9061V26.6136C16.5065 26.4634 16.5246 26.3254 16.5627 26.2043C16.7878 25.4983 17.4374 25.1114 18.0925 25.1727C18.8061 25.2402 19.4014 25.8933 19.4014 26.6904V30.2877V30.6487L19.744 30.7623C19.9377 30.8266 20.1068 30.9263 20.2432 31.0627L20.2534 31.073L20.2643 31.0826C20.264 31.0824 20.2652 31.0834 20.2679 31.0859C20.2735 31.0911 20.2858 31.1023 20.3057 31.1206L20.4171 31.2231C20.5088 31.3076 20.6312 31.4207 20.7594 31.5398C21.0209 31.7827 21.292 32.0371 21.3881 32.1349L21.3886 32.1354C21.5287 32.2777 21.6713 32.4261 21.8192 32.5801L21.8311 32.5925L21.8313 32.5926L21.8572 32.6196C22.581 33.3727 23.3876 34.212 24.3261 34.7625L24.3269 34.7629C24.5296 34.8814 24.7285 34.9908 24.9166 35.0943L24.9382 35.1062L24.9384 35.1063C25.9479 35.6612 26.7655 36.1202 27.3149 37.2514L27.3155 37.2526C27.8094 38.2627 28.0379 39.5041 27.9991 41.1994L27.9987 41.2173L27.9996 41.2351L28.1081 43.468C28.109 43.485 28.0954 43.4993 28.0782 43.4993C28.0624 43.4993 28.049 43.4868 28.0482 43.4707L27.9395 41.2287L27.9394 41.2192L27.9393 41.2125C27.9776 39.5936 27.775 38.328 27.2617 37.2783C26.7134 36.1504 25.8556 35.6787 24.951 35.1814C24.9374 35.1739 24.9238 35.1664 24.9102 35.159L24.9099 35.1588M16.9019 35.8534L24.9099 35.1588M18.0404 25.7299C18.4899 25.7723 18.8421 26.1941 18.8421 26.6901V30.2681M18.0404 25.7299C18.0113 25.7271 17.9826 25.7258 17.9539 25.7258C17.7334 25.7258 17.5247 25.8066 17.3587 25.9576C17.1731 26.1267 17.0665 26.3656 17.0665 26.6136V34.9064C17.0665 35.117 17.1351 35.3469 17.2976 35.457L18.8421 30.2681M18.8421 30.2681C18.3826 30.4013 17.9786 30.6983 17.7459 31.1883C17.4093 31.8965 17.5965 32.7449 18.1511 33.2993L21.658 36.8062L21.8739 37.022C21.8813 37.1874 21.9668 37.3499 22.1278 37.4525C22.3415 37.5889 22.6147 37.5436 22.7919 37.3624C22.8605 37.2922 22.9073 37.2229 22.9404 37.1696C23.0708 36.9603 23.0399 36.6886 22.8652 36.5142L18.8286 32.4785C18.6939 32.3438 18.6203 32.1632 18.6203 31.9698C18.6206 31.776 18.6954 31.5948 18.8305 31.4594L18.8421 30.2681ZM24.9099 35.1588C24.7059 35.0468 24.5028 34.9352 24.297 34.8148L24.9099 35.1588ZM16.5011 35.6067C16.5007 35.608 16.5007 35.6081 16.501 35.6069L16.5011 35.6067Z" fill="#2C4470" stroke="#2C4470"/>
<mask id="path-5-inside-2" fill="white">
<path d="M36.4994 22.7455C37.3376 22.2614 37.6259 21.1858 37.142 20.3473L36.7116 19.6014C36.399 19.0599 35.816 18.7233 35.1905 18.7233C34.8836 18.7233 34.5803 18.8047 34.3136 18.9585L34.0291 19.1226C34.0198 19.1279 34.0117 19.1291 34.0064 19.1291C33.4667 18.6943 32.8781 18.3546 32.2429 18.1153C32.2398 18.1141 32.2301 18.1022 32.2301 18.0835V17.7556C32.2301 16.7877 31.4425 16 30.4745 16H29.6132C28.6453 16 27.8576 16.7877 27.8576 17.7556V18.0838C27.8576 18.1028 27.8479 18.1144 27.8448 18.1156C27.2097 18.3549 26.621 18.6946 26.0951 19.1254C26.0873 19.127 26.0814 19.1276 26.0767 19.1276C26.0683 19.1276 26.0633 19.1257 26.0586 19.1229L25.7744 18.9588C25.5077 18.805 25.2045 18.7236 24.8975 18.7236C24.2718 18.7236 23.6887 19.0599 23.3762 19.6017L22.9457 20.3476C22.4618 21.1858 22.7501 22.2617 23.5883 22.7455L23.8694 22.9081C23.8843 22.9168 23.8912 22.9299 23.8899 22.9377C23.8344 23.2718 23.8063 23.6118 23.8063 23.9484C23.8063 24.285 23.8344 24.625 23.8899 24.9591C23.8912 24.9669 23.8846 24.9803 23.8694 24.9887L23.5883 25.1513C22.7501 25.6354 22.4618 26.711 22.9457 27.5492L23.3762 28.2951C23.6887 28.8366 24.2718 29.1732 24.8972 29.1732C25.2042 29.1732 25.5074 29.0918 25.7741 28.938L26.0586 28.7739C26.0679 28.7686 26.0761 28.7673 26.0814 28.7673C26.621 29.2022 27.2097 29.5419 27.8448 29.7812C27.8479 29.7824 27.8576 29.7943 27.8576 29.813V30.1408C27.8576 31.1088 28.6453 31.8965 29.6132 31.8965H30.4745C31.4425 31.8965 32.2301 31.1088 32.2301 30.1408V29.813C32.2301 29.794 32.2398 29.7824 32.2429 29.7812C32.8777 29.5419 33.4664 29.2022 33.9926 28.7714C34.0004 28.7702 34.0064 28.7695 34.011 28.7695C34.0195 28.7695 34.0245 28.7714 34.0291 28.7742L34.3133 28.9383C34.58 29.0921 34.8832 29.1735 35.1902 29.1735C35.816 29.1735 36.399 28.8369 36.7116 28.2954L37.142 27.5495C37.6259 26.7113 37.3376 25.6354 36.4994 25.1516L36.2184 24.989C36.2034 24.9803 36.1965 24.9672 36.1978 24.9594C36.2533 24.6253 36.2814 24.2853 36.2814 23.9487C36.2814 23.6121 36.2533 23.2721 36.1978 22.938C36.1965 22.9299 36.2031 22.9168 36.2184 22.9081L36.4994 22.7455ZM36.025 21.9236L35.7439 22.0861C35.3898 22.2904 35.1949 22.6897 35.2619 23.093C35.3081 23.3713 35.3328 23.657 35.3328 23.9484C35.3328 24.2398 35.3081 24.5255 35.2619 24.8038C35.1952 25.2068 35.3902 25.6061 35.7439 25.8107L36.025 25.9732C36.4108 26.196 36.5431 26.6895 36.3204 27.0753L35.8899 27.8212C35.7405 28.0801 35.4694 28.2249 35.1905 28.2249C35.0536 28.2249 34.9151 28.1899 34.7878 28.1166L34.5036 27.9525C34.3489 27.8633 34.1773 27.819 34.0064 27.819C33.7868 27.819 33.5687 27.8923 33.3912 28.0377C32.9507 28.3986 32.451 28.6894 31.9085 28.8937C31.5279 29.0372 31.2815 29.4068 31.2815 29.8136V30.1415C31.2815 30.5869 30.9203 30.9482 30.4748 30.9482H29.6135C29.1681 30.9482 28.8068 30.5869 28.8068 30.1415V29.8136C28.8068 29.4068 28.5604 29.0372 28.1798 28.8937C27.6374 28.6894 27.1376 28.3986 26.6971 28.0377C26.5196 27.8923 26.3016 27.819 26.082 27.819C25.9114 27.819 25.7395 27.8633 25.5847 27.9525L25.3002 28.1166C25.1733 28.1899 25.0345 28.2249 24.8978 28.2249C24.619 28.2249 24.3479 28.0801 24.1985 27.8215L23.7677 27.0753C23.5449 26.6895 23.6772 26.1963 24.0628 25.9732L24.3438 25.8107C24.6979 25.6064 24.8928 25.2071 24.8258 24.8038C24.7796 24.5255 24.755 24.2398 24.755 23.9484C24.755 23.657 24.7796 23.3713 24.8258 23.093C24.8928 22.69 24.6976 22.2907 24.3438 22.0861L24.0628 21.9236C23.6769 21.7008 23.5449 21.2073 23.7677 20.8214L24.1981 20.0756C24.3476 19.8167 24.6186 19.6719 24.8975 19.6719C25.0345 19.6719 25.173 19.7069 25.3002 19.7802L25.5844 19.9443C25.7392 20.0335 25.9107 20.0778 26.0817 20.0778C26.3013 20.0778 26.5193 20.0045 26.6968 19.8591C27.1373 19.4982 27.637 19.2074 28.1795 19.0031C28.5601 18.8596 28.8065 18.49 28.8065 18.0832V17.7553C28.8065 17.3099 29.1678 16.9486 29.6132 16.9486H30.4745C30.92 16.9486 31.2812 17.3099 31.2812 17.7553V18.0838C31.2812 18.4906 31.5276 18.8602 31.9082 19.0037C32.4507 19.2081 32.9504 19.4988 33.3909 19.8597C33.5684 20.0051 33.7864 20.0784 34.0061 20.0784C34.1767 20.0784 34.3486 20.0341 34.5033 19.9449L34.7878 19.7808C34.9148 19.7075 35.0536 19.6725 35.1902 19.6725C35.4691 19.6725 35.7402 19.8173 35.8896 20.0759L36.3204 20.8221C36.5431 21.2076 36.4108 21.7008 36.025 21.9236Z"/>
</mask>
<path d="M36.4994 22.7455C37.3376 22.2614 37.6259 21.1858 37.142 20.3473L36.7116 19.6014C36.399 19.0599 35.816 18.7233 35.1905 18.7233C34.8836 18.7233 34.5803 18.8047 34.3136 18.9585L34.0291 19.1226C34.0198 19.1279 34.0117 19.1291 34.0064 19.1291C33.4667 18.6943 32.8781 18.3546 32.2429 18.1153C32.2398 18.1141 32.2301 18.1022 32.2301 18.0835V17.7556C32.2301 16.7877 31.4425 16 30.4745 16H29.6132C28.6453 16 27.8576 16.7877 27.8576 17.7556V18.0838C27.8576 18.1028 27.8479 18.1144 27.8448 18.1156C27.2097 18.3549 26.621 18.6946 26.0951 19.1254C26.0873 19.127 26.0814 19.1276 26.0767 19.1276C26.0683 19.1276 26.0633 19.1257 26.0586 19.1229L25.7744 18.9588C25.5077 18.805 25.2045 18.7236 24.8975 18.7236C24.2718 18.7236 23.6887 19.0599 23.3762 19.6017L22.9457 20.3476C22.4618 21.1858 22.7501 22.2617 23.5883 22.7455L23.8694 22.9081C23.8843 22.9168 23.8912 22.9299 23.8899 22.9377C23.8344 23.2718 23.8063 23.6118 23.8063 23.9484C23.8063 24.285 23.8344 24.625 23.8899 24.9591C23.8912 24.9669 23.8846 24.9803 23.8694 24.9887L23.5883 25.1513C22.7501 25.6354 22.4618 26.711 22.9457 27.5492L23.3762 28.2951C23.6887 28.8366 24.2718 29.1732 24.8972 29.1732C25.2042 29.1732 25.5074 29.0918 25.7741 28.938L26.0586 28.7739C26.0679 28.7686 26.0761 28.7673 26.0814 28.7673C26.621 29.2022 27.2097 29.5419 27.8448 29.7812C27.8479 29.7824 27.8576 29.7943 27.8576 29.813V30.1408C27.8576 31.1088 28.6453 31.8965 29.6132 31.8965H30.4745C31.4425 31.8965 32.2301 31.1088 32.2301 30.1408V29.813C32.2301 29.794 32.2398 29.7824 32.2429 29.7812C32.8777 29.5419 33.4664 29.2022 33.9926 28.7714C34.0004 28.7702 34.0064 28.7695 34.011 28.7695C34.0195 28.7695 34.0245 28.7714 34.0291 28.7742L34.3133 28.9383C34.58 29.0921 34.8832 29.1735 35.1902 29.1735C35.816 29.1735 36.399 28.8369 36.7116 28.2954L37.142 27.5495C37.6259 26.7113 37.3376 25.6354 36.4994 25.1516L36.2184 24.989C36.2034 24.9803 36.1965 24.9672 36.1978 24.9594C36.2533 24.6253 36.2814 24.2853 36.2814 23.9487C36.2814 23.6121 36.2533 23.2721 36.1978 22.938C36.1965 22.9299 36.2031 22.9168 36.2184 22.9081L36.4994 22.7455ZM36.025 21.9236L35.7439 22.0861C35.3898 22.2904 35.1949 22.6897 35.2619 23.093C35.3081 23.3713 35.3328 23.657 35.3328 23.9484C35.3328 24.2398 35.3081 24.5255 35.2619 24.8038C35.1952 25.2068 35.3902 25.6061 35.7439 25.8107L36.025 25.9732C36.4108 26.196 36.5431 26.6895 36.3204 27.0753L35.8899 27.8212C35.7405 28.0801 35.4694 28.2249 35.1905 28.2249C35.0536 28.2249 34.9151 28.1899 34.7878 28.1166L34.5036 27.9525C34.3489 27.8633 34.1773 27.819 34.0064 27.819C33.7868 27.819 33.5687 27.8923 33.3912 28.0377C32.9507 28.3986 32.451 28.6894 31.9085 28.8937C31.5279 29.0372 31.2815 29.4068 31.2815 29.8136V30.1415C31.2815 30.5869 30.9203 30.9482 30.4748 30.9482H29.6135C29.1681 30.9482 28.8068 30.5869 28.8068 30.1415V29.8136C28.8068 29.4068 28.5604 29.0372 28.1798 28.8937C27.6374 28.6894 27.1376 28.3986 26.6971 28.0377C26.5196 27.8923 26.3016 27.819 26.082 27.819C25.9114 27.819 25.7395 27.8633 25.5847 27.9525L25.3002 28.1166C25.1733 28.1899 25.0345 28.2249 24.8978 28.2249C24.619 28.2249 24.3479 28.0801 24.1985 27.8215L23.7677 27.0753C23.5449 26.6895 23.6772 26.1963 24.0628 25.9732L24.3438 25.8107C24.6979 25.6064 24.8928 25.2071 24.8258 24.8038C24.7796 24.5255 24.755 24.2398 24.755 23.9484C24.755 23.657 24.7796 23.3713 24.8258 23.093C24.8928 22.69 24.6976 22.2907 24.3438 22.0861L24.0628 21.9236C23.6769 21.7008 23.5449 21.2073 23.7677 20.8214L24.1981 20.0756C24.3476 19.8167 24.6186 19.6719 24.8975 19.6719C25.0345 19.6719 25.173 19.7069 25.3002 19.7802L25.5844 19.9443C25.7392 20.0335 25.9107 20.0778 26.0817 20.0778C26.3013 20.0778 26.5193 20.0045 26.6968 19.8591C27.1373 19.4982 27.637 19.2074 28.1795 19.0031C28.5601 18.8596 28.8065 18.49 28.8065 18.0832V17.7553C28.8065 17.3099 29.1678 16.9486 29.6132 16.9486H30.4745C30.92 16.9486 31.2812 17.3099 31.2812 17.7553V18.0838C31.2812 18.4906 31.5276 18.8602 31.9082 19.0037C32.4507 19.2081 32.9504 19.4988 33.3909 19.8597C33.5684 20.0051 33.7864 20.0784 34.0061 20.0784C34.1767 20.0784 34.3486 20.0341 34.5033 19.9449L34.7878 19.7808C34.9148 19.7075 35.0536 19.6725 35.1902 19.6725C35.4691 19.6725 35.7402 19.8173 35.8896 20.0759L36.3204 20.8221C36.5431 21.2076 36.4108 21.7008 36.025 21.9236Z" fill="#0074E0" stroke="#0074E0" stroke-width="2" mask="url(#path-5-inside-2)"/>
<mask id="path-6-inside-3" fill="white">
<path d="M30.0439 20.8651C28.3438 20.8651 26.9609 22.2483 26.9609 23.9484C26.9609 25.6485 28.3438 27.0314 30.0439 27.0314C31.744 27.0314 33.1272 25.6482 33.1272 23.9481C33.1272 22.248 31.744 20.8651 30.0439 20.8651ZM30.0439 26.0824C28.8651 26.0824 27.9096 25.1269 27.9096 23.9481C27.9096 22.7692 28.8651 21.8137 30.0439 21.8137C31.2227 21.8137 32.1782 22.7692 32.1782 23.9481C32.1782 25.1269 31.2227 26.0824 30.0439 26.0824Z"/>
</mask>
<path d="M30.0439 20.8651C28.3438 20.8651 26.9609 22.2483 26.9609 23.9484C26.9609 25.6485 28.3438 27.0314 30.0439 27.0314C31.744 27.0314 33.1272 25.6482 33.1272 23.9481C33.1272 22.248 31.744 20.8651 30.0439 20.8651ZM30.0439 26.0824C28.8651 26.0824 27.9096 25.1269 27.9096 23.9481C27.9096 22.7692 28.8651 21.8137 30.0439 21.8137C31.2227 21.8137 32.1782 22.7692 32.1782 23.9481C32.1782 25.1269 31.2227 26.0824 30.0439 26.0824Z" fill="#0074E0"/>
<path d="M30.0439 19.8651C27.7914 19.8651 25.9609 21.6961 25.9609 23.9484H27.9609C27.9609 22.8004 28.8962 21.8651 30.0439 21.8651V19.8651ZM25.9609 23.9484C25.9609 26.2008 27.7915 28.0314 30.0439 28.0314V26.0314C28.8961 26.0314 27.9609 25.0962 27.9609 23.9484H25.9609ZM30.0439 28.0314C32.2963 28.0314 34.1272 26.2005 34.1272 23.9481H32.1272C32.1272 25.0959 31.1917 26.0314 30.0439 26.0314V28.0314ZM34.1272 23.9481C34.1272 21.6956 32.2962 19.8651 30.0439 19.8651V21.8651C31.1919 21.8651 32.1272 22.8004 32.1272 23.9481H34.1272ZM30.0439 25.0824C29.4173 25.0824 28.9096 24.5746 28.9096 23.9481H26.9096C26.9096 25.6792 28.3128 27.0824 30.0439 27.0824V25.0824ZM28.9096 23.9481C28.9096 23.3215 29.4173 22.8137 30.0439 22.8137V20.8137C28.3128 20.8137 26.9096 22.2169 26.9096 23.9481H28.9096ZM30.0439 22.8137C30.6705 22.8137 31.1782 23.3215 31.1782 23.9481H33.1782C33.1782 22.2169 31.775 20.8137 30.0439 20.8137V22.8137ZM31.1782 23.9481C31.1782 24.5746 30.6705 25.0824 30.0439 25.0824V27.0824C31.775 27.0824 33.1782 25.6792 33.1782 23.9481H31.1782Z" fill="#0074E0" mask="url(#path-6-inside-3)"/>
</svg>
