<svg width="60" height="60" fill="none" xmlns="http://www.w3.org/2000/svg">
    <circle cx="30" cy="30" r="29.5" fill="#fff" stroke="#2C4470"/>
    <path d="M32.827 37.278c.548-1.128 1.406-1.6 2.311-2.097l.04-.022c.204-.111.407-.224.614-.344.935-.55 1.744-1.386 2.508-2.18v-.001l.014-.014c.143-.15.287-.299.428-.443.171-.174.88-.829 1.153-1.08a1.24 1.24 0 0 1 1.716.008c.23.231.357.54.357.864 0 .323-.125.633-.355.863l-4.036 4.036a.03.03 0 0 0-.005.038.625.625 0 0 0 .072.097.06.06 0 0 0 .03.019.02.02 0 0 0 .013-.001.042.042 0 0 0 .012-.008s.003-.005.004-.014l.013-.185.132-.132.228-.229 3.508-3.507c.42-.42.543-1.045.306-1.543a1.208 1.208 0 0 0-.784-.654l-.36-.105V26.69c0-.715.51-1.388 1.253-1.458m-9.172 12.045 5.217 3.56m-5.217-3.56c-.514 1.05-.717 2.316-.678 3.935v.016l-.11 2.242.788-6.193zm9.172-12.045a1.378 1.378 0 0 1 1.066.356c.288.262.456.634.456 1.025v8.293c0 .262-.077.678-.404.931l-.234.234-4.296 4.296c-.157.157-.341.34-.543.47m3.955-15.605.048.497-.047-.497zm-3.955 15.606a.135.135 0 0 0-.037.033l-.004.005-.343 2.589m.384-2.627-.384 2.627m0 0a.03.03 0 1 0 .06.008l.313-2.36.026-.203.161-.126a4.573 4.573 0 0 0 .41-.375l4.561-4.562c.13-.129.243-.244.348-.373l-5.879 7.99zm3.026-12.817-.343.113c-.194.064-.358.16-.482.285l-.007.008-.008.007c-.047.043-.946.87-1.146 1.073-.14.143-.283.29-.43.444l-.013.014-.023.023c-.725.755-1.532 1.596-2.472 2.147-.212.123-.418.237-.613.344-1.01.555-1.827 1.014-2.376 2.144v.001c-.495 1.011-.723 2.252-.684 3.948v.035l-.11 2.233a.03.03 0 1 0 .06.003l8.647-12.822zm0 0v-.362m0 .362v-.362m0 0V26.69c0-.797.595-1.45 1.309-1.518.402-.037.811.098 1.111.372l-2.42 4.743zm2.897 5.07.003-.035c.002-.033.003-.074.002-.123l-.003-.148v-.005c-.002-.046-.003-.097-.003-.14v-8.292c0-.404-.173-.795-.476-1.07l.477 9.814zm0 0-.023.094a1.126 1.126 0 0 0-.02.024l.043-.117zm.005.25v.001zM20.209 31.113a1.23 1.23 0 0 0-1.732-.007c-.23.23-.356.538-.357.863 0 .324.124.632.355.863l4.037 4.036a.03.03 0 0 1 .004.037v.001a.597.597 0 0 1-.082.107.06.06 0 0 1-.032.019H22.4l-2.19-5.92zm0 0c.258.237.966.891 1.137 1.064.141.144.284.293.427.442l.015.016c.764.794 1.572 1.63 2.509 2.18.206.12.409.232.613.344l.041.022c.905.498 1.762.97 2.31 2.097.514 1.05.717 2.316.678 3.934v.017l.11 2.242m-7.84-12.358 7.87 12.886a.53.53 0 0 1-.53-.504l.5-.024m0 0a.03.03 0 0 0 .03.028.03.03 0 0 0 .03-.031m-.06.003.06-.003m0 0-.11-2.233V41.2c.039-1.695-.19-2.936-.683-3.946l-.001-.002c-.55-1.13-1.367-1.59-2.377-2.145l-.021-.012c-.188-.103-.387-.213-.59-.331-.94-.551-1.746-1.39-2.47-2.143l-.026-.027-.012-.013c-.148-.154-.29-.302-.43-.445a28.926 28.926 0 0 0-.63-.595l-.342-.317-.111-.102-.042-.038-.01-.01-.01-.01a1.256 1.256 0 0 0-.5-.3l-.343-.114V26.69c0-.797-.595-1.45-1.308-1.517a1.458 1.458 0 0 0-1.53 1.031 1.37 1.37 0 0 0-.056.41v8.292l-.003.14v.005a6.95 6.95 0 0 0-.002.27l.003.036.024.094.02.024c.107.132.228.253.353.378l4.557 4.558c.122.122.257.255.409.374l.16.126.028.203.313 2.36-.496.066.496-.066a.03.03 0 1 0 .059-.008l-.344-2.588c0-.001 0-.003-.003-.006a.135.135 0 0 0-.037-.033 3.533 3.533 0 0 1-.543-.47l-4.296-4.297-.234-.234c-.328-.253-.404-.669-.404-.932v-8.292c0-.392.167-.764.455-1.026a1.377 1.377 0 0 1 1.067-.356l-.049.498.047-.498c.744.07 1.255.743 1.255 1.458V30.644l-.36.104c-.34.098-.62.309-.784.655-.237.498-.114 1.122.306 1.543l3.508 3.507.215.215.138.138.008.193c0 .005.002.01.004.013.002.004.007.011.02.019h.001l5.71 6.437zM16.5 35.607c0 .001 0 .001 0 0z" fill="#2C4470" stroke="#2C4470"/>
    <mask id="a" fill="#fff">
        <path d="M36.5 22.745a1.758 1.758 0 0 0 .642-2.398l-.43-.746a1.758 1.758 0 0 0-2.398-.643l-.285.165a.046.046 0 0 1-.023.006 6.394 6.394 0 0 0-1.763-1.014c-.003 0-.013-.013-.013-.031v-.328c0-.968-.787-1.756-1.755-1.756h-.862c-.968 0-1.755.788-1.755 1.756v.328c0 .019-.01.03-.013.032a6.212 6.212 0 0 0-1.75 1.01.092.092 0 0 1-.018.002.032.032 0 0 1-.018-.005l-.285-.164a1.758 1.758 0 0 0-2.398.643l-.43.746a1.757 1.757 0 0 0 .642 2.398l.281.162c.015.009.022.022.02.03a6.186 6.186 0 0 0 0 2.021c.002.008-.004.021-.02.03l-.28.162a1.758 1.758 0 0 0-.643 2.398l.43.746a1.758 1.758 0 0 0 2.398.643l.285-.164a.047.047 0 0 1 .022-.007c.54.435 1.129.775 1.764 1.014.003.001.013.013.013.032v.328c0 .968.787 1.756 1.755 1.756h.861c.968 0 1.756-.788 1.756-1.756v-.328c0-.019.01-.03.013-.032a6.22 6.22 0 0 0 1.75-1.01.13.13 0 0 1 .018-.002c.008 0 .014.002.018.005l.284.164a1.758 1.758 0 0 0 2.399-.643l.43-.746a1.757 1.757 0 0 0-.643-2.397l-.28-.163c-.016-.009-.023-.022-.021-.03a6.186 6.186 0 0 0 0-2.021c-.002-.008.005-.021.02-.03l.281-.163zm-.475-.821-.281.162a.98.98 0 0 0-.482 1.007 5.22 5.22 0 0 1 0 1.71.98.98 0 0 0 .482 1.008l.281.162a.807.807 0 0 1 .295 1.102l-.43.746a.806.806 0 0 1-1.102.296l-.284-.165a.995.995 0 0 0-.498-.133.969.969 0 0 0-.615.219c-.44.36-.94.651-1.482.856a.98.98 0 0 0-.627.92v.328a.807.807 0 0 1-.807.806h-.862a.807.807 0 0 1-.806-.806v-.328a.98.98 0 0 0-.627-.92 5.272 5.272 0 0 1-1.483-.856.968.968 0 0 0-.615-.219.996.996 0 0 0-.497.134l-.285.164a.803.803 0 0 1-1.102-.296l-.43-.746a.807.807 0 0 1 .295-1.102l.28-.162a.98.98 0 0 0 .483-1.007 5.22 5.22 0 0 1 0-1.711.98.98 0 0 0-.482-1.007l-.281-.162a.807.807 0 0 1-.295-1.103l.43-.745a.806.806 0 0 1 1.102-.296l.284.164c.155.09.327.134.498.134.22 0 .437-.073.615-.219.44-.36.94-.652 1.483-.856a.98.98 0 0 0 .627-.92v-.328c0-.445.36-.806.806-.806h.861c.446 0 .807.36.807.806v.329a.98.98 0 0 0 .627.92 5.273 5.273 0 0 1 1.483.856.968.968 0 0 0 .615.218c.17 0 .343-.044.497-.133l.285-.164a.803.803 0 0 1 1.102.295l.43.746a.806.806 0 0 1-.295 1.102z"/>
    </mask>
    <path d="M36.5 22.745a1.758 1.758 0 0 0 .642-2.398l-.43-.746a1.758 1.758 0 0 0-2.398-.643l-.285.165a.046.046 0 0 1-.023.006 6.394 6.394 0 0 0-1.763-1.014c-.003 0-.013-.013-.013-.031v-.328c0-.968-.787-1.756-1.755-1.756h-.862c-.968 0-1.755.788-1.755 1.756v.328c0 .019-.01.03-.013.032a6.212 6.212 0 0 0-1.75 1.01.092.092 0 0 1-.018.002.032.032 0 0 1-.018-.005l-.285-.164a1.758 1.758 0 0 0-2.398.643l-.43.746a1.757 1.757 0 0 0 .642 2.398l.281.162c.015.009.022.022.02.03a6.186 6.186 0 0 0 0 2.021c.002.008-.004.021-.02.03l-.28.162a1.758 1.758 0 0 0-.643 2.398l.43.746a1.758 1.758 0 0 0 2.398.643l.285-.164a.047.047 0 0 1 .022-.007c.54.435 1.129.775 1.764 1.014.003.001.013.013.013.032v.328c0 .968.787 1.756 1.755 1.756h.861c.968 0 1.756-.788 1.756-1.756v-.328c0-.019.01-.03.013-.032a6.22 6.22 0 0 0 1.75-1.01.13.13 0 0 1 .018-.002c.008 0 .014.002.018.005l.284.164a1.758 1.758 0 0 0 2.399-.643l.43-.746a1.757 1.757 0 0 0-.643-2.397l-.28-.163c-.016-.009-.023-.022-.021-.03a6.186 6.186 0 0 0 0-2.021c-.002-.008.005-.021.02-.03l.281-.163zm-.475-.821-.281.162a.98.98 0 0 0-.482 1.007 5.22 5.22 0 0 1 0 1.71.98.98 0 0 0 .482 1.008l.281.162a.807.807 0 0 1 .295 1.102l-.43.746a.806.806 0 0 1-1.102.296l-.284-.165a.995.995 0 0 0-.498-.133.969.969 0 0 0-.615.219c-.44.36-.94.651-1.482.856a.98.98 0 0 0-.627.92v.328a.807.807 0 0 1-.807.806h-.862a.807.807 0 0 1-.806-.806v-.328a.98.98 0 0 0-.627-.92 5.272 5.272 0 0 1-1.483-.856.968.968 0 0 0-.615-.219.996.996 0 0 0-.497.134l-.285.164a.803.803 0 0 1-1.102-.296l-.43-.746a.807.807 0 0 1 .295-1.102l.28-.162a.98.98 0 0 0 .483-1.007 5.22 5.22 0 0 1 0-1.711.98.98 0 0 0-.482-1.007l-.281-.162a.807.807 0 0 1-.295-1.103l.43-.745a.806.806 0 0 1 1.102-.296l.284.164c.155.09.327.134.498.134.22 0 .437-.073.615-.219.44-.36.94-.652 1.483-.856a.98.98 0 0 0 .627-.92v-.328c0-.445.36-.806.806-.806h.861c.446 0 .807.36.807.806v.329a.98.98 0 0 0 .627.92 5.273 5.273 0 0 1 1.483.856.968.968 0 0 0 .615.218c.17 0 .343-.044.497-.133l.285-.164a.803.803 0 0 1 1.102.295l.43.746a.806.806 0 0 1-.295 1.102z" fill="#0074E0" stroke="#0074E0" stroke-width="2" mask="url(#a)"/>
    <mask id="b" fill="#fff">
        <path d="M30.044 20.865a3.087 3.087 0 0 0-3.083 3.083c0 1.7 1.383 3.083 3.083 3.083 1.7 0 3.083-1.383 3.083-3.083 0-1.7-1.383-3.083-3.083-3.083zm0 5.217a2.134 2.134 0 1 1 0-4.268 2.134 2.134 0 0 1 0 4.268z"/>
    </mask>
    <path d="M30.044 20.865a3.087 3.087 0 0 0-3.083 3.083c0 1.7 1.383 3.083 3.083 3.083 1.7 0 3.083-1.383 3.083-3.083 0-1.7-1.383-3.083-3.083-3.083zm0 5.217a2.134 2.134 0 1 1 0-4.268 2.134 2.134 0 0 1 0 4.268z" fill="#0074E0"/>
    <path d="M30.044 19.865a4.087 4.087 0 0 0-4.083 4.083h2c0-1.148.935-2.083 2.083-2.083v-2zm-4.083 4.083a4.086 4.086 0 0 0 4.083 4.083v-2a2.086 2.086 0 0 1-2.083-2.083h-2zm4.083 4.083a4.087 4.087 0 0 0 4.083-4.083h-2a2.087 2.087 0 0 1-2.083 2.083v2zm4.083-4.083a4.087 4.087 0 0 0-4.083-4.083v2c1.148 0 2.083.935 2.083 2.083h2zm-4.083 1.134a1.134 1.134 0 0 1-1.134-1.134h-2a3.134 3.134 0 0 0 3.134 3.134v-2zm-1.134-1.134c0-.627.507-1.134 1.134-1.134v-2a3.134 3.134 0 0 0-3.134 3.134h2zm1.134-1.134c.627 0 1.134.508 1.134 1.134h2a3.134 3.134 0 0 0-3.134-3.134v2zm1.134 1.134c0 .627-.508 1.134-1.134 1.134v2a3.134 3.134 0 0 0 3.134-3.134h-2z" fill="#0074E0" mask="url(#b)"/>
</svg>
