<svg width="60" height="60" fill="none" xmlns="http://www.w3.org/2000/svg">
    <path d="M13.2 9.1a2.303 2.303 0 0 1-2.3-2.3.9.9 0 1 0-1.8 0c0 1.268-1.032 2.3-2.3 2.3a.9.9 0 1 0 0 1.8c1.268 0 2.3 1.032 2.3 2.3a.9.9 0 1 0 1.8 0c0-1.268 1.032-2.3 2.3-2.3a.9.9 0 1 0 0-1.8zm-2.56.9c-.236.189-.45.403-.64.64a4.135 4.135 0 0 0-.64-.64c.236-.189.451-.403.64-.64.19.237.404.451.64.64zM16.4 17.9a.9.9 0 1 0 0 1.8c1.268 0 2.3 1.032 2.3 2.3a.9.9 0 1 0 1.8 0c0-1.268 1.032-2.3 2.3-2.3a.9.9 0 1 0 0-1.8 2.303 2.303 0 0 1-2.3-2.3.9.9 0 1 0-1.8 0c0 1.268-1.032 2.3-2.3 2.3zm2.56.9c.236-.189.45-.403.64-.64.189.237.404.451.639.64-.235.189-.45.403-.64.64a4.134 4.134 0 0 0-.639-.64zM18.8 6.7h-.1V8.5H20.5V6.7H18.8zM27.6 11.5h-.1V13.3H29.3V11.5H27.6zM7.6 25.1h-.1V26.9H9.3V25.1H7.6zM10 17.1h-.1V18.9H11.7V17.1H10zM40.4 6.7h-.1V8.5H42.1V6.7H40.4z" fill="#06F" stroke="#06F" stroke-width=".2"/>
    <mask id="a" maskUnits="userSpaceOnUse" x="5" y="6.606" width="50" height="48" fill="#000">
        <path fill="#fff" d="M5 6.606h50v48H5z"/>
        <path d="M6.294 37.38a.8.8 0 0 0-.087 1.158l5.995 6.608c3.008 4.482 7.707 7.414 12.866 8.044l4.8.8a.8.8 0 0 0 .932-.79V46h6.4c.804 0 1.531-.308 2.094-.8H44.4a.8.8 0 0 0 .8-.8V34.8a.8.8 0 0 0-.8-.8h-8a2.403 2.403 0 0 0-2.4 2.4v3.2h-2.4v-3.2H30v4a.8.8 0 0 0 .8.8h6.4c.882 0 1.6.718 1.6 1.6 0 .102-.012.2-.03.298-.016.079-.04.157-.068.233l-.012.039c-.07.178-.175.346-.308.495l-.01.016a1.59 1.59 0 0 1-1.172.519h-9.6c-.882 0-1.6-.718-1.6-1.6v-9.286c0-1.395.742-2.708 1.937-3.428l3.777-2.274c.028.026.057.047.084.072.15.138.303.271.463.397l.112.084c.166.126.336.248.512.361.032.021.065.04.097.06.183.114.37.223.561.322.029.014.059.027.087.042.196.098.395.19.6.272.03.013.064.024.096.036.201.077.404.15.613.212.047.015.096.024.144.037.193.053.387.104.585.143.094.018.188.028.282.043.156.025.31.053.47.068.258.025.518.039.78.039 4.411 0 8-3.589 8-8 0-.214-.013-.434-.034-.66a7.73 7.73 0 0 0-.056-.475c-.004-.021-.004-.04-.008-.06a8.13 8.13 0 0 0 .093-1.023l3.069-9.89c1.091-.795 2.254-.911 3.143-.306a2.25 2.25 0 0 1 .89 2.539l-4.661 15.017a.796.796 0 0 0-.036.238V54h1.6V27.5l4.625-14.9a3.84 3.84 0 0 0-1.517-4.336c-1.197-.816-3.198-1.108-5.236.526a.867.867 0 0 0-.262.39l-2.722 8.772C42.695 15.592 40.134 14 37.2 14c-4.411 0-8 3.589-8 8 0 .925.166 1.81.456 2.636a22.355 22.355 0 0 0-16.245 6.929L6.294 37.38zM36.4 35.6h7.2v1.6h-7.2a.8.8 0 0 1 0-1.6zm.8 4h-1.6v-.937c.069.024.142.038.214.056.045.011.088.027.135.035.146.028.297.046.451.046h7.2v4.8h-3.303c.007-.029.01-.058.017-.087l.03-.151c.033-.185.056-.372.056-.562 0-1.765-1.435-3.2-3.2-3.2zm0-24c3.165 0 5.793 2.311 6.303 5.333v.004A6.507 6.507 0 0 1 43.6 22a6.407 6.407 0 0 1-7.072 6.364l-.022-.003a6.386 6.386 0 0 1-2.494-.82l-.026-.016a6.367 6.367 0 0 1-.523-.341c-.017-.013-.033-.026-.051-.038a6.442 6.442 0 0 1-.938-.848l-.038-.041a6.886 6.886 0 0 1-.41-.507l-.063-.084a5.962 5.962 0 0 1-.308-.487A6.33 6.33 0 0 1 30.8 22c0-3.529 2.871-6.4 6.4-6.4zM14.535 32.703a20.74 20.74 0 0 1 15.89-6.452c.032.051.068.101.101.151.028.042.055.083.084.124l.04.059-3.539 2.13a5.61 5.61 0 0 0-2.256 2.607 8.75 8.75 0 0 0-5.55 2.992l-2.712 3.165 1.215 1.041 2.713-3.165a7.158 7.158 0 0 1 3.912-2.339c-.015.166-.033.33-.033.498V42.8c0 1.765 1.435 3.2 3.2 3.2h1.6v6.255l-3.903-.65c-4.75-.58-9.05-3.276-11.797-7.397a.816.816 0 0 0-.073-.094l-5.469-6.028 6.503-5.315a.662.662 0 0 0 .074-.068z"/>
    </mask>
    <path d="M6.294 37.38a.8.8 0 0 0-.087 1.158l5.995 6.608c3.008 4.482 7.707 7.414 12.866 8.044l4.8.8a.8.8 0 0 0 .932-.79V46h6.4c.804 0 1.531-.308 2.094-.8H44.4a.8.8 0 0 0 .8-.8V34.8a.8.8 0 0 0-.8-.8h-8a2.403 2.403 0 0 0-2.4 2.4v3.2h-2.4v-3.2H30v4a.8.8 0 0 0 .8.8h6.4c.882 0 1.6.718 1.6 1.6 0 .102-.012.2-.03.298-.016.079-.04.157-.068.233l-.012.039c-.07.178-.175.346-.308.495l-.01.016a1.59 1.59 0 0 1-1.172.519h-9.6c-.882 0-1.6-.718-1.6-1.6v-9.286c0-1.395.742-2.708 1.937-3.428l3.777-2.274c.028.026.057.047.084.072.15.138.303.271.463.397l.112.084c.166.126.336.248.512.361.032.021.065.04.097.06.183.114.37.223.561.322.029.014.059.027.087.042.196.098.395.19.6.272.03.013.064.024.096.036.201.077.404.15.613.212.047.015.096.024.144.037.193.053.387.104.585.143.094.018.188.028.282.043.156.025.31.053.47.068.258.025.518.039.78.039 4.411 0 8-3.589 8-8 0-.214-.013-.434-.034-.66a7.73 7.73 0 0 0-.056-.475c-.004-.021-.004-.04-.008-.06a8.13 8.13 0 0 0 .093-1.023l3.069-9.89c1.091-.795 2.254-.911 3.143-.306a2.25 2.25 0 0 1 .89 2.539l-4.661 15.017a.796.796 0 0 0-.036.238V54h1.6V27.5l4.625-14.9a3.84 3.84 0 0 0-1.517-4.336c-1.197-.816-3.198-1.108-5.236.526a.867.867 0 0 0-.262.39l-2.722 8.772C42.695 15.592 40.134 14 37.2 14c-4.411 0-8 3.589-8 8 0 .925.166 1.81.456 2.636a22.355 22.355 0 0 0-16.245 6.929L6.294 37.38zM36.4 35.6h7.2v1.6h-7.2a.8.8 0 0 1 0-1.6zm.8 4h-1.6v-.937c.069.024.142.038.214.056.045.011.088.027.135.035.146.028.297.046.451.046h7.2v4.8h-3.303c.007-.029.01-.058.017-.087l.03-.151c.033-.185.056-.372.056-.562 0-1.765-1.435-3.2-3.2-3.2zm0-24c3.165 0 5.793 2.311 6.303 5.333v.004A6.507 6.507 0 0 1 43.6 22a6.407 6.407 0 0 1-7.072 6.364l-.022-.003a6.386 6.386 0 0 1-2.494-.82l-.026-.016a6.367 6.367 0 0 1-.523-.341c-.017-.013-.033-.026-.051-.038a6.442 6.442 0 0 1-.938-.848l-.038-.041a6.886 6.886 0 0 1-.41-.507l-.063-.084a5.962 5.962 0 0 1-.308-.487A6.33 6.33 0 0 1 30.8 22c0-3.529 2.871-6.4 6.4-6.4zM14.535 32.703a20.74 20.74 0 0 1 15.89-6.452c.032.051.068.101.101.151.028.042.055.083.084.124l.04.059-3.539 2.13a5.61 5.61 0 0 0-2.256 2.607 8.75 8.75 0 0 0-5.55 2.992l-2.712 3.165 1.215 1.041 2.713-3.165a7.158 7.158 0 0 1 3.912-2.339c-.015.166-.033.33-.033.498V42.8c0 1.765 1.435 3.2 3.2 3.2h1.6v6.255l-3.903-.65c-4.75-.58-9.05-3.276-11.797-7.397a.816.816 0 0 0-.073-.094l-5.469-6.028 6.503-5.315a.662.662 0 0 0 .074-.068z" fill="#06F"/>
    <path d="M6.294 37.38a.8.8 0 0 0-.087 1.158l5.995 6.608c3.008 4.482 7.707 7.414 12.866 8.044l4.8.8a.8.8 0 0 0 .932-.79V46h6.4c.804 0 1.531-.308 2.094-.8H44.4a.8.8 0 0 0 .8-.8V34.8a.8.8 0 0 0-.8-.8h-8a2.403 2.403 0 0 0-2.4 2.4v3.2h-2.4v-3.2H30v4a.8.8 0 0 0 .8.8h6.4c.882 0 1.6.718 1.6 1.6 0 .102-.012.2-.03.298-.016.079-.04.157-.068.233l-.012.039c-.07.178-.175.346-.308.495l-.01.016a1.59 1.59 0 0 1-1.172.519h-9.6c-.882 0-1.6-.718-1.6-1.6v-9.286c0-1.395.742-2.708 1.937-3.428l3.777-2.274c.028.026.057.047.084.072.15.138.303.271.463.397l.112.084c.166.126.336.248.512.361.032.021.065.04.097.06.183.114.37.223.561.322.029.014.059.027.087.042.196.098.395.19.6.272.03.013.064.024.096.036.201.077.404.15.613.212.047.015.096.024.144.037.193.053.387.104.585.143.094.018.188.028.282.043.156.025.31.053.47.068.258.025.518.039.78.039 4.411 0 8-3.589 8-8 0-.214-.013-.434-.034-.66a7.73 7.73 0 0 0-.056-.475c-.004-.021-.004-.04-.008-.06a8.13 8.13 0 0 0 .093-1.023l3.069-9.89c1.091-.795 2.254-.911 3.143-.306a2.25 2.25 0 0 1 .89 2.539l-4.661 15.017a.796.796 0 0 0-.036.238V54h1.6V27.5l4.625-14.9a3.84 3.84 0 0 0-1.517-4.336c-1.197-.816-3.198-1.108-5.236.526a.867.867 0 0 0-.262.39l-2.722 8.772C42.695 15.592 40.134 14 37.2 14c-4.411 0-8 3.589-8 8 0 .925.166 1.81.456 2.636a22.355 22.355 0 0 0-16.245 6.929L6.294 37.38zM36.4 35.6h7.2v1.6h-7.2a.8.8 0 0 1 0-1.6zm.8 4h-1.6v-.937c.069.024.142.038.214.056.045.011.088.027.135.035.146.028.297.046.451.046h7.2v4.8h-3.303c.007-.029.01-.058.017-.087l.03-.151c.033-.185.056-.372.056-.562 0-1.765-1.435-3.2-3.2-3.2zm0-24c3.165 0 5.793 2.311 6.303 5.333v.004A6.507 6.507 0 0 1 43.6 22a6.407 6.407 0 0 1-7.072 6.364l-.022-.003a6.386 6.386 0 0 1-2.494-.82l-.026-.016a6.367 6.367 0 0 1-.523-.341c-.017-.013-.033-.026-.051-.038a6.442 6.442 0 0 1-.938-.848l-.038-.041a6.886 6.886 0 0 1-.41-.507l-.063-.084a5.962 5.962 0 0 1-.308-.487A6.33 6.33 0 0 1 30.8 22c0-3.529 2.871-6.4 6.4-6.4zM14.535 32.703a20.74 20.74 0 0 1 15.89-6.452c.032.051.068.101.101.151.028.042.055.083.084.124l.04.059-3.539 2.13a5.61 5.61 0 0 0-2.256 2.607 8.75 8.75 0 0 0-5.55 2.992l-2.712 3.165 1.215 1.041 2.713-3.165a7.158 7.158 0 0 1 3.912-2.339c-.015.166-.033.33-.033.498V42.8c0 1.765 1.435 3.2 3.2 3.2h1.6v6.255l-3.903-.65c-4.75-.58-9.05-3.276-11.797-7.397a.816.816 0 0 0-.073-.094l-5.469-6.028 6.503-5.315a.662.662 0 0 0 .074-.068z" stroke="#06F" stroke-width=".4" mask="url(#a)"/>
</svg>
