<svg width="60" height="60" fill="none" xmlns="http://www.w3.org/2000/svg">
    <path d="M29.976 37.766a6.183 6.183 0 0 0 6.176-6.176 6.182 6.182 0 0 0-6.176-6.175 6.182 6.182 0 0 0-6.175 6.175 6.182 6.182 0 0 0 6.175 6.176zm0-10.217a4.046 4.046 0 0 1 4.042 4.041 4.047 4.047 0 0 1-4.042 4.042 4.047 4.047 0 0 1-4.042-4.042 4.046 4.046 0 0 1 4.042-4.041zM12.177 37.766a6.182 6.182 0 0 0 6.176-6.176 6.182 6.182 0 0 0-6.176-6.175 6.182 6.182 0 0 0-6.175 6.175 6.183 6.183 0 0 0 6.175 6.176zm0-10.217a4.046 4.046 0 0 1 4.042 4.041 4.047 4.047 0 0 1-4.042 4.042 4.047 4.047 0 0 1-4.042-4.042 4.046 4.046 0 0 1 4.042-4.041zM41.648 31.59a6.182 6.182 0 0 0 6.175 6.176 6.182 6.182 0 0 0 6.175-6.176 6.182 6.182 0 0 0-6.175-6.175 6.182 6.182 0 0 0-6.175 6.175zm6.175-4.041a4.046 4.046 0 0 1 4.042 4.041 4.047 4.047 0 0 1-4.042 4.042 4.047 4.047 0 0 1-4.042-4.042 4.046 4.046 0 0 1 4.042-4.041zM50.35 38.614h-3.386a5.254 5.254 0 0 0-3.955 1.796l-2.793 3.197c-.385.44-.926.7-1.504.748v-1.626a4.115 4.115 0 0 0-4.11-4.11c-.002 0-.466 0-.602-.002-.024-.002-.049-.03-.074-.003l-8.568.005a4.12 4.12 0 0 0-4.12 4.11v1.62a2.236 2.236 0 0 1-1.453-.741l-2.793-3.197a5.251 5.251 0 0 0-3.955-1.797H9.65A3.65 3.65 0 0 0 6 42.26v9.722a1.067 1.067 0 0 0 2.133 0V42.26c0-.834.68-1.512 1.517-1.512h3.385c.9 0 1.757.389 2.35 1.068l2.793 3.196a4.38 4.38 0 0 0 3.296 1.497h2.624a.812.812 0 0 1 .03 1.623h-.004c-.009.001-.017.004-.027.004h-4.501c-.3 0-.59-.111-.812-.313l-3.133-2.827a1.067 1.067 0 0 0-1.43 1.584l.929.838v4.564a1.067 1.067 0 0 0 2.133 0v-2.64l.071.065c.343.31.745.532 1.175.677v1.898a1.067 1.067 0 0 0 2.133 0v-1.713h3.435c.043 0 .085-.005.127-.007.043.002.088.007.131.007h11.238c.04 0 .099-.002.166-.008.048.003.094.008.143.008h3.435v1.713a1.067 1.067 0 0 0 2.133 0v-1.898c.43-.145.832-.367 1.175-.676l.071-.065v2.64a1.067 1.067 0 0 0 2.134 0v-4.565l.928-.838a1.067 1.067 0 0 0-1.43-1.584l-3.132 2.828c-.223.2-.511.312-.812.312h-4.501a.814.814 0 0 1 0-1.626h2.623a4.376 4.376 0 0 0 3.296-1.498l2.793-3.197a3.121 3.121 0 0 1 2.35-1.067h3.385c.836 0 1.517.678 1.517 1.512v9.722a1.067 1.067 0 0 0 2.133 0V42.26a3.652 3.652 0 0 0-3.65-3.645zm-17.395 8.707c0 .283.043.555.117.814l-6.145.001c.074-.26.117-.532.117-.815a2.95 2.95 0 0 0-2.947-2.946h-.727V42.73c0-1.09.891-1.976 1.987-1.976l8.57-.006v-.02c.227.026.462.026.675.026 1.09 0 1.976.886 1.976 1.976v1.646h-.676a2.95 2.95 0 0 0-2.947 2.946zM42.208 6H30.683a5.083 5.083 0 0 0-5.078 5.077v6.576c0 2.8 2.278 5.078 5.078 5.078h4.646l6.191 2.866a1.06 1.06 0 0 0 1.137-.153c.317-.268.45-.695.34-1.096l-.447-1.635c2.644-.177 4.741-2.376 4.741-5.06v-6.576c0-2.8-2.28-5.077-5.083-5.077zm2.95 11.653a2.95 2.95 0 0 1-2.95 2.944h-1.05l-.033.003c-.036.001-.073.007-.11.012-.036.004-.071.01-.106.017-.01.003-.022.003-.033.005-.022.006-.041.018-.063.025-.035.012-.07.025-.104.04a1.226 1.226 0 0 0-.09.05c-.03.017-.059.034-.087.054a1.279 1.279 0 0 0-.22.216c-.02.027-.04.054-.058.083a1.205 1.205 0 0 0-.122.284c-.008.032-.017.064-.023.097-.006.038-.01.077-.011.116-.002.022-.007.042-.007.064 0 .011.003.021.003.032a.941.941 0 0 0 .012.11c.004.036.01.073.018.108.002.01.002.02.005.031l.206.753-4.323-2.002c-.005-.002-.01-.002-.015-.005-.04-.017-.08-.03-.122-.042-.028-.009-.054-.02-.08-.025-.033-.008-.068-.01-.102-.014-.037-.004-.074-.01-.111-.01l-.018-.002h-4.88a2.947 2.947 0 0 1-2.944-2.944v-6.576a2.947 2.947 0 0 1 2.944-2.944h11.525a2.95 2.95 0 0 1 2.95 2.944v6.576h-.002z" fill="#0400E0"/>
    <path d="M41.53 10.943H31.364a1.067 1.067 0 0 0 0 2.133h10.168a1.067 1.067 0 0 0 0-2.133zM41.53 15.654H31.364a1.067 1.067 0 0 0 0 2.134h10.168a1.067 1.067 0 0 0 0-2.134z" fill="#0400E0"/>
</svg>
