<svg width="1266" height="432" viewBox="0 0 1266 432" fill="none" xmlns="http://www.w3.org/2000/svg">
<path fill-rule="evenodd" clip-rule="evenodd" d="M881.954 0.927067C881.654 0.00575614 880.351 0.00575651 880.052 0.927067L879.88 1.45493C879.746 1.86695 879.362 2.14591 878.929 2.14591H878.374C877.405 2.14591 877.003 3.38553 877.786 3.95493L878.235 4.28117C878.586 4.53581 878.732 4.98718 878.599 5.3992L878.427 5.92707C878.128 6.84838 879.182 7.6145 879.966 7.0451L880.415 6.71886C880.765 6.46422 881.24 6.46422 881.59 6.71886L882.039 7.0451C882.823 7.6145 883.878 6.84838 883.578 5.92707L883.407 5.3992C883.273 4.98718 883.42 4.53581 883.77 4.28117L884.219 3.95493C885.003 3.38553 884.6 2.14591 883.631 2.14591H883.076C882.643 2.14591 882.259 1.86695 882.125 1.45493L881.954 0.927067ZM1032.95 32.9271C1032.65 32.0058 1031.35 32.0058 1031.05 32.9271L1030.21 35.5279C1030.07 35.9399 1029.69 36.2189 1029.26 36.2189H1026.52C1025.55 36.2189 1025.15 37.4585 1025.93 38.0279L1028.15 39.6353C1028.5 39.8899 1028.64 40.3413 1028.51 40.7533L1027.66 43.3541C1027.36 44.2754 1028.42 45.0416 1029.2 44.4722L1031.41 42.8648C1031.77 42.6101 1032.24 42.6101 1032.59 42.8648L1034.8 44.4722C1035.59 45.0416 1036.64 44.2754 1036.34 43.3541L1035.5 40.7533C1035.36 40.3413 1035.51 39.8899 1035.86 39.6353L1038.07 38.0279C1038.86 37.4585 1038.45 36.2189 1037.48 36.2189H1034.75C1034.32 36.2189 1033.93 35.9399 1033.8 35.5279L1032.95 32.9271ZM65.0487 105.927C65.348 105.006 66.6514 105.006 66.9508 105.927L68.6939 111.292C68.8278 111.704 69.2117 111.983 69.645 111.983H75.2858C76.2545 111.983 76.6573 113.222 75.8736 113.792L71.31 117.107C70.9595 117.362 70.8129 117.813 70.9468 118.225L72.6899 123.59C72.9892 124.511 71.9348 125.278 71.151 124.708L66.5875 121.393C66.237 121.138 65.7624 121.138 65.4119 121.393L60.8484 124.708C60.0647 125.278 59.0102 124.511 59.3096 123.59L61.0527 118.225C61.1866 117.813 61.0399 117.362 60.6894 117.107L56.1259 113.792C55.3422 113.222 55.7449 111.983 56.7137 111.983H62.3545C62.7877 111.983 63.1717 111.704 63.3056 111.292L65.0487 105.927ZM267.451 191.927C267.151 191.006 265.848 191.006 265.549 191.927L264.591 194.873C264.457 195.285 264.073 195.564 263.64 195.564H260.542C259.574 195.564 259.171 196.804 259.954 197.373L262.461 199.194C262.811 199.449 262.958 199.9 262.824 200.312L261.867 203.259C261.567 204.18 262.622 204.946 263.406 204.377L265.912 202.556C266.262 202.301 266.737 202.301 267.087 202.556L269.594 204.377C270.377 204.946 271.432 204.18 271.133 203.259L270.175 200.312C270.041 199.9 270.188 199.449 270.538 199.194L273.045 197.373C273.828 196.804 273.426 195.564 272.457 195.564H269.359C268.926 195.564 268.542 195.285 268.408 194.873L267.451 191.927ZM610.954 412.927C610.654 412.006 609.351 412.006 609.052 412.927L607.309 418.292C607.175 418.704 606.791 418.983 606.357 418.983H600.717C599.748 418.983 599.345 420.222 600.129 420.792L604.692 424.107C605.043 424.362 605.19 424.813 605.056 425.225L603.313 430.59C603.013 431.512 604.068 432.278 604.851 431.708L609.415 428.393C609.765 428.138 610.24 428.138 610.59 428.393L615.154 431.708C615.938 432.278 616.992 431.512 616.693 430.59L614.95 425.225C614.816 424.813 614.963 424.362 615.313 424.107L619.877 420.792C620.66 420.222 620.257 418.983 619.289 418.983H613.648C613.215 418.983 612.831 418.704 612.697 418.292L610.954 412.927ZM1103.05 146.927C1103.35 146.006 1104.65 146.006 1104.95 146.927L1106.7 152.292C1106.83 152.704 1107.21 152.983 1107.65 152.983H1113.29C1114.26 152.983 1114.66 154.222 1113.88 154.792L1109.31 158.107C1108.96 158.362 1108.82 158.813 1108.95 159.225L1110.69 164.59C1110.99 165.511 1109.94 166.278 1109.15 165.708L1104.59 162.393C1104.24 162.138 1103.77 162.138 1103.41 162.393L1098.85 165.708C1098.07 166.278 1097.01 165.511 1097.31 164.59L1099.06 159.225C1099.19 158.813 1099.04 158.362 1098.69 158.107L1094.13 154.792C1093.35 154.222 1093.75 152.983 1094.72 152.983H1100.36C1100.79 152.983 1101.17 152.704 1101.31 152.292L1103.05 146.927ZM942.954 208.927C942.654 208.006 941.351 208.006 941.052 208.927L939.309 214.292C939.175 214.704 938.791 214.983 938.357 214.983H932.717C931.748 214.983 931.345 216.222 932.129 216.792L936.692 220.107C937.043 220.362 937.19 220.813 937.056 221.225L935.313 226.59C935.013 227.511 936.068 228.278 936.851 227.708L941.415 224.393C941.765 224.138 942.24 224.138 942.59 224.393L947.154 227.708C947.938 228.278 948.992 227.511 948.693 226.59L946.95 221.225C946.816 220.813 946.963 220.362 947.313 220.107L951.877 216.792C952.66 216.222 952.257 214.983 951.289 214.983H945.648C945.215 214.983 944.831 214.704 944.697 214.292L942.954 208.927ZM885.052 400.927C885.351 400.006 886.655 400.006 886.954 400.927L888.697 406.292C888.831 406.704 889.215 406.983 889.648 406.983H895.289C896.258 406.983 896.66 408.222 895.877 408.792L891.313 412.107C890.963 412.362 890.816 412.813 890.95 413.225L892.693 418.59C892.992 419.512 891.938 420.278 891.154 419.708L886.591 416.393C886.24 416.138 885.766 416.138 885.415 416.393L880.852 419.708C880.068 420.278 879.013 419.512 879.313 418.59L881.056 413.225C881.19 412.813 881.043 412.362 880.693 412.107L876.129 408.792C875.345 408.222 875.748 406.983 876.717 406.983H882.358C882.791 406.983 883.175 406.704 883.309 406.292L885.052 400.927ZM1080.95 328.927C1080.65 328.006 1079.35 328.006 1079.05 328.927L1077.31 334.292C1077.17 334.704 1076.79 334.983 1076.36 334.983H1070.72C1069.75 334.983 1069.35 336.222 1070.13 336.792L1074.69 340.107C1075.04 340.362 1075.19 340.813 1075.06 341.225L1073.31 346.59C1073.01 347.511 1074.07 348.278 1074.85 347.708L1079.42 344.393C1079.77 344.138 1080.24 344.138 1080.59 344.393L1085.15 347.708C1085.94 348.278 1086.99 347.511 1086.69 346.59L1084.95 341.225C1084.82 340.813 1084.96 340.362 1085.31 340.107L1089.88 336.792C1090.66 336.222 1090.26 334.983 1089.29 334.983H1083.65C1083.21 334.983 1082.83 334.704 1082.7 334.292L1080.95 328.927ZM1192.05 227.927C1192.35 227.006 1193.65 227.006 1193.95 227.927L1195.7 233.292C1195.83 233.704 1196.21 233.983 1196.65 233.983H1202.29C1203.26 233.983 1203.66 235.222 1202.88 235.792L1198.31 239.107C1197.96 239.362 1197.82 239.813 1197.95 240.225L1199.69 245.59C1199.99 246.511 1198.94 247.278 1198.15 246.708L1193.59 243.393C1193.24 243.138 1192.77 243.138 1192.42 243.393L1187.85 246.708C1187.07 247.278 1186.01 246.511 1186.31 245.59L1188.06 240.225C1188.19 239.813 1188.04 239.362 1187.69 239.107L1183.13 235.792C1182.35 235.222 1182.75 233.983 1183.72 233.983H1189.36C1189.79 233.983 1190.17 233.704 1190.31 233.292L1192.05 227.927ZM176.951 379.927C176.651 379.006 175.348 379.006 175.049 379.927L173.306 385.292C173.172 385.704 172.788 385.983 172.355 385.983H166.714C165.745 385.983 165.342 387.222 166.126 387.792L170.689 391.107C171.04 391.362 171.187 391.813 171.053 392.225L169.31 397.59C169.01 398.511 170.065 399.278 170.848 398.708L175.412 395.393C175.762 395.138 176.237 395.138 176.588 395.393L181.151 398.708C181.935 399.278 182.989 398.511 182.69 397.59L180.947 392.225C180.813 391.813 180.96 391.362 181.31 391.107L185.874 387.792C186.657 387.222 186.255 385.983 185.286 385.983H179.645C179.212 385.983 178.828 385.704 178.694 385.292L176.951 379.927ZM10.0488 312.927C10.3482 312.006 11.6516 312.006 11.9509 312.927L13.694 318.292C13.8279 318.704 14.2119 318.983 14.6451 318.983H20.2859C21.2547 318.983 21.6574 320.222 20.8737 320.792L16.3102 324.107C15.9597 324.362 15.813 324.813 15.9469 325.225L17.69 330.59C17.9894 331.511 16.9349 332.278 16.1512 331.708L11.5877 328.393C11.2372 328.138 10.7626 328.138 10.4121 328.393L5.84857 331.708C5.06486 332.278 4.01038 331.511 4.30973 330.59L6.05284 325.225C6.18671 324.813 6.04006 324.362 5.68957 324.107L1.12605 320.792C0.342332 320.222 0.745107 318.983 1.71383 318.983H7.35466C7.78788 318.983 8.17184 318.704 8.30571 318.292L10.0488 312.927ZM309.951 308.927C309.652 308.006 308.348 308.006 308.049 308.927L306.306 314.292C306.172 314.704 305.788 314.983 305.355 314.983H299.714C298.745 314.983 298.342 316.222 299.126 316.792L303.69 320.107C304.04 320.362 304.187 320.813 304.053 321.225L302.31 326.59C302.01 327.511 303.065 328.278 303.849 327.708L308.412 324.393C308.763 324.138 309.237 324.138 309.588 324.393L314.151 327.708C314.935 328.278 315.99 327.511 315.69 326.59L313.947 321.225C313.813 320.813 313.96 320.362 314.31 320.107L318.874 316.792C319.658 316.222 319.255 314.983 318.286 314.983H312.645C312.212 314.983 311.828 314.704 311.694 314.292L309.951 308.927ZM1254.05 377.927C1254.35 377.006 1255.65 377.006 1255.95 377.927L1257.7 383.292C1257.83 383.704 1258.21 383.983 1258.65 383.983H1264.29C1265.26 383.983 1265.66 385.222 1264.88 385.792L1260.31 389.107C1259.96 389.362 1259.82 389.813 1259.95 390.225L1261.69 395.59C1261.99 396.511 1260.94 397.278 1260.15 396.708L1255.59 393.393C1255.24 393.138 1254.77 393.138 1254.42 393.393L1249.85 396.708C1249.07 397.278 1248.01 396.511 1248.31 395.59L1250.06 390.225C1250.19 389.813 1250.04 389.362 1249.69 389.107L1245.13 385.792C1244.35 385.222 1244.75 383.983 1245.72 383.983H1251.36C1251.79 383.983 1252.17 383.704 1252.31 383.292L1254.05 377.927Z" fill="white" fill-opacity="0.3"/>
</svg>
