<svg width="844" height="484" viewBox="0 0 844 484" fill="none" xmlns="http://www.w3.org/2000/svg">
<path d="M0 10C0 4.47716 4.47715 0 10 0H834C839.523 0 844 4.47715 844 10V484H0V10Z" fill="#0074E0"/>
<path d="M687.528 138.615L666.488 153.623L678.862 183.568L701.831 188.916L718.55 172.283L713.318 140.307L687.528 138.615Z" fill="#AFD9FF"/>
<path d="M687.531 138.614L689.119 144.198L689.112 144.173L696.356 169.65L701.834 188.915L718.553 172.282L713.321 140.306L687.531 138.614Z" fill="white"/>
<path d="M689.112 144.173L683.807 181.156L689.265 179.604L690.119 171.424L702.544 167.891L707.574 174.398L713.032 172.846L689.112 144.173ZM699.345 163.907L690.794 166.339L692.144 154.837L699.345 163.907Z" fill="#0074E0"/>
<path d="M531.66 173.18C499.26 142.81 461.3 134.97 451.27 133.37C458.02 115.15 468.47 88.04 471.07 84.03C472.751 83.8233 474.445 83.7264 476.14 83.74C483.51 83.74 499.28 85.27 522.14 95.54C555.14 110.37 563.92 127.06 565.65 131.14L531.66 173.18Z" fill="white"/>
<path d="M476.139 85.74C483.349 85.74 498.799 87.25 521.279 97.37C551.099 110.78 560.729 125.78 563.279 130.85L531.439 170.26C515.704 156.096 497.33 145.174 477.369 138.12C469.759 135.383 461.94 133.267 453.989 131.79C461.449 111.72 469.579 91.07 472.309 85.9C473.189 85.82 474.479 85.74 476.139 85.74ZM476.139 81.74C474.107 81.6974 472.076 81.838 470.069 82.16C467.729 82.94 448.529 135.01 448.529 135.01C448.529 135.01 494.089 139.65 531.849 176.12L567.849 131.5C567.849 131.5 561.849 111.25 522.849 93.72C500.029 83.45 484.119 81.72 476.069 81.72L476.139 81.74Z" fill="#A0C6F4"/>
<path d="M455.221 139.05C455.221 139.05 500.021 143.57 527.631 168.92" stroke="#2A1E17" stroke-linecap="round" stroke-linejoin="round"/>
<path d="M493.91 136.86L510.62 104.36L527.8 138.26L493.91 136.86Z" fill="#A0C6F4"/>
<path d="M497.16 136.4L513.87 103.9L531.05 137.79L497.16 136.4Z" stroke="#2A1E17" stroke-linecap="round" stroke-linejoin="round"/>
<path d="M481.471 79.77C481.471 79.77 531.701 84.29 562.931 121.4" stroke="#2A1E17" stroke-linecap="round" stroke-linejoin="round"/>
<path d="M507.131 223.78C504.381 221.78 502.561 220.4 502.561 220.4C503.331 219.4 515.421 206.5 522.421 196.12C522.421 196.12 508.261 224.61 507.131 223.78Z" fill="#2A1E17"/>
<path d="M335.84 129.91C337.18 132.16 337.78 131.26 341.67 130.96C345.56 130.66 351.09 133.5 353.04 138.29C354.99 143.08 354.39 143.82 353.34 144.42C352.29 145.02 344.81 145.92 344.51 147.42" stroke="#2A1E17" stroke-linecap="round" stroke-linejoin="round"/>
<path d="M436.62 373.38L433.13 367.48L420.77 388.09L424.02 390.59L436.62 373.38Z" fill="#F9865F"/>
<path d="M354.52 322.27C354.52 322.27 348.12 311.86 350.87 306.75L371.3 308.94L354.52 322.27Z" fill="#F9865F"/>
<path d="M354.52 322.27L355.75 325.09L351.97 339.81C351.732 340.719 351.755 341.677 352.036 342.574C352.317 343.47 352.845 344.27 353.56 344.88L372.25 317.25C373.107 315.975 373.477 314.434 373.294 312.909C373.11 311.384 372.385 309.975 371.25 308.94L367.08 305.06L354.52 322.27Z" fill="black"/>
<path d="M344.52 147.41C350.38 147.28 357.79 146.9 356.31 142.41C354.83 137.92 349.26 126.84 336.65 130.18C336.65 130.18 332.2 133.88 337.77 140.56C343.34 147.24 344.52 147.41 344.52 147.41Z" fill="#2A1E33"/>
<path d="M374.15 309.19C374.15 309.19 364.15 279.69 372.61 266.74C379.61 256.05 402.38 273.44 405.51 275.74L421.84 246.32C421.84 246.32 418.07 241.04 408.84 235.87C399.61 230.7 361.4 215.23 343.46 243.54C336.82 254.01 336.72 298.91 349.46 316.12L374.15 309.19Z" fill="#7595EC"/>
<path d="M374.15 309.19C374.15 309.19 364.15 279.69 372.61 266.74C379.61 256.05 402.38 273.44 405.51 275.74" stroke="#2A1E17" stroke-linecap="round" stroke-linejoin="round"/>
<path d="M421.84 246.32C414.42 254.13 392.43 292.17 387.48 310.32C380.87 334.64 383.35 354.81 419.71 394.32L437.29 368.72C437.29 368.72 424.93 349.96 427.24 332.27C430.58 306.68 448.79 281.87 458 266.13L421.84 246.32Z" fill="#7595EC"/>
<path d="M424.609 249.63L453.849 272.57L462.579 259.29L424.609 249.63Z" fill="#2A1E17"/>
<path d="M592.529 225.52C597.089 226.5 600.563 228.237 602.949 230.73C605.339 233.23 604.249 234.53 603.379 235.29C602.509 236.05 599.149 235.18 596.219 232.58C593.289 229.98 592.529 225.52 592.529 225.52Z" fill="#FF8A66"/>
<path d="M502.561 220.4C503.331 219.4 515.421 206.5 522.421 196.12C522.421 196.12 543.571 219.82 545.861 220.59C546.721 220.87 551.861 220.8 558.341 220.74C569.231 220.62 583.701 220.52 586.901 222.12C592.001 224.67 595.051 225.94 596.331 229.51C597.611 233.08 598.111 235.41 595.051 235.62C591.491 235.88 589.191 231.29 589.191 231.29C585.836 233.098 582.341 234.633 578.741 235.88C578.741 235.88 551.641 246.4 533.521 241.31C528.571 239.92 502.561 220.4 502.561 220.4Z" fill="#F9865F"/>
<path d="M338.24 125.72C335.91 126.61 334.5 127.72 335.85 129.91C337.2 132.1 337.79 131.26 341.68 130.96C345.57 130.66 351.1 133.5 353.05 138.29C355 143.08 354.4 143.82 353.35 144.42C352.3 145.02 344.82 145.92 344.52 147.42C344.22 148.92 347.52 153.34 354.43 153.04L356.08 152.74C356.08 152.74 370.55 166.87 372.64 168.96C374.73 171.05 390.13 181.49 398.64 183.6C405.08 185.22 418.14 183.14 425.98 181.6C429.79 180.85 432.37 180.24 432.37 180.24C432.37 180.24 426.48 169.63 425.29 153.33C425.29 153.33 411.2 155.59 401.84 157.65C401.84 157.65 380 145.47 369.38 140.08C369.38 140.08 360.11 128.72 355.77 127.22C351.43 125.72 341.38 124.52 338.24 125.72Z" fill="#F9865F"/>
<path d="M425.949 181.6C429.759 180.85 432.339 180.24 432.339 180.24C432.339 180.24 425.219 171.24 424.019 154.96C424.019 154.96 420.799 158.43 421.809 167.66C423.059 179.27 425.949 181.6 425.949 181.6Z" fill="#2A1E17"/>
<path d="M423.681 153.13C423.681 153.13 423.881 173.06 429.211 181.37L431.131 180.6C431.131 180.6 405.971 210.03 397.841 229.26C396.511 232.41 450.071 266.62 457.981 266.14C457.981 266.14 484.071 226.31 492.981 214.51L502.571 221.94C502.571 221.94 521.391 202.94 522.401 196.12C522.401 196.12 504.221 174.01 489.401 167.53C474.581 161.05 461.251 149.97 445.281 150.27C431.431 150.52 423.681 153.13 423.681 153.13Z" fill="#FFF7C9"/>
<path d="M502.59 221.94L493 214.51L494.53 210.34L502.59 221.94Z" fill="#2A1E17"/>
<path d="M517.18 143.15C515.5 148.38 510.65 163.49 505.24 165.35C499.83 167.21 494.24 164.88 494.24 164.88L488.48 167.83C487.83 169.75 483.29 171.42 477.41 171.64C473.06 171.81 470.41 166.22 471.7 162.18C472.29 160.33 474.5 151.18 474.5 151.18C474.5 151.18 479.17 134.01 483.5 130.47C487.83 126.93 491.82 123.41 503.27 128.04C520.73 135.13 517.18 143.15 517.18 143.15Z" fill="#F9865F"/>
<path d="M482.42 143.9C481.65 147.11 478.31 153.52 476.13 152.37C473.95 151.22 473.13 148.26 474.72 142.61C476.31 136.96 477.54 124.14 481.9 121.83C486.26 119.52 488.19 122.21 488.19 122.21C488.19 122.21 486.27 112.85 491.91 111.57C491.91 111.57 493.84 110.67 493.07 117.08C493.816 115.318 495.13 113.856 496.802 112.927C498.475 111.997 500.41 111.654 502.3 111.95C509.36 112.72 511.8 122.6 511.8 122.6C512.001 121.784 512.485 121.065 513.167 120.573C513.848 120.08 514.682 119.845 515.52 119.91C518.73 119.91 523.6 124.65 522.45 129.91C522.45 129.91 530.66 127.34 535.02 133.91C539.38 140.48 538.87 147.64 528.35 150.46C517.35 153.46 517.44 140.58 515.78 138.91C514.12 137.24 512.31 135.32 506.15 137.63C499.99 139.94 493.58 133.14 493.58 133.14C493.58 133.14 492.58 141.35 491.53 142.14C490.48 142.93 488.45 143.94 488.96 140.09C489.47 136.24 490.12 136.62 489.73 135.6C489.34 134.58 487.61 131.33 483.96 134.19C479.84 137.35 482.42 143.9 482.42 143.9Z" fill="#2A1E33"/>
<path d="M484.16 145.33C481.72 143.28 480.02 139.66 482.16 136.03C484.3 132.4 487.84 131.92 488.92 133.29C490 134.66 490.41 136.97 489.4 139.71" stroke="#2A1E33" stroke-linecap="round" stroke-linejoin="round"/>
<path d="M424.02 390.59L425.24 393.4L421.46 408.12C421.222 409.029 421.245 409.987 421.526 410.884C421.807 411.78 422.335 412.58 423.05 413.19L441.74 385.52C442.602 384.251 442.981 382.715 442.809 381.191C442.636 379.667 441.924 378.254 440.8 377.21L436.62 373.33L424.02 390.59Z" fill="black"/>
<path d="M488.191 122.21C488.191 122.21 486.761 117.56 482.471 116.33" stroke="#2A1E33" stroke-linecap="round" stroke-linejoin="round"/>
<path d="M397.25 227.86L449.03 155.52" stroke="#2A1E17" stroke-linecap="round" stroke-linejoin="round"/>
<path d="M470.381 160.58C468.511 163.01 467.661 173.45 476.251 174.12C481.15 174.608 486.077 173.526 490.321 171.03" stroke="#2A1E17" stroke-linecap="round" stroke-linejoin="round"/>
<path d="M355.74 127.22C355.74 127.22 361.66 135.05 362.59 137.85" stroke="#2A1E17" stroke-linecap="round" stroke-linejoin="round"/>
<path d="M577.359 232.25C577.359 232.25 581.359 235.51 589.189 231.25C592.049 229.72 590.009 226.11 586.399 227.01C583.764 227.489 581.053 227.334 578.489 226.56" stroke="#2A1E17" stroke-linecap="round" stroke-linejoin="round"/>
<path d="M593.84 225.95C593.84 225.95 597.64 230.38 597.53 233.01" stroke="#2A1E17" stroke-linecap="round" stroke-linejoin="round"/>
<path d="M538.051 225.52C538.051 225.52 541.481 220.95 545.861 220.64" stroke="#2A1E17" stroke-linecap="round" stroke-linejoin="round"/>
<path d="M393.391 165.03C393.391 165.03 395.391 158.79 401.811 157.65" stroke="#2A1E17" stroke-linecap="round" stroke-linejoin="round"/>
<path d="M410.779 259.71L403.129 274.35C403.129 274.35 377.889 317.07 386.449 344.66" stroke="#2A1E17" stroke-linecap="round" stroke-linejoin="round"/>
<path d="M433.141 308.71L457.981 266.14C457.981 266.14 490.531 218.93 493.861 212.27L505.351 191.02" stroke="#2A1E17" stroke-linecap="round" stroke-linejoin="round"/>
<path d="M400.721 232.39C400.721 232.39 444.881 264.59 457.981 266.14" stroke="#2A1E17" stroke-linecap="round" stroke-linejoin="round"/>
<path d="M423.68 153.13C423.68 153.13 423.68 173.34 429.09 181.62" stroke="#2A1E17" stroke-linecap="round" stroke-linejoin="round"/>
<path d="M521 192.92C519.61 201.25 501.17 218.74 501.17 218.74" stroke="#2A1E17" stroke-linecap="round" stroke-linejoin="round"/>
<path d="M383.44 296.64C384.887 296.64 386.06 295.467 386.06 294.02C386.06 292.573 384.887 291.4 383.44 291.4C381.993 291.4 380.82 292.573 380.82 294.02C380.82 295.467 381.993 296.64 383.44 296.64Z" fill="#2A1E17"/>
<path d="M629.479 350.37L628.029 340.34L636.589 346.03L632.109 347.01L629.479 350.37Z" stroke="#2A1E17" stroke-linecap="round" stroke-linejoin="round"/>
<path d="M345.74 179.14C329.53 164.83 302.74 200.5 400.74 314.04C457.29 379.54 501.74 385.41 507.74 362.63C518.54 321.74 479.54 311.41 494.05 327.42C515.15 350.71 575.17 355.62 619.89 333.9C664.02 312.46 636.89 279.17 634.16 277.22" stroke="#2A1E17" stroke-linecap="round" stroke-linejoin="round"/>
<path d="M620.63 336.31C622.077 336.31 623.25 335.137 623.25 333.69C623.25 332.243 622.077 331.07 620.63 331.07C619.183 331.07 618.01 332.243 618.01 333.69C618.01 335.137 619.183 336.31 620.63 336.31Z" fill="#2A1E17"/>
<path d="M582.471 355.1L660.201 311.28" stroke="#2A1E17" stroke-linecap="round" stroke-linejoin="round"/>
<path d="M347.36 183.88C348.807 183.88 349.98 182.707 349.98 181.26C349.98 179.813 348.807 178.64 347.36 178.64C345.913 178.64 344.74 179.813 344.74 181.26C344.74 182.707 345.913 183.88 347.36 183.88Z" fill="#2A1E17"/>
<path d="M414.22 132.75C417.329 132.75 419.85 130.229 419.85 127.12C419.85 124.011 417.329 121.49 414.22 121.49C411.11 121.49 408.59 124.011 408.59 127.12C408.59 130.229 411.11 132.75 414.22 132.75Z" fill="#FF6D66"/>
<path d="M312.13 84.2C311.64 84.2 311.16 84.3454 310.753 84.618C310.345 84.8905 310.027 85.2778 309.839 85.7309C309.651 86.1841 309.602 86.6827 309.698 87.1638C309.794 87.6449 310.03 88.0868 310.377 88.4336C310.724 88.7805 311.165 89.0167 311.647 89.1123C312.128 89.208 312.626 89.1589 313.079 88.9712C313.533 88.7835 313.92 88.4656 314.192 88.0578C314.465 87.65 314.61 87.1705 314.61 86.68C314.61 86.3543 314.546 86.0318 314.422 85.7309C314.297 85.4301 314.114 85.1567 313.884 84.9264C313.654 84.6961 313.38 84.5134 313.079 84.3888C312.779 84.2641 312.456 84.2 312.13 84.2Z" fill="#A0C6F4"/>
<path d="M643.531 391.38C644.895 391.38 646.001 390.274 646.001 388.91C646.001 387.546 644.895 386.44 643.531 386.44C642.166 386.44 641.061 387.546 641.061 388.91C641.061 390.274 642.166 391.38 643.531 391.38Z" fill="#FAD8B0"/>
<path d="M599.341 277.21L572.751 264.74C572.281 264.509 571.887 264.15 571.613 263.704C571.339 263.258 571.197 262.744 571.203 262.221C571.21 261.698 571.364 261.187 571.648 260.748C571.933 260.309 572.336 259.96 572.811 259.74L622.281 237.98C622.627 237.827 623.002 237.748 623.381 237.748C623.76 237.748 624.134 237.827 624.481 237.98L658.481 252.56L599.341 277.21Z" fill="#2A1E33"/>
<path d="M597.689 236.21C597.759 247.21 599.34 277.21 599.34 277.21L658.45 252.52L657.129 210.77C657.11 210.179 656.944 209.602 656.649 209.09C656.353 208.578 655.935 208.146 655.433 207.834C654.931 207.522 654.359 207.338 653.769 207.299C653.179 207.26 652.589 207.367 652.05 207.61L601.15 230.81C600.114 231.282 599.237 232.042 598.623 233C598.01 233.958 597.685 235.072 597.689 236.21Z" fill="#C6CBCB"/>
<path d="M599.34 277.21L658.45 252.52L657.13 210.77C657.13 210.77 656.73 206.21 652.05 207.61" stroke="#2A1E17" stroke-linecap="round" stroke-linejoin="round"/>
<path d="M627.949 247.2L631.939 237.77" stroke="#2A1E17" stroke-linecap="round" stroke-linejoin="round"/>
<path d="M631.939 247.2L635.93 237.77" stroke="#2A1E17" stroke-linecap="round" stroke-linejoin="round"/>
<path d="M322.79 350.11C324.154 350.11 325.26 349.004 325.26 347.64C325.26 346.276 324.154 345.17 322.79 345.17C321.426 345.17 320.32 346.276 320.32 347.64C320.32 349.004 321.426 350.11 322.79 350.11Z" fill="#FF6D66"/>
<path d="M531.331 363.33C533.23 363.33 534.771 361.79 534.771 359.89C534.771 357.99 533.23 356.45 531.331 356.45C529.431 356.45 527.891 357.99 527.891 359.89C527.891 361.79 529.431 363.33 531.331 363.33Z" fill="#FF6D66"/>
<path d="M348.43 384.31C358.223 388.805 368.885 391.089 379.66 391C379.86 391.001 380.057 391.045 380.238 391.128C380.42 391.211 380.582 391.332 380.713 391.482C380.844 391.632 380.942 391.809 381.001 392C381.059 392.191 381.075 392.392 381.05 392.59L378.89 409.71C378.856 410.008 378.726 410.286 378.521 410.504C378.315 410.722 378.045 410.868 377.75 410.92C373.38 411.75 355.75 414.17 342.54 402.98C342.337 402.807 342.188 402.579 342.11 402.324C342.032 402.069 342.029 401.797 342.1 401.54L346.46 385.22C346.512 385.019 346.607 384.832 346.74 384.672C346.873 384.512 347.04 384.384 347.229 384.297C347.418 384.21 347.623 384.166 347.831 384.168C348.039 384.17 348.243 384.219 348.43 384.31Z" fill="#FFF7DC"/>
<path d="M349.98 389.34C349.98 389.34 357.6 400.05 360.32 401.59C363.04 403.13 377.72 394.37 377.72 394.37" stroke="#2A1E17" stroke-linecap="round" stroke-linejoin="round"/>
<path d="M367.51 400.09L375.52 408.33" stroke="#2A1E17" stroke-linecap="round" stroke-linejoin="round"/>
<path d="M356.38 398.51L347.01 401.05" stroke="#2A1E17" stroke-linecap="round" stroke-linejoin="round"/>
<path d="M593.671 181.71H584.721V190.66H593.671V181.71Z" fill="#FFE1C0"/>
<path d="M585.939 302.41L588.589 307.01L591.249 311.62H585.939H580.619L583.279 307.01L585.939 302.41Z" fill="#A0C6F4"/>
<path d="M370.84 98.33L371.53 77.42C371.46 75.42 372.25 74.84 373.46 74.58C379.14 73.32 396.41 69.47 415.19 75.02C417.62 75.74 417.54 77.02 417.5 78.18L416.84 98.12C416.79 98.493 416.662 98.8515 416.465 99.1723C416.269 99.4932 416.007 99.7693 415.697 99.9831C415.387 100.197 415.036 100.343 414.667 100.414C414.297 100.484 413.916 100.476 413.55 100.39C406.746 99.5705 399.892 99.2364 393.04 99.39C386.447 99.3542 379.863 99.8828 373.36 100.97C371.52 101.35 370.84 99.96 370.84 98.33Z" stroke="#2A1E17" stroke-linecap="round" stroke-linejoin="round"/>
<path d="M377.2 95.27L388.13 82.52L400.23 94.52C396.06 93.06 377.2 95.27 377.2 95.27Z" stroke="#2A1E17" stroke-linecap="round" stroke-linejoin="round"/>
<path d="M394.83 88.4L403.67 81.33L411.12 86.64L411.4 94.95L400.23 94.42" stroke="#2A1E17" stroke-linecap="round" stroke-linejoin="round"/>
<path d="M381.949 81.5237C382.051 80.5181 381.176 79.6062 379.994 79.4868C378.813 79.3674 377.773 80.0858 377.671 81.0914C377.57 82.0969 378.445 83.0089 379.626 83.1283C380.808 83.2476 381.848 82.5292 381.949 81.5237Z" stroke="#2A1E17" stroke-linecap="round" stroke-linejoin="round"/>
<path d="M546.571 138.85L576.371 161.65C576.526 161.768 576.703 161.854 576.892 161.904C577.081 161.953 577.278 161.965 577.471 161.938C577.664 161.911 577.851 161.846 578.019 161.747C578.187 161.648 578.334 161.516 578.451 161.36L582.951 155.26C583.169 154.955 583.263 154.578 583.213 154.206C583.163 153.834 582.973 153.496 582.681 153.26L553.311 129.76C553.156 129.635 552.977 129.543 552.785 129.49C552.594 129.436 552.393 129.422 552.196 129.448C551.999 129.474 551.809 129.54 551.638 129.642C551.466 129.744 551.318 129.879 551.201 130.04L546.281 136.84C546.061 137.148 545.969 137.529 546.023 137.903C546.077 138.277 546.273 138.617 546.571 138.85Z" fill="white" stroke="#2A1E17" stroke-linecap="round" stroke-linejoin="round"/>
<path d="M548.779 137.83L555.999 142.9L560.269 137.81L553.039 131.79L548.779 137.83Z" fill="#FF6D66"/>
<path d="M558.721 144.88L565.961 150.62L569.841 145.85L562.561 139.94L558.721 144.88Z" fill="#FAD8B0"/>
<path d="M568.391 152.83L575.621 157.9L579.061 153.47L572.221 147.74L568.391 152.83Z" fill="#A0C6F4"/>
<path d="M606.02 106.97L612.84 164.02C612.872 164.32 612.964 164.611 613.11 164.876C613.257 165.14 613.455 165.372 613.692 165.559C613.93 165.745 614.203 165.882 614.494 165.961C614.786 166.04 615.091 166.06 615.39 166.02L626.84 164.42C627.417 164.34 627.94 164.041 628.302 163.584C628.663 163.128 628.834 162.55 628.78 161.97L623.21 104.62C623.178 104.318 623.086 104.025 622.938 103.759C622.79 103.493 622.59 103.26 622.35 103.073C622.11 102.887 621.835 102.75 621.541 102.672C621.247 102.594 620.941 102.577 620.64 102.62L607.94 104.52C607.367 104.605 606.848 104.906 606.491 105.362C606.134 105.818 605.965 106.393 606.02 106.97Z" fill="white" stroke="#2A1E17" stroke-linecap="round" stroke-linejoin="round"/>
<path d="M607.221 155.91L612.101 168.51L620.251 165.82L616.411 152.7L607.221 155.91Z" fill="#FAD8B0"/>
<path d="M449.51 188.92H354.56C351.534 188.92 349.08 191.373 349.08 194.4V207.25C349.08 210.277 351.534 212.73 354.56 212.73H449.51C452.537 212.73 454.99 210.277 454.99 207.25V194.4C454.99 191.373 452.537 188.92 449.51 188.92Z" fill="#7595EC"/>
<path d="M413.93 195.93H362.17C361.171 195.93 360.36 196.74 360.36 197.74C360.36 198.74 361.171 199.55 362.17 199.55H413.93C414.93 199.55 415.74 198.74 415.74 197.74C415.74 196.74 414.93 195.93 413.93 195.93Z" fill="white"/>
<path d="M360.88 204.25H448.87" stroke="#2A1E17" stroke-linecap="round" stroke-linejoin="round"/>
<path d="M315.845 144.152L317.342 145.791C317.646 146.124 317.805 146.564 317.785 147.015C317.765 147.465 317.566 147.889 317.233 148.193L314.797 150.419C314.464 150.723 314.024 150.882 313.573 150.862C313.123 150.841 312.699 150.643 312.395 150.31L310.898 148.671L315.845 144.152Z" fill="#91BA83"/>
<path d="M302.379 140.936L309.441 148.666C309.806 149.066 310.426 149.094 310.825 148.729L315.706 144.271C316.105 143.906 316.133 143.286 315.768 142.886L308.707 135.156C308.342 134.756 307.722 134.728 307.322 135.093L302.442 139.551C302.042 139.916 302.014 140.536 302.379 140.936Z" stroke="#2A1E17" stroke-linecap="round" stroke-linejoin="round"/>
<path d="M295.01 176.06H286.14V184.16H295.01V176.06Z" fill="#FF6D66"/>
<path d="M286.14 170.85V176.06H280.83" stroke="#2A1E17" stroke-linecap="round" stroke-linejoin="round"/>
<path d="M587.261 84.59H578.391V92.69H587.261V84.59Z" fill="#FAD8B0"/>
<path d="M578.38 79.38V84.59H573.08" stroke="#2A1E17" stroke-linecap="round" stroke-linejoin="round"/>
<path d="M338.3 134.66C246.3 96.54 175.54 169.96 348.89 282.39C362.54 291.24 383.47 294.34 383.47 294.34" stroke="#2A1E17" stroke-linecap="round" stroke-linejoin="round"/>
<path d="M253.72 139.84C255.167 139.84 256.34 138.667 256.34 137.22C256.34 135.773 255.167 134.6 253.72 134.6C252.273 134.6 251.1 135.773 251.1 137.22C251.1 138.667 252.273 139.84 253.72 139.84Z" fill="#2A1E17"/>
<path d="M237.03 122.83L239.9 120.08L246.5 123.85L249.81 134.08L239.68 129.84L237.03 122.83Z" stroke="#2A1E17" stroke-linecap="round" stroke-linejoin="round"/>
<path d="M239.9 120.08L237.03 122.83L235.42 120.88L238.18 118.24L239.9 120.08Z" stroke="#2A1E17" stroke-linecap="round" stroke-linejoin="round"/>
<path d="M249.81 134.08L243.23 126.85" stroke="#2A1E17" stroke-linecap="round" stroke-linejoin="round"/>
<path d="M265.75 317.66L272.9 354.52C272.937 354.712 273.012 354.895 273.12 355.057C273.229 355.22 273.369 355.36 273.531 355.468C273.694 355.576 273.877 355.65 274.069 355.686C274.261 355.723 274.459 355.721 274.65 355.68L282.06 354.1C282.434 354.023 282.762 353.803 282.977 353.488C283.192 353.172 283.275 352.786 283.21 352.41L276.84 315.32C276.807 315.123 276.734 314.935 276.626 314.768C276.518 314.6 276.376 314.456 276.211 314.345C276.045 314.233 275.859 314.157 275.663 314.12C275.466 314.083 275.265 314.086 275.07 314.13L266.84 315.95C266.474 316.041 266.156 316.269 265.953 316.587C265.75 316.905 265.677 317.29 265.75 317.66Z" fill="white" stroke="#2A1E17" stroke-linecap="round" stroke-linejoin="round"/>
<path d="M268.08 318.37L270.12 326.96L276.68 325.98L275.28 316.67L268.08 318.37Z" fill="#FF6D66"/>
<path d="M270.84 330.24L272.44 339.33L278.51 338.34L276.98 329.09L270.84 330.24Z" fill="#FAD8B0"/>
<path d="M272.8 342.6L274.84 351.19L280.34 350.16L279.03 341.34L272.8 342.6Z" fill="#A0C6F4"/>
<path d="M582.271 370.03L589.611 383.57C590.381 384.78 590.111 385.47 589.441 386.09C586.301 389 576.761 397.87 562.771 401.32C560.961 401.77 560.531 400.92 560.121 400.17L553.121 387.26C553.015 387.004 552.963 386.729 552.969 386.453C552.975 386.176 553.038 385.904 553.155 385.653C553.271 385.402 553.439 385.178 553.646 384.995C553.854 384.812 554.097 384.674 554.361 384.59C558.987 382.577 563.465 380.237 567.761 377.59C571.96 375.161 575.945 372.377 579.671 369.27C580.741 368.35 581.701 368.97 582.271 370.03Z" stroke="#2A1E17" stroke-linecap="round" stroke-linejoin="round"/>
<path d="M579.4 374.32L577.21 386.52L565.08 383.44C568.24 382.74 579.4 374.32 579.4 374.32Z" stroke="#2A1E17" stroke-linecap="round" stroke-linejoin="round"/>
<path d="M570.749 385.24L567.759 393.02L561.059 392.41L557.789 387.24L565.079 383.43" stroke="#2A1E17" stroke-linecap="round" stroke-linejoin="round"/>
<path d="M583.469 385.433C584.263 385.07 584.657 384.23 584.349 383.557C584.041 382.884 583.149 382.632 582.355 382.995C581.561 383.358 581.167 384.197 581.475 384.87C581.783 385.544 582.675 385.795 583.469 385.433Z" stroke="#2A1E17" stroke-linecap="round" stroke-linejoin="round"/>
<path d="M470.441 409.98L500.651 401.89L501.801 405.16L471.251 413.09L470.441 409.98Z" stroke="#2A1E17" stroke-linecap="round" stroke-linejoin="round"/>
<path d="M466.25 405.75L467.12 408.5" stroke="#2A1E17" stroke-linecap="round" stroke-linejoin="round"/>
<path d="M465.391 407.54L467.941 406.67" stroke="#2A1E17" stroke-linecap="round" stroke-linejoin="round"/>
<path d="M464.781 416.23L466.421 421.4" stroke="#2A1E17" stroke-linecap="round" stroke-linejoin="round"/>
<path d="M463.379 419.51L467.919 418.06" stroke="#2A1E17" stroke-linecap="round" stroke-linejoin="round"/>
<path d="M457.879 407.69L460.019 414.54" stroke="#2A1E17" stroke-linecap="round" stroke-linejoin="round"/>
<path d="M455.74 411.95L462.11 409.92" stroke="#2A1E17" stroke-linecap="round" stroke-linejoin="round"/>
<path d="M250.18 81.82L231.06 73.19L231.85 71L251.08 79.85L250.18 81.82Z" stroke="#2A1E17" stroke-width="0.67" stroke-linecap="round" stroke-linejoin="round"/>
<path d="M250.56 85.79L251.27 83.99" stroke="#2A1E17" stroke-width="0.67" stroke-linecap="round" stroke-linejoin="round"/>
<path d="M251.76 85.22L250.06 84.59" stroke="#2A1E17" stroke-width="0.67" stroke-linecap="round" stroke-linejoin="round"/>
<path d="M255.77 80.97L257.11 77.59" stroke="#2A1E17" stroke-width="0.67" stroke-linecap="round" stroke-linejoin="round"/>
<path d="M257.89 79.87L254.92 78.69" stroke="#2A1E17" stroke-width="0.67" stroke-linecap="round" stroke-linejoin="round"/>
<path d="M255.72 88.34L257.52 83.87" stroke="#2A1E17" stroke-width="0.67" stroke-linecap="round" stroke-linejoin="round"/>
<path d="M258.64 87.03L254.48 85.38" stroke="#2A1E17" stroke-width="0.67" stroke-linecap="round" stroke-linejoin="round"/>
<path d="M321.61 243.26C308.14 233.56 294.9 218.48 300.71 202.99C300.71 202.99 310 196.8 324.71 204.54L339.42 212.29L321.61 243.26Z" fill="#FAD8B0"/>
<path d="M315.5 307.89C309.44 305.02 283.5 291.54 278.95 268.52C274.95 248.63 290.19 221.8 297.81 209.95C297.32 225.68 313.12 238.95 320.74 244.48C327.225 249.243 334.379 253.02 341.97 255.69L315.5 307.89Z" fill="white"/>
<path d="M296.65 214.62C298.3 225.08 306.28 235.92 319.86 245.69C325.979 250.219 332.705 253.865 339.84 256.52L314.84 305.9C307.21 302.1 284.63 289.24 280.43 268.22C276.94 250.75 288.78 227.58 296.66 214.62H296.65ZM300.72 202.99C300.72 202.99 272.07 241.71 277.49 268.81C282.91 295.91 316.2 309.81 316.2 309.81L344.08 254.81C335.37 251.62 329.71 249.02 321.62 243.2C308.15 233.5 294.91 218.42 300.72 202.93V202.99Z" fill="#FAD8B0"/>
<path d="M293.17 225.52C294.013 230.557 296.005 235.332 298.991 239.475C301.977 243.618 305.878 247.018 310.39 249.41" stroke="#2A1E17" stroke-linecap="round" stroke-linejoin="round"/>
<path d="M318.72 254.93L334.28 263.26" stroke="#2A1E17" stroke-linecap="round" stroke-linejoin="round"/>
<path d="M295.4 247.71C295.4 247.71 300.4 258.82 316.5 266.04" stroke="#2A1E17" stroke-linecap="round" stroke-linejoin="round"/>
<path d="M282.62 249.38C282.62 249.38 283.18 261.04 290.95 264.93" stroke="#2A1E17" stroke-linecap="round" stroke-linejoin="round"/>
<path d="M300.39 208.83C300.39 208.83 298.95 223.83 321.61 243.26" stroke="#2A1E17" stroke-linecap="round" stroke-linejoin="round"/>
<path d="M308.73 211.61C308.73 211.61 315.95 211.05 326.5 218.83" stroke="#2A1E17" stroke-linecap="round" stroke-linejoin="round"/>
<path d="M274.77 259.43C274.31 266.86 275.23 293.79 314.23 310.97" stroke="#2A1E17" stroke-linecap="round" stroke-linejoin="round"/>
<path d="M523.841 244.45L507.301 277.6C507.301 277.6 518.521 281.73 509.751 294.6C509.751 294.6 530.481 303.2 544.051 280.87C557.621 258.54 523.841 244.45 523.841 244.45Z" fill="#91BA83"/>
<path d="M485.94 345.77C477.57 345.77 468.73 342.35 459.66 335.6L490.61 284.34L509.01 295.93H509.13C512.333 297.104 515.72 297.693 519.13 297.67C524.948 297.706 530.629 295.911 535.37 292.54L512.84 331.29C512.78 331.37 503.05 345.77 485.98 345.77H485.94Z" fill="white"/>
<path d="M491.1 286.43L508.1 297.13L508.31 297.27L508.55 297.37C511.951 298.617 515.548 299.244 519.17 299.22C523.341 299.237 527.468 298.371 531.28 296.68L511.54 330.45C510.9 331.39 501.73 344.27 485.93 344.27C478.22 344.27 470.06 341.22 461.65 335.2L491.09 286.43H491.1ZM544 280.86C536.34 293.48 526.38 296.22 519.17 296.22C515.941 296.247 512.734 295.695 509.7 294.59L490.11 282.26L457.67 335.98C468.53 344.36 478.01 347.27 485.93 347.27C504.05 347.27 514.08 332.05 514.08 332.05L544 280.86Z" fill="#96BD89"/>
<path d="M507.26 277.6C507.26 277.6 519.6 281.96 509.71 294.6" stroke="#2A1E17" stroke-linecap="round" stroke-linejoin="round"/>
<path d="M489.73 281.11C489.73 281.11 506.54 296.52 515.84 296.4C525.14 296.28 536.05 294.08 542.49 282.98" stroke="#2A1E17" stroke-linecap="round" stroke-linejoin="round"/>
<path d="M491.84 301.02C491.84 301.02 503.38 311.26 516.28 307.97" stroke="#2A1E17" stroke-linecap="round" stroke-linejoin="round"/>
<path d="M503.91 316.33C503.91 316.33 509.96 320.86 518.42 316.57" stroke="#2A1E17" stroke-linecap="round" stroke-linejoin="round"/>
<path d="M476.07 322.64C476.07 322.64 490.07 336.53 512.02 327.37" stroke="#2A1E17" stroke-linecap="round" stroke-linejoin="round"/>
<path d="M483.67 309.09C483.67 309.09 489.36 313.17 492.93 314.47" stroke="#2A1E17" stroke-linecap="round" stroke-linejoin="round"/>
<path d="M526.641 254.07C526.641 254.07 539.391 258.24 540.921 275.07" stroke="#2A1E17" stroke-linecap="round" stroke-linejoin="round"/>
<path d="M533.05 274.86C533.05 274.86 538.92 283.95 529 293.03" stroke="#2A1E17" stroke-linecap="round" stroke-linejoin="round"/>
<path d="M458.84 338.52C458.84 338.52 490.84 365.94 514.09 333.88" stroke="#2A1E17" stroke-linecap="round" stroke-linejoin="round"/>
<path d="M227.78 234.1H235.24" stroke="#FF6D66" stroke-linecap="round" stroke-linejoin="round"/>
<path d="M643.529 144.34H650.989" stroke="#FF6D66" stroke-linecap="round" stroke-linejoin="round"/>
<path d="M443.381 93.13H450.851" stroke="#FAD8B0" stroke-miterlimit="10"/>
<path d="M657.779 183.05L665.119 184.37" stroke="#FAD8B0" stroke-miterlimit="10"/>
<path d="M364.61 369.27H372.07" stroke="#A0C6F4" stroke-linecap="round" stroke-linejoin="round"/>
<path d="M673.861 278.71C675.225 278.71 676.331 277.604 676.331 276.24C676.331 274.876 675.225 273.77 673.861 273.77C672.497 273.77 671.391 274.876 671.391 276.24C671.391 277.604 672.497 278.71 673.861 278.71Z" fill="#91BA83"/>
<path d="M209.47 160.08C210.834 160.08 211.94 158.974 211.94 157.61C211.94 156.246 210.834 155.14 209.47 155.14C208.106 155.14 207 156.246 207 157.61C207 158.974 208.106 160.08 209.47 160.08Z" fill="#91BA83"/>
<path d="M672.62 458.09C674.067 458.09 675.24 456.917 675.24 455.47C675.24 454.023 674.067 452.85 672.62 452.85C671.173 452.85 670 454.023 670 455.47C670 456.917 671.173 458.09 672.62 458.09Z" fill="#2A1E17"/>
<path d="M822.04 369.55C823.487 369.55 824.66 368.377 824.66 366.93C824.66 365.483 823.487 364.31 822.04 364.31C820.593 364.31 819.42 365.483 819.42 366.93C819.42 368.377 820.593 369.55 822.04 369.55Z" fill="#2A1E17"/>
<path d="M822.64 365.98C822.64 365.98 843.23 304.67 751.17 340.84C655.46 378.44 617.24 457.3 632.92 463.52C648.6 469.74 671.92 455.7 671.92 455.7" stroke="#2A1E17" stroke-linecap="round" stroke-linejoin="round"/>
<path d="M0 10C0 4.47716 4.47715 0 10 0H252V484H0V10Z" fill="#2C4470"/>
<rect x="27.2256" y="26.84" width="57" height="13" rx="4" fill="#5CB1FF"/>
<rect x="27.2256" y="82.84" width="57" height="13" rx="4" fill="#5CB1FF"/>
<rect x="163.226" y="82.84" width="57" height="13" rx="4" fill="#5CB1FF"/>
<rect x="47.2256" y="48.84" width="57" height="13" rx="4" fill="#5CB1FF"/>
<rect x="47.2256" y="104.84" width="57" height="13" rx="4" fill="#5CB1FF"/>
<rect x="183.226" y="104.84" width="57" height="13" rx="4" fill="#5CB1FF"/>
<rect x="94.2256" y="26.84" width="57" height="13" rx="4" fill="#5CB1FF"/>
<rect x="94.2256" y="82.84" width="57" height="13" rx="4" fill="#5CB1FF"/>
<rect x="114.226" y="48.84" width="57" height="13" rx="4" fill="#5CB1FF"/>
<rect x="114.226" y="104.84" width="57" height="13" rx="4" fill="#5CB1FF"/>
<path d="M20.5 43.66C19.4733 43.66 18.6467 43.5467 18.02 43.32C17.4067 43.1067 16.9533 42.7733 16.66 42.32C16.38 41.8667 16.24 41.2867 16.24 40.58V37.36C16.24 36.6133 16.0667 36.08 15.72 35.76C15.3867 35.44 14.8133 35.28 14 35.28V33.38C14.8133 33.38 15.3867 33.22 15.72 32.9C16.0667 32.58 16.24 32.0467 16.24 31.3V28.06C16.24 27.3533 16.38 26.78 16.66 26.34C16.9533 25.8867 17.4067 25.5533 18.02 25.34C18.6467 25.1133 19.4733 25 20.5 25V26.86C19.7933 26.86 19.2867 26.9733 18.98 27.2C18.6733 27.4267 18.52 27.7867 18.52 28.28V31.8C18.52 32.48 18.34 33.0333 17.98 33.46C17.6333 33.8733 17.12 34.16 16.44 34.32C17.12 34.4933 17.6333 34.7933 17.98 35.22C18.34 35.6333 18.52 36.18 18.52 36.86V40.38C18.52 40.8733 18.6733 41.2333 18.98 41.46C19.2867 41.6867 19.7933 41.8 20.5 41.8V43.66Z" fill="white"/>
<path d="M177.951 64.66C178.978 64.66 179.805 64.5467 180.431 64.32C181.045 64.1067 181.498 63.7733 181.791 63.32C182.071 62.8667 182.211 62.2867 182.211 61.58V58.36C182.211 57.6133 182.385 57.08 182.731 56.76C183.065 56.44 183.638 56.28 184.451 56.28V54.38C183.638 54.38 183.065 54.22 182.731 53.9C182.385 53.58 182.211 53.0467 182.211 52.3V49.06C182.211 48.3533 182.071 47.78 181.791 47.34C181.498 46.8867 181.045 46.5533 180.431 46.34C179.805 46.1133 178.978 46 177.951 46V47.86C178.658 47.86 179.165 47.9733 179.471 48.2C179.778 48.4267 179.931 48.7867 179.931 49.28V52.8C179.931 53.48 180.111 54.0333 180.471 54.46C180.818 54.8733 181.331 55.16 182.011 55.32C181.331 55.4933 180.818 55.7933 180.471 56.22C180.111 56.6333 179.931 57.18 179.931 57.86V61.38C179.931 61.8733 179.778 62.2333 179.471 62.46C179.165 62.6867 178.658 62.8 177.951 62.8V64.66Z" fill="white"/>
<rect x="27.2256" y="189.84" width="57" height="13" rx="4" fill="white"/>
<rect x="47.2256" y="211.84" width="57" height="13" rx="4" fill="white"/>
<rect x="94.2256" y="189.84" width="57" height="13" rx="4" fill="white"/>
<rect x="114.226" y="211.84" width="57" height="13" rx="4" fill="white"/>
<path d="M20.5 206.66C19.4733 206.66 18.6467 206.547 18.02 206.32C17.4067 206.107 16.9533 205.773 16.66 205.32C16.38 204.867 16.24 204.287 16.24 203.58V200.36C16.24 199.613 16.0667 199.08 15.72 198.76C15.3867 198.44 14.8133 198.28 14 198.28V196.38C14.8133 196.38 15.3867 196.22 15.72 195.9C16.0667 195.58 16.24 195.047 16.24 194.3V191.06C16.24 190.353 16.38 189.78 16.66 189.34C16.9533 188.887 17.4067 188.553 18.02 188.34C18.6467 188.113 19.4733 188 20.5 188V189.86C19.7933 189.86 19.2867 189.973 18.98 190.2C18.6733 190.427 18.52 190.787 18.52 191.28V194.8C18.52 195.48 18.34 196.033 17.98 196.46C17.6333 196.873 17.12 197.16 16.44 197.32C17.12 197.493 17.6333 197.793 17.98 198.22C18.34 198.633 18.52 199.18 18.52 199.86V203.38C18.52 203.873 18.6733 204.233 18.98 204.46C19.2867 204.687 19.7933 204.8 20.5 204.8V206.66Z" fill="white"/>
<path d="M177.951 227.66C178.978 227.66 179.805 227.547 180.431 227.32C181.045 227.107 181.498 226.773 181.791 226.32C182.071 225.867 182.211 225.287 182.211 224.58V221.36C182.211 220.613 182.385 220.08 182.731 219.76C183.065 219.44 183.638 219.28 184.451 219.28V217.38C183.638 217.38 183.065 217.22 182.731 216.9C182.385 216.58 182.211 216.047 182.211 215.3V212.06C182.211 211.353 182.071 210.78 181.791 210.34C181.498 209.887 181.045 209.553 180.431 209.34C179.805 209.113 178.978 209 177.951 209V210.86C178.658 210.86 179.165 210.973 179.471 211.2C179.778 211.427 179.931 211.787 179.931 212.28V215.8C179.931 216.48 180.111 217.033 180.471 217.46C180.818 217.873 181.331 218.16 182.011 218.32C181.331 218.493 180.818 218.793 180.471 219.22C180.111 219.633 179.931 220.18 179.931 220.86V224.38C179.931 224.873 179.778 225.233 179.471 225.46C179.165 225.687 178.658 225.8 177.951 225.8V227.66Z" fill="white"/>
</svg>
