<svg width="34" height="34" viewBox="0 0 34 34" fill="none" xmlns="http://www.w3.org/2000/svg">
<circle cx="12.9199" cy="12.92" r="2.04" fill="#BDF3FF"/>
<circle cx="21.08" cy="21.08" r="2.04" fill="#BDF3FF"/>
<mask id="path-3-outside-1" maskUnits="userSpaceOnUse" x="2.3999" y="2.40002" width="29" height="29" fill="black">
<rect fill="white" x="2.3999" y="2.40002" width="29" height="29"/>
<path d="M16.9999 3.40002C14.3101 3.40002 11.6807 4.19765 9.44415 5.69204C7.20764 7.18643 5.4645 9.31045 4.43515 11.7955C3.4058 14.2806 3.13647 17.0151 3.66123 19.6533C4.18599 22.2914 5.48126 24.7147 7.38326 26.6167C9.28525 28.5187 11.7085 29.8139 14.3467 30.3387C16.9848 30.8635 19.7193 30.5941 22.2044 29.5648C24.6895 28.5354 26.8135 26.7923 28.3079 24.5558C29.8023 22.3193 30.5999 19.6899 30.5999 17C30.5999 15.214 30.2481 13.4456 29.5647 11.7955C28.8812 10.1455 27.8794 8.64625 26.6166 7.38337C25.3537 6.1205 23.8544 5.11873 22.2044 4.43526C20.5544 3.7518 18.7859 3.40002 16.9999 3.40002V3.40002ZM15.4869 4.17182C14.4669 5.26322 13.6135 7.46982 13.1069 10.5196C13.1069 10.5196 13.1069 10.54 13.1069 10.5502L12.9199 10.54C12.2887 10.54 11.6833 10.7908 11.237 11.2371C10.7907 11.6834 10.5399 12.2888 10.5399 12.92C10.5364 12.9823 10.5364 13.0447 10.5399 13.107C10.5094 13.1036 10.4786 13.1036 10.4481 13.107C7.43231 13.6306 5.24611 14.467 4.16151 15.487C4.506 12.6038 5.81021 9.92019 7.8644 7.86785C9.91859 5.81551 12.6034 4.51371 15.4869 4.17182V4.17182ZM10.6861 13.7326C10.8418 14.16 11.1167 14.5338 11.4782 14.8098C11.8398 15.0857 12.2728 15.2523 12.7261 15.2898C12.6616 15.3512 12.6238 15.4354 12.6207 15.5244C12.5799 16.0106 12.5799 16.507 12.5799 17C12.5799 18.1832 12.6343 19.38 12.7329 20.5292C7.42211 19.9784 4.07991 18.4484 4.07991 17C4.07991 15.7216 6.62991 14.4568 10.5739 13.7734C10.6136 13.7671 10.6516 13.7532 10.6861 13.7326V13.7326ZM12.9199 14.62C12.5837 14.62 12.255 14.5203 11.9754 14.3335C11.6959 14.1467 11.478 13.8812 11.3493 13.5706C11.2206 13.26 11.187 12.9181 11.2526 12.5884C11.3182 12.2586 11.4801 11.9557 11.7178 11.7179C11.9556 11.4802 12.2585 11.3183 12.5883 11.2527C12.918 11.1871 13.2598 11.2208 13.5705 11.3494C13.8811 11.4781 14.1466 11.696 14.3334 11.9756C14.5202 12.2551 14.6199 12.5838 14.6199 12.92C14.6199 13.1433 14.5759 13.3643 14.4905 13.5706C14.4051 13.7768 14.2798 13.9642 14.122 14.1221C13.9641 14.28 13.7767 14.4052 13.5705 14.4906C13.3642 14.5761 13.1432 14.62 12.9199 14.62V14.62ZM4.17171 18.5164C5.63031 19.8764 8.98951 20.8046 12.7975 21.2024C13.1953 25.0104 14.1269 28.3696 15.4835 29.8282C12.6034 29.4825 9.92276 28.1796 7.87157 26.1284C5.82038 24.0772 4.51744 21.3966 4.17171 18.5164V18.5164ZM18.5299 29.8248C19.5193 28.7708 20.3353 26.673 20.8657 23.7048C20.8735 23.656 20.8705 23.6061 20.857 23.5585C20.8435 23.5109 20.8198 23.4669 20.7875 23.4294C20.8841 23.4465 20.9818 23.4567 21.0799 23.46C21.6824 23.4547 22.2604 23.221 22.6973 22.8062C23.1342 22.3914 23.3976 21.8263 23.4343 21.225C23.4709 20.6236 23.2782 20.0307 22.8949 19.5659C22.5116 19.1011 21.9662 18.799 21.3689 18.7204C21.3805 18.6923 21.3874 18.6624 21.3893 18.632C21.4199 18.0948 21.4199 17.544 21.4199 17C21.4302 16.8007 21.4302 16.601 21.4199 16.4016C21.3972 16.2619 21.3813 16.1212 21.3723 15.98C21.3723 15.8899 21.3365 15.8034 21.2727 15.7396C21.209 15.6758 21.1225 15.64 21.0323 15.64C20.9421 15.64 20.8557 15.6758 20.7919 15.7396C20.7281 15.8034 20.6923 15.8899 20.6923 15.98C20.6923 16.269 20.7161 16.3778 20.7263 16.456C20.742 16.6369 20.7466 16.8186 20.7399 17C20.7399 17.5372 20.7399 18.0778 20.7093 18.6082C20.709 18.6488 20.7159 18.6891 20.7297 18.7272C20.197 18.8087 19.7078 19.0685 19.342 19.4642C18.9762 19.8599 18.7555 20.368 18.716 20.9055C18.6765 21.4429 18.8206 21.9778 19.1246 22.4227C19.4286 22.8676 19.8747 23.1962 20.3897 23.3546C20.3419 23.3775 20.3001 23.4112 20.2676 23.4532C20.2351 23.4951 20.2129 23.544 20.2027 23.596C19.5091 27.438 18.2545 29.92 16.9999 29.92C15.5515 29.92 14.0215 26.5778 13.4707 21.267C14.6199 21.3656 15.8167 21.42 16.9999 21.42C17.4385 21.42 17.8737 21.42 18.3021 21.3996C18.3923 21.3996 18.4788 21.3638 18.5425 21.3C18.6063 21.2363 18.6421 21.1498 18.6421 21.0596C18.6421 20.9695 18.6063 20.883 18.5425 20.8192C18.4788 20.7554 18.3923 20.7196 18.3021 20.7196C17.8805 20.7196 17.4521 20.74 17.0203 20.74C15.7487 20.74 14.5485 20.6856 13.4299 20.5904C13.3143 19.4718 13.2599 18.2716 13.2599 17C13.2599 16.5138 13.2599 16.0242 13.2837 15.5448C13.2846 15.4962 13.275 15.448 13.2556 15.4035C13.2363 15.3589 13.2076 15.319 13.1715 15.2864C13.7432 15.2259 14.2737 14.9605 14.665 14.5393C15.0562 14.1181 15.2817 13.5694 15.2999 12.9948C15.3129 13.0753 15.3544 13.1484 15.4168 13.2008C15.4793 13.2532 15.5584 13.2815 15.6399 13.2804C15.7175 13.2818 15.795 13.2749 15.8711 13.26H15.9799C16.0701 13.26 16.1566 13.2242 16.2203 13.1604C16.2841 13.0967 16.3199 13.0102 16.3199 12.92C16.3199 12.8299 16.2841 12.7434 16.2203 12.6796C16.1566 12.6158 16.0701 12.58 15.9799 12.58C15.8917 12.5716 15.8029 12.5716 15.7147 12.58H15.6161C15.5386 12.5836 15.4647 12.6135 15.4066 12.6648C15.3484 12.7161 15.3096 12.7858 15.2965 12.8622C15.2889 12.3831 15.1368 11.9174 14.8602 11.5261C14.5836 11.1349 14.1953 10.8362 13.7461 10.6692C13.748 10.6511 13.748 10.6329 13.7461 10.6148C14.4431 6.65382 15.7147 4.08002 16.9999 4.08002C18.2851 4.08002 19.4819 6.51442 20.1721 10.285C20.1883 10.3752 20.2397 10.4552 20.315 10.5075C20.3902 10.5598 20.4831 10.5801 20.5733 10.5638C20.6635 10.5476 20.7435 10.4962 20.7958 10.421C20.8481 10.3457 20.8683 10.2528 20.8521 10.1626C20.3217 7.26922 19.5125 5.21222 18.5367 4.17182C21.4105 4.5206 24.0843 5.82289 26.1306 7.87047C28.177 9.91805 29.4777 12.5927 29.8247 15.4666C28.9577 14.6574 27.3733 13.957 25.1599 13.4266C25.1164 13.4165 25.0713 13.4152 25.0272 13.4225C24.9831 13.4299 24.9409 13.4459 24.903 13.4696C24.8652 13.4932 24.8323 13.5242 24.8064 13.5605C24.7804 13.5969 24.7619 13.6381 24.7519 13.6816C24.7315 13.7691 24.7464 13.8611 24.7936 13.9375C24.8407 14.0139 24.9162 14.0686 25.0035 14.0896C28.0363 14.8138 29.9199 15.9256 29.9199 17C29.9199 18.224 27.5399 19.4616 23.7999 20.1552C23.7097 20.1638 23.6267 20.2078 23.569 20.2776C23.5112 20.3475 23.4836 20.4374 23.4922 20.5275C23.5008 20.6177 23.5448 20.7008 23.6146 20.7585C23.6845 20.8162 23.7743 20.8438 23.8645 20.8352H23.9257C26.7647 20.3048 28.7877 19.499 29.8179 18.5368C29.4689 21.4093 28.1674 24.0821 26.1213 26.1282C24.0751 28.1743 21.4024 29.4758 18.5299 29.8248ZM21.0799 19.38C21.4161 19.38 21.7448 19.4797 22.0244 19.6665C22.3039 19.8533 22.5218 20.1188 22.6505 20.4295C22.7792 20.7401 22.8128 21.0819 22.7472 21.4117C22.6816 21.7414 22.5197 22.0444 22.282 22.2821C22.0442 22.5199 21.7413 22.6818 21.4116 22.7474C21.0818 22.813 20.74 22.7793 20.4293 22.6506C20.1187 22.522 19.8532 22.3041 19.6664 22.0245C19.4796 21.7449 19.3799 21.4163 19.3799 21.08C19.3799 20.6292 19.559 20.1968 19.8778 19.8779C20.1966 19.5591 20.629 19.38 21.0799 19.38ZM21.8313 12.6786C21.8934 12.7438 21.9287 12.83 21.9299 12.92C21.9302 12.9648 21.9216 13.0091 21.9047 13.0506C21.8878 13.092 21.8628 13.1297 21.8313 13.1614C21.7836 13.2087 21.7231 13.2408 21.6572 13.2537C21.5913 13.2666 21.5231 13.2597 21.4611 13.2339C21.3992 13.2081 21.3462 13.1645 21.309 13.1086C21.2718 13.0528 21.2519 12.9872 21.2519 12.92C21.2519 12.8529 21.2718 12.7873 21.309 12.7314C21.3462 12.6756 21.3992 12.632 21.4611 12.6062C21.5231 12.5804 21.5913 12.5735 21.6572 12.5864C21.7231 12.5992 21.7836 12.6314 21.8313 12.6786V12.6786ZM20.0599 12.92C20.0599 13.0209 20.03 13.1195 19.974 13.2034C19.9179 13.2872 19.8383 13.3526 19.7451 13.3912C19.6519 13.4298 19.5493 13.4399 19.4504 13.4202C19.3515 13.4005 19.2606 13.352 19.1893 13.2806C19.118 13.2093 19.0694 13.1185 19.0497 13.0195C19.03 12.9206 19.0401 12.818 19.0787 12.7249C19.1173 12.6317 19.1827 12.552 19.2666 12.496C19.3504 12.4399 19.449 12.41 19.5499 12.41C19.6852 12.41 19.8149 12.4638 19.9105 12.5594C20.0062 12.655 20.0599 12.7848 20.0599 12.92Z"/>
</mask>
<path d="M16.9999 3.40002C14.3101 3.40002 11.6807 4.19765 9.44415 5.69204C7.20764 7.18643 5.4645 9.31045 4.43515 11.7955C3.4058 14.2806 3.13647 17.0151 3.66123 19.6533C4.18599 22.2914 5.48126 24.7147 7.38326 26.6167C9.28525 28.5187 11.7085 29.8139 14.3467 30.3387C16.9848 30.8635 19.7193 30.5941 22.2044 29.5648C24.6895 28.5354 26.8135 26.7923 28.3079 24.5558C29.8023 22.3193 30.5999 19.6899 30.5999 17C30.5999 15.214 30.2481 13.4456 29.5647 11.7955C28.8812 10.1455 27.8794 8.64625 26.6166 7.38337C25.3537 6.1205 23.8544 5.11873 22.2044 4.43526C20.5544 3.7518 18.7859 3.40002 16.9999 3.40002V3.40002ZM15.4869 4.17182C14.4669 5.26322 13.6135 7.46982 13.1069 10.5196C13.1069 10.5196 13.1069 10.54 13.1069 10.5502L12.9199 10.54C12.2887 10.54 11.6833 10.7908 11.237 11.2371C10.7907 11.6834 10.5399 12.2888 10.5399 12.92C10.5364 12.9823 10.5364 13.0447 10.5399 13.107C10.5094 13.1036 10.4786 13.1036 10.4481 13.107C7.43231 13.6306 5.24611 14.467 4.16151 15.487C4.506 12.6038 5.81021 9.92019 7.8644 7.86785C9.91859 5.81551 12.6034 4.51371 15.4869 4.17182V4.17182ZM10.6861 13.7326C10.8418 14.16 11.1167 14.5338 11.4782 14.8098C11.8398 15.0857 12.2728 15.2523 12.7261 15.2898C12.6616 15.3512 12.6238 15.4354 12.6207 15.5244C12.5799 16.0106 12.5799 16.507 12.5799 17C12.5799 18.1832 12.6343 19.38 12.7329 20.5292C7.42211 19.9784 4.07991 18.4484 4.07991 17C4.07991 15.7216 6.62991 14.4568 10.5739 13.7734C10.6136 13.7671 10.6516 13.7532 10.6861 13.7326V13.7326ZM12.9199 14.62C12.5837 14.62 12.255 14.5203 11.9754 14.3335C11.6959 14.1467 11.478 13.8812 11.3493 13.5706C11.2206 13.26 11.187 12.9181 11.2526 12.5884C11.3182 12.2586 11.4801 11.9557 11.7178 11.7179C11.9556 11.4802 12.2585 11.3183 12.5883 11.2527C12.918 11.1871 13.2598 11.2208 13.5705 11.3494C13.8811 11.4781 14.1466 11.696 14.3334 11.9756C14.5202 12.2551 14.6199 12.5838 14.6199 12.92C14.6199 13.1433 14.5759 13.3643 14.4905 13.5706C14.4051 13.7768 14.2798 13.9642 14.122 14.1221C13.9641 14.28 13.7767 14.4052 13.5705 14.4906C13.3642 14.5761 13.1432 14.62 12.9199 14.62V14.62ZM4.17171 18.5164C5.63031 19.8764 8.98951 20.8046 12.7975 21.2024C13.1953 25.0104 14.1269 28.3696 15.4835 29.8282C12.6034 29.4825 9.92276 28.1796 7.87157 26.1284C5.82038 24.0772 4.51744 21.3966 4.17171 18.5164V18.5164ZM18.5299 29.8248C19.5193 28.7708 20.3353 26.673 20.8657 23.7048C20.8735 23.656 20.8705 23.6061 20.857 23.5585C20.8435 23.5109 20.8198 23.4669 20.7875 23.4294C20.8841 23.4465 20.9818 23.4567 21.0799 23.46C21.6824 23.4547 22.2604 23.221 22.6973 22.8062C23.1342 22.3914 23.3976 21.8263 23.4343 21.225C23.4709 20.6236 23.2782 20.0307 22.8949 19.5659C22.5116 19.1011 21.9662 18.799 21.3689 18.7204C21.3805 18.6923 21.3874 18.6624 21.3893 18.632C21.4199 18.0948 21.4199 17.544 21.4199 17C21.4302 16.8007 21.4302 16.601 21.4199 16.4016C21.3972 16.2619 21.3813 16.1212 21.3723 15.98C21.3723 15.8899 21.3365 15.8034 21.2727 15.7396C21.209 15.6758 21.1225 15.64 21.0323 15.64C20.9421 15.64 20.8557 15.6758 20.7919 15.7396C20.7281 15.8034 20.6923 15.8899 20.6923 15.98C20.6923 16.269 20.7161 16.3778 20.7263 16.456C20.742 16.6369 20.7466 16.8186 20.7399 17C20.7399 17.5372 20.7399 18.0778 20.7093 18.6082C20.709 18.6488 20.7159 18.6891 20.7297 18.7272C20.197 18.8087 19.7078 19.0685 19.342 19.4642C18.9762 19.8599 18.7555 20.368 18.716 20.9055C18.6765 21.4429 18.8206 21.9778 19.1246 22.4227C19.4286 22.8676 19.8747 23.1962 20.3897 23.3546C20.3419 23.3775 20.3001 23.4112 20.2676 23.4532C20.2351 23.4951 20.2129 23.544 20.2027 23.596C19.5091 27.438 18.2545 29.92 16.9999 29.92C15.5515 29.92 14.0215 26.5778 13.4707 21.267C14.6199 21.3656 15.8167 21.42 16.9999 21.42C17.4385 21.42 17.8737 21.42 18.3021 21.3996C18.3923 21.3996 18.4788 21.3638 18.5425 21.3C18.6063 21.2363 18.6421 21.1498 18.6421 21.0596C18.6421 20.9695 18.6063 20.883 18.5425 20.8192C18.4788 20.7554 18.3923 20.7196 18.3021 20.7196C17.8805 20.7196 17.4521 20.74 17.0203 20.74C15.7487 20.74 14.5485 20.6856 13.4299 20.5904C13.3143 19.4718 13.2599 18.2716 13.2599 17C13.2599 16.5138 13.2599 16.0242 13.2837 15.5448C13.2846 15.4962 13.275 15.448 13.2556 15.4035C13.2363 15.3589 13.2076 15.319 13.1715 15.2864C13.7432 15.2259 14.2737 14.9605 14.665 14.5393C15.0562 14.1181 15.2817 13.5694 15.2999 12.9948C15.3129 13.0753 15.3544 13.1484 15.4168 13.2008C15.4793 13.2532 15.5584 13.2815 15.6399 13.2804C15.7175 13.2818 15.795 13.2749 15.8711 13.26H15.9799C16.0701 13.26 16.1566 13.2242 16.2203 13.1604C16.2841 13.0967 16.3199 13.0102 16.3199 12.92C16.3199 12.8299 16.2841 12.7434 16.2203 12.6796C16.1566 12.6158 16.0701 12.58 15.9799 12.58C15.8917 12.5716 15.8029 12.5716 15.7147 12.58H15.6161C15.5386 12.5836 15.4647 12.6135 15.4066 12.6648C15.3484 12.7161 15.3096 12.7858 15.2965 12.8622C15.2889 12.3831 15.1368 11.9174 14.8602 11.5261C14.5836 11.1349 14.1953 10.8362 13.7461 10.6692C13.748 10.6511 13.748 10.6329 13.7461 10.6148C14.4431 6.65382 15.7147 4.08002 16.9999 4.08002C18.2851 4.08002 19.4819 6.51442 20.1721 10.285C20.1883 10.3752 20.2397 10.4552 20.315 10.5075C20.3902 10.5598 20.4831 10.5801 20.5733 10.5638C20.6635 10.5476 20.7435 10.4962 20.7958 10.421C20.8481 10.3457 20.8683 10.2528 20.8521 10.1626C20.3217 7.26922 19.5125 5.21222 18.5367 4.17182C21.4105 4.5206 24.0843 5.82289 26.1306 7.87047C28.177 9.91805 29.4777 12.5927 29.8247 15.4666C28.9577 14.6574 27.3733 13.957 25.1599 13.4266C25.1164 13.4165 25.0713 13.4152 25.0272 13.4225C24.9831 13.4299 24.9409 13.4459 24.903 13.4696C24.8652 13.4932 24.8323 13.5242 24.8064 13.5605C24.7804 13.5969 24.7619 13.6381 24.7519 13.6816C24.7315 13.7691 24.7464 13.8611 24.7936 13.9375C24.8407 14.0139 24.9162 14.0686 25.0035 14.0896C28.0363 14.8138 29.9199 15.9256 29.9199 17C29.9199 18.224 27.5399 19.4616 23.7999 20.1552C23.7097 20.1638 23.6267 20.2078 23.569 20.2776C23.5112 20.3475 23.4836 20.4374 23.4922 20.5275C23.5008 20.6177 23.5448 20.7008 23.6146 20.7585C23.6845 20.8162 23.7743 20.8438 23.8645 20.8352H23.9257C26.7647 20.3048 28.7877 19.499 29.8179 18.5368C29.4689 21.4093 28.1674 24.0821 26.1213 26.1282C24.0751 28.1743 21.4024 29.4758 18.5299 29.8248ZM21.0799 19.38C21.4161 19.38 21.7448 19.4797 22.0244 19.6665C22.3039 19.8533 22.5218 20.1188 22.6505 20.4295C22.7792 20.7401 22.8128 21.0819 22.7472 21.4117C22.6816 21.7414 22.5197 22.0444 22.282 22.2821C22.0442 22.5199 21.7413 22.6818 21.4116 22.7474C21.0818 22.813 20.74 22.7793 20.4293 22.6506C20.1187 22.522 19.8532 22.3041 19.6664 22.0245C19.4796 21.7449 19.3799 21.4163 19.3799 21.08C19.3799 20.6292 19.559 20.1968 19.8778 19.8779C20.1966 19.5591 20.629 19.38 21.0799 19.38ZM21.8313 12.6786C21.8934 12.7438 21.9287 12.83 21.9299 12.92C21.9302 12.9648 21.9216 13.0091 21.9047 13.0506C21.8878 13.092 21.8628 13.1297 21.8313 13.1614C21.7836 13.2087 21.7231 13.2408 21.6572 13.2537C21.5913 13.2666 21.5231 13.2597 21.4611 13.2339C21.3992 13.2081 21.3462 13.1645 21.309 13.1086C21.2718 13.0528 21.2519 12.9872 21.2519 12.92C21.2519 12.8529 21.2718 12.7873 21.309 12.7314C21.3462 12.6756 21.3992 12.632 21.4611 12.6062C21.5231 12.5804 21.5913 12.5735 21.6572 12.5864C21.7231 12.5992 21.7836 12.6314 21.8313 12.6786V12.6786ZM20.0599 12.92C20.0599 13.0209 20.03 13.1195 19.974 13.2034C19.9179 13.2872 19.8383 13.3526 19.7451 13.3912C19.6519 13.4298 19.5493 13.4399 19.4504 13.4202C19.3515 13.4005 19.2606 13.352 19.1893 13.2806C19.118 13.2093 19.0694 13.1185 19.0497 13.0195C19.03 12.9206 19.0401 12.818 19.0787 12.7249C19.1173 12.6317 19.1827 12.552 19.2666 12.496C19.3504 12.4399 19.449 12.41 19.5499 12.41C19.6852 12.41 19.8149 12.4638 19.9105 12.5594C20.0062 12.655 20.0599 12.7848 20.0599 12.92Z" fill="#0074E0"/>
<path d="M16.9999 3.40002C14.3101 3.40002 11.6807 4.19765 9.44415 5.69204C7.20764 7.18643 5.4645 9.31045 4.43515 11.7955C3.4058 14.2806 3.13647 17.0151 3.66123 19.6533C4.18599 22.2914 5.48126 24.7147 7.38326 26.6167C9.28525 28.5187 11.7085 29.8139 14.3467 30.3387C16.9848 30.8635 19.7193 30.5941 22.2044 29.5648C24.6895 28.5354 26.8135 26.7923 28.3079 24.5558C29.8023 22.3193 30.5999 19.6899 30.5999 17C30.5999 15.214 30.2481 13.4456 29.5647 11.7955C28.8812 10.1455 27.8794 8.64625 26.6166 7.38337C25.3537 6.1205 23.8544 5.11873 22.2044 4.43526C20.5544 3.7518 18.7859 3.40002 16.9999 3.40002V3.40002ZM15.4869 4.17182C14.4669 5.26322 13.6135 7.46982 13.1069 10.5196C13.1069 10.5196 13.1069 10.54 13.1069 10.5502L12.9199 10.54C12.2887 10.54 11.6833 10.7908 11.237 11.2371C10.7907 11.6834 10.5399 12.2888 10.5399 12.92C10.5364 12.9823 10.5364 13.0447 10.5399 13.107C10.5094 13.1036 10.4786 13.1036 10.4481 13.107C7.43231 13.6306 5.24611 14.467 4.16151 15.487C4.506 12.6038 5.81021 9.92019 7.8644 7.86785C9.91859 5.81551 12.6034 4.51371 15.4869 4.17182V4.17182ZM10.6861 13.7326C10.8418 14.16 11.1167 14.5338 11.4782 14.8098C11.8398 15.0857 12.2728 15.2523 12.7261 15.2898C12.6616 15.3512 12.6238 15.4354 12.6207 15.5244C12.5799 16.0106 12.5799 16.507 12.5799 17C12.5799 18.1832 12.6343 19.38 12.7329 20.5292C7.42211 19.9784 4.07991 18.4484 4.07991 17C4.07991 15.7216 6.62991 14.4568 10.5739 13.7734C10.6136 13.7671 10.6516 13.7532 10.6861 13.7326V13.7326ZM12.9199 14.62C12.5837 14.62 12.255 14.5203 11.9754 14.3335C11.6959 14.1467 11.478 13.8812 11.3493 13.5706C11.2206 13.26 11.187 12.9181 11.2526 12.5884C11.3182 12.2586 11.4801 11.9557 11.7178 11.7179C11.9556 11.4802 12.2585 11.3183 12.5883 11.2527C12.918 11.1871 13.2598 11.2208 13.5705 11.3494C13.8811 11.4781 14.1466 11.696 14.3334 11.9756C14.5202 12.2551 14.6199 12.5838 14.6199 12.92C14.6199 13.1433 14.5759 13.3643 14.4905 13.5706C14.4051 13.7768 14.2798 13.9642 14.122 14.1221C13.9641 14.28 13.7767 14.4052 13.5705 14.4906C13.3642 14.5761 13.1432 14.62 12.9199 14.62V14.62ZM4.17171 18.5164C5.63031 19.8764 8.98951 20.8046 12.7975 21.2024C13.1953 25.0104 14.1269 28.3696 15.4835 29.8282C12.6034 29.4825 9.92276 28.1796 7.87157 26.1284C5.82038 24.0772 4.51744 21.3966 4.17171 18.5164V18.5164ZM18.5299 29.8248C19.5193 28.7708 20.3353 26.673 20.8657 23.7048C20.8735 23.656 20.8705 23.6061 20.857 23.5585C20.8435 23.5109 20.8198 23.4669 20.7875 23.4294C20.8841 23.4465 20.9818 23.4567 21.0799 23.46C21.6824 23.4547 22.2604 23.221 22.6973 22.8062C23.1342 22.3914 23.3976 21.8263 23.4343 21.225C23.4709 20.6236 23.2782 20.0307 22.8949 19.5659C22.5116 19.1011 21.9662 18.799 21.3689 18.7204C21.3805 18.6923 21.3874 18.6624 21.3893 18.632C21.4199 18.0948 21.4199 17.544 21.4199 17C21.4302 16.8007 21.4302 16.601 21.4199 16.4016C21.3972 16.2619 21.3813 16.1212 21.3723 15.98C21.3723 15.8899 21.3365 15.8034 21.2727 15.7396C21.209 15.6758 21.1225 15.64 21.0323 15.64C20.9421 15.64 20.8557 15.6758 20.7919 15.7396C20.7281 15.8034 20.6923 15.8899 20.6923 15.98C20.6923 16.269 20.7161 16.3778 20.7263 16.456C20.742 16.6369 20.7466 16.8186 20.7399 17C20.7399 17.5372 20.7399 18.0778 20.7093 18.6082C20.709 18.6488 20.7159 18.6891 20.7297 18.7272C20.197 18.8087 19.7078 19.0685 19.342 19.4642C18.9762 19.8599 18.7555 20.368 18.716 20.9055C18.6765 21.4429 18.8206 21.9778 19.1246 22.4227C19.4286 22.8676 19.8747 23.1962 20.3897 23.3546C20.3419 23.3775 20.3001 23.4112 20.2676 23.4532C20.2351 23.4951 20.2129 23.544 20.2027 23.596C19.5091 27.438 18.2545 29.92 16.9999 29.92C15.5515 29.92 14.0215 26.5778 13.4707 21.267C14.6199 21.3656 15.8167 21.42 16.9999 21.42C17.4385 21.42 17.8737 21.42 18.3021 21.3996C18.3923 21.3996 18.4788 21.3638 18.5425 21.3C18.6063 21.2363 18.6421 21.1498 18.6421 21.0596C18.6421 20.9695 18.6063 20.883 18.5425 20.8192C18.4788 20.7554 18.3923 20.7196 18.3021 20.7196C17.8805 20.7196 17.4521 20.74 17.0203 20.74C15.7487 20.74 14.5485 20.6856 13.4299 20.5904C13.3143 19.4718 13.2599 18.2716 13.2599 17C13.2599 16.5138 13.2599 16.0242 13.2837 15.5448C13.2846 15.4962 13.275 15.448 13.2556 15.4035C13.2363 15.3589 13.2076 15.319 13.1715 15.2864C13.7432 15.2259 14.2737 14.9605 14.665 14.5393C15.0562 14.1181 15.2817 13.5694 15.2999 12.9948C15.3129 13.0753 15.3544 13.1484 15.4168 13.2008C15.4793 13.2532 15.5584 13.2815 15.6399 13.2804C15.7175 13.2818 15.795 13.2749 15.8711 13.26H15.9799C16.0701 13.26 16.1566 13.2242 16.2203 13.1604C16.2841 13.0967 16.3199 13.0102 16.3199 12.92C16.3199 12.8299 16.2841 12.7434 16.2203 12.6796C16.1566 12.6158 16.0701 12.58 15.9799 12.58C15.8917 12.5716 15.8029 12.5716 15.7147 12.58H15.6161C15.5386 12.5836 15.4647 12.6135 15.4066 12.6648C15.3484 12.7161 15.3096 12.7858 15.2965 12.8622C15.2889 12.3831 15.1368 11.9174 14.8602 11.5261C14.5836 11.1349 14.1953 10.8362 13.7461 10.6692C13.748 10.6511 13.748 10.6329 13.7461 10.6148C14.4431 6.65382 15.7147 4.08002 16.9999 4.08002C18.2851 4.08002 19.4819 6.51442 20.1721 10.285C20.1883 10.3752 20.2397 10.4552 20.315 10.5075C20.3902 10.5598 20.4831 10.5801 20.5733 10.5638C20.6635 10.5476 20.7435 10.4962 20.7958 10.421C20.8481 10.3457 20.8683 10.2528 20.8521 10.1626C20.3217 7.26922 19.5125 5.21222 18.5367 4.17182C21.4105 4.5206 24.0843 5.82289 26.1306 7.87047C28.177 9.91805 29.4777 12.5927 29.8247 15.4666C28.9577 14.6574 27.3733 13.957 25.1599 13.4266C25.1164 13.4165 25.0713 13.4152 25.0272 13.4225C24.9831 13.4299 24.9409 13.4459 24.903 13.4696C24.8652 13.4932 24.8323 13.5242 24.8064 13.5605C24.7804 13.5969 24.7619 13.6381 24.7519 13.6816C24.7315 13.7691 24.7464 13.8611 24.7936 13.9375C24.8407 14.0139 24.9162 14.0686 25.0035 14.0896C28.0363 14.8138 29.9199 15.9256 29.9199 17C29.9199 18.224 27.5399 19.4616 23.7999 20.1552C23.7097 20.1638 23.6267 20.2078 23.569 20.2776C23.5112 20.3475 23.4836 20.4374 23.4922 20.5275C23.5008 20.6177 23.5448 20.7008 23.6146 20.7585C23.6845 20.8162 23.7743 20.8438 23.8645 20.8352H23.9257C26.7647 20.3048 28.7877 19.499 29.8179 18.5368C29.4689 21.4093 28.1674 24.0821 26.1213 26.1282C24.0751 28.1743 21.4024 29.4758 18.5299 29.8248ZM21.0799 19.38C21.4161 19.38 21.7448 19.4797 22.0244 19.6665C22.3039 19.8533 22.5218 20.1188 22.6505 20.4295C22.7792 20.7401 22.8128 21.0819 22.7472 21.4117C22.6816 21.7414 22.5197 22.0444 22.282 22.2821C22.0442 22.5199 21.7413 22.6818 21.4116 22.7474C21.0818 22.813 20.74 22.7793 20.4293 22.6506C20.1187 22.522 19.8532 22.3041 19.6664 22.0245C19.4796 21.7449 19.3799 21.4163 19.3799 21.08C19.3799 20.6292 19.559 20.1968 19.8778 19.8779C20.1966 19.5591 20.629 19.38 21.0799 19.38ZM21.8313 12.6786C21.8934 12.7438 21.9287 12.83 21.9299 12.92C21.9302 12.9648 21.9216 13.0091 21.9047 13.0506C21.8878 13.092 21.8628 13.1297 21.8313 13.1614C21.7836 13.2087 21.7231 13.2408 21.6572 13.2537C21.5913 13.2666 21.5231 13.2597 21.4611 13.2339C21.3992 13.2081 21.3462 13.1645 21.309 13.1086C21.2718 13.0528 21.2519 12.9872 21.2519 12.92C21.2519 12.8529 21.2718 12.7873 21.309 12.7314C21.3462 12.6756 21.3992 12.632 21.4611 12.6062C21.5231 12.5804 21.5913 12.5735 21.6572 12.5864C21.7231 12.5992 21.7836 12.6314 21.8313 12.6786V12.6786ZM20.0599 12.92C20.0599 13.0209 20.03 13.1195 19.974 13.2034C19.9179 13.2872 19.8383 13.3526 19.7451 13.3912C19.6519 13.4298 19.5493 13.4399 19.4504 13.4202C19.3515 13.4005 19.2606 13.352 19.1893 13.2806C19.118 13.2093 19.0694 13.1185 19.0497 13.0195C19.03 12.9206 19.0401 12.818 19.0787 12.7249C19.1173 12.6317 19.1827 12.552 19.2666 12.496C19.3504 12.4399 19.449 12.41 19.5499 12.41C19.6852 12.41 19.8149 12.4638 19.9105 12.5594C20.0062 12.655 20.0599 12.7848 20.0599 12.92Z" stroke="#0074E0" stroke-width="0.6" mask="url(#path-3-outside-1)"/>
</svg>
