<svg width="38" height="38" viewBox="0 0 38 38" fill="none" xmlns="http://www.w3.org/2000/svg">
<g opacity="0.8">
<path d="M18.9988 2.37158C9.83038 2.37158 2.37109 9.83086 2.37109 18.9996C2.37109 28.1685 9.83038 35.6281 18.9988 35.6281C28.1677 35.6281 35.627 28.1685 35.627 18.9996C35.6267 9.83086 28.1675 2.37158 18.9988 2.37158ZM27.8486 14.6628C27.4077 15.323 26.8594 15.9048 26.2265 16.3841C26.2292 16.4806 26.2309 16.5771 26.2309 16.6735C26.2309 21.5227 22.5411 26.5384 16.3661 26.5384C14.4817 26.5393 12.6367 25.9989 11.0505 24.9816C10.994 24.9455 10.9514 24.8913 10.9297 24.8278C10.908 24.7643 10.9085 24.6953 10.9312 24.6322C10.9532 24.5687 10.9964 24.5146 11.0534 24.4791C11.1105 24.4435 11.178 24.4286 11.2447 24.4368C11.505 24.4668 11.763 24.4816 12.0118 24.4816C13.2231 24.4816 14.3773 24.156 15.3905 23.5337C14.7803 23.3864 14.2183 23.0845 13.7585 22.6571C13.2988 22.2296 12.9568 21.691 12.7656 21.0931C12.7499 21.044 12.7473 20.9917 12.7579 20.9413C12.7685 20.8909 12.792 20.8441 12.8261 20.8054C12.8603 20.7668 12.9039 20.7377 12.9528 20.7212C13.0017 20.7047 13.054 20.7013 13.1046 20.7113C13.1604 20.722 13.2165 20.7312 13.2723 20.7389C12.2413 20.082 11.5724 18.9268 11.5724 17.6479V17.6054C11.5725 17.5538 11.586 17.503 11.6116 17.4582C11.6373 17.4133 11.6742 17.3759 11.7187 17.3497C11.7633 17.3235 11.8139 17.3094 11.8655 17.3087C11.9172 17.3081 11.9681 17.3209 12.0133 17.346C12.1424 17.4175 12.2763 17.4796 12.4138 17.5318C11.8862 16.8798 11.5988 16.0662 11.5997 15.2275C11.5997 14.5809 11.771 13.9444 12.0949 13.3871C12.119 13.3456 12.1529 13.3105 12.1935 13.2849C12.2341 13.2593 12.2804 13.244 12.3283 13.2402C12.3761 13.2364 12.4242 13.2443 12.4684 13.2631C12.5125 13.282 12.5515 13.3113 12.5818 13.3485C14.1609 15.2848 16.4563 16.5028 18.9254 16.7273C18.9079 16.5802 18.8992 16.4322 18.8993 16.284C18.8993 14.2662 20.5413 12.6245 22.5595 12.6245C23.5116 12.6245 24.4328 13 25.1123 13.6597C25.7764 13.5118 26.4129 13.2594 26.9978 12.9118C27.0124 12.866 27.0379 12.8245 27.0721 12.7907C27.1063 12.7569 27.1482 12.7319 27.1942 12.7179C27.2402 12.7039 27.2889 12.7013 27.3361 12.7103C27.3833 12.7193 27.4277 12.7396 27.4653 12.7695C27.5029 12.7994 27.5328 12.838 27.5522 12.882C27.5716 12.9259 27.5801 12.974 27.5768 13.0219C27.5736 13.0699 27.5588 13.1164 27.5336 13.1573C27.5084 13.1983 27.4737 13.2325 27.4324 13.2571C27.287 13.7129 27.0529 14.1354 26.7436 14.5004C26.9952 14.4244 27.2418 14.3328 27.482 14.2261C27.5408 14.2001 27.6064 14.1939 27.6691 14.2085C27.7317 14.223 27.7879 14.2575 27.8293 14.3068C27.8706 14.356 27.8948 14.4174 27.8983 14.4816C27.9018 14.5458 27.8844 14.6094 27.8486 14.6628Z" fill="#2C4470"/>
</g>
</svg>
