<svg width="189" height="41" viewBox="0 0 189 41" fill="none" xmlns="http://www.w3.org/2000/svg">
<path fill-rule="evenodd" clip-rule="evenodd" d="M115.259 30.8387V28.8387C117.082 29.995 118.927 30.573 120.797 30.573C122.785 30.573 124.293 30.1631 125.323 29.3431C126.352 28.5231 126.867 27.3757 126.867 25.9009C126.867 24.6031 126.521 23.5677 125.829 22.7949C125.161 22.0498 123.743 21.0441 121.573 19.7777L121.329 19.636C118.75 18.1374 117.117 16.8838 116.431 15.8752C115.745 14.8663 115.401 13.7012 115.401 12.3798C115.401 10.5864 116.099 9.06443 117.496 7.81376C118.892 6.56312 120.756 5.93781 123.086 5.93781C124.601 5.93781 126.115 6.19147 127.63 6.69881V8.53939C126.139 7.86685 124.548 7.53061 122.856 7.53061C121.128 7.53061 119.759 7.96714 118.747 8.84025C117.735 9.71334 117.229 10.8224 117.229 12.1675C117.229 13.4652 117.576 14.4976 118.268 15.2645C118.96 16.0314 120.454 17.0756 122.749 18.3971C125.127 19.742 126.71 20.9368 127.497 21.9808C128.284 23.0251 128.677 24.2256 128.677 25.5823C128.677 27.5292 128 29.1161 126.645 30.343C125.29 31.5702 123.376 32.1836 120.903 32.1836C120.028 32.1836 119.019 32.0479 117.877 31.7765C116.736 31.5053 115.863 31.1925 115.259 30.8387ZM52.181 9.94145H59.4589V6.36457H40.7168V9.94145H47.977V31.7569H52.181V9.94145ZM66.1678 34.6601L74.3675 13.6195H70.2144L65.6709 26.8318C65.5631 27.2368 65.4786 27.5665 65.4175 27.8211L65.3514 28.107H65.2626C65.1681 27.7022 65.0927 27.386 65.0366 27.1585L64.9432 26.7964L60.6126 13.6195H56.0513L63.2749 31.72L62.0503 34.6956C61.2929 36.2067 60.1452 36.9625 58.607 36.9625C58.0746 36.9625 57.4829 36.8562 56.8323 36.6437V40.0619C57.412 40.2153 58.1338 40.2921 58.9974 40.2921C62.0739 40.2921 64.4639 38.4148 66.1678 34.6601ZM81.1076 29.0696H81.0367V40.0787H76.9232V13.6176H81.0367V16.8036H81.1076C82.5141 14.3962 84.5709 13.1927 87.2778 13.1927C89.5827 13.1927 91.3794 14.001 92.6679 15.6176C93.9562 17.2342 94.6005 19.4053 94.6005 22.1311C94.6005 25.1519 93.8736 27.5708 92.4196 29.3881C90.9658 31.2053 88.98 32.1139 86.4621 32.1139C84.1453 32.1139 82.3606 31.099 81.1076 29.0696ZM80.9698 24.2649V22.0291C80.9698 20.4799 81.4156 19.189 82.3073 18.156C83.1989 17.1232 84.3768 16.6068 85.8413 16.6068C87.2231 16.6068 88.3184 17.1085 89.1273 18.112C89.9364 19.1156 90.3409 20.5034 90.3409 22.2755C90.3409 24.3882 89.9068 26.0342 89.0389 27.2136C88.1708 28.3931 86.9752 28.9829 85.4515 28.9829C84.1526 28.9829 83.0809 28.5252 82.2364 27.6098C81.3919 26.6944 80.9698 25.5793 80.9698 24.2649ZM113.13 23.8042H100.861C100.908 25.4813 101.42 26.7744 102.399 27.6839C103.377 28.5933 104.722 29.048 106.433 29.048C108.355 29.048 110.118 28.4693 111.724 27.3119V30.6247C110.083 31.6641 107.915 32.1836 105.22 32.1836C102.572 32.1836 100.495 31.3598 98.9889 29.7123C97.4831 28.0647 96.7303 25.747 96.7303 22.759C96.7303 19.9364 97.5594 17.6364 99.2174 15.8589C100.875 14.0815 102.935 13.1927 105.396 13.1927C107.856 13.1927 109.761 13.9899 111.108 15.5843C112.456 17.1787 113.13 19.3932 113.13 22.2275V23.8042ZM108.262 17.416C108.94 18.2398 109.284 19.3927 109.296 20.8745H100.99C101.177 19.4755 101.676 18.3435 102.488 17.4781C103.3 16.6128 104.29 16.1801 105.458 16.1801C106.65 16.1801 107.585 16.5921 108.262 17.416ZM139.093 32.1836C140.97 32.1836 142.586 31.771 143.94 30.9458V29.2484C142.586 30.215 140.994 30.6983 139.165 30.6983C137.169 30.6983 135.562 29.9852 134.344 28.5587C133.126 27.1323 132.518 25.2462 132.518 22.9003C132.518 20.472 133.183 18.4946 134.514 16.9679C135.844 15.4414 137.579 14.6781 139.717 14.6781C141.273 14.6781 142.705 15.0788 144.012 15.8805V14.0416C142.705 13.4757 141.356 13.1927 139.966 13.1927C137.281 13.1927 135.084 14.1092 133.373 15.9424C131.662 17.7755 130.807 20.1302 130.807 23.0066C130.807 25.7415 131.567 27.9546 133.088 29.6461C134.609 31.3378 136.61 32.1836 139.093 32.1836ZM154.661 15.2555C154.12 14.8642 153.485 14.6687 152.756 14.6687C151.333 14.6687 150.139 15.4096 149.175 16.8913C148.211 18.3732 147.729 20.4774 147.729 23.2039V31.7569H146.141V13.5485H147.729V17.5848H147.799C148.211 16.1978 148.863 15.1192 149.757 14.3486C150.651 13.5781 151.686 13.1927 152.861 13.1927C153.532 13.1927 154.131 13.2994 154.661 13.5128V15.2555ZM157.204 8.73702C157.48 9.00468 157.797 9.13852 158.157 9.13852C158.54 9.13852 158.87 8.9986 159.145 8.71877C159.421 8.43895 159.559 8.10437 159.559 7.71503C159.559 7.30137 159.418 6.97289 159.136 6.72955C158.855 6.48624 158.528 6.36457 158.157 6.36457C157.809 6.36457 157.494 6.48927 157.213 6.73869C156.931 6.98811 156.79 7.31356 156.79 7.71503C156.79 8.12871 156.928 8.46935 157.204 8.73702ZM157.216 31.7569V13.6195H158.92V31.7569H157.216ZM164.377 28.5284H164.448C165.742 30.9693 167.743 32.1898 170.449 32.1898C172.872 32.1898 174.823 31.2552 176.299 29.3862C177.776 27.5172 178.514 25.0674 178.514 22.0367C178.514 19.3129 177.87 17.1578 176.582 15.5717C175.293 13.9857 173.502 13.1927 171.208 13.1927C169.76 13.1927 168.434 13.5553 167.228 14.2806C166.022 15.0058 165.095 16.0346 164.448 17.3671H164.377V13.6349H162.754V40.0787H164.377V28.5284ZM164.458 21.7873V24.066C164.458 25.8795 165.034 27.4368 166.187 28.7382C167.339 30.0394 168.854 30.69 170.732 30.69C172.597 30.69 174.112 29.8981 175.277 28.3142C176.441 26.7303 177.023 24.6489 177.023 22.07C177.023 19.809 176.489 18.0132 175.419 16.6824C174.35 15.3517 172.924 14.6864 171.141 14.6864C169.014 14.6864 167.369 15.3929 166.204 16.8061C165.04 18.2191 164.458 19.8797 164.458 21.7873ZM186.368 32.1836C187.105 32.1836 187.895 31.9835 188.737 31.5832V30.0641C187.965 30.4998 187.245 30.7177 186.578 30.7177C185.642 30.7177 184.978 30.438 184.586 29.8787C184.194 29.3194 183.998 28.4158 183.998 27.1675V15.2278H188.737V13.7441H183.998V8.49837C183.74 8.59258 183.471 8.68088 183.19 8.76331C182.909 8.85751 182.64 8.9517 182.383 9.04591V13.7441H179.153V15.2278H182.383V27.3794C182.383 30.5822 183.711 32.1836 186.368 32.1836Z" fill="#3178C6"/>
<g clip-path="url(#clip0)">
<path d="M33.1482 0H1.63024C0.729883 0 0 0.729883 0 1.63024V33.1482C0 34.0485 0.729883 34.7784 1.63024 34.7784H33.1482C34.0485 34.7784 34.7784 34.0485 34.7784 33.1482V1.63024C34.7784 0.729883 34.0485 0 33.1482 0Z" fill="#3178C6"/>
<path fill-rule="evenodd" clip-rule="evenodd" d="M20.1774 27.0261V30.837C20.7949 31.1544 21.525 31.3927 22.3681 31.5514C23.2111 31.7103 24.0996 31.7896 25.0336 31.7896C25.9439 31.7896 26.8087 31.7024 27.6278 31.5277C28.4473 31.353 29.1654 31.0653 29.783 30.6642C30.4003 30.2632 30.8891 29.7393 31.2494 29.0921C31.6094 28.4452 31.7896 27.6453 31.7896 26.6926C31.7896 26.0019 31.6866 25.3966 31.4809 24.8765C31.275 24.3565 30.9782 23.894 30.5903 23.4891C30.2025 23.0842 29.7374 22.721 29.1953 22.3995C28.653 22.0779 28.0416 21.7742 27.3607 21.4884C26.8621 21.282 26.4149 21.0816 26.0191 20.887C25.6233 20.6925 25.2869 20.494 25.0099 20.2916C24.7328 20.0891 24.5191 19.8748 24.3687 19.6485C24.2183 19.4222 24.1431 19.1662 24.1431 18.8804C24.1431 18.6184 24.2104 18.3822 24.345 18.1718C24.4795 17.9614 24.6695 17.7808 24.9149 17.6299C25.1603 17.4791 25.4611 17.362 25.8173 17.2786C26.1735 17.1953 26.5692 17.1536 27.0046 17.1536C27.3213 17.1536 27.6555 17.1774 28.008 17.225C28.3601 17.2727 28.7144 17.3461 29.0706 17.4454C29.4268 17.5446 29.773 17.6696 30.1096 17.8205C30.446 17.9713 30.7565 18.146 31.0416 18.3445V14.7837C30.4636 14.5614 29.8325 14.3967 29.1478 14.2895C28.4631 14.1823 27.6776 14.1287 26.7909 14.1287C25.8885 14.1287 25.0336 14.226 24.2262 14.4205C23.4189 14.615 22.7084 14.9187 22.095 15.3315C21.4815 15.7444 20.9967 16.2703 20.6405 16.9094C20.2843 17.5486 20.1062 18.3127 20.1062 19.2019C20.1062 20.3372 20.4327 21.3058 21.0857 22.1077C21.7388 22.9096 22.7302 23.5884 24.06 24.1441C24.5824 24.3585 25.0693 24.5689 25.5204 24.7753C25.9716 24.9817 26.3615 25.1961 26.69 25.4184C27.0185 25.6407 27.2776 25.8828 27.4675 26.1448C27.6577 26.4068 27.7525 26.7045 27.7525 27.038C27.7525 27.2842 27.6933 27.5124 27.5746 27.7227C27.4558 27.933 27.2757 28.1156 27.0343 28.2705C26.7929 28.4254 26.4921 28.5466 26.1319 28.6338C25.7718 28.721 25.3503 28.7647 24.8674 28.7647C24.0442 28.7647 23.2289 28.6199 22.4215 28.33C21.6141 28.0404 20.8661 27.6056 20.1774 27.0261ZM13.7761 17.5398H18.7477V14.4004H4.89062V17.5398H9.83783V31.5179H13.7761V17.5398Z" fill="white"/>
</g>
<defs>
<clipPath id="clip0">
<rect width="34.7784" height="34.7784" fill="white"/>
</clipPath>
</defs>
</svg>
