<svg width="34" height="34" viewBox="0 0 34 34" fill="none" xmlns="http://www.w3.org/2000/svg">
<path d="M6.45996 11.8401C6.45996 10.1832 7.80311 8.84009 9.45996 8.84009H27.6C29.2568 8.84009 30.6 10.1832 30.6 11.8401V14.8001C30.6 19.7706 26.5705 23.8001 21.6 23.8001H9.45996C7.8031 23.8001 6.45996 22.4569 6.45996 20.8001V11.8401Z" fill="#BDF3FF"/>
<path d="M11.2677 28.3012C11.6494 28.3012 12.0312 28.3012 12.413 28.3012C13.3241 28.3012 14.2352 28.3012 15.1431 28.3012C16.2499 28.3012 17.3567 28.3012 18.4635 28.3012C19.4163 28.3012 20.3692 28.3012 21.322 28.3012C21.7872 28.3012 22.2555 28.3204 22.7207 28.3012C22.7271 28.3012 22.7336 28.3012 22.74 28.3012C23.1538 28.3012 23.1538 27.6596 22.74 27.6596C22.3582 27.6596 21.9764 27.6596 21.5947 27.6596C20.6836 27.6596 19.7724 27.6596 18.8645 27.6596C17.7577 27.6596 16.6509 27.6596 15.5441 27.6596C14.5913 27.6596 13.6385 27.6596 12.6857 27.6596C12.2205 27.6596 11.7521 27.6403 11.2869 27.6596C11.2805 27.6596 11.2741 27.6596 11.2677 27.6596C10.857 27.6596 10.8538 28.3012 11.2677 28.3012Z" fill="#0074E0" stroke="#0074E0"/>
<path d="M13.616 17.2844C12.7659 16.4343 11.9157 15.5841 11.0623 14.7307C10.9404 14.6088 10.8185 14.4869 10.6966 14.365C10.6966 14.5158 10.6966 14.6666 10.6966 14.8174C11.5468 13.9672 12.3969 13.1171 13.2503 12.2637C13.3722 12.1418 13.4941 12.0199 13.616 11.898C13.908 11.606 13.4556 11.1505 13.1637 11.4456C12.3135 12.2958 11.4634 13.1459 10.61 13.9993C10.4881 14.1212 10.3662 14.2431 10.2443 14.365C10.1224 14.4869 10.1224 14.6955 10.2443 14.8174C11.0944 15.6675 11.9446 16.5177 12.7979 17.371C12.9198 17.493 13.0418 17.6149 13.1637 17.7368C13.4556 18.0319 13.908 17.5764 13.616 17.2844Z" fill="#0074E0" stroke="#0074E0"/>
<path d="M20.8439 17.7367C21.694 16.8865 22.5442 16.0364 23.3976 15.183C23.5195 15.0611 23.6414 14.9392 23.7633 14.8173C23.8852 14.6954 23.8852 14.4868 23.7633 14.3649C22.9131 13.5148 22.063 12.6646 21.2096 11.8113C21.0877 11.6894 20.9658 11.5674 20.8439 11.4455C20.552 11.1536 20.0964 11.6059 20.3915 11.8979C21.2417 12.748 22.0919 13.5982 22.9452 14.4516C23.0671 14.5735 23.189 14.6954 23.3109 14.8173C23.3109 14.6665 23.3109 14.5157 23.3109 14.3649C22.4608 15.2151 21.6106 16.0652 20.7573 16.9186C20.6354 17.0405 20.5135 17.1624 20.3915 17.2843C20.0996 17.5763 20.552 18.0318 20.8439 17.7367Z" fill="#0074E0" stroke="#0074E0"/>
<path d="M15.8905 19.0394C16.2145 18.0513 16.5353 17.0632 16.8593 16.0751C17.3694 14.5127 17.8795 12.9536 18.3896 11.3912C18.5051 11.0351 18.6238 10.6758 18.7393 10.3197C18.8676 9.92507 18.2485 9.75825 18.1201 10.1496C17.7961 11.1377 17.4753 12.1259 17.1513 13.114C16.6412 14.6763 16.1311 16.2355 15.621 17.7978C15.5055 18.1539 15.3868 18.5132 15.2713 18.8694C15.143 19.2607 15.7622 19.4308 15.8905 19.0394Z" fill="#0074E0" stroke="#0074E0"/>
<path d="M29.9583 8.15405C29.9583 9.03308 29.9583 9.9089 29.9583 10.7879C29.9583 12.5684 29.9583 14.3457 29.9583 16.1263C29.9583 17.5282 29.9583 18.927 29.9583 20.3289C29.9583 20.7171 29.9839 21.1053 29.8364 21.4742C29.5637 22.1672 28.8835 22.5618 28.1553 22.5618C27.4142 22.5618 26.6731 22.5618 25.9321 22.5618C24.4467 22.5618 22.9613 22.5618 21.476 22.5618C19.6601 22.5618 17.8443 22.5618 16.0285 22.5618C14.2801 22.5618 12.5285 22.5618 10.78 22.5618C9.51282 22.5618 8.24561 22.5618 6.9784 22.5618C6.65117 22.5618 6.32073 22.5618 5.9935 22.5618C5.92934 22.5618 5.86197 22.5618 5.7978 22.5618C5.42566 22.5586 5.06956 22.4527 4.76479 22.2345C4.31244 21.9105 4.05258 21.3812 4.04937 20.8294C4.04937 20.7588 4.04937 20.6914 4.04937 20.6209C4.04937 20.1557 4.04937 19.6905 4.04937 19.2253C4.04937 17.5475 4.04937 15.8664 4.04937 14.1885C4.04937 12.5781 4.04937 10.9708 4.04937 9.36031C4.04937 8.98175 4.04937 8.60319 4.04937 8.22463C4.04937 7.36164 4.60759 6.61735 5.47057 6.44732C5.68873 6.40562 5.92292 6.42166 6.14428 6.42166C6.52605 6.42166 6.90782 6.42166 7.28638 6.42166C8.62417 6.42166 9.96517 6.42166 11.303 6.42166C13.0739 6.42166 14.848 6.42166 16.6188 6.42166C18.425 6.42166 20.228 6.42166 22.0342 6.42166C23.4586 6.42166 24.883 6.42166 26.3074 6.42166C26.9426 6.42166 27.5778 6.41845 28.213 6.42166C29.1723 6.42807 29.9486 7.19482 29.9583 8.15405C29.9615 8.5679 30.6031 8.5679 30.5999 8.15405C30.5871 6.85155 29.5252 5.79286 28.2227 5.78003C28.0462 5.78003 27.873 5.78003 27.6965 5.78003C26.625 5.78003 25.5567 5.78003 24.4852 5.78003C22.8073 5.78003 21.1295 5.78003 19.4516 5.78003C17.5877 5.78003 15.727 5.78003 13.8631 5.78003C12.2333 5.78003 10.6068 5.78003 8.97707 5.78003C8.01463 5.78003 7.05218 5.78003 6.08654 5.78003C5.74647 5.78003 5.41283 5.78003 5.08239 5.88269C4.0622 6.19709 3.40454 7.1499 3.40133 8.20538C3.39812 9.28652 3.40133 10.3677 3.40133 11.4488C3.40133 13.271 3.40133 15.0964 3.40133 16.9187C3.40133 18.1602 3.40133 19.405 3.40133 20.6465C3.40133 20.7363 3.39812 20.8294 3.40454 20.9192C3.43341 21.5897 3.7446 22.241 4.27073 22.6612C4.75837 23.0526 5.32942 23.2034 5.94217 23.2034C6.79874 23.2034 7.65531 23.2034 8.51509 23.2034C10.0839 23.2034 11.6526 23.2034 13.2214 23.2034C15.0821 23.2034 16.9461 23.2034 18.8068 23.2034C20.5328 23.2034 22.2587 23.2034 23.9815 23.2034C25.1429 23.2034 26.301 23.2034 27.4623 23.2034C27.6997 23.2034 27.9371 23.2034 28.1777 23.2034C29.1177 23.2002 30.0064 22.6741 30.3882 21.8014C30.5903 21.3363 30.5967 20.8711 30.5967 20.3802C30.5967 19.8092 30.5967 19.2414 30.5967 18.6703C30.5967 16.8994 30.5967 15.1285 30.5967 13.3576C30.5967 11.8594 30.5967 10.358 30.5967 8.85984C30.5967 8.62564 30.5967 8.38824 30.5967 8.15405C30.5999 7.74341 29.9583 7.74341 29.9583 8.15405Z" fill="#0074E0"/>
<path d="M29.9583 8.15405C29.9583 9.03308 29.9583 9.9089 29.9583 10.7879C29.9583 12.5684 29.9583 14.3457 29.9583 16.1263C29.9583 17.5282 29.9583 18.927 29.9583 20.3289C29.9583 20.7171 29.9839 21.1053 29.8364 21.4742C29.5637 22.1672 28.8835 22.5618 28.1553 22.5618C27.4142 22.5618 26.6731 22.5618 25.9321 22.5618C24.4467 22.5618 22.9613 22.5618 21.476 22.5618C19.6601 22.5618 17.8443 22.5618 16.0285 22.5618C14.2801 22.5618 12.5285 22.5618 10.78 22.5618C9.51282 22.5618 8.24561 22.5618 6.9784 22.5618C6.65117 22.5618 6.32073 22.5618 5.9935 22.5618C5.92934 22.5618 5.86197 22.5618 5.7978 22.5618C5.42566 22.5586 5.06956 22.4527 4.76479 22.2345C4.31244 21.9105 4.05258 21.3812 4.04937 20.8294C4.04937 20.7588 4.04937 20.6914 4.04937 20.6209C4.04937 20.1557 4.04937 19.6905 4.04937 19.2253C4.04937 17.5475 4.04937 15.8664 4.04937 14.1885C4.04937 12.5781 4.04937 10.9708 4.04937 9.36031C4.04937 8.98175 4.04937 8.60319 4.04937 8.22463C4.04937 7.36164 4.60759 6.61735 5.47057 6.44732C5.68873 6.40562 5.92292 6.42166 6.14428 6.42166C6.52605 6.42166 6.90782 6.42166 7.28638 6.42166C8.62417 6.42166 9.96517 6.42166 11.303 6.42166C13.0739 6.42166 14.848 6.42166 16.6188 6.42166C18.425 6.42166 20.228 6.42166 22.0342 6.42166C23.4586 6.42166 24.883 6.42166 26.3074 6.42166C26.9426 6.42166 27.5778 6.41845 28.213 6.42166C29.1723 6.42807 29.9486 7.19482 29.9583 8.15405ZM29.9583 8.15405C29.9615 8.5679 30.6031 8.5679 30.5999 8.15405C30.5871 6.85155 29.5252 5.79286 28.2227 5.78003C28.0462 5.78003 27.873 5.78003 27.6965 5.78003C26.625 5.78003 25.5567 5.78003 24.4852 5.78003C22.8073 5.78003 21.1295 5.78003 19.4516 5.78003C17.5877 5.78003 15.727 5.78003 13.8631 5.78003C12.2333 5.78003 10.6068 5.78003 8.97707 5.78003C8.01463 5.78003 7.05218 5.78003 6.08654 5.78003C5.74647 5.78003 5.41283 5.78003 5.08239 5.88269C4.0622 6.19709 3.40454 7.1499 3.40133 8.20538C3.39812 9.28652 3.40133 10.3677 3.40133 11.4488C3.40133 13.271 3.40133 15.0964 3.40133 16.9187C3.40133 18.1602 3.40133 19.405 3.40133 20.6465C3.40133 20.7363 3.39812 20.8294 3.40454 20.9192C3.43341 21.5897 3.7446 22.241 4.27073 22.6612C4.75837 23.0526 5.32942 23.2034 5.94217 23.2034C6.79874 23.2034 7.65531 23.2034 8.51509 23.2034C10.0839 23.2034 11.6526 23.2034 13.2214 23.2034C15.0821 23.2034 16.9461 23.2034 18.8068 23.2034C20.5328 23.2034 22.2587 23.2034 23.9815 23.2034C25.1429 23.2034 26.301 23.2034 27.4623 23.2034C27.6997 23.2034 27.9371 23.2034 28.1777 23.2034C29.1177 23.2002 30.0064 22.6741 30.3882 21.8014C30.5903 21.3363 30.5967 20.8711 30.5967 20.3802C30.5967 19.8092 30.5967 19.2414 30.5967 18.6703C30.5967 16.8994 30.5967 15.1285 30.5967 13.3576C30.5967 11.8594 30.5967 10.358 30.5967 8.85984C30.5967 8.62564 30.5967 8.38824 30.5967 8.15405C30.5999 7.74341 29.9583 7.74341 29.9583 8.15405Z" stroke="#0074E0"/>
<path d="M18.9831 22.8826C18.9831 24.3679 18.9831 25.8533 18.9831 27.3387C18.9831 27.5536 18.9831 27.7654 18.9831 27.9803C19.0889 27.8744 19.198 27.7654 19.3039 27.6595C17.9597 27.6595 16.6155 27.6595 15.2713 27.6595C15.082 27.6595 14.8927 27.6595 14.7002 27.6595C14.8061 27.7654 14.9152 27.8744 15.021 27.9803C15.021 26.4949 15.021 25.0096 15.021 23.5242C15.021 23.3093 15.021 23.0975 15.021 22.8826C14.9152 22.9884 14.8061 23.0975 14.7002 23.2034C16.0444 23.2034 17.3886 23.2034 18.7328 23.2034C18.9221 23.2034 19.1114 23.2034 19.3039 23.2034C19.7177 23.2034 19.7177 22.5618 19.3039 22.5618C17.9597 22.5618 16.6155 22.5618 15.2713 22.5618C15.082 22.5618 14.8927 22.5618 14.7002 22.5618C14.527 22.5618 14.3794 22.7093 14.3794 22.8826C14.3794 24.3679 14.3794 25.8533 14.3794 27.3387C14.3794 27.5536 14.3794 27.7654 14.3794 27.9803C14.3794 28.1535 14.527 28.3011 14.7002 28.3011C16.0444 28.3011 17.3886 28.3011 18.7328 28.3011C18.9221 28.3011 19.1114 28.3011 19.3039 28.3011C19.4771 28.3011 19.6247 28.1535 19.6247 27.9803C19.6247 26.4949 19.6247 25.0096 19.6247 23.5242C19.6247 23.3093 19.6247 23.0975 19.6247 22.8826C19.6247 22.4719 18.9831 22.4687 18.9831 22.8826Z" fill="#0074E0" stroke="#0074E0"/>
</svg>
