<svg width="182" height="53" viewBox="0 0 182 53" fill="none" xmlns="http://www.w3.org/2000/svg">
<path d="M23.0626 0L46.1252 13.0383V39.1209L23.0626 52.1592L0 39.1209V13.0383L23.0626 0Z" fill="white"/>
<path d="M42.0072 38.2215L23.8253 48.502V40.4968L35.1539 34.2665L42.0072 38.2215ZM43.2527 37.0958V15.5995L36.6021 19.4413V33.2599L43.2527 37.0958ZM4.04628 38.2215L22.2282 48.502V40.4968L10.8935 34.2665L4.04628 38.2215ZM2.80078 37.0958V15.5995L9.45139 19.4413V33.2599L2.80078 37.0958ZM3.58145 14.2058L22.2282 3.66315V11.4004L10.2797 17.9701L10.1844 18.0237L3.58145 14.2058ZM42.472 14.2058L23.8253 3.66315V11.4004L35.7737 17.9642L35.8691 18.0178L42.472 14.2058Z" fill="#8ED6FB"/>
<path d="M22.2285 38.6741L11.0488 32.5273V20.3586L22.2285 26.8092V38.6741ZM23.8256 38.6741L35.0053 32.5332V20.3586L23.8256 26.8092V38.6741ZM11.8057 18.9529L23.0271 12.7881L34.2485 18.9529L23.0271 25.4274L11.8057 18.9529Z" fill="#1C78C0"/>
<path d="M69.3847 34.326H74.3011L79.3129 17.6365H74.5216L71.5539 29.4776L68.3895 17.6365H64.2418L61.0476 29.4776L58.1097 17.6365H53.3184L58.3004 34.326H63.2168L66.3157 23.6345L69.3847 34.326ZM79.5692 26.0289C79.5692 31.0382 82.9839 34.743 88.3532 34.743C92.5069 34.743 94.7416 32.2533 95.3793 31.0739L92.4711 28.8701C91.9944 29.5729 90.6833 30.9131 88.4128 30.9131C85.9516 30.9131 84.1638 29.3168 84.0685 27.0832H95.8262C95.856 26.7616 95.856 26.4459 95.856 26.1242C95.856 20.6683 92.9181 17.2196 87.7454 17.2196C82.9839 17.2196 79.5692 20.984 79.5692 26.0289ZM84.1996 24.2063C84.3903 22.2944 85.7311 20.8231 87.8109 20.8231C89.8252 20.8231 91.2912 22.1633 91.3865 24.2063H84.1996ZM97.5187 34.326H101.672V32.6047C102.119 33.1467 103.782 34.743 106.625 34.743C111.416 34.743 114.801 31.1394 114.801 25.9992C114.801 20.8291 111.672 17.2256 106.881 17.2256C104.008 17.2256 102.346 18.8218 101.929 19.3936V11.2514H97.5246V34.326H97.5187ZM101.797 26.0289C101.797 22.9019 103.651 21.115 106.076 21.115C108.633 21.115 110.355 23.1282 110.355 26.0289C110.355 28.9952 108.567 30.8476 106.076 30.8476C103.395 30.8476 101.797 28.6735 101.797 26.0289ZM116.517 40.2942H120.921V32.5987C121.338 33.1407 122.995 34.737 125.873 34.737C130.664 34.737 133.793 31.1335 133.793 25.9634C133.793 20.8589 130.408 17.2196 125.617 17.2196C122.774 17.2196 121.112 18.8159 120.665 19.3877V17.6306H116.511V40.2942H116.517ZM120.796 25.9336C120.796 23.2831 122.393 21.115 125.075 21.115C127.566 21.115 129.353 22.9674 129.353 25.9336C129.353 28.8403 127.631 30.8476 125.075 30.8476C122.649 30.8476 120.796 29.0607 120.796 25.9336ZM134.592 29.156C134.592 32.6642 137.464 34.743 140.849 34.743C142.768 34.743 144.043 34.1712 144.907 33.242L145.193 34.326H149.091V23.7596C149.091 20.025 147.494 17.2196 142.13 17.2196C139.574 17.2196 137.053 18.1786 135.551 19.1971L137.214 22.199C138.459 21.5617 139.991 21.0197 141.653 21.0197C143.602 21.0197 144.687 22.0084 144.687 23.4797V24.5637C144.079 24.1468 142.768 23.6405 141.075 23.6405C137.178 23.6345 134.592 25.8681 134.592 29.156ZM138.996 29.0249C138.996 27.655 140.176 26.696 141.868 26.696C143.56 26.696 144.776 27.5597 144.776 29.0249C144.776 30.4306 143.56 31.3241 141.904 31.3241C140.247 31.3241 138.996 30.4008 138.996 29.0249ZM159.788 30.8476C157.011 30.8476 155.032 28.8343 155.032 25.9992C155.032 23.3188 156.79 21.115 159.633 21.115C161.516 21.115 162.797 22.0382 163.53 22.7113L164.776 19.0065C163.691 18.1786 161.963 17.2196 159.508 17.2196C154.43 17.2196 150.628 20.9542 150.628 26.0289C150.628 31.1037 154.335 34.743 159.537 34.743C161.963 34.743 163.786 33.7245 164.74 32.9561L163.56 29.3525C162.821 29.9541 161.48 30.8476 159.788 30.8476ZM166.397 34.326H170.8V25.7073L176.39 34.326H181.563L175.24 25.1951L181.116 17.6306H176.164L170.8 24.653V11.2514H166.397V34.326Z" fill="#1A1C1C"/>
</svg>
