<svg width="100" height="100" viewBox="0 0 100 100" fill="none" xmlns="http://www.w3.org/2000/svg">
<path d="M19 29C19 27.3431 20.3431 26 22 26H87C88.6569 26 90 27.3431 90 29V61C90 65.9706 85.9706 70 81 70H22C20.3431 70 19 68.6569 19 67V29Z" fill="#BDF3FF"/>
<path d="M33.1408 83.2385C34.2637 83.2385 35.3865 83.2385 36.5094 83.2385C39.1891 83.2385 41.8688 83.2385 44.5391 83.2385C47.7944 83.2385 51.0498 83.2385 54.3051 83.2385C57.1075 83.2385 59.9099 83.2385 62.7123 83.2385C64.0804 83.2385 65.4581 83.2951 66.8262 83.2385C66.8451 83.2385 66.864 83.2385 66.8828 83.2385C68.1 83.2385 68.1 81.3513 66.8828 81.3513C65.76 81.3513 64.6371 81.3513 63.5143 81.3513C60.8346 81.3513 58.1548 81.3513 55.4845 81.3513C52.2292 81.3513 48.9739 81.3513 45.7186 81.3513C42.9162 81.3513 40.1138 81.3513 37.3114 81.3513C35.9432 81.3513 34.5656 81.2947 33.1974 81.3513C33.1786 81.3513 33.1597 81.3513 33.1408 81.3513C31.933 81.3513 31.9236 83.2385 33.1408 83.2385Z" fill="#0074E0" stroke="#0074E0"/>
<path d="M40.0471 50.8365C37.5467 48.336 35.0462 45.8355 32.5363 43.3257C32.1778 42.9671 31.8192 42.6085 31.4607 42.25C31.4607 42.6935 31.4607 43.1369 31.4607 43.5804C33.9611 41.08 36.4616 38.5795 38.9715 36.0696C39.33 35.7111 39.6886 35.3525 40.0471 34.9939C40.9058 34.1353 39.5754 32.7954 38.7167 33.6635C36.2163 36.164 33.7158 38.6644 31.2059 41.1743C30.8474 41.5329 30.4888 41.8914 30.1302 42.25C29.7717 42.6085 29.7717 43.2219 30.1302 43.5804C32.6307 46.0809 35.1312 48.5813 37.641 51.0912C37.9996 51.4498 38.3582 51.8083 38.7167 52.1669C39.5754 53.035 40.9058 51.6951 40.0471 50.8365Z" fill="#0074E0" stroke="#0074E0"/>
<path d="M61.3061 52.1667C63.8065 49.6662 66.307 47.1657 68.8169 44.6558C69.1754 44.2973 69.534 43.9387 69.8926 43.5802C70.2511 43.2216 70.2511 42.6083 69.8926 42.2497C67.3921 39.7493 64.8916 37.2488 62.3817 34.7389C62.0232 34.3804 61.6646 34.0218 61.3061 33.6633C60.4474 32.8046 59.1076 34.1351 59.9756 34.9937C62.4761 37.4942 64.9766 39.9946 67.4865 42.5045C67.845 42.8631 68.2036 43.2216 68.5621 43.5802C68.5621 43.1367 68.5621 42.6932 68.5621 42.2497C66.0617 44.7502 63.5612 47.2507 61.0513 49.7606C60.6928 50.1191 60.3342 50.4777 59.9756 50.8362C59.117 51.6949 60.4474 53.0347 61.3061 52.1667Z" fill="#0074E0" stroke="#0074E0"/>
<path d="M46.7375 55.9981C47.6905 53.0919 48.6341 50.1857 49.5871 47.2795C51.0874 42.6843 52.5876 38.0986 54.0879 33.5034C54.4276 32.456 54.7767 31.3992 55.1164 30.3519C55.4938 29.1913 53.6727 28.7006 53.2953 29.8518C52.3423 32.758 51.3987 35.6642 50.4457 38.5703C48.9455 43.1655 47.4452 47.7513 45.9449 52.3465C45.6052 53.3938 45.2561 54.4506 44.9164 55.498C44.539 56.6491 46.3601 57.1492 46.7375 55.9981Z" fill="#0074E0" stroke="#0074E0"/>
<path d="M88.1128 23.9824C88.1128 26.5678 88.1128 29.1437 88.1128 31.7291C88.1128 36.9659 88.1128 42.1933 88.1128 47.4301C88.1128 51.5535 88.1128 55.6675 88.1128 59.7908C88.1128 60.9326 88.1883 62.0743 87.7543 63.1594C86.9522 65.1975 84.9519 66.3581 82.81 66.3581C80.6303 66.3581 78.4507 66.3581 76.271 66.3581C71.9023 66.3581 67.5336 66.3581 63.1649 66.3581C57.8243 66.3581 52.4837 66.3581 47.1431 66.3581C42.0006 66.3581 36.8487 66.3581 31.7063 66.3581C27.9792 66.3581 24.2521 66.3581 20.525 66.3581C19.5625 66.3581 18.5907 66.3581 17.6282 66.3581C17.4395 66.3581 17.2414 66.3581 17.0527 66.3581C15.9581 66.3486 14.9108 66.0373 14.0144 65.3956C12.6839 64.4426 11.9196 62.8857 11.9102 61.2628C11.9102 61.0552 11.9102 60.8571 11.9102 60.6495C11.9102 59.2813 11.9102 57.9131 11.9102 56.545C11.9102 51.6101 11.9102 46.6658 11.9102 41.7309C11.9102 36.9942 11.9102 32.2669 11.9102 27.5302C11.9102 26.4168 11.9102 25.3034 11.9102 24.19C11.9102 21.6518 13.552 19.4627 16.0902 18.9626C16.7318 18.84 17.4206 18.8871 18.0717 18.8871C19.1946 18.8871 20.3174 18.8871 21.4308 18.8871C25.3655 18.8871 29.3096 18.8871 33.2443 18.8871C38.4528 18.8871 43.6707 18.8871 48.8792 18.8871C54.1915 18.8871 59.4944 18.8871 64.8067 18.8871C68.9961 18.8871 73.1856 18.8871 77.375 18.8871C79.2433 18.8871 81.1115 18.8777 82.9798 18.8871C85.8011 18.906 88.0845 21.1611 88.1128 23.9824C88.1223 25.1996 90.0094 25.1996 90 23.9824C89.9622 20.1515 86.839 17.0377 83.0081 17C82.4892 17 81.9796 17 81.4607 17C78.3091 17 75.1671 17 72.0155 17C67.0807 17 62.1458 17 57.2109 17C51.7288 17 46.2561 17 40.774 17C35.9806 17 31.1968 17 26.4034 17C23.5727 17 20.742 17 17.9019 17C16.9017 17 15.9204 17 14.9485 17.3019C11.9479 18.2266 10.0136 21.029 10.0042 24.1334C9.99476 27.3132 10.0042 30.493 10.0042 33.6729C10.0042 39.0323 10.0042 44.4012 10.0042 49.7607C10.0042 53.4123 10.0042 57.0734 10.0042 60.725C10.0042 60.9892 9.99476 61.2628 10.0136 61.527C10.0986 63.4991 11.0138 65.4145 12.5613 66.6506C13.9955 67.8017 15.675 68.2452 17.4773 68.2452C19.9966 68.2452 22.5159 68.2452 25.0447 68.2452C29.6587 68.2452 34.2728 68.2452 38.8868 68.2452C44.3595 68.2452 49.8417 68.2452 55.3144 68.2452C60.3908 68.2452 65.4672 68.2452 70.5341 68.2452C73.9499 68.2452 77.3561 68.2452 80.7719 68.2452C81.4701 68.2452 82.1683 68.2452 82.876 68.2452C85.6407 68.2358 88.2544 66.6883 89.3772 64.1218C89.9717 62.7537 89.9905 61.3855 89.9905 59.9418C89.9905 58.2623 89.9905 56.5921 89.9905 54.9126C89.9905 49.7041 89.9905 44.4956 89.9905 39.2871C89.9905 34.8806 89.9905 30.4647 89.9905 26.0583C89.9905 25.3695 89.9905 24.6712 89.9905 23.9824C90 22.7746 88.1128 22.7746 88.1128 23.9824Z" fill="#0074E0"/>
<path d="M88.1128 23.9824C88.1128 26.5678 88.1128 29.1437 88.1128 31.7291C88.1128 36.9659 88.1128 42.1933 88.1128 47.4301C88.1128 51.5535 88.1128 55.6675 88.1128 59.7908C88.1128 60.9326 88.1883 62.0743 87.7543 63.1594C86.9522 65.1975 84.9519 66.3581 82.81 66.3581C80.6303 66.3581 78.4507 66.3581 76.271 66.3581C71.9023 66.3581 67.5336 66.3581 63.1649 66.3581C57.8243 66.3581 52.4837 66.3581 47.1431 66.3581C42.0006 66.3581 36.8487 66.3581 31.7063 66.3581C27.9792 66.3581 24.2521 66.3581 20.525 66.3581C19.5625 66.3581 18.5907 66.3581 17.6282 66.3581C17.4395 66.3581 17.2414 66.3581 17.0527 66.3581C15.9581 66.3486 14.9108 66.0373 14.0144 65.3956C12.6839 64.4426 11.9196 62.8858 11.9102 61.2628C11.9102 61.0552 11.9102 60.8571 11.9102 60.6495C11.9102 59.2813 11.9102 57.9131 11.9102 56.545C11.9102 51.6101 11.9102 46.6658 11.9102 41.7309C11.9102 36.9942 11.9102 32.2669 11.9102 27.5302C11.9102 26.4168 11.9102 25.3034 11.9102 24.19C11.9102 21.6518 13.552 19.4627 16.0902 18.9626C16.7318 18.84 17.4206 18.8871 18.0717 18.8871C19.1946 18.8871 20.3174 18.8871 21.4308 18.8871C25.3655 18.8871 29.3096 18.8871 33.2443 18.8871C38.4528 18.8871 43.6707 18.8871 48.8792 18.8871C54.1915 18.8871 59.4944 18.8871 64.8067 18.8871C68.9961 18.8871 73.1856 18.8871 77.375 18.8871C79.2433 18.8871 81.1115 18.8777 82.9798 18.8871C85.8011 18.906 88.0845 21.1611 88.1128 23.9824ZM88.1128 23.9824C88.1223 25.1996 90.0094 25.1996 90 23.9824C89.9622 20.1515 86.839 17.0377 83.0081 17C82.4892 17 81.9796 17 81.4607 17C78.3091 17 75.1671 17 72.0155 17C67.0807 17 62.1458 17 57.2109 17C51.7288 17 46.2561 17 40.774 17C35.9806 17 31.1968 17 26.4034 17C23.5727 17 20.742 17 17.9019 17C16.9017 17 15.9204 17 14.9485 17.3019C11.9479 18.2266 10.0136 21.029 10.0042 24.1334C9.99476 27.3132 10.0042 30.493 10.0042 33.6729C10.0042 39.0323 10.0042 44.4012 10.0042 49.7607C10.0042 53.4123 10.0042 57.0734 10.0042 60.725C10.0042 60.9892 9.99476 61.2628 10.0136 61.527C10.0986 63.4991 11.0138 65.4145 12.5613 66.6506C13.9955 67.8017 15.675 68.2452 17.4773 68.2452C19.9966 68.2452 22.5159 68.2452 25.0447 68.2452C29.6587 68.2452 34.2728 68.2452 38.8868 68.2452C44.3595 68.2452 49.8417 68.2452 55.3144 68.2452C60.3908 68.2452 65.4672 68.2452 70.5341 68.2452C73.9499 68.2452 77.3561 68.2452 80.7719 68.2452C81.4701 68.2452 82.1683 68.2452 82.876 68.2452C85.6407 68.2358 88.2544 66.6883 89.3772 64.1218C89.9717 62.7537 89.9905 61.3855 89.9905 59.9418C89.9905 58.2623 89.9905 56.5921 89.9905 54.9126C89.9905 49.7041 89.9905 44.4956 89.9905 39.2871C89.9905 34.8806 89.9905 30.4647 89.9905 26.0583C89.9905 25.3695 89.9905 24.6712 89.9905 23.9824C90 22.7746 88.1128 22.7746 88.1128 23.9824Z" stroke="#0074E0"/>
<path d="M55.8332 67.3017C55.8332 71.6704 55.8332 76.0391 55.8332 80.4078C55.8332 81.04 55.8332 81.6628 55.8332 82.295C56.1446 81.9836 56.4654 81.6628 56.7768 81.3514C52.8232 81.3514 48.8697 81.3514 44.9161 81.3514C44.3594 81.3514 43.8027 81.3514 43.2365 81.3514C43.5479 81.6628 43.8687 81.9836 44.1801 82.295C44.1801 77.9263 44.1801 73.5575 44.1801 69.1888C44.1801 68.5566 44.1801 67.9339 44.1801 67.3017C43.8687 67.613 43.5479 67.9339 43.2365 68.2452C47.1901 68.2452 51.1437 68.2452 55.0972 68.2452C55.6539 68.2452 56.2106 68.2452 56.7768 68.2452C57.994 68.2452 57.994 66.3581 56.7768 66.3581C52.8232 66.3581 48.8697 66.3581 44.9161 66.3581C44.3594 66.3581 43.8027 66.3581 43.2365 66.3581C42.727 66.3581 42.293 66.7921 42.293 67.3017C42.293 71.6704 42.293 76.0391 42.293 80.4078C42.293 81.04 42.293 81.6628 42.293 82.295C42.293 82.8045 42.727 83.2386 43.2365 83.2386C47.1901 83.2386 51.1437 83.2386 55.0972 83.2386C55.6539 83.2386 56.2106 83.2386 56.7768 83.2386C57.2863 83.2386 57.7203 82.8045 57.7203 82.295C57.7203 77.9263 57.7203 73.5575 57.7203 69.1888C57.7203 68.5566 57.7203 67.9339 57.7203 67.3017C57.7203 66.0939 55.8332 66.0845 55.8332 67.3017Z" fill="#0074E0" stroke="#0074E0"/>
</svg>
