<svg width="100" height="100" fill="none" xmlns="http://www.w3.org/2000/svg">
    <path d="M19 29a3 3 0 0 1 3-3h65a3 3 0 0 1 3 3v32a9 9 0 0 1-9 9H22a3 3 0 0 1-3-3V29z" fill="#BDF3FF"/>
    <path d="M33.14 83.239h29.572c1.368 0 2.746.056 4.114 0h.057c1.217 0 1.217-1.888 0-1.888H37.31c-1.368 0-2.745-.056-4.114 0h-.056c-1.208 0-1.217 1.888 0 1.888zM40.047 50.837a265929.034 265929.034 0 0 0-8.586-8.587v1.33l7.51-7.51 1.076-1.076c.859-.859-.472-2.199-1.33-1.33l-7.511 7.51-1.076 1.076a.957.957 0 0 0 0 1.33l7.511 7.511 1.076 1.076c.858.868 2.189-.472 1.33-1.33zM61.306 52.167l7.51-7.511 1.077-1.076a.957.957 0 0 0 0-1.33l-7.511-7.511-1.076-1.076c-.859-.858-2.198.472-1.33 1.33l7.51 7.511 1.076 1.076v-1.33a531196.803 531196.803 0 0 1-8.586 8.586c-.859.859.471 2.199 1.33 1.33zM46.737 55.998c.953-2.906 1.897-5.812 2.85-8.718 1.5-4.596 3-9.181 4.5-13.777.34-1.047.69-2.104 1.03-3.151.377-1.16-1.444-1.651-1.822-.5-.953 2.906-1.896 5.812-2.85 8.718-1.5 4.596-3 9.181-4.5 13.776-.34 1.048-.689 2.105-1.029 3.152-.377 1.151 1.444 1.651 1.822.5z" fill="#0074E0" stroke="#0074E0"/>
    <path d="M88.113 23.982V59.79c0 1.143.075 2.284-.359 3.37-.802 2.038-2.802 3.198-4.944 3.198H17.053c-1.095-.01-2.142-.32-3.039-.962-1.33-.953-2.094-2.51-2.104-4.133V24.19c0-2.538 1.642-4.727 4.18-5.227.642-.123 1.33-.076 1.982-.076h59.303c1.868 0 3.737-.01 5.605 0a5.149 5.149 0 0 1 5.133 5.095c.01 1.218 1.896 1.218 1.887 0-.038-3.83-3.161-6.944-6.992-6.982H17.902c-1 0-1.982 0-2.954.302-3 .925-4.934 3.727-4.944 6.831-.01 3.18 0 6.36 0 9.54v27.052c0 .264-.01.538.01.802.085 1.972 1 3.888 2.547 5.124 1.434 1.15 3.114 1.594 4.916 1.594h65.399c2.765-.01 5.378-1.557 6.501-4.123.595-1.368.614-2.736.614-4.18v-35.96c.009-1.207-1.878-1.207-1.878 0z" fill="#0074E0"/>
    <path d="M88.113 23.982V59.79c0 1.143.075 2.284-.359 3.37-.802 2.038-2.802 3.198-4.944 3.198H17.053c-1.095-.01-2.142-.32-3.039-.962-1.33-.953-2.094-2.51-2.104-4.133V24.19c0-2.538 1.642-4.727 4.18-5.227.642-.123 1.33-.076 1.982-.076h59.303c1.868 0 3.737-.01 5.605 0a5.149 5.149 0 0 1 5.133 5.095zm0 0c.01 1.218 1.896 1.218 1.887 0-.038-3.83-3.161-6.944-6.992-6.982H17.902c-1 0-1.982 0-2.954.302-3 .925-4.934 3.727-4.944 6.831-.01 3.18 0 6.36 0 9.54v27.052c0 .264-.01.538.01.802.085 1.972 1 3.888 2.547 5.124 1.434 1.15 3.114 1.594 4.916 1.594h65.399c2.765-.01 5.378-1.557 6.501-4.123.595-1.368.614-2.736.614-4.18v-35.96c.009-1.207-1.878-1.207-1.878 0z" stroke="#0074E0"/>
    <path d="M55.833 67.302v14.993l.944-.944h-13.54c.31.312.632.633.943.944V67.302l-.944.943h13.541c1.217 0 1.217-1.887 0-1.887h-13.54a.959.959 0 0 0-.944.944v14.993c0 .51.434.944.944.944h13.54c.51 0 .943-.434.943-.944V67.302c0-1.208-1.887-1.218-1.887 0z" fill="#0074E0" stroke="#0074E0"/>
</svg>
