<svg width="60" height="60" viewBox="0 0 60 60" fill="none" xmlns="http://www.w3.org/2000/svg">
<circle cx="30" cy="30" r="29.5" fill="white" stroke="#0074E0"/>
<path d="M15.9067 38.4588C15.9214 38.3616 16.2689 36.1122 16.6253 34.6853L16.6253 34.6852C17.0095 33.1511 17.6679 32.1346 18.4613 31.3884C19.216 30.6784 20.0895 30.2166 20.9481 29.7858C19.9703 28.7667 19.3684 27.3841 19.3684 25.8628C19.3684 22.735 21.9139 20.19 25.0422 20.19C28.1705 20.19 30.7154 22.735 30.7154 25.8628C30.7154 27.3841 30.113 28.7663 29.1362 29.7853C29.9947 30.2163 30.8685 30.678 31.6233 31.3879C32.4167 32.1342 33.0751 33.1507 33.4585 34.6853M15.9067 38.4588C15.9067 38.4588 15.9068 38.4587 15.9068 38.4587L16.0056 38.4739L15.9067 38.459C15.9067 38.459 15.9067 38.4589 15.9067 38.4588ZM15.9067 38.4588C15.8703 38.6959 15.984 38.9304 16.1917 39.0497C16.3405 39.1351 19.6965 41.0161 25.0422 41.0161C30.3888 41.0161 33.7438 39.1351 33.8926 39.0496L33.8428 38.9629L33.8924 39.0498C34.1004 38.931 34.214 38.6964 34.1776 38.4589C34.1776 38.4589 34.1776 38.4588 34.1776 38.4587L34.0787 38.4739C34.0643 38.379 33.7172 36.1319 33.3615 34.7095M33.3615 34.7095L33.4585 34.6853M33.3615 34.7095C32.6168 31.7288 30.8298 30.7464 29.0628 29.8604L33.4585 34.6853M33.3615 34.7095L33.4585 34.6853C33.4585 34.6853 33.4585 34.6853 33.4585 34.6853M21.6863 30.7119L21.6865 30.7118L21.9173 30.5957C22.8139 31.19 23.8886 31.536 25.0422 31.536C26.1957 31.536 27.2704 31.1896 28.1674 30.5952C28.1816 30.6024 28.1959 30.6096 28.2101 30.6169C28.2736 30.6489 28.3371 30.6811 28.4002 30.7128L28.4004 30.7129C29.2942 31.1592 30.1117 31.5683 30.7904 32.193C31.4656 32.8146 32.0072 33.6539 32.3349 34.9658C32.5894 35.9847 32.848 37.4966 32.9665 38.221C32.0039 38.6789 29.126 39.8567 25.0422 39.8567C20.9723 39.8567 18.0842 38.6771 17.1178 38.2199C17.2359 37.4959 17.4949 35.9841 17.7489 34.9658C18.0776 33.6534 18.6197 32.8141 19.2954 32.1924C19.9745 31.5676 20.7923 31.1585 21.6863 30.7119ZM20.5273 25.8628C20.5273 23.3738 22.5526 21.3489 25.0422 21.3489C27.5317 21.3489 29.5566 23.3738 29.5566 25.8628C29.5566 28.3528 27.5317 30.3777 25.0422 30.3777C22.5526 30.3777 20.5273 28.3528 20.5273 25.8628Z" fill="#0074E0" stroke="#0074E0" stroke-width="0.2"/>
<path d="M39.3827 27.9362C40.1845 28.3393 40.999 28.7745 41.7028 29.4412C42.4446 30.1441 43.0596 31.1002 43.4185 32.5385C43.755 33.881 44.0806 35.9967 44.0936 36.086C44.1297 36.3237 44.0162 36.5573 43.8087 36.6765C43.8087 36.6765 43.8086 36.6766 43.8085 36.6766L43.7587 36.5899C43.6408 36.6579 41.0697 38.0933 36.8968 38.3762L39.3827 27.9362ZM39.3827 27.9362C40.2873 26.9759 40.8432 25.6829 40.8432 24.2626C40.8432 21.3054 38.4373 18.9 35.4801 18.9C33.7528 18.9 32.2178 19.724 31.2363 20.9946L31.1801 21.0673L31.2478 21.1294C31.4842 21.3464 31.706 21.5753 31.907 21.8234L31.9895 21.9253L32.0659 21.8188C32.8301 20.7548 34.0743 20.0588 35.4801 20.0588C37.798 20.0588 39.6844 21.9447 39.6844 24.2626C39.6844 26.581 37.7985 28.4673 35.4801 28.4673C34.6318 28.4673 33.8434 28.2127 33.1815 27.7789L33.0716 27.7069L33.0315 27.832C32.9338 28.1363 32.813 28.4317 32.6704 28.7183L32.6294 28.8007L32.708 28.8484C33.5178 29.3397 34.4653 29.6261 35.4801 29.6261C36.5637 29.6261 37.5726 29.3026 38.4167 28.748M39.3827 27.9362L38.4167 28.748M38.4167 28.748L38.6179 28.8497L38.6183 28.85C39.4546 29.2673 40.2183 29.6493 40.852 30.2324C41.4823 30.8124 41.9878 31.5956 42.2935 32.8204L42.2935 32.8205C42.5295 33.7631 42.7686 35.1581 42.8818 35.8477L38.4167 28.748Z" fill="#0074E0" stroke="#0074E0" stroke-width="0.2"/>
</svg>
