<svg width="222" height="24" viewBox="0 0 222 24" fill="none" xmlns="http://www.w3.org/2000/svg">
<path d="M27.066 20.312C26.182 20.312 25.3067 20.1993 24.44 19.974C23.5733 19.7487 22.8107 19.3153 22.152 18.674C21.6667 18.1887 21.268 17.5907 20.956 16.88C20.6613 16.152 20.514 15.1467 20.514 13.864V11.992C20.514 11.004 20.462 10.302 20.358 9.886C20.254 9.47 20.098 9.16667 19.89 8.976C19.6127 8.69867 19.2313 8.56 18.746 8.56C17.602 8.56 17.03 9.30533 17.03 10.796C17.03 11.3853 17.056 11.9227 17.108 12.408C17.1773 12.8933 17.212 13.4133 17.212 13.968C17.212 15.4413 16.8827 16.646 16.224 17.582C15.5827 18.518 14.69 19.2113 13.546 19.662C12.4193 20.0953 11.1193 20.312 9.646 20.312C7.73933 20.312 6.12733 19.9567 4.81 19.246C3.49267 18.5353 2.496 17.5647 1.82 16.334C1.16133 15.086 0.832 13.6733 0.832 12.096C0.832 10.6573 1.10933 9.444 1.664 8.456C2.21867 7.45067 2.97267 6.688 3.926 6.168C4.87933 5.63067 5.954 5.362 7.15 5.362C8.58867 5.362 9.698 5.74333 10.478 6.506C11.2753 7.26867 11.674 8.29133 11.674 9.574C11.674 10.77 11.258 11.7667 10.426 12.564C9.61133 13.3613 8.43267 13.76 6.89 13.76C6.43933 13.76 6.01467 13.7167 5.616 13.63C5.23467 13.5433 4.87933 13.4307 4.55 13.292C4.67133 13.916 4.914 14.514 5.278 15.086C5.65933 15.6407 6.19667 16.1 6.89 16.464C7.58333 16.828 8.48467 17.01 9.594 17.01C10.9287 17.01 11.8993 16.698 12.506 16.074C13.13 15.45 13.442 14.6353 13.442 13.63C13.442 12.954 13.4073 12.3387 13.338 11.784C13.286 11.212 13.26 10.5533 13.26 9.808C13.26 8.456 13.7367 7.38133 14.69 6.584C15.6433 5.76933 17.0127 5.362 18.798 5.362C19.4393 5.362 20.072 5.43133 20.696 5.57C21.32 5.69133 21.8833 5.94267 22.386 6.324C22.8193 6.636 23.1747 7 23.452 7.416C23.7293 7.81467 23.9373 8.33467 24.076 8.976C24.2147 9.6 24.284 10.4233 24.284 11.446V13.37C24.284 14.1673 24.3447 14.774 24.466 15.19C24.5873 15.5887 24.7607 15.9267 24.986 16.204C25.246 16.4813 25.5667 16.6893 25.948 16.828C26.3293 16.9493 26.7367 17.01 27.17 17.01C28.0887 17.01 28.7907 16.7413 29.276 16.204C29.7787 15.6667 30.03 14.9213 30.03 13.968C30.03 12.7373 29.6833 11.6453 28.99 10.692C28.314 9.73867 27.3607 8.872 26.13 8.092L28.522 5.31C30.1687 6.36733 31.46 7.60667 32.396 9.028C33.3493 10.4493 33.826 12.0613 33.826 13.864C33.826 15.1293 33.5833 16.2473 33.098 17.218C32.63 18.1887 31.8933 18.9513 30.888 19.506C29.9 20.0433 28.626 20.312 27.066 20.312ZM6.968 8.144C6.344 8.144 5.81533 8.36067 5.382 8.794C4.94867 9.21 4.66267 9.834 4.524 10.666C4.71467 10.7527 4.92267 10.8307 5.148 10.9C5.37333 10.952 5.62467 10.978 5.902 10.978C6.71667 10.978 7.306 10.8393 7.67 10.562C8.05133 10.2673 8.242 9.90333 8.242 9.47C8.242 9.054 8.12067 8.73333 7.878 8.508C7.63533 8.26533 7.332 8.144 6.968 8.144ZM45.2715 23.4277H43.3799V1.51562H45.2715V23.4277ZM71.5051 12.98V1.436H67.4231V12.98C67.4231 14.3667 67.1457 15.3893 66.5911 16.048C66.0364 16.6893 65.0311 17.01 63.5751 17.01C62.7431 17.01 62.0757 16.8973 61.5731 16.672C61.0877 16.4293 60.7064 16.126 60.4291 15.762C60.1517 15.3807 59.9697 14.9473 59.8831 14.462C59.7964 13.9767 59.7531 13.4827 59.7531 12.98V1.436H55.6711V12.98C55.6711 15.5107 56.3557 17.3827 57.7251 18.596C59.1117 19.8093 61.0617 20.416 63.5751 20.416C66.0537 20.416 67.9951 19.8093 69.3991 18.596C70.8031 17.3653 71.5051 15.4933 71.5051 12.98ZM79.1026 8.95V4.608H82.9246C83.2886 4.608 83.6352 4.64267 83.9646 4.712C84.3112 4.764 84.6146 4.868 84.8746 5.024C85.1346 5.18 85.3426 5.39667 85.4986 5.674C85.6546 5.95133 85.7326 6.30667 85.7326 6.74C85.7326 7.52 85.4986 8.08333 85.0306 8.43C84.5626 8.77667 83.9646 8.95 83.2366 8.95H79.1026ZM75.0206 1.436V20H84.0166C84.8486 20 85.6546 19.896 86.4346 19.688C87.2319 19.48 87.9339 19.1593 88.5406 18.726C89.1646 18.2927 89.6586 17.738 90.0226 17.062C90.3866 16.3687 90.5686 15.554 90.5686 14.618C90.5686 13.4567 90.2826 12.4687 89.7106 11.654C89.1559 10.822 88.3066 10.2413 87.1626 9.912C87.9946 9.51333 88.6186 9.002 89.0346 8.378C89.4679 7.754 89.6846 6.974 89.6846 6.038C89.6846 5.17133 89.5372 4.44333 89.2426 3.854C88.9652 3.26467 88.5666 2.79667 88.0466 2.45C87.5266 2.086 86.9026 1.826 86.1746 1.67C85.4466 1.514 84.6406 1.436 83.7566 1.436H75.0206ZM79.1026 16.828V11.732H83.5486C84.4326 11.732 85.1432 11.94 85.6806 12.356C86.2179 12.7547 86.4866 13.4307 86.4866 14.384C86.4866 14.8693 86.3999 15.268 86.2266 15.58C86.0706 15.892 85.8539 16.1433 85.5766 16.334C85.2992 16.5073 84.9786 16.6373 84.6146 16.724C84.2506 16.7933 83.8692 16.828 83.4706 16.828H79.1026ZM93.3272 1.436V20H107.419V16.568H97.4092V12.018H106.405V8.846H97.4092V4.868H107.211V1.436H93.3272ZM114.269 9.834V4.608H118.741C119.677 4.608 120.379 4.816 120.847 5.232C121.315 5.63067 121.549 6.28067 121.549 7.182C121.549 8.118 121.315 8.794 120.847 9.21C120.379 9.626 119.677 9.834 118.741 9.834H114.269ZM110.187 1.436V20H114.269V12.746H118.351C119.373 12.746 120.11 12.9713 120.561 13.422C121.011 13.8727 121.306 14.5833 121.445 15.554C121.549 16.2993 121.627 17.0793 121.679 17.894C121.731 18.7087 121.869 19.4107 122.095 20H126.177C125.986 19.74 125.839 19.428 125.735 19.064C125.648 18.6827 125.579 18.284 125.527 17.868C125.492 17.452 125.466 17.0447 125.449 16.646C125.431 16.2473 125.414 15.9007 125.397 15.606C125.362 15.138 125.293 14.67 125.189 14.202C125.102 13.734 124.955 13.3093 124.747 12.928C124.539 12.5293 124.27 12.1913 123.941 11.914C123.611 11.6193 123.195 11.4027 122.693 11.264V11.212C123.733 10.796 124.478 10.1893 124.929 9.392C125.397 8.59467 125.631 7.65 125.631 6.558C125.631 5.84733 125.501 5.18867 125.241 4.582C124.998 3.958 124.634 3.412 124.149 2.944C123.681 2.476 123.109 2.112 122.433 1.852C121.774 1.57467 121.029 1.436 120.197 1.436H110.187ZM141.326 7.676H145.278C145.157 6.60133 144.862 5.648 144.394 4.816C143.926 3.984 143.328 3.29067 142.6 2.736C141.89 2.164 141.075 1.73067 140.156 1.436C139.255 1.14133 138.293 0.994 137.27 0.994C135.849 0.994 134.566 1.24533 133.422 1.748C132.296 2.25067 131.342 2.944 130.562 3.828C129.782 4.712 129.184 5.752 128.768 6.948C128.352 8.12667 128.144 9.40933 128.144 10.796C128.144 12.148 128.352 13.4133 128.768 14.592C129.184 15.7533 129.782 16.7673 130.562 17.634C131.342 18.5007 132.296 19.1853 133.422 19.688C134.566 20.1733 135.849 20.416 137.27 20.416C138.414 20.416 139.463 20.2427 140.416 19.896C141.37 19.5493 142.202 19.0467 142.912 18.388C143.623 17.7293 144.195 16.932 144.628 15.996C145.062 15.06 145.33 14.0113 145.434 12.85H141.482C141.326 14.098 140.893 15.1033 140.182 15.866C139.489 16.6287 138.518 17.01 137.27 17.01C136.352 17.01 135.572 16.8367 134.93 16.49C134.289 16.126 133.769 15.6493 133.37 15.06C132.972 14.4707 132.677 13.812 132.486 13.084C132.313 12.3387 132.226 11.576 132.226 10.796C132.226 9.98133 132.313 9.19267 132.486 8.43C132.677 7.66733 132.972 6.99133 133.37 6.402C133.769 5.79533 134.289 5.31867 134.93 4.972C135.572 4.608 136.352 4.426 137.27 4.426C137.773 4.426 138.25 4.51267 138.7 4.686C139.168 4.842 139.584 5.06733 139.948 5.362C140.312 5.65667 140.616 6.00333 140.858 6.402C141.101 6.78333 141.257 7.208 141.326 7.676ZM151.498 10.796C151.498 9.98133 151.584 9.19267 151.758 8.43C151.948 7.66733 152.243 6.99133 152.642 6.402C153.04 5.79533 153.56 5.31867 154.202 4.972C154.843 4.608 155.623 4.426 156.542 4.426C157.46 4.426 158.24 4.608 158.882 4.972C159.523 5.31867 160.043 5.79533 160.442 6.402C160.84 6.99133 161.126 7.66733 161.3 8.43C161.49 9.19267 161.586 9.98133 161.586 10.796C161.586 11.576 161.49 12.3387 161.3 13.084C161.126 13.812 160.84 14.4707 160.442 15.06C160.043 15.6493 159.523 16.126 158.882 16.49C158.24 16.8367 157.46 17.01 156.542 17.01C155.623 17.01 154.843 16.8367 154.202 16.49C153.56 16.126 153.04 15.6493 152.642 15.06C152.243 14.4707 151.948 13.812 151.758 13.084C151.584 12.3387 151.498 11.576 151.498 10.796ZM147.416 10.796C147.416 12.148 147.624 13.4133 148.04 14.592C148.456 15.7533 149.054 16.7673 149.834 17.634C150.614 18.5007 151.567 19.1853 152.694 19.688C153.838 20.1733 155.12 20.416 156.542 20.416C157.98 20.416 159.263 20.1733 160.39 19.688C161.516 19.1853 162.47 18.5007 163.25 17.634C164.03 16.7673 164.628 15.7533 165.044 14.592C165.46 13.4133 165.668 12.148 165.668 10.796C165.668 9.40933 165.46 8.12667 165.044 6.948C164.628 5.752 164.03 4.712 163.25 3.828C162.47 2.944 161.516 2.25067 160.39 1.748C159.263 1.24533 157.98 0.994 156.542 0.994C155.12 0.994 153.838 1.24533 152.694 1.748C151.567 2.25067 150.614 2.944 149.834 3.828C149.054 4.712 148.456 5.752 148.04 6.948C147.624 8.12667 147.416 9.40933 147.416 10.796ZM172.54 9.834V4.608H177.012C177.948 4.608 178.65 4.816 179.118 5.232C179.586 5.63067 179.82 6.28067 179.82 7.182C179.82 8.118 179.586 8.794 179.118 9.21C178.65 9.626 177.948 9.834 177.012 9.834H172.54ZM168.458 1.436V20H172.54V12.746H176.622C177.645 12.746 178.381 12.9713 178.832 13.422C179.283 13.8727 179.577 14.5833 179.716 15.554C179.82 16.2993 179.898 17.0793 179.95 17.894C180.002 18.7087 180.141 19.4107 180.366 20H184.448C184.257 19.74 184.11 19.428 184.006 19.064C183.919 18.6827 183.85 18.284 183.798 17.868C183.763 17.452 183.737 17.0447 183.72 16.646C183.703 16.2473 183.685 15.9007 183.668 15.606C183.633 15.138 183.564 14.67 183.46 14.202C183.373 13.734 183.226 13.3093 183.018 12.928C182.81 12.5293 182.541 12.1913 182.212 11.914C181.883 11.6193 181.467 11.4027 180.964 11.264V11.212C182.004 10.796 182.749 10.1893 183.2 9.392C183.668 8.59467 183.902 7.65 183.902 6.558C183.902 5.84733 183.772 5.18867 183.512 4.582C183.269 3.958 182.905 3.412 182.42 2.944C181.952 2.476 181.38 2.112 180.704 1.852C180.045 1.57467 179.3 1.436 178.468 1.436H168.458ZM187.222 1.436V20H201.314V16.568H191.304V12.018H200.3V8.846H191.304V4.868H201.106V1.436H187.222ZM203.43 10.7451C203.43 9.03548 203.823 7.44857 204.61 5.98438C205.406 4.52018 206.502 3.36914 207.898 2.53125C209.303 1.6849 210.818 1.26172 212.443 1.26172C214.068 1.26172 215.579 1.6849 216.976 2.53125C218.372 3.36914 219.464 4.52018 220.251 5.98438C221.047 7.44857 221.444 9.03548 221.444 10.7451C221.444 12.4124 221.063 13.974 220.302 15.4297C219.54 16.8854 218.457 18.0576 217.052 18.9463C215.655 19.8265 214.119 20.2666 212.443 20.2666C210.776 20.2666 209.24 19.8307 207.835 18.959C206.438 18.0788 205.355 16.9108 204.585 15.4551C203.815 13.9993 203.43 12.4294 203.43 10.7451ZM204.89 10.7451C204.89 12.2008 205.228 13.5508 205.905 14.7949C206.582 16.0306 207.501 16.9997 208.66 17.7021C209.828 18.4046 211.089 18.7559 212.443 18.7559C213.806 18.7559 215.071 18.4004 216.239 17.6895C217.407 16.9701 218.321 15.9967 218.981 14.7695C219.65 13.5423 219.984 12.2008 219.984 10.7451C219.984 9.29785 219.65 7.96484 218.981 6.74609C218.321 5.51888 217.407 4.55404 216.239 3.85156C215.071 3.14062 213.806 2.78516 212.443 2.78516C211.089 2.78516 209.828 3.13639 208.66 3.83887C207.492 4.53288 206.57 5.49772 205.893 6.7334C205.224 7.96908 204.89 9.30632 204.89 10.7451ZM210.577 11.6973V15.9883H208.787V5.20996H212.291C213.586 5.20996 214.589 5.48926 215.3 6.04785C216.019 6.59798 216.379 7.40202 216.379 8.45996C216.379 9.50098 215.837 10.2965 214.754 10.8467C215.786 11.2699 216.307 12.1331 216.315 13.4365V14.2109C216.315 14.9388 216.387 15.4635 216.531 15.7852V15.9883H214.69C214.572 15.6836 214.513 15.1419 214.513 14.3633C214.513 13.5762 214.5 13.1107 214.475 12.9668C214.339 12.1543 213.785 11.7311 212.812 11.6973H210.577ZM210.577 10.0723H212.558C213.167 10.0553 213.658 9.90723 214.03 9.62793C214.403 9.34863 214.589 8.98047 214.589 8.52344C214.589 7.9056 214.424 7.46973 214.094 7.21582C213.764 6.95345 213.175 6.82227 212.329 6.82227H210.577V10.0723Z" fill="white"/>
</svg>
